<svg width="80" height="80" viewBox="0 0 80 80" fill="none" xmlns="http://www.w3.org/2000/svg">
<path fill-rule="evenodd" clip-rule="evenodd" d="M0 80H80V0H0V80Z" fill="black"/>
<path fill-rule="evenodd" clip-rule="evenodd" d="M0 80H80V0H0V80Z" fill="#ED1C24"/>
<path fill-rule="evenodd" clip-rule="evenodd" d="M0 80H80V0H0V80Z" fill="black"/>
<path fill-rule="evenodd" clip-rule="evenodd" d="M0 80H80V0H0V80Z" fill="black"/>
<path fill-rule="evenodd" clip-rule="evenodd" d="M0 80H80V0H0V80Z" fill="#ED1C24"/>
<path fill-rule="evenodd" clip-rule="evenodd" d="M56.1738 47.0888L55.3944 51.1069C55.2465 51.9133 54.4402 52.5718 53.6339 52.5718H26.367C25.5472 52.5718 24.7543 51.9133 24.6065 51.1069L23.7061 46.4572L56.1738 47.0888ZM23.6927 46.4706L19.3789 24.4448C21.4619 23.5444 23.8674 24.9823 24.1496 27.3072C24.2437 28.0329 24.1362 28.7317 23.8943 29.3767C26.152 29.1886 28.1812 30.8281 28.4634 33.0992C28.7456 35.4241 27.0927 37.5474 24.7543 37.843C24.0018 37.9371 23.5718 37.8296 22.9133 37.5608C22.9133 37.7893 22.9401 38.0043 22.967 38.2328C23.518 42.6541 26.4207 44.5489 30.8823 44.5489C34.793 44.5489 38.9186 42.0896 38.9186 37.628C38.9186 37.3189 38.9186 37.0233 38.8783 36.7276C38.1929 37.2114 37.3329 37.4936 36.4191 37.4936C34.0673 37.4936 32.159 35.5854 32.159 33.2336C32.159 30.949 33.9598 29.0811 36.2309 28.987C35.9084 28.3823 35.7202 27.6969 35.7202 26.9712C35.7202 24.6195 37.6285 22.7112 39.9803 22.7112C42.332 22.7112 44.2403 24.6195 44.2403 26.9712C44.2403 27.6969 44.0522 28.3823 43.7297 28.987C46.0008 29.0811 47.815 30.949 47.815 33.2336C47.815 35.5854 45.9067 37.4936 43.555 37.4936C42.6546 37.4936 41.8079 37.198 41.1091 36.7142C41.0822 37.0099 41.0554 37.3189 41.0554 37.6146C41.0554 42.0762 45.0063 44.5355 49.1185 44.5355C53.5801 44.5355 56.4694 42.6003 57.007 38.179C57.0339 37.964 57.0607 37.7355 57.0742 37.5205C56.4291 37.7759 55.9857 37.8834 55.26 37.7893C52.9217 37.5071 51.2687 35.3838 51.5509 33.0455C51.8331 30.7743 53.8624 29.1348 56.12 29.323C55.8782 28.6914 55.7706 27.9791 55.8647 27.2534C56.1469 24.9151 58.2971 23.6384 60.6085 24.391L56.1738 47.0754L23.6927 46.4706Z" fill="white"/>
<path fill-rule="evenodd" clip-rule="evenodd" d="M58.2968 69.921C58.0818 69.921 57.7996 69.921 57.5577 69.6791C57.3158 69.4372 57.3158 69.155 57.3158 68.94V61.8578C57.3158 61.5353 57.3158 61.3874 57.4367 61.1859C57.5711 60.944 57.8265 60.7961 58.149 60.7961C58.4581 60.7961 58.7268 60.944 58.8478 61.1724C58.9553 61.3874 58.9687 61.5218 58.9687 61.8578V68.4159H61.8715C62.1671 68.4159 62.3284 68.4293 62.4896 68.5234C62.7181 68.6577 62.8391 68.8862 62.8391 69.1684C62.8391 69.4372 62.7047 69.6791 62.4896 69.8135C62.3149 69.9075 62.1671 69.921 61.8715 69.921H58.2968ZM12.1755 69.9747C11.8664 69.9747 11.5976 69.8269 11.4767 69.585C11.3692 69.37 11.3557 69.2356 11.3557 68.8996V62.355H9.86406C9.58185 62.355 9.42059 62.3416 9.24589 62.2475C9.01743 62.1131 8.89648 61.8847 8.89648 61.6025C8.89648 61.3337 9.03087 61.0918 9.24589 60.9574C9.42059 60.8633 9.56842 60.8499 9.86406 60.8499H14.4869C14.7826 60.8499 14.9439 60.8633 15.1051 60.9574C15.3336 61.0918 15.4545 61.3202 15.4545 61.6025C15.4545 61.8712 15.3201 62.1131 15.1051 62.2475C14.9304 62.3416 14.7826 62.355 14.4869 62.355H12.9953V68.9131C12.9953 69.2356 12.9953 69.3834 12.8743 69.585C12.7399 69.8269 12.4846 69.9747 12.1755 69.9747ZM17.5913 69.9747C17.2822 69.9747 17.0134 69.8269 16.879 69.585C16.7715 69.37 16.7581 69.2356 16.7581 68.8996V61.8578C16.7581 61.5353 16.7581 61.3874 16.879 61.1859C17.0134 60.944 17.2822 60.7961 17.5913 60.7961C17.9004 60.7961 18.1691 60.944 18.2901 61.1724C18.3976 61.3874 18.411 61.5218 18.411 61.8578V68.8996C18.411 69.2222 18.411 69.37 18.2901 69.5716C18.1557 69.8269 17.9004 69.9747 17.5913 69.9747ZM26.3801 69.9747C25.9366 69.9747 25.7351 69.6253 25.5872 69.3566L23.5177 65.7012L22.2141 67.2736V68.9131C22.2141 69.2356 22.2141 69.3834 22.0932 69.585C21.9588 69.8269 21.7035 69.9747 21.381 69.9747C21.0719 69.9747 20.8031 69.8269 20.6821 69.585C20.5746 69.37 20.5612 69.2356 20.5612 68.8996V61.8578C20.5612 61.5353 20.5612 61.3874 20.6821 61.1859C20.8165 60.944 21.0853 60.7961 21.3944 60.7961C21.7035 60.7961 21.9722 60.944 22.1066 61.1724C22.2141 61.3874 22.2276 61.5218 22.2276 61.8578V64.9352L25.2647 61.2531C25.4797 60.9977 25.6679 60.7961 25.9904 60.7961C26.1785 60.7961 26.3532 60.8633 26.5011 60.9843C26.6892 61.1455 26.7967 61.3606 26.7967 61.589C26.7967 61.8175 26.6892 61.9922 26.4607 62.261L24.6734 64.4246L27.0117 68.5368C27.173 68.8056 27.2402 68.9534 27.2402 69.155C27.2536 69.4372 27.1058 69.6791 26.837 69.8404C26.6623 69.9479 26.4876 69.9747 26.3801 69.9747ZM34.5105 69.9747C34.067 69.9747 33.8654 69.6253 33.7176 69.3566L31.648 65.7012L30.3445 67.2736V68.9131C30.3445 69.2356 30.3445 69.3834 30.2236 69.585C30.0892 69.8269 29.8204 69.9747 29.5113 69.9747C29.2022 69.9747 28.9334 69.8269 28.7991 69.585C28.6916 69.37 28.6781 69.2356 28.6781 68.8996V61.8578C28.6781 61.5353 28.6781 61.3874 28.7991 61.1859C28.9334 60.944 29.1888 60.7961 29.5113 60.7961C29.8204 60.7961 30.0892 60.944 30.2101 61.1724C30.3176 61.3874 30.3311 61.5218 30.3311 61.8578V64.9352L33.3682 61.2531C33.5832 60.9977 33.7713 60.7961 34.0939 60.7961C34.282 60.7961 34.4567 60.8633 34.6045 60.9843C34.7927 61.1455 34.9002 61.3606 34.9002 61.589C34.9002 61.8175 34.7927 61.9922 34.5642 62.261L32.7769 64.4246L35.1152 68.5368C35.263 68.8056 35.3302 68.9534 35.3437 69.155C35.3571 69.4372 35.2093 69.6791 34.9405 69.8404C34.7927 69.9479 34.6314 69.9747 34.5105 69.9747ZM48.742 64.7874C49.5617 64.7874 50.0724 64.3305 50.0724 63.5779C50.0724 62.8254 49.5617 62.3416 48.742 62.3416H46.9277V64.774L48.742 64.7874ZM50.9056 69.9747C50.4621 69.9747 50.2605 69.6253 50.1127 69.3566L48.3388 66.2388H46.9277V68.9131C46.9277 69.2356 46.9277 69.3834 46.8068 69.585C46.6724 69.8269 46.4171 69.9747 46.0945 69.9747C45.7855 69.9747 45.5167 69.8269 45.3957 69.585C45.2882 69.37 45.2748 69.2356 45.2748 68.8996V61.8175C45.2748 61.6025 45.2748 61.3203 45.5167 61.0784C45.7586 60.8365 46.0408 60.8365 46.2558 60.8365H48.836C50.5562 60.8365 51.7119 61.925 51.7119 63.5511C51.7119 64.7068 51.0937 65.5937 50.0589 65.97L51.5237 68.5368C51.6716 68.8056 51.7522 68.9534 51.7522 69.155C51.7656 69.4372 51.6178 69.6791 51.349 69.8404C51.2012 69.9479 51.0265 69.9747 50.9056 69.9747ZM54.3593 69.9747C54.0502 69.9747 53.7814 69.8269 53.647 69.585C53.5395 69.37 53.5261 69.2356 53.5261 68.8996V61.8578C53.5261 61.5353 53.5261 61.3874 53.647 61.1859C53.7814 60.944 54.0502 60.7961 54.3593 60.7961C54.6684 60.7961 54.9371 60.944 55.0581 61.1724C55.1656 61.3874 55.179 61.5218 55.179 61.8578V68.8996C55.179 69.2222 55.179 69.37 55.0581 69.5716C54.9371 69.8269 54.6684 69.9747 54.3593 69.9747ZM68.5773 66.7226L67.4082 63.5108L66.239 66.7226H68.5773ZM70.2975 69.9747C70.1228 69.9747 69.9615 69.921 69.8271 69.8135C69.6659 69.6925 69.5987 69.5447 69.4912 69.2356L69.088 68.1605H65.688L65.2849 69.2356C65.1774 69.5313 65.1102 69.6791 64.9489 69.8135C64.8145 69.921 64.6533 69.9747 64.492 69.9747C64.2635 69.9747 64.0351 69.8807 63.8873 69.7328C63.5513 69.3834 63.6991 68.9937 63.8066 68.6846L66.4809 61.5487C66.575 61.2934 66.6556 61.159 66.79 61.038C66.9513 60.8768 67.1394 60.8096 67.3813 60.8096C67.6232 60.8096 67.8113 60.8768 67.9726 61.038C68.107 61.159 68.1742 61.2934 68.2817 61.5487L70.9694 68.6846C71.0904 68.9937 71.2247 69.3834 70.8888 69.7328C70.7544 69.8807 70.5259 69.9747 70.2975 69.9747ZM39.98 70.0016C38.0717 70.0016 36.6875 68.6578 36.6875 66.8167V61.8712C36.6875 61.5487 36.6875 61.4009 36.8085 61.1993C36.9429 60.9574 37.1982 60.8096 37.5207 60.8096C37.8298 60.8096 38.0986 60.9574 38.2195 61.1859C38.327 61.4009 38.3405 61.5353 38.3405 61.8712V66.7629C38.3405 67.838 38.9721 68.5099 39.9934 68.5099C41.0148 68.5099 41.6464 67.838 41.6464 66.7629V61.8712C41.6464 61.5487 41.6464 61.4009 41.7673 61.1993C41.9017 60.9574 42.1705 60.8096 42.4796 60.8096C42.7887 60.8096 43.0574 60.9574 43.1784 61.1859C43.2859 61.4009 43.2993 61.5353 43.2993 61.8712V66.8167C43.2724 68.6578 41.8883 70.0016 39.98 70.0016Z" fill="white"/>
</svg>
