<svg width="129" height="100" viewBox="0 0 129 100" fill="none" xmlns="http://www.w3.org/2000/svg">
<path d="M128.953 69.1614C128.804 64.3841 128.804 50.6903 114.866 30.4142C103.478 13.816 87.6238 4.08504 75.6555 1.04498C66.4398 -1.30293 53.2437 -1.08578 30.1437 16.8424C10.4979 32.1106 -1.86161 61.4119 0.229799 74.9294C3.77845 97.8927 23.937 103.009 50.7745 96.2641C77.612 89.519 91.2534 85.9767 111.493 89.4511C126.929 92.084 129.398 84.131 128.953 69.1614Z" fill="url(#paint0_linear)"/>
<path d="M20.2 45L18.97 45L18.97 38L20.2 38L20.2 41.32L22.96 38L24.44 38L21.56 41.26L24.62 45L23.06 45L20.2 41.39L20.2 45ZM24.7781 41.5C24.7781 40.48 25.1181 39.6233 25.7981 38.93C26.4915 38.2367 27.3648 37.89 28.4181 37.89C29.4715 37.89 30.3415 38.2233 31.0281 38.89C31.7215 39.5633 32.0681 40.4333 32.0681 41.5C32.0681 42.5467 31.7215 43.41 31.0281 44.09C30.3348 44.77 29.4648 45.11 28.4181 45.11C27.3648 45.11 26.4948 44.7767 25.8081 44.11C25.1215 43.4433 24.7781 42.5733 24.7781 41.5ZM26.0781 41.5C26.0781 42.2067 26.3015 42.7933 26.7481 43.26C27.1948 43.7267 27.7515 43.96 28.4181 43.96C29.1381 43.96 29.7081 43.7267 30.1281 43.26C30.5548 42.7933 30.7681 42.2067 30.7681 41.5C30.7681 40.7867 30.5415 40.1967 30.0881 39.73C29.6348 39.27 29.0781 39.04 28.4181 39.04C27.7448 39.04 27.1848 39.27 26.7381 39.73C26.2981 40.19 26.0781 40.78 26.0781 41.5ZM34.7215 45L33.4915 45L33.4915 38L34.7315 38L37.1215 41.27L39.4015 38L40.5615 38L40.5615 45L39.3415 45L39.3415 39.94L37.1315 43.05L36.9515 43.05L34.7215 39.97L34.7215 45ZM42.8452 45L41.6052 45L44.5652 37.98L45.6452 37.98L48.6052 45L47.2952 45L46.5652 43.21L43.5752 43.21L42.8452 45ZM46.0952 42.06L45.0752 39.57L44.0452 42.06L46.0952 42.06ZM55.3036 45L54.0836 45L54.0836 42.01L50.8836 42.01L50.8836 45L49.6536 45L49.6536 38L50.8836 38L50.8836 40.86L54.0836 40.86L54.0836 38L55.3036 38L55.3036 45ZM57.5415 46.25L56.3915 46.25L56.3915 43.85L57.1415 43.85C57.3415 43.6167 57.5581 43.1 57.7915 42.3C58.0315 41.48 58.1748 40.5133 58.2215 39.4L58.2915 38L62.6315 38L62.6315 43.85L63.5815 43.85L63.5815 46.25L62.4315 46.25L62.4315 45L57.5415 45L57.5415 46.25ZM59.4815 39.15L59.3715 40.37C59.3115 41.21 59.1881 41.9467 59.0015 42.58C58.8081 43.24 58.6381 43.6633 58.4915 43.85L61.4115 43.85L61.4115 39.15L59.4815 39.15ZM65.1401 45L63.9001 45L66.8601 37.98L67.9401 37.98L70.9001 45L69.5901 45L68.8601 43.21L65.8701 43.21L65.1401 45ZM68.3901 42.06L67.3701 39.57L66.3401 42.06L68.3901 42.06ZM23.47 52L24.71 52L22.33 57.37C22.0833 57.93 21.8067 58.3433 21.5 58.61C21.2 58.87 20.8433 59 20.43 59C20.0167 59 19.6967 58.9067 19.47 58.72L19.9 57.68C20.0733 57.7933 20.2467 57.85 20.42 57.85C20.7333 57.85 20.9633 57.6867 21.11 57.36L21.21 57.12L18.12 52L19.51 52L21.8 55.91L23.47 52ZM25.7962 58.99L25.7962 52.02C26.5162 51.9867 27.1895 51.97 27.8162 51.97C28.5895 51.97 29.1662 52.1233 29.5462 52.43C29.9262 52.7367 30.1162 53.16 30.1162 53.7C30.1162 54.4533 29.7828 54.9833 29.1162 55.29L29.1162 55.31C29.4962 55.41 29.7962 55.6 30.0162 55.88C30.2362 56.1533 30.3462 56.5067 30.3462 56.94C30.3462 57.62 30.1128 58.14 29.6462 58.5C29.1795 58.86 28.5462 59.04 27.7462 59.04C26.9462 59.04 26.2962 59.0233 25.7962 58.99ZM27.8962 55.99L27.0262 55.99L27.0262 57.84C27.3395 57.8733 27.6095 57.89 27.8362 57.89C28.6895 57.89 29.1162 57.5533 29.1162 56.88C29.1162 56.5867 29.0095 56.3667 28.7962 56.22C28.5828 56.0667 28.2828 55.99 27.8962 55.99ZM27.7962 53.12C27.5028 53.12 27.2462 53.13 27.0262 53.15L27.0262 54.92L27.8562 54.92C28.1695 54.92 28.4195 54.84 28.6062 54.68C28.7995 54.52 28.8962 54.29 28.8962 53.99C28.8962 53.71 28.7995 53.4967 28.6062 53.35C28.4128 53.1967 28.1428 53.12 27.7962 53.12ZM37.318 59L36.098 59L36.098 53.15L34.058 53.15L33.918 54.47C33.838 55.27 33.7347 55.9533 33.608 56.52C33.4814 57.0867 33.3414 57.54 33.188 57.88C33.0347 58.22 32.8514 58.48 32.638 58.66C32.4314 58.84 32.2147 58.9533 31.988 59C31.768 59.04 31.5114 59.04 31.218 59L31.248 57.78C31.3947 57.8 31.5147 57.7933 31.608 57.76C31.7014 57.7267 31.8114 57.6333 31.938 57.48C32.078 57.3067 32.1914 57.0767 32.278 56.79C32.518 56.0767 32.6947 54.9467 32.808 53.4L32.908 52L37.318 52L37.318 59ZM43.4032 59L39.2532 59L39.2532 52L43.3032 52L43.3032 53.15L40.4832 53.15L40.4832 54.89L43.0032 54.89L43.0032 56.04L40.4832 56.04L40.4832 57.85L43.4032 57.85L43.4032 59ZM48.5052 52L49.7352 52L49.7352 59L48.5052 59L48.5052 56.13C48.0652 56.45 47.5085 56.61 46.8352 56.61C46.2285 56.61 45.7218 56.43 45.3152 56.07C44.9085 55.71 44.7052 55.1433 44.7052 54.37L44.7052 52L45.9352 52L45.9352 54.02C45.9352 54.98 46.3452 55.46 47.1652 55.46C47.6185 55.46 48.0652 55.31 48.5052 55.01L48.5052 52ZM55.8251 59L51.6751 59L51.6751 52L55.7251 52L55.7251 53.15L52.9051 53.15L52.9051 54.89L55.4251 54.89L55.4251 56.04L52.9051 56.04L52.9051 57.85L55.8251 57.85L55.8251 59ZM63.077 59L61.857 59L61.857 56.01L58.657 56.01L58.657 59L57.427 59L57.427 52L58.657 52L58.657 54.86L61.857 54.86L61.857 52L63.077 52L63.077 59ZM70.6649 59L69.4449 59L69.4449 56.01L66.2449 56.01L66.2449 59L65.0149 59L65.0149 52L66.2449 52L66.2449 54.86L69.4449 54.86L69.4449 52L70.6649 52L70.6649 59ZM79.3028 59L78.0828 59L78.0828 52L79.3028 52L79.3028 59ZM74.5128 55.5C74.4061 55.5 74.1795 55.5167 73.8328 55.55L73.8328 57.84C73.8861 57.84 73.9928 57.8467 74.1528 57.86C74.3128 57.8667 74.4261 57.87 74.4928 57.87C75.4128 57.87 75.8728 57.46 75.8728 56.64C75.8728 56.2667 75.7561 55.9833 75.5228 55.79C75.2895 55.5967 74.9528 55.5 74.5128 55.5ZM72.6028 52L73.8328 52L73.8328 54.4C74.1195 54.3667 74.3795 54.35 74.6128 54.35C75.4461 54.35 76.0795 54.55 76.5128 54.95C76.9528 55.3433 77.1728 55.8967 77.1728 56.61C77.1728 57.3567 76.9195 57.9467 76.4128 58.38C75.9128 58.8067 75.2228 59.02 74.3428 59.02C73.9695 59.02 73.6461 59.0167 73.3728 59.01C73.1061 59.0033 72.8495 59 72.6028 59L72.6028 52ZM85.3354 52L86.7754 52L84.4154 55.43L86.8654 59L85.4254 59L83.6154 56.37L81.8154 59L80.3754 59L82.8254 55.43L80.4854 52L81.9254 52L83.6454 54.53L85.3354 52ZM24.55 73L23.32 73L23.32 67.15L20.2 67.15L20.2 73L18.97 73L18.97 66L24.55 66L24.55 73ZM27.7195 70.47L27.7195 73L26.4895 73L26.4895 66C26.7829 66 27.0995 65.9967 27.4395 65.99C27.7862 65.9833 28.1329 65.98 28.4795 65.98C28.9729 65.98 29.3995 66.0433 29.7595 66.17C30.1262 66.29 30.4095 66.46 30.6095 66.68C30.8095 66.8933 30.9562 67.13 31.0495 67.39C31.1429 67.6433 31.1895 67.9233 31.1895 68.23C31.1895 68.8633 30.9629 69.4 30.5095 69.84C30.0629 70.28 29.4362 70.5 28.6295 70.5C28.2229 70.5 27.9195 70.49 27.7195 70.47ZM28.5995 67.13L27.7195 67.15L27.7195 69.3C28.0729 69.3333 28.3629 69.35 28.5895 69.35C28.9829 69.35 29.2962 69.2533 29.5295 69.06C29.7695 68.8667 29.8895 68.5867 29.8895 68.22C29.8895 67.4933 29.4595 67.13 28.5995 67.13ZM32.0438 69.5C32.0438 68.48 32.3838 67.6233 33.0638 66.93C33.7571 66.2367 34.6304 65.89 35.6838 65.89C36.7371 65.89 37.6071 66.2233 38.2938 66.89C38.9871 67.5633 39.3338 68.4333 39.3338 69.5C39.3338 70.5467 38.9871 71.41 38.2938 72.09C37.6004 72.77 36.7304 73.11 35.6838 73.11C34.6304 73.11 33.7604 72.7767 33.0738 72.11C32.3871 71.4433 32.0438 70.5733 32.0438 69.5ZM33.3438 69.5C33.3438 70.2067 33.5671 70.7933 34.0138 71.26C34.4604 71.7267 35.0171 71.96 35.6838 71.96C36.4038 71.96 36.9738 71.7267 37.3938 71.26C37.8204 70.7933 38.0338 70.2067 38.0338 69.5C38.0338 68.7867 37.8071 68.1967 37.3538 67.73C36.9004 67.27 36.3438 67.04 35.6838 67.04C35.0104 67.04 34.4504 67.27 34.0038 67.73C33.5638 68.19 33.3438 68.78 33.3438 69.5ZM44.5971 73.08L43.3671 73.08L43.3671 72.15C42.3938 72.15 41.6104 71.91 41.0171 71.43C40.4304 70.9433 40.1371 70.2667 40.1371 69.4C40.1371 68.54 40.4304 67.87 41.0171 67.39C41.6104 66.9033 42.3938 66.6567 43.3671 66.65L43.3671 65.92L44.5971 65.92L44.5971 66.65C45.5638 66.6567 46.3438 66.9067 46.9371 67.4C47.5304 67.8933 47.8271 68.56 47.8271 69.4C47.8271 70.2533 47.5304 70.9267 46.9371 71.42C46.3504 71.8933 45.5704 72.1367 44.5971 72.15L44.5971 73.08ZM46.5271 69.4C46.5271 68.9067 46.3604 68.5167 46.0271 68.23C45.6938 67.9367 45.2171 67.7867 44.5971 67.78L44.5971 71.02C45.8838 71.0133 46.5271 70.4733 46.5271 69.4ZM41.4371 69.4C41.4371 69.92 41.6038 70.32 41.9371 70.6C42.2704 70.8733 42.7471 71.0133 43.3671 71.02L43.3671 67.78C42.7538 67.7867 42.2771 67.9367 41.9371 68.23C41.6038 68.5167 41.4371 68.9067 41.4371 69.4ZM53.2958 73L49.1458 73L49.1458 66L53.1958 66L53.1958 67.15L50.3758 67.15L50.3758 68.89L52.8958 68.89L52.8958 70.04L50.3758 70.04L50.3758 71.85L53.2958 71.85L53.2958 73ZM59.7577 71.4L60.2277 72.32C60.0077 72.5533 59.6911 72.7433 59.2777 72.89C58.8711 73.0367 58.4411 73.11 57.9877 73.11C56.9211 73.11 56.0511 72.78 55.3777 72.12C54.7111 71.46 54.3777 70.5867 54.3777 69.5C54.3777 68.46 54.6944 67.5967 55.3277 66.91C55.9544 66.23 56.8311 65.89 57.9577 65.89C58.8511 65.89 59.5611 66.1267 60.0877 66.6L59.5377 67.51C59.0644 67.1967 58.5377 67.04 57.9577 67.04C57.2911 67.04 56.7444 67.2633 56.3177 67.71C55.8911 68.1567 55.6777 68.7533 55.6777 69.5C55.6777 70.2333 55.9011 70.8267 56.3477 71.28C56.8011 71.7333 57.3844 71.96 58.0977 71.96C58.7111 71.96 59.2644 71.7733 59.7577 71.4ZM66.0175 71.4L66.4875 72.32C66.2675 72.5533 65.9508 72.7433 65.5375 72.89C65.1308 73.0367 64.7008 73.11 64.2475 73.11C63.1808 73.11 62.3108 72.78 61.6375 72.12C60.9708 71.46 60.6375 70.5867 60.6375 69.5C60.6375 68.46 60.9542 67.5967 61.5875 66.91C62.2142 66.23 63.0908 65.89 64.2175 65.89C65.1108 65.89 65.8208 66.1267 66.3475 66.6L65.7975 67.51C65.3242 67.1967 64.7975 67.04 64.2175 67.04C63.5508 67.04 63.0042 67.2633 62.5775 67.71C62.1508 68.1567 61.9375 68.7533 61.9375 69.5C61.9375 70.2333 62.1608 70.8267 62.6075 71.28C63.0608 71.7333 63.6442 71.96 64.3575 71.96C64.9708 71.96 65.5242 71.7733 66.0175 71.4ZM72.4602 68.03L68.7902 73L67.7102 73L67.7102 66L68.9402 66L68.9402 70.98L72.6102 66L73.6902 66L73.6902 73L72.4602 73L72.4602 68.03ZM75.1102 69.5C75.1102 68.48 75.4502 67.6233 76.1302 66.93C76.8235 66.2367 77.6968 65.89 78.7502 65.89C79.8035 65.89 80.6735 66.2233 81.3602 66.89C82.0535 67.5633 82.4002 68.4333 82.4002 69.5C82.4002 70.5467 82.0535 71.41 81.3602 72.09C80.6668 72.77 79.7968 73.11 78.7502 73.11C77.6968 73.11 76.8268 72.7767 76.1402 72.11C75.4535 71.4433 75.1102 70.5733 75.1102 69.5ZM76.4102 69.5C76.4102 70.2067 76.6335 70.7933 77.0802 71.26C77.5268 71.7267 78.0835 71.96 78.7502 71.96C79.4702 71.96 80.0402 71.7267 80.4602 71.26C80.8868 70.7933 81.1002 70.2067 81.1002 69.5C81.1002 68.7867 80.8735 68.1967 80.4202 67.73C79.9668 67.27 79.4102 67.04 78.7502 67.04C78.0768 67.04 77.5168 67.27 77.0702 67.73C76.6302 68.19 76.4102 68.78 76.4102 69.5ZM89.4735 73L88.2535 73L88.2535 70.01L85.0535 70.01L85.0535 73L83.8235 73L83.8235 66L85.0535 66L85.0535 68.86L88.2535 68.86L88.2535 66L89.4735 66L89.4735 73ZM91.7514 73L90.5114 73L93.4714 65.98L94.5514 65.98L97.5114 73L96.2014 73L95.4714 71.21L92.4814 71.21L91.7514 73ZM95.0014 70.06L93.9814 67.57L92.9514 70.06L95.0014 70.06ZM103.851 73L102.631 73L102.631 67.15L100.591 67.15L100.451 68.47C100.371 69.27 100.268 69.9533 100.141 70.52C100.015 71.0867 99.8746 71.54 99.7212 71.88C99.5679 72.22 99.3846 72.48 99.1712 72.66C98.9646 72.84 98.7479 72.9533 98.5212 73C98.3012 73.04 98.0446 73.04 97.7512 73L97.7812 71.78C97.9279 71.8 98.0479 71.7933 98.1412 71.76C98.2346 71.7267 98.3446 71.6333 98.4712 71.48C98.6112 71.3067 98.7246 71.0767 98.8112 70.79C99.0512 70.0767 99.2279 68.9467 99.3412 67.4L99.4412 66L103.851 66L103.851 73ZM105.266 69.5C105.266 68.48 105.606 67.6233 106.286 66.93C106.98 66.2367 107.853 65.89 108.906 65.89C109.96 65.89 110.83 66.2233 111.516 66.89C112.21 67.5633 112.556 68.4333 112.556 69.5C112.556 70.5467 112.21 71.41 111.516 72.09C110.823 72.77 109.953 73.11 108.906 73.11C107.853 73.11 106.983 72.7767 106.296 72.11C105.61 71.4433 105.266 70.5733 105.266 69.5ZM106.566 69.5C106.566 70.2067 106.79 70.7933 107.236 71.26C107.683 71.7267 108.24 71.96 108.906 71.96C109.626 71.96 110.196 71.7267 110.616 71.26C111.043 70.7933 111.256 70.2067 111.256 69.5C111.256 68.7867 111.03 68.1967 110.576 67.73C110.123 67.27 109.566 67.04 108.906 67.04C108.233 67.04 107.673 67.27 107.226 67.73C106.786 68.19 106.566 68.78 106.566 69.5ZM113.98 72.99L113.98 66.02C114.7 65.9867 115.373 65.97 116 65.97C116.773 65.97 117.35 66.1233 117.73 66.43C118.11 66.7367 118.3 67.16 118.3 67.7C118.3 68.4533 117.966 68.9833 117.3 69.29L117.3 69.31C117.68 69.41 117.98 69.6 118.2 69.88C118.42 70.1533 118.53 70.5067 118.53 70.94C118.53 71.62 118.296 72.14 117.83 72.5C117.363 72.86 116.73 73.04 115.93 73.04C115.13 73.04 114.48 73.0233 113.98 72.99ZM116.08 69.99L115.21 69.99L115.21 71.84C115.523 71.8733 115.793 71.89 116.02 71.89C116.873 71.89 117.3 71.5533 117.3 70.88C117.3 70.5867 117.193 70.3667 116.98 70.22C116.766 70.0667 116.466 69.99 116.08 69.99ZM115.98 67.12C115.686 67.12 115.43 67.13 115.21 67.15L115.21 68.92L116.04 68.92C116.353 68.92 116.603 68.84 116.79 68.68C116.983 68.52 117.08 68.29 117.08 67.99C117.08 67.71 116.983 67.4967 116.79 67.35C116.596 67.1967 116.326 67.12 115.98 67.12Z" fill="white"/>
<defs>
<linearGradient id="paint0_linear" x1="122.551" y1="92.3185" x2="15.6971" y2="30.984" gradientUnits="userSpaceOnUse">
<stop stop-color="#EE3D43"/>
<stop offset="0.135417" stop-color="#EE3D43"/>
<stop offset="0.223958" stop-color="#EE3D43"/>
<stop offset="0.333333" stop-color="#EE3D43"/>
<stop offset="0.432292" stop-color="#EE3D43"/>
<stop offset="0.666667" stop-color="#EE3D43"/>
<stop offset="0.8032" stop-color="#EE3D43"/>
<stop offset="1" stop-color="#EE3D43"/>
</linearGradient>
</defs>
</svg>
