<svg width="156" height="132" viewBox="0 0 156 132" fill="none" xmlns="http://www.w3.org/2000/svg">
	<rect width="156" height="132" fill="white"/>
	<path d="M132.489 31.8595C143.889 41.6576 149.331 56.2595 148.289 76.0595C147.246 95.8595 132.489 102.859 122.689 109.858C112.889 116.856 93.362 118.459 75.8885 118.459C52.6885 118.459 28.4865 109.858 15.6868 91.0595C7.50135 79.0379 2.89856 57.2556 12.8883 40.8576C22.878 24.4596 39.8885 7.05971 62.0883 16.0584C79.9987 23.3184 119.889 21.03 132.489 31.8595Z" stroke="#EE3D43" fill="#EE3D43" stroke-width="2"/>
	<path d="M38.1995 53.601H36.4898V52.4885C35.1368 52.4885 34.048 52.2014 33.2232 51.6272C32.4077 51.045 32 50.2355 32 49.1988C32 48.17 32.4077 47.3686 33.2232 46.7944C34.048 46.2122 35.1368 45.9171 36.4898 45.9091V45.0359L38.1995 45.0359V45.9091C39.5432 45.9171 40.6274 46.2162 41.4521 46.8063C42.2769 47.3965 42.6893 48.194 42.6893 49.1988C42.6893 50.2196 42.2769 51.0251 41.4521 51.6152C40.6367 52.1814 39.5525 52.4725 38.1995 52.4885V53.601ZM40.8822 49.1988C40.8822 48.6087 40.6506 48.1421 40.1872 47.7992C39.7239 47.4483 39.0613 47.2689 38.1995 47.2609V51.1367C39.988 51.1287 40.8822 50.4828 40.8822 49.1988ZM33.807 49.1988C33.807 49.8208 34.0387 50.2993 34.502 50.6343C34.9654 50.9613 35.628 51.1287 36.4898 51.1367V47.2609C35.6372 47.2689 34.9746 47.4483 34.502 47.7992C34.0387 48.1421 33.807 48.6087 33.807 49.1988Z" fill="#FFFFFF"/>
	<path d="M43.7994 49.3184C43.7994 48.0983 44.272 47.0735 45.2173 46.2441C46.181 45.4147 47.395 45 48.8591 45C50.3233 45 51.5326 45.3987 52.4871 46.1962C53.4508 47.0017 53.9327 48.0424 53.9327 49.3184C53.9327 50.5705 53.4508 51.6032 52.4871 52.4167C51.5233 53.2301 50.314 53.6369 48.8591 53.6369C47.395 53.6369 46.1856 53.2381 45.2312 52.4406C44.2767 51.6431 43.7994 50.6024 43.7994 49.3184ZM45.6065 49.3184C45.6065 50.1638 45.9169 50.8656 46.5378 51.4238C47.1587 51.9821 47.9324 52.2612 48.8591 52.2612C49.8599 52.2612 50.6522 51.9821 51.2361 51.4238C51.8291 50.8656 52.1257 50.1638 52.1257 49.3184C52.1257 48.4651 51.8106 47.7593 51.1805 47.2011C50.5503 46.6508 49.7765 46.3757 48.8591 46.3757C47.9232 46.3757 47.1448 46.6508 46.5239 47.2011C45.9123 47.7514 45.6065 48.4571 45.6065 49.3184Z" fill="#FFFFFF"/>
	<path d="M57.6209 53.5053H55.9112V45.1316H57.6209V49.1031L61.4574 45.1316H63.5146L59.5114 49.0313L63.7648 53.5053H61.5964L57.6209 49.1868V53.5053Z" fill="#FFFFFF"/>
	<path d="M71.4376 45.1316H73.1613L69.853 51.5554C69.5101 52.2253 69.1256 52.7197 68.6993 53.0387C68.2823 53.3498 67.7865 53.5053 67.212 53.5053C66.6374 53.5053 66.1926 53.3936 65.8775 53.1703L66.4753 51.9262C66.7162 52.0618 66.9571 52.1296 67.1981 52.1296C67.6336 52.1296 67.9533 51.9342 68.1572 51.5434L68.2962 51.2563L64.001 45.1316L65.9331 45.1316L69.1163 49.8089L71.4376 45.1316Z" fill="#FFFFFF"/>
	<path d="M80.9786 51.5913L81.6319 52.6918C81.3261 52.9709 80.8859 53.1982 80.3114 53.3737C79.7461 53.5491 79.1484 53.6369 78.5183 53.6369C77.0356 53.6369 75.8263 53.2421 74.8903 52.4526C73.9636 51.6631 73.5003 50.6183 73.5003 49.3184C73.5003 48.0743 73.9405 47.0416 74.8208 46.2202C75.6919 45.4067 76.9105 45 78.4766 45C79.7183 45 80.7052 45.2831 81.4373 45.8493L80.6728 46.9379C80.0149 46.5631 79.2828 46.3757 78.4766 46.3757C77.5499 46.3757 76.79 46.6428 76.1969 47.1772C75.6039 47.7115 75.3073 48.4252 75.3073 49.3184C75.3073 50.1957 75.6178 50.9054 76.2386 51.4477C76.8688 51.99 77.6796 52.2612 78.6712 52.2612C79.5237 52.2612 80.2929 52.0379 80.9786 51.5913Z" fill="#FFFFFF"/>
	<path d="M94.1308 53.5053H92.435V49.9285H87.9869V53.5053H86.2772V45.1316L87.9869 45.1316V48.5528H92.435V45.1316L94.1308 45.1316V53.5053Z" fill="#FFFFFF"/>
	<path d="M97.2971 53.5053H95.5735L99.688 45.1077H101.189L105.304 53.5053H103.483L102.468 51.364H98.3119L97.2971 53.5053ZM101.815 49.9883L100.397 47.0097L98.9652 49.9883H101.815Z" fill="#FFFFFF"/>
	<path d="M34.5715 70.2526H32.8618V61.879H34.5715V65.8505L38.408 61.879H40.4652L36.462 65.7787L40.7154 70.2526H38.547L34.5715 65.9342V70.2526Z" fill="#FFFFFF"/>
	<path d="M43.9107 67.2261V70.2526H42.201V61.879C42.6088 61.879 43.0489 61.875 43.5215 61.867C44.0034 61.859 44.4853 61.855 44.9672 61.855C45.6529 61.855 46.246 61.9308 46.7464 62.0823C47.2561 62.2259 47.6499 62.4292 47.9279 62.6924C48.2059 62.9476 48.4098 63.2307 48.5395 63.5417C48.6693 63.8448 48.7341 64.1797 48.7341 64.5466C48.7341 65.3042 48.4191 65.9462 47.7889 66.4725C47.168 66.9989 46.297 67.262 45.1757 67.262C44.6104 67.262 44.1888 67.2501 43.9107 67.2261ZM45.134 63.2307L43.9107 63.2546V65.8265C44.4019 65.8664 44.805 65.8864 45.1201 65.8864C45.6668 65.8864 46.1024 65.7707 46.4267 65.5394C46.7603 65.3082 46.9271 64.9732 46.9271 64.5346C46.9271 63.6653 46.3294 63.2307 45.134 63.2307Z" fill="#FFFFFF"/>
	<path d="M56.4808 70.2526H50.7122V61.879H56.3418V63.2546H52.4219V65.3361H55.9248V66.7118H52.4219V68.877H56.4808V70.2526Z" fill="#FFFFFF"/>
	<path d="M59.1801 70.2526H57.4565L61.571 61.855H63.0722L67.1867 70.2526H65.3657L64.351 68.1114H60.1949L59.1801 70.2526ZM63.6977 66.7357L62.2799 63.757L60.8482 66.7357H63.6977Z" fill="#FFFFFF"/>
	<path d="M69.7349 63.2546H66.5795V61.879H74.5999V63.2546H71.4446V70.2526H69.7349V63.2546Z" fill="#FFFFFF"/>
	<path d="M82.6854 64.3073L77.584 70.2526H76.0828V61.879H77.7925V67.8362L82.8939 61.879H84.3951V70.2526H82.6854V64.3073Z" fill="#FFFFFF"/>
	<path d="M87.0917 70.2407V61.9029C88.0925 61.863 89.0284 61.8431 89.8995 61.8431C90.9745 61.8431 91.776 62.0265 92.3042 62.3933C92.8325 62.7602 93.0966 63.2666 93.0966 63.9126C93.0966 64.8137 92.6332 65.4477 91.7065 65.8146V65.8385C92.2347 65.9581 92.6518 66.1854 92.9576 66.5204C93.2634 66.8473 93.4163 67.27 93.4163 67.7884C93.4163 68.6018 93.0919 69.2239 92.4433 69.6545C91.7946 70.0852 90.9142 70.3005 89.8022 70.3005C88.6902 70.3005 87.7867 70.2805 87.0917 70.2407ZM90.0107 66.652H88.8014V68.865C89.2369 68.9049 89.6122 68.9248 89.9273 68.9248C91.1135 68.9248 91.7065 68.5221 91.7065 67.7166C91.7065 67.3657 91.5583 67.1025 91.2617 66.9271C90.9652 66.7437 90.5482 66.652 90.0107 66.652ZM89.8717 63.2187C89.464 63.2187 89.1072 63.2307 88.8014 63.2546V65.372H89.9551C90.3907 65.372 90.7382 65.2763 90.9976 65.0849C91.2664 64.8935 91.4007 64.6183 91.4007 64.2595C91.4007 63.9245 91.2664 63.6693 90.9976 63.4939C90.7289 63.3105 90.3536 63.2187 89.8717 63.2187Z" fill="#FFFFFF"/>
	<path d="M103.524 70.2526H101.828V66.6759H97.3804V70.2526H95.6707V61.879H97.3804V65.3002H101.828V61.879H103.524V70.2526Z" fill="#FFFFFF"/>
	<path d="M115.531 70.2526H113.835V61.879H115.531V70.2526ZM108.873 66.0658C108.725 66.0658 108.41 66.0857 107.928 66.1256V68.865C108.002 68.865 108.15 68.873 108.373 68.8889C108.595 68.8969 108.753 68.9009 108.845 68.9009C110.124 68.9009 110.763 68.4104 110.763 67.4295C110.763 66.9829 110.601 66.644 110.277 66.4127C109.953 66.1814 109.485 66.0658 108.873 66.0658ZM106.218 61.879H107.928V64.7499C108.326 64.7101 108.688 64.6901 109.012 64.6901C110.17 64.6901 111.051 64.9294 111.653 65.4079C112.265 65.8784 112.57 66.5403 112.57 67.3936C112.57 68.2868 112.218 68.9926 111.514 69.511C110.819 70.0214 109.86 70.2766 108.637 70.2766C108.118 70.2766 107.668 70.2726 107.288 70.2646C106.918 70.2566 106.561 70.2526 106.218 70.2526V61.879Z" fill="#FFFFFF"/>
	<path d="M124 70.2526H118.231V61.879H123.861V63.2546H119.941V65.3361H123.444V66.7118H119.941V68.877H124V70.2526Z" fill="#FFFFFF"/>
	<path d="M34.5715 83.9735V87H32.8618L32.8618 78.6263C33.2696 78.6263 33.7097 78.6223 34.1823 78.6144C34.6642 78.6064 35.1461 78.6024 35.628 78.6024C36.3137 78.6024 36.9068 78.6782 37.4072 78.8297C37.9169 78.9732 38.3107 79.1766 38.5887 79.4398C38.8667 79.695 39.0706 79.9781 39.2003 80.2891C39.33 80.5921 39.3949 80.9271 39.3949 81.2939C39.3949 82.0516 39.0798 82.6935 38.4497 83.2199C37.8288 83.7462 36.9577 84.0094 35.8365 84.0094C35.2712 84.0094 34.8495 83.9974 34.5715 83.9735ZM35.7948 79.9781L34.5715 80.002V82.5739C35.0627 82.6138 35.4658 82.6337 35.7809 82.6337C36.3276 82.6337 36.7631 82.5181 37.0875 82.2868C37.4211 82.0555 37.5879 81.7206 37.5879 81.282C37.5879 80.4127 36.9902 79.9781 35.7948 79.9781Z" fill="#FFFFFF"/>
	<path d="M47.1416 87H41.373V78.6263H47.0026V80.002H43.0827V82.0835H46.5856V83.4591H43.0827V85.6243H47.1416V87Z" fill="#FFFFFF"/>
	<path d="M60.5302 87H49.3683V78.6263H51.078V85.6243H54.0944V78.6263H55.8041V85.6243H58.8205V78.6263H60.5302V87Z" fill="#FFFFFF"/>
	<path d="M68.9964 87H63.2278V78.6263H68.8574V80.002H64.9375V82.0835H68.4404V83.4591L64.9375 83.4591V85.6243H68.9964V87Z" fill="#FFFFFF"/>
	<path d="M79.0768 87H77.381V83.4232H72.9329V87H71.2232V78.6263H72.9329V82.0476H77.381V78.6263H79.0768V87Z" fill="#FFFFFF"/>
	<path d="M88.3731 81.0547L83.2717 87H81.7705V78.6263H83.4802V84.5836L88.5816 78.6263H90.0828V87H88.3731V81.0547Z" fill="#FFFFFF"/>
	<path d="M98.8676 87H97.1718V84.1051H95.7679L93.5856 87H91.6673L94.1555 83.806C93.6365 83.5827 93.2195 83.2717 92.9045 82.873C92.5987 82.4742 92.4457 82.0117 92.4457 81.4853C92.4457 80.648 92.7794 79.9581 93.4466 79.4158C94.1138 78.8656 95.1146 78.5904 96.449 78.5904C96.4675 78.5904 96.8753 78.5984 97.6722 78.6144C98.08 78.6223 98.4784 78.6263 98.8676 78.6263V87ZM95.615 82.7294H97.1718V80.002C96.6992 79.9781 96.3424 79.9661 96.1015 79.9661C95.5455 79.9661 95.0961 80.0977 94.7532 80.3609C94.4196 80.624 94.2528 80.967 94.2528 81.3896C94.2528 81.7405 94.3779 82.0356 94.6281 82.2749C94.8876 82.5061 95.2165 82.6576 95.615 82.7294Z" fill="#FFFFFF"/>
</svg>
