<svg width="180" height="130" viewBox="0 0 180 130" fill="none" xmlns="http://www.w3.org/2000/svg">
<path d="M128.942 26.8104C121.104 19.2982 109.511 13.9564 98.7469 15.6353C86.9276 17.474 78.4139 17.5286 68.9704 14.0151C59.9413 10.6678 45.3808 0.667198 31.2303 5.23293C13.6006 10.9138 9.52619 31.5774 16.2894 51.9446C23.8482 74.6994 45.4475 106.738 78.3152 114.834C110.454 122.748 132.473 102.31 139.268 85.4105C148.689 61.9531 139.678 37.0808 128.942 26.8104Z" fill="#EE3D43"/>
<path d="M55.81 48.08L54.58 48.08L54.58 47.15C53.6067 47.15 52.8233 46.91 52.23 46.43C51.6433 45.9433 51.35 45.2667 51.35 44.4C51.35 43.54 51.6433 42.87 52.23 42.39C52.8233 41.9033 53.6067 41.6567 54.58 41.65L54.58 40.92L55.81 40.92L55.81 41.65C56.7767 41.6567 57.5567 41.9067 58.15 42.4C58.7433 42.8933 59.04 43.56 59.04 44.4C59.04 45.2533 58.7433 45.9267 58.15 46.42C57.5633 46.8933 56.7833 47.1367 55.81 47.15L55.81 48.08ZM57.74 44.4C57.74 43.9067 57.5733 43.5167 57.24 43.23C56.9067 42.9367 56.43 42.7867 55.81 42.78L55.81 46.02C57.0967 46.0133 57.74 45.4733 57.74 44.4ZM52.65 44.4C52.65 44.92 52.8167 45.32 53.15 45.6C53.4833 45.8733 53.96 46.0133 54.58 46.02L54.58 42.78C53.9667 42.7867 53.49 42.9367 53.15 43.23C52.8167 43.5167 52.65 43.9067 52.65 44.4ZM59.8387 44.5C59.8387 43.48 60.1787 42.6233 60.8587 41.93C61.552 41.2367 62.4253 40.89 63.4787 40.89C64.532 40.89 65.402 41.2233 66.0887 41.89C66.782 42.5633 67.1287 43.4333 67.1287 44.5C67.1287 45.5467 66.782 46.41 66.0887 47.09C65.3953 47.77 64.5253 48.11 63.4787 48.11C62.4253 48.11 61.5553 47.7767 60.8687 47.11C60.182 46.4433 59.8387 45.5733 59.8387 44.5ZM61.1387 44.5C61.1387 45.2067 61.362 45.7933 61.8087 46.26C62.2553 46.7267 62.812 46.96 63.4787 46.96C64.1987 46.96 64.7687 46.7267 65.1887 46.26C65.6153 45.7933 65.8287 45.2067 65.8287 44.5C65.8287 43.7867 65.602 43.1967 65.1487 42.73C64.6953 42.27 64.1387 42.04 63.4787 42.04C62.8053 42.04 62.2453 42.27 61.7987 42.73C61.3587 43.19 61.1387 43.78 61.1387 44.5ZM69.782 48L68.552 48L68.552 41L69.782 41L69.782 44.32L72.542 41L74.022 41L71.142 44.26L74.202 48L72.642 48L69.782 44.39L69.782 48ZM79.722 41L80.962 41L78.582 46.37C78.3353 46.93 78.0586 47.3433 77.752 47.61C77.452 47.87 77.0953 48 76.682 48C76.2686 48 75.9486 47.9067 75.722 47.72L76.152 46.68C76.3253 46.7933 76.4986 46.85 76.672 46.85C76.9853 46.85 77.2153 46.6867 77.362 46.36L77.462 46.12L74.372 41L75.762 41L78.052 44.91L79.722 41ZM86.5859 46.4L87.0559 47.32C86.8359 47.5533 86.5192 47.7433 86.1059 47.89C85.6992 48.0367 85.2692 48.11 84.8159 48.11C83.7492 48.11 82.8792 47.78 82.2059 47.12C81.5392 46.46 81.2059 45.5867 81.2059 44.5C81.2059 43.46 81.5225 42.5967 82.1559 41.91C82.7825 41.23 83.6592 40.89 84.7859 40.89C85.6792 40.89 86.3892 41.1267 86.9159 41.6L86.3659 42.51C85.8925 42.1967 85.3659 42.04 84.7859 42.04C84.1192 42.04 83.5725 42.2633 83.1459 42.71C82.7192 43.1567 82.5059 43.7533 82.5059 44.5C82.5059 45.2333 82.7292 45.8267 83.1759 46.28C83.6292 46.7333 84.2125 46.96 84.9259 46.96C85.5392 46.96 86.0925 46.7733 86.5859 46.4ZM96.0477 48L94.8277 48L94.8277 45.01L91.6277 45.01L91.6277 48L90.3977 48L90.3977 41L91.6277 41L91.6277 43.86L94.8277 43.86L94.8277 41L96.0477 41L96.0477 48ZM98.3256 48L97.0856 48L100.046 40.98L101.126 40.98L104.086 48L102.776 48L102.046 46.21L99.0556 46.21L98.3256 48ZM101.576 45.06L100.556 42.57L99.5256 45.06L101.576 45.06ZM53.2 62L51.97 62L51.97 55L53.2 55L53.2 58.32L55.96 55L57.44 55L54.56 58.26L57.62 62L56.06 62L53.2 58.39L53.2 62ZM59.9188 59.47L59.9188 62L58.6887 62L58.6887 55C58.9821 55 59.2987 54.9967 59.6387 54.99C59.9854 54.9833 60.3321 54.98 60.6787 54.98C61.1721 54.98 61.5988 55.0433 61.9588 55.17C62.3254 55.29 62.6088 55.46 62.8087 55.68C63.0088 55.8933 63.1554 56.13 63.2488 56.39C63.3421 56.6433 63.3888 56.9233 63.3888 57.23C63.3888 57.8633 63.1621 58.4 62.7088 58.84C62.2621 59.28 61.6354 59.5 60.8288 59.5C60.4221 59.5 60.1187 59.49 59.9188 59.47ZM60.7988 56.13L59.9188 56.15L59.9188 58.3C60.2721 58.3333 60.5621 58.35 60.7888 58.35C61.1821 58.35 61.4954 58.2533 61.7288 58.06C61.9688 57.8667 62.0887 57.5867 62.0887 57.22C62.0887 56.4933 61.6588 56.13 60.7988 56.13ZM68.9618 62L64.8118 62L64.8118 55L68.8618 55L68.8618 56.15L66.0418 56.15L66.0418 57.89L68.5618 57.89L68.5618 59.04L66.0418 59.04L66.0418 60.85L68.9618 60.85L68.9618 62ZM70.9038 62L69.6637 62L72.6237 54.98L73.7038 54.98L76.6638 62L75.3538 62L74.6238 60.21L71.6338 60.21L70.9038 62ZM74.1538 59.06L73.1337 56.57L72.1038 59.06L74.1538 59.06ZM78.497 56.15L76.227 56.15L76.227 55L81.997 55L81.997 56.15L79.727 56.15L79.727 62L78.497 62L78.497 56.15ZM87.8138 57.03L84.1438 62L83.0637 62L83.0637 55L84.2938 55L84.2938 59.98L87.9638 55L89.0438 55L89.0438 62L87.8138 62L87.8138 57.03ZM90.9837 61.99L90.9837 55.02C91.7037 54.9867 92.377 54.97 93.0037 54.97C93.777 54.97 94.3537 55.1233 94.7337 55.43C95.1137 55.7367 95.3037 56.16 95.3037 56.7C95.3037 57.4533 94.9703 57.9833 94.3037 58.29L94.3037 58.31C94.6837 58.41 94.9837 58.6 95.2037 58.88C95.4237 59.1533 95.5337 59.5067 95.5337 59.94C95.5337 60.62 95.3003 61.14 94.8337 61.5C94.367 61.86 93.7337 62.04 92.9337 62.04C92.1337 62.04 91.4837 62.0233 90.9837 61.99ZM93.0837 58.99L92.2137 58.99L92.2137 60.84C92.527 60.8733 92.797 60.89 93.0237 60.89C93.877 60.89 94.3037 60.5533 94.3037 59.88C94.3037 59.5867 94.197 59.3667 93.9837 59.22C93.7703 59.0667 93.4703 58.99 93.0837 58.99ZM92.9837 56.12C92.6903 56.12 92.4337 56.13 92.2137 56.15L92.2137 57.92L93.0437 57.92C93.357 57.92 93.607 57.84 93.7937 57.68C93.987 57.52 94.0837 57.29 94.0837 56.99C94.0837 56.71 93.987 56.4967 93.7937 56.35C93.6003 56.1967 93.3303 56.12 92.9837 56.12ZM102.806 62L101.586 62L101.586 59.01L98.3855 59.01L98.3855 62L97.1555 62L97.1555 55L98.3855 55L98.3855 57.86L101.586 57.86L101.586 55L102.806 55L102.806 62ZM111.443 62L110.223 62L110.223 55L111.443 55L111.443 62ZM106.653 58.5C106.547 58.5 106.32 58.5167 105.973 58.55L105.973 60.84C106.027 60.84 106.133 60.8467 106.293 60.86C106.453 60.8667 106.567 60.87 106.633 60.87C107.553 60.87 108.013 60.46 108.013 59.64C108.013 59.2667 107.897 58.9833 107.663 58.79C107.43 58.5967 107.093 58.5 106.653 58.5ZM104.743 55L105.973 55L105.973 57.4C106.26 57.3667 106.52 57.35 106.753 57.35C107.587 57.35 108.22 57.55 108.653 57.95C109.093 58.3433 109.313 58.8967 109.313 59.61C109.313 60.3567 109.06 60.9467 108.553 61.38C108.053 61.8067 107.363 62.02 106.483 62.02C106.11 62.02 105.787 62.0167 105.513 62.01C105.247 62.0033 104.99 62 104.743 62L104.743 55ZM117.536 62L113.386 62L113.386 55L117.436 55L117.436 56.15L114.616 56.15L114.616 57.89L117.136 57.89L117.136 59.04L114.616 59.04L114.616 60.85L117.536 60.85L117.536 62ZM53.2 73.47L53.2 76L51.97 76L51.97 69C52.2633 69 52.58 68.9967 52.92 68.99C53.2667 68.9833 53.6133 68.98 53.96 68.98C54.4533 68.98 54.88 69.0433 55.24 69.17C55.6067 69.29 55.89 69.46 56.09 69.68C56.29 69.8933 56.4367 70.13 56.53 70.39C56.6233 70.6433 56.67 70.9233 56.67 71.23C56.67 71.8633 56.4433 72.4 55.99 72.84C55.5433 73.28 54.9167 73.5 54.11 73.5C53.7033 73.5 53.4 73.49 53.2 73.47ZM54.08 70.13L53.2 70.15L53.2 72.3C53.5533 72.3333 53.8433 72.35 54.07 72.35C54.4633 72.35 54.7767 72.2533 55.01 72.06C55.25 71.8667 55.37 71.5867 55.37 71.22C55.37 70.4933 54.94 70.13 54.08 70.13ZM62.243 76L58.093 76L58.093 69L62.143 69L62.143 70.15L59.323 70.15L59.323 71.89L61.843 71.89L61.843 73.04L59.323 73.04L59.323 74.85L62.243 74.85L62.243 76ZM71.875 76L63.845 76L63.845 69L65.075 69L65.075 74.85L67.245 74.85L67.245 69L68.475 69L68.475 74.85L70.645 74.85L70.645 69L71.875 69L71.875 76ZM77.9657 76L73.8157 76L73.8157 69L77.8657 69L77.8657 70.15L75.0457 70.15L75.0457 71.89L77.5657 71.89L77.5657 73.04L75.0457 73.04L75.0457 74.85L77.9657 74.85L77.9657 76ZM85.2177 76L83.9977 76L83.9977 73.01L80.7977 73.01L80.7977 76L79.5677 76L79.5677 69L80.7977 69L80.7977 71.86L83.9977 71.86L83.9977 69L85.2177 69L85.2177 76ZM91.9055 71.03L88.2355 76L87.1555 76L87.1555 69L88.3855 69L88.3855 73.98L92.0555 69L93.1355 69L93.1355 76L91.9055 76L91.9055 71.03ZM99.4555 76L98.2355 76L98.2355 73.58L97.2255 73.58L95.6555 76L94.2755 76L96.0655 73.33C95.6921 73.1433 95.3921 72.8833 95.1655 72.55C94.9455 72.2167 94.8355 71.83 94.8355 71.39C94.8355 70.69 95.0755 70.1133 95.5555 69.66C96.0355 69.2 96.7555 68.97 97.7155 68.97C97.7288 68.97 98.0221 68.9767 98.5955 68.99C98.8888 68.9967 99.1755 69 99.4555 69L99.4555 76ZM97.1155 72.43L98.2355 72.43L98.2355 70.15C97.8955 70.13 97.6388 70.12 97.4655 70.12C97.0655 70.12 96.7421 70.23 96.4955 70.45C96.2555 70.67 96.1355 70.9567 96.1355 71.31C96.1355 71.6033 96.2255 71.85 96.4055 72.05C96.5921 72.2433 96.8288 72.37 97.1155 72.43Z" fill="white"/>
</svg>
