<svg width="56" height="80" viewBox="0 0 56 80" fill="none" xmlns="http://www.w3.org/2000/svg">
<path d="M27.995 38.7112C24.6207 38.7112 21.879 41.4528 21.879 44.8272C21.879 48.2015 24.6207 50.9432 27.995 50.9432C31.3694 50.9432 34.111 48.2015 34.111 44.8272C34.111 41.4528 31.3694 38.7112 27.995 38.7112ZM40.2973 0C42.0313 0 43.4608 1.40598 43.4608 3.16344V6.28002C43.4608 10.4745 41.8673 14.4112 38.9382 17.3638C36.8995 19.4728 34.2985 20.9256 31.4397 21.5817L31.1585 21.652V29.6895L31.4397 29.7598C34.2985 30.4159 36.8761 31.8688 38.9382 33.9777C41.8439 36.9303 43.4373 40.867 43.4373 45.0615V48.1781C43.4373 49.9121 42.0313 51.3415 40.2739 51.3415C38.5164 51.3415 37.1104 49.9121 37.1104 48.1781V45.0615C37.1104 42.5542 36.1497 40.1875 34.4156 38.4066C32.6816 36.6491 30.4086 35.6883 27.9716 35.6649C25.558 35.6649 23.2616 36.6491 21.5275 38.4066C19.7935 40.1875 18.8327 42.5308 18.8327 45.0615V48.1781C18.8327 49.9121 17.4268 51.3415 15.6693 51.3415C13.9353 51.3415 12.5059 49.9121 12.5059 48.1781V45.0615C12.5059 40.8905 14.0993 36.9537 17.0284 33.9777C19.0905 31.8688 21.6681 30.4159 24.5269 29.7598L24.8081 29.6895V21.652L24.5269 21.5817C21.6681 20.9256 19.0905 19.4493 17.0284 17.3638C14.1462 14.3878 12.5293 10.4511 12.5293 6.28002V3.16344C12.5293 1.40598 13.9587 0 15.6927 0C17.4268 0 18.8562 1.40598 18.8562 3.16344V6.28002C18.8562 8.78735 19.8169 11.1541 21.551 12.935C23.285 14.6924 25.5814 15.6532 27.995 15.6532C30.4086 15.6532 32.705 14.6924 34.4391 12.935C36.1731 11.1541 37.1339 8.78735 37.1339 6.28002V3.16344C37.1339 1.40598 38.5398 0 40.2973 0Z" fill="#00AEEF"/>
<path d="M11.8979 63.7376C11.2183 63.3392 10.3279 63.5735 9.92949 64.2765L6.32082 70.5566L2.68872 64.2765C2.29036 63.5735 1.39991 63.3627 0.720354 63.7376C0.0407992 64.1359 -0.216963 65.0264 0.20483 65.7059L4.89141 73.8137V78.3363C4.89141 79.133 5.54754 79.7891 6.34426 79.7891C7.14097 79.7891 7.7971 79.133 7.7971 78.3363V73.8137L12.4837 65.7059C12.8352 65.0264 12.6008 64.1359 11.8979 63.7376ZM40.7907 63.5501H31.23C30.4333 63.5501 29.8006 64.2062 29.8006 65.003C29.8006 65.7997 30.4333 66.4324 31.23 66.4324H34.5341V78.2894C34.5341 79.0861 35.1902 79.7423 35.9869 79.7423C36.3853 79.7423 36.7368 79.5782 36.9945 79.3205C37.2757 79.0393 37.4163 78.6878 37.4163 78.2894V66.4324H40.7672C41.5639 66.4324 42.2201 65.7762 42.2201 65.003C42.2201 64.2062 41.5874 63.5501 40.7907 63.5501ZM25.7467 71.7985C25.7467 68.143 24.3173 66.2683 21.5054 66.2683C17.5921 66.2683 17.0062 69.713 16.9828 71.7516C16.9828 73.4154 17.3812 74.7745 18.1076 75.6884C18.8574 76.5788 19.9822 77.0241 21.4585 77.0241H21.4819C24.6219 77.0241 25.7467 74.3293 25.7467 71.7985ZM28.7227 71.7985C28.7227 75.8758 26.4966 80 21.5054 80H21.4819C19.1152 80 17.1703 79.1564 15.858 77.5864C14.6629 76.1336 14.0303 74.1418 14.0303 71.7516C14.0537 66.6198 16.9828 63.2924 21.5054 63.2924C26.0279 63.2924 28.7227 66.4792 28.7227 71.7985ZM50.5387 73.3685L48.5704 68.6351L46.6254 73.3685H50.5387ZM55.4128 77.7973C55.7174 78.5238 55.3659 79.3439 54.6629 79.6485C54.4989 79.7188 54.3114 79.7657 54.124 79.7657C53.5382 79.7657 53.0461 79.4142 52.8117 78.8987L51.7104 76.1805H45.4772L44.3759 78.8987C44.0713 79.6017 43.2277 79.9532 42.5247 79.6485C41.8217 79.3439 41.4702 78.5238 41.7514 77.7973L47.2581 64.4874C47.5862 63.6907 48.172 63.5267 48.5938 63.5267C49.1796 63.5267 49.6717 63.8547 49.9295 64.5109L55.4128 77.7973Z" fill="#00AEEF"/>
</svg>
