<svg width="132" height="90" viewBox="0 0 132 90" fill="none" xmlns="http://www.w3.org/2000/svg">
<path d="M118.952 0.693731C118.582 0.0462487 117.888 0.0462487 117.611 0H74.3222C73.0735 0 72.1022 0.36999 71.3623 1.10997C70.8535 1.61871 70.4835 2.31244 70.2985 3.14491C70.2985 3.19116 70.2523 3.32991 69.8823 3.32991H61.3263C60.9563 3.32991 60.91 3.14491 60.91 3.14491C60.7251 2.31244 60.3551 1.61871 59.8463 1.10997C59.1063 0.36999 58.1351 0 56.8864 0H13.5051C13.2276 0 12.5339 0.0462487 12.1639 0.693731C11.9789 1.01747 11.8402 1.52621 12.2564 2.21994L13.0426 3.56115C13.3664 4.06989 13.7364 4.30113 14.5226 4.34738C14.5226 4.34738 14.8926 4.39363 15.1701 4.80987L15.9563 6.24358C16.1413 6.56732 16.5113 7.35355 17.8988 7.53854C17.8988 7.53854 18.315 7.58479 18.5462 8.00103L19.5637 9.75848C19.8412 10.3135 20.2574 10.5447 20.9974 10.776L39.1269 16.0946C39.7281 16.2796 40.0056 16.9733 40.0056 16.9733C40.4219 18.0833 40.9769 19.0082 43.8443 19.8407L58.6439 23.8643C58.8289 23.9106 60.5401 24.4193 61.7888 23.2169L65.2574 19.887C65.2574 19.887 65.3962 19.7482 65.5812 19.7482C65.7662 19.7482 65.9049 19.887 65.9049 19.887L69.3736 23.2169C70.6685 24.4656 72.3335 23.9568 72.5185 23.8643L87.3181 19.8407C90.1392 19.0082 90.7405 18.037 91.1567 16.9733C91.1567 16.927 91.4342 16.2796 92.0354 16.0946C92.0354 16.0946 94.7641 15.3083 110.165 10.776C110.905 10.5447 111.321 10.3135 111.599 9.75848L112.57 8.00103C112.801 7.58479 113.171 7.53854 113.217 7.53854C114.605 7.35355 115.021 6.56732 115.16 6.24358L115.946 4.80987C116.177 4.34738 116.547 4.34738 116.593 4.34738C117.38 4.30113 117.75 4.11614 118.073 3.56115L118.86 2.21994C119.045 1.8962 119.091 1.61871 119.091 1.34121C119.091 1.10997 119.045 0.878726 118.952 0.693731ZM71.0385 3.32991C71.1773 2.68243 71.501 2.12744 71.9172 1.7112C72.4722 1.15622 73.3047 0.832477 74.2759 0.832477H94.1629C93.4691 1.34121 93.0992 1.9887 93.0992 2.03494C92.8679 2.45118 92.5904 2.95992 92.2204 3.5149H70.946C71.0385 3.42241 71.0385 3.32991 71.0385 3.32991ZM44.1218 10.1747C44.1218 10.1747 44.0755 10.1747 44.1218 10.1747V4.16238H87.0406V10.1747H44.1218ZM43.4743 4.94861L39.9594 5.17986C39.7281 4.80987 39.4507 4.43988 39.2657 4.11614H43.4743V4.94861ZM43.4743 5.5961V6.47482L41.1156 6.79856C40.8381 6.47482 40.6069 6.15108 40.3756 5.82734L43.4743 5.5961ZM43.4743 7.1223V8.09353L42.3643 8.32477C42.0868 8.00103 41.8093 7.67729 41.5781 7.35355L43.4743 7.1223ZM43.4743 8.74101V9.52724C43.243 9.29599 43.0581 9.06475 42.8731 8.87976C43.1043 8.78726 43.2893 8.78726 43.4743 8.74101ZM51.3828 10.776H55.2677L49.8566 14.6608C48.9316 14.1059 48.0067 13.4584 47.1279 12.7646C49.1629 11.8397 51.0128 10.9609 51.3828 10.776ZM46.573 12.3484C46.5267 12.3022 45.278 11.2847 44.7693 10.776H49.9491L46.573 12.3484ZM56.3314 10.776H58.4126L53.094 16.3258C52.2153 15.9096 51.2903 15.4933 50.4578 14.9846C53.0015 13.1809 55.6839 11.2847 56.3314 10.776ZM59.2913 10.776H61.0488L56.9327 17.7133C55.8227 17.3895 54.759 17.0195 53.6953 16.6033C55.9614 14.2909 58.6439 11.4697 59.2913 10.776ZM61.7888 10.776H63.2687L61.0951 18.592C59.8926 18.407 58.6901 18.222 57.5801 17.8983C59.1526 15.2621 61.28 11.7009 61.7888 10.776ZM69.2811 10.776L73.4897 17.8983C72.3335 18.1757 71.1773 18.407 69.9748 18.592L67.8011 10.776H69.2811ZM70.021 10.776H71.7785L77.3746 16.6033C76.3109 17.0658 75.2472 17.4358 74.1372 17.7133L70.021 10.776ZM72.6572 10.776H74.7384L80.6582 14.9846C79.7795 15.4933 78.9008 15.9096 78.0221 16.3258C76.0796 14.3371 73.7209 11.8859 72.6572 10.776ZM75.8484 10.776H79.7333L84.0344 12.7646C83.1557 13.4584 82.2307 14.0596 81.3057 14.6608C79.1783 13.1809 77.0046 11.6547 75.8484 10.776ZM81.167 10.776H86.3468C85.8381 11.2847 84.5894 12.3022 84.5431 12.3484C83.2944 11.7934 82.0457 11.1922 81.167 10.776ZM87.6418 8.74101L88.243 8.87976C88.058 9.111 87.8268 9.34224 87.6418 9.52724V8.74101ZM87.6418 8.09353V7.1223L89.538 7.3998C89.2605 7.72354 89.0293 8.04728 88.7518 8.37102C88.243 8.23227 87.873 8.13978 87.6418 8.09353ZM87.6418 6.47482V5.5961L90.7405 5.78109C90.5092 6.10483 90.278 6.42857 90.0005 6.75231L87.6418 6.47482ZM87.6418 4.94861V4.11614H91.8504C91.6192 4.43988 91.3879 4.80987 91.1567 5.17986L87.6418 4.94861ZM56.8402 0.786228C57.8576 0.786228 58.6439 1.06372 59.1988 1.66495C59.6151 2.08119 59.8926 2.63618 60.0776 3.28366C60.0776 3.28366 60.1238 3.42241 60.1701 3.46865H38.8494C38.5257 2.91367 37.9707 1.9887 37.9707 1.9887C37.9244 1.94245 37.6007 1.29496 36.907 0.786228H56.8402ZM14.5689 3.5149C14.0139 3.46865 13.9214 3.42241 13.7364 3.14491C13.7364 3.14491 12.9964 1.94245 12.9501 1.84995C12.8114 1.61871 12.8114 1.47996 12.8114 1.34121C12.8114 1.06372 13.0426 0.832477 13.5514 0.832477H35.1495C36.6295 0.832477 37.462 2.31244 37.462 2.31244C37.647 2.68243 37.8782 3.05242 38.1557 3.5149H14.5689ZM17.4825 6.56732C16.9275 6.38232 16.7425 6.05858 16.65 5.82734C16.3263 5.27235 15.8638 4.39363 15.6326 4.11614H38.4794C38.7107 4.48613 38.9419 4.85612 39.2194 5.22611L19.1937 6.56732C18.87 6.61357 17.945 6.70606 17.4825 6.56732ZM21.1824 9.43474C20.4424 9.52724 20.2112 9.29599 20.1649 9.24974L19.1937 7.53854C19.1475 7.3998 19.055 7.3073 18.9625 7.2148C19.1012 7.2148 39.5894 5.82734 39.5894 5.82734C39.8206 6.15108 40.0519 6.47482 40.3294 6.84481L21.1824 9.43474ZM25.8535 11.2847C23.8648 10.6835 22.2461 10.221 21.5524 10.036L40.8381 7.44604C41.1156 7.76979 41.3931 8.09353 41.6706 8.46352L28.4897 11.1922C27.981 11.2847 26.5935 11.4697 25.8535 11.2847ZM32.3746 13.2271C30.8946 12.8109 29.3684 12.3484 27.8885 11.8859C28.2585 11.8397 28.536 11.7934 28.5822 11.7472C28.5822 11.7472 38.1557 9.80473 42.1331 8.97225C42.5031 9.43474 42.9193 9.85098 43.3818 10.3135L34.5483 13.0421C34.502 13.0884 33.2996 13.4584 32.3746 13.2271ZM39.2657 15.2621C39.0807 15.2158 36.9995 14.5683 34.2708 13.7821C34.5483 13.7359 34.687 13.6434 34.7333 13.6434C34.7333 13.6434 42.1793 11.3309 43.8905 10.8222C44.538 11.4234 45.1855 12.0709 45.9255 12.6259L41.1619 14.8921C40.8381 15.0771 39.9131 15.4008 39.2657 15.2621ZM43.1043 18.7307C41.2544 18.037 40.9769 17.3433 40.6994 16.6495C40.6994 16.6033 40.5606 16.2333 40.2369 15.8633C40.8844 15.7246 41.3931 15.4933 41.4393 15.4471C41.4393 15.4471 43.983 14.2446 46.4805 13.0884C47.4054 13.7821 48.3304 14.4758 49.3016 15.0771L44.8155 18.2682C44.8155 18.2682 43.8905 18.962 43.1043 18.7307ZM48.4692 20.2569L44.4918 19.1932C44.908 19.0082 45.1392 18.8232 45.1855 18.8232C45.1855 18.8232 47.4054 17.2508 49.8566 15.4933C50.7353 16.0021 51.6603 16.5108 52.5853 16.927L49.9954 19.6557C49.8104 19.7945 49.0704 20.3957 48.4692 20.2569ZM53.9727 21.7369L49.7179 20.5807C50.1804 20.3494 50.4578 20.0257 50.5041 19.9794C50.5041 19.9794 51.7066 18.7307 53.279 17.112C54.389 17.5745 55.499 17.9908 56.6552 18.3145L55.2677 20.7194C55.0365 20.9969 54.4815 21.8294 53.9727 21.7369ZM60.2163 21.8294C60.2163 21.8294 60.0313 22.6156 59.5226 22.9394C59.2913 23.0781 59.0139 23.1244 58.6901 23.0319L54.944 22.0144C55.4065 21.6444 55.6839 21.0894 55.7764 20.9969C55.7764 20.9969 56.4239 19.9332 57.2564 18.4532C58.4589 18.777 59.7076 19.0082 60.9563 19.1932L60.2163 21.8294ZM61.1875 22.5694C60.9101 22.8469 60.5863 22.9856 60.2626 23.0781C60.6788 22.6156 60.8176 22.0144 60.8176 21.9219L61.5575 19.2857C62.4825 19.3782 63.4075 19.4707 64.3787 19.517C63.6387 20.2569 61.1875 22.5694 61.1875 22.5694ZM61.7425 18.6845L63.9162 10.776H65.2112V18.8695C64.055 18.9157 62.8987 18.8232 61.7425 18.6845ZM65.8587 18.9157V10.776H67.1536L69.3273 18.6845C68.2173 18.8232 67.0611 18.9157 65.8587 18.9157ZM69.3736 22.0606C69.3736 22.0606 67.3849 20.1644 66.6911 19.517C67.6624 19.4707 68.5873 19.4245 69.5123 19.2857L70.2523 21.9681C70.2523 22.0606 70.4373 22.6619 70.8073 23.1244C70.2523 22.9394 70.1135 22.7544 69.3736 22.0606ZM72.426 23.0319C72.1022 23.1244 71.8247 23.0781 71.5935 22.9394C71.0848 22.6156 70.8998 21.8756 70.8998 21.8294L70.1598 19.2395C71.4085 19.0545 72.6572 18.8232 73.8597 18.4995L75.3396 21.0432C75.3859 21.1357 75.7096 21.6444 76.1721 22.0144L72.426 23.0319ZM77.1433 21.7369C76.6346 21.8294 76.0796 20.9969 75.8946 20.7194L74.4609 18.3145C75.6171 17.9908 76.7271 17.5745 77.8371 17.112L80.612 19.9794C80.6582 20.0257 80.9357 20.3032 81.3982 20.5807L77.1433 21.7369ZM83.3407 20.0719L82.6469 20.2569C82.0457 20.3957 81.3057 19.7945 81.0745 19.5632C81.0745 19.5632 79.9183 18.3607 78.4846 16.8345C79.4095 16.4183 80.3345 15.9558 81.2132 15.4008L85.8844 18.777C85.8844 18.777 86.1618 19.0082 86.5781 19.147C85.5606 19.4245 83.3407 20.0719 83.3407 20.0719ZM90.4167 16.6495C90.1392 17.3433 89.8617 18.037 88.0118 18.7307C87.2256 18.962 86.3006 18.2682 86.3006 18.2682C86.3006 18.2682 84.2194 16.7883 81.8145 15.0771C82.7857 14.4758 83.7107 13.8284 84.6356 13.0884L89.6767 15.4471C89.723 15.4471 90.2317 15.7246 90.8792 15.8633C90.5555 16.1871 90.4167 16.557 90.4167 16.6495ZM91.8042 15.2621C91.1567 15.4471 90.2317 15.0771 89.9542 14.9383C89.9542 14.9383 87.5956 13.8284 85.1444 12.7184C85.8844 12.1172 86.5318 11.5159 87.1793 10.9147L96.3366 13.7359C96.3366 13.7359 96.5216 13.7821 96.7528 13.8746L91.8042 15.2621ZM98.6952 13.2271C97.7703 13.4584 96.5678 13.0884 96.5678 13.0884L87.7343 10.3597C88.1505 9.89723 88.5668 9.48099 88.983 9.0185L102.534 11.7934C102.58 11.7934 102.858 11.8397 103.228 11.9322L98.6952 13.2271ZM105.263 11.2847C104.523 11.4697 103.135 11.2384 102.626 11.1459C102.626 11.1459 93.6079 9.29599 89.4455 8.41727C89.723 8.09353 90.0005 7.72354 90.278 7.3998L109.564 9.98972L105.263 11.2847ZM111.876 7.58479C111.876 7.58479 111.09 8.97225 110.905 9.24974C110.859 9.29599 110.627 9.57349 109.887 9.43474L90.6942 6.84481C90.9717 6.52107 91.2029 6.15108 91.4342 5.82734L111.83 7.16855C111.876 7.16855 111.922 7.16855 112.061 7.2148C112.015 7.35355 111.922 7.44604 111.876 7.58479ZM115.252 4.39363L114.42 5.82734C114.327 6.05858 114.142 6.38232 113.587 6.56732C113.125 6.65982 112.2 6.61357 111.876 6.56732L91.8504 5.22611C92.1279 4.85612 92.3592 4.48613 92.5904 4.11614H115.437C115.391 4.20863 115.345 4.30113 115.252 4.39363ZM118.166 1.84995L117.38 3.14491C117.241 3.37616 117.148 3.5149 116.547 3.5149H93.0067C93.2841 3.05242 93.5154 2.68243 93.7004 2.31244C93.7004 2.31244 94.5329 0.832477 96.0128 0.832477H117.611C117.842 0.832477 118.12 0.878726 118.305 1.10997C118.305 1.15622 118.351 1.20247 118.351 1.34121C118.305 1.43371 118.258 1.61871 118.166 1.84995Z" fill="#3E3E3D"/>
<path d="M46.9431 5.0874H46.7581L44.9082 9.20354H45.4169V9.15729C45.5557 8.64855 45.7407 8.18607 45.9257 7.72358C45.9257 7.72358 45.9719 7.67733 45.9719 7.63108H47.4056C47.5906 8.04732 47.7756 8.55606 48.0069 9.15729H48.7006L46.9431 5.0874ZM46.1569 7.35359C46.2032 7.26109 46.6657 6.15112 46.7119 6.01238C46.7581 6.15112 47.2669 7.26109 47.3131 7.35359H46.1569Z" fill="#3E3E3D"/>
<path d="M48.9297 8.92605C49.1609 9.15729 49.6697 9.29604 49.9009 9.29604C50.7796 9.29604 51.3809 8.74105 51.3809 7.95482C51.3809 7.30734 50.8721 7.0761 50.4096 6.8911C49.9934 6.70611 49.5772 6.56736 49.5772 6.05863C49.5772 5.68864 49.8547 5.41114 50.2709 5.41114C50.5946 5.41114 50.8259 5.59614 50.9646 5.87363H51.0571L51.2421 5.36489C51.0109 5.13365 50.6409 5.0874 50.4096 5.0874C49.6234 5.0874 49.1147 5.54989 49.1147 6.24362C49.1147 6.93735 49.6234 7.16859 50.0859 7.35359C50.5021 7.53858 50.9184 7.67733 50.9184 8.13982C50.9184 8.60231 50.5946 8.92605 50.1322 8.92605C49.7622 8.92605 49.4847 8.74105 49.2072 8.32481H49.0222L48.9297 8.92605Z" fill="#3E3E3D"/>
<path d="M54.5726 5.17993H51.5664V5.59617H51.6127C51.9364 5.54992 52.3064 5.54992 52.8614 5.50367V9.20357H53.4626V5.50367C53.8788 5.50367 54.2488 5.54992 54.6188 5.59617H54.6651L54.5726 5.17993Z" fill="#3E3E3D"/>
<path d="M56.6542 5.0874C55.3592 5.0874 54.4805 5.96613 54.4805 7.16859C54.4805 8.41731 55.3592 9.24979 56.6542 9.24979C57.9954 9.24979 58.8741 8.37106 58.8741 7.0761C58.8741 5.73488 57.7641 5.0874 56.6542 5.0874ZM57.7179 8.55606C57.4404 8.8798 57.0704 9.01854 56.6542 9.01854C55.7292 9.01854 55.1279 8.32481 55.1279 7.26109C55.1279 6.10487 55.7292 5.36489 56.7004 5.36489C57.1629 5.36489 57.6254 5.54989 57.8566 5.91988C58.1341 6.28987 58.2266 6.70611 58.2266 7.16859C58.2266 7.21484 58.2266 7.21484 58.2266 7.26109C58.2729 7.63108 58.0879 8.18607 57.7179 8.55606Z" fill="#3E3E3D"/>
<path d="M62.8976 5.17993H62.5277V8.13985L59.799 5.17993H59.5215V9.20357H59.9377V6.10491C59.9377 6.15116 62.4352 8.83358 62.4352 8.83358L62.7589 9.20357H62.9901L62.8976 5.17993Z" fill="#3E3E3D"/>
<path d="M69.4208 5.17993H69.2821L68.3109 6.93738C68.3109 6.93738 67.7096 8.04735 67.6634 8.13985C67.0621 7.12238 66.5072 6.10491 66.0447 5.17993H65.8597V5.22618C65.8134 5.82741 65.4434 8.23235 65.3047 9.15732V9.20357H65.8134V9.15732C65.8134 8.60234 65.9059 7.76986 65.9984 6.84489C65.9984 6.84489 66.0447 6.42865 66.0447 6.2899C66.0909 6.42865 66.8771 7.86236 67.1546 8.46359L67.4784 9.15732H67.5709C67.8946 8.37109 68.3571 7.49237 69.0508 6.33615C69.1433 7.02988 69.2821 8.41734 69.3283 9.20357V9.24982H69.9296V9.20357C69.7908 8.1861 69.6058 6.89113 69.4208 5.17993Z" fill="#3E3E3D"/>
<path d="M72.1482 5.0874H71.9632L70.1133 9.20354H70.622V9.15729C70.7608 8.64855 70.9458 8.18607 71.1308 7.72358C71.1308 7.72358 71.1307 7.67733 71.177 7.63108H72.6107C72.7957 8.09357 73.0269 8.6023 73.2119 9.15729H73.9057L72.1482 5.0874ZM71.362 7.35359C71.4082 7.26109 71.8707 6.15112 71.917 6.01238C71.9632 6.15112 72.472 7.26109 72.5182 7.35359H71.362Z" fill="#3E3E3D"/>
<path d="M75.7091 7.21488C76.4491 7.07613 76.8653 6.65989 76.8653 6.10491C76.8653 5.50367 76.4491 5.17993 75.5241 5.17993H74.3216H74.2754V9.20357H74.8766V7.26112H75.0616C75.0616 7.30737 75.5241 7.76986 75.5241 7.76986L76.2178 8.64859L76.5878 9.15732H77.3278C77.2815 9.20357 75.7553 7.30737 75.7091 7.21488ZM74.8304 6.98363V5.45742C75.0616 5.45742 75.4316 5.41118 75.6166 5.45742C76.0328 5.50367 76.2178 5.73492 76.2178 6.15116C76.2178 6.56739 75.9403 6.84489 75.5241 6.93738C75.2929 7.02988 75.0154 6.98363 74.8304 6.98363Z" fill="#3E3E3D"/>
<path d="M80.1956 5.17993H77.1895V5.59617H77.2357C77.5594 5.54992 77.9294 5.54992 78.4844 5.50367V9.20357H79.0857V5.50367C79.5019 5.50367 79.8719 5.54992 80.2419 5.59617H80.2881L80.1956 5.17993Z" fill="#3E3E3D"/>
<path d="M81.2581 5.17993H80.7031V9.20357H81.2581V5.17993Z" fill="#3E3E3D"/>
<path d="M85.1429 5.17993V8.13985L82.4142 5.17993H82.1367V9.20357H82.553V6.10491C82.553 6.15116 85.0504 8.83358 85.0504 8.83358L85.3741 9.20357H85.6054V5.17993H85.1429Z" fill="#3E3E3D"/>
<path d="M11.7946 49.1161C11.6559 49.1161 11.5171 49.0699 11.3784 49.0699H10.9622H10.5459C10.4072 49.0699 10.2684 49.0699 10.1297 49.1161C10.0372 48.8849 9.94468 48.5611 9.80594 48.1911C9.66719 47.8212 9.52844 47.4512 9.3897 47.0812C9.25095 46.7112 9.06596 46.2949 8.88096 45.8787C8.69597 45.4625 8.55722 45.0925 8.41848 44.7225C8.04849 44.7225 7.72474 44.7225 7.35476 44.6762C6.98477 44.6762 6.61478 44.6762 6.24479 44.6762C5.92105 44.6762 5.55106 44.6762 5.22731 44.6762C4.90357 44.6762 4.57983 44.6762 4.20984 44.7225C3.83985 45.6012 3.51611 46.3874 3.23862 47.1737C2.96113 47.9599 2.72988 48.6074 2.59114 49.1161C2.40614 49.1161 2.22115 49.0699 1.98991 49.0699C1.75866 49.0699 1.57367 49.0699 1.38867 49.1161C2.2674 47.1737 3.14612 45.2775 4.02485 43.335C4.85733 41.4388 5.73605 39.4964 6.56853 37.5077H6.89227C7.16976 38.1552 7.44725 38.8489 7.77099 39.5889C8.09473 40.3289 8.37223 41.0688 8.69597 41.8551C9.01971 42.595 9.34345 43.3813 9.66719 44.1213C9.99093 44.8612 10.2684 45.555 10.5922 46.2025C10.8697 46.8499 11.1472 47.4049 11.3321 47.9137C11.4709 48.4686 11.6559 48.8386 11.7946 49.1161ZM4.44109 43.9825C4.71858 43.9825 5.04232 43.9825 5.31981 43.9825C5.64355 43.9825 5.92105 43.9825 6.19854 43.9825C6.52228 43.9825 6.79977 43.9825 7.12351 43.9825C7.44725 43.9825 7.72474 43.9825 8.04849 43.9363L6.19854 39.7276L4.44109 43.9825Z" fill="#3E3E3D"/>
<path d="M13.8292 47.5899C13.9679 47.7749 14.1529 47.9599 14.3842 48.1449C14.6154 48.3299 14.8467 48.4224 15.1242 48.5612C15.4017 48.6537 15.7254 48.6999 16.0954 48.6999C16.4654 48.6999 16.7891 48.6537 17.0666 48.5149C17.3441 48.3762 17.6216 48.2374 17.8066 48.0062C17.9916 47.7749 18.1766 47.5437 18.2691 47.2662C18.3616 46.9887 18.4541 46.665 18.4541 46.3412C18.4541 45.8325 18.3153 45.4163 18.0841 45.1388C17.8066 44.8613 17.4828 44.5838 17.1129 44.3988C16.7429 44.2138 16.3266 44.0288 15.8641 43.8438C15.4017 43.6588 14.9854 43.4738 14.6154 43.2426C14.2454 43.0113 13.9217 42.6876 13.6442 42.2713C13.3667 41.9014 13.2742 41.3464 13.2742 40.6989C13.2742 40.2364 13.3667 39.8202 13.5055 39.4502C13.6905 39.0802 13.9217 38.7564 14.2454 38.4789C14.5692 38.2015 14.9392 37.9702 15.4017 37.8315C15.8641 37.6927 16.3266 37.6002 16.8816 37.6002C17.3903 37.6002 17.8528 37.6465 18.2691 37.7852C18.6391 37.924 19.0091 38.109 19.3328 38.3864C19.2403 38.5714 19.1478 38.7564 19.1015 38.9877C19.0553 39.2189 18.9628 39.4502 18.9166 39.7739H18.7316C18.6853 39.6352 18.5928 39.4502 18.5003 39.2652C18.4078 39.0802 18.2691 38.8952 18.1303 38.7564C17.9916 38.6177 17.7603 38.4789 17.5753 38.3864C17.3441 38.2939 17.0666 38.2477 16.7891 38.2477C16.4654 38.2477 16.1879 38.2939 15.9566 38.3864C15.6791 38.4789 15.4479 38.6177 15.2629 38.8027C15.0779 38.9877 14.9392 39.2189 14.8004 39.4502C14.7079 39.6814 14.6617 39.9589 14.6617 40.2826C14.6617 40.7914 14.8004 41.2076 15.0317 41.4851C15.3092 41.7626 15.6329 42.0401 16.0029 42.2251C16.3729 42.4101 16.7891 42.5951 17.2516 42.7801C17.7141 42.9188 18.1303 43.1501 18.5003 43.3813C18.8703 43.6126 19.194 43.89 19.4715 44.26C19.749 44.63 19.8415 45.0925 19.8415 45.6937C19.8415 46.2025 19.749 46.665 19.564 47.1275C19.379 47.5899 19.1015 47.9599 18.7778 48.3299C18.4078 48.6537 17.9916 48.9312 17.4828 49.1161C16.9741 49.3011 16.4191 49.3936 15.7716 49.3936C15.0779 49.3936 14.5229 49.3011 14.1067 49.1161C13.6905 48.9312 13.3205 48.7462 13.043 48.5149C13.1355 48.2837 13.228 48.0524 13.228 47.8212C13.2742 47.6362 13.3205 47.3587 13.3205 47.035H13.5055C13.598 47.1737 13.6905 47.3587 13.8292 47.5899Z" fill="#3E3E3D"/>
<path d="M24.5572 38.6176C24.2798 38.6176 23.956 38.6176 23.6323 38.6176C23.3085 38.6176 22.9848 38.6176 22.7073 38.6639C22.3836 38.6639 22.1061 38.7101 21.7823 38.7101C21.5048 38.7101 21.2273 38.7564 20.9961 38.8026C21.0423 38.6176 21.0886 38.4326 21.0886 38.2939C21.0886 38.1551 21.0423 38.0164 20.9961 37.7852C21.7361 37.7852 22.4298 37.8314 23.1235 37.8314C23.8173 37.8314 24.511 37.8777 25.251 37.8777C25.991 37.8777 26.6847 37.8777 27.3784 37.8314C28.0721 37.8314 28.7659 37.7852 29.5059 37.7852C29.4596 38.0164 29.4134 38.2014 29.4134 38.2939C29.4134 38.4326 29.4596 38.6176 29.5059 38.8026C29.2746 38.7564 28.9971 38.7564 28.7196 38.7101C28.4421 38.7101 28.1184 38.6639 27.7947 38.6639C27.4709 38.6639 27.1472 38.6176 26.8697 38.6176C26.5459 38.6176 26.2684 38.6176 25.991 38.6176C25.9447 39.7739 25.9447 40.8838 25.9447 42.04V44.9075C25.9447 45.6474 25.9447 46.3412 25.991 47.0812C26.0372 47.7749 26.0372 48.4686 26.0835 49.1623C25.806 49.1623 25.5747 49.1161 25.251 49.1161C24.9735 49.1161 24.696 49.1161 24.4185 49.1623C24.4647 48.4686 24.4647 47.7749 24.511 47.0812C24.5572 46.3874 24.5572 45.6474 24.5572 44.9075V42.04C24.6035 40.8838 24.5572 39.7739 24.5572 38.6176Z" fill="#3E3E3D"/>
<path d="M30.5699 40.9764C30.8937 40.2364 31.3099 39.6351 31.8649 39.1264C32.4199 38.6177 33.0673 38.2477 33.8073 37.9702C34.5473 37.6927 35.3798 37.554 36.3048 37.554C37.2297 37.554 38.0622 37.6927 38.8022 37.9702C39.5422 38.2477 40.2359 38.6177 40.7446 39.1264C41.2996 39.6351 41.7159 40.2364 42.0396 40.9764C42.3633 41.7163 42.5021 42.5488 42.5021 43.4738C42.5021 44.3988 42.3633 45.2312 42.0396 45.9712C41.7159 46.7112 41.2996 47.3124 40.7446 47.8212C40.1896 48.3299 39.5422 48.6999 38.8022 48.9311C38.0622 49.1624 37.1835 49.3011 36.3048 49.3011C35.3798 49.3011 34.5473 49.1624 33.8073 48.9311C33.0673 48.6999 32.3736 48.2837 31.8649 47.8212C31.3099 47.3124 30.8937 46.7112 30.5699 45.9712C30.2462 45.2312 30.1074 44.3988 30.1074 43.4738C30.1074 42.5488 30.2924 41.7163 30.5699 40.9764ZM40.5596 41.0689C40.3284 40.4214 40.0046 39.8664 39.5884 39.4039C39.1722 38.9877 38.7097 38.6639 38.1547 38.4327C37.5997 38.2014 36.9985 38.1089 36.351 38.1089C35.7035 38.1089 35.1023 38.2014 34.5473 38.4327C33.9923 38.6639 33.4836 38.9877 33.1136 39.4039C32.6974 39.8201 32.3736 40.3751 32.1424 41.0689C31.9111 41.7163 31.7724 42.5488 31.7724 43.4275C31.7724 44.3525 31.9111 45.1387 32.1424 45.7862C32.3736 46.4337 32.6974 46.9887 33.1136 47.4512C33.5298 47.8674 33.9923 48.1912 34.5473 48.4224C35.1023 48.6536 35.7035 48.7461 36.351 48.7461C36.9985 48.7461 37.5997 48.6536 38.1547 48.4224C38.7097 48.1912 39.2184 47.8674 39.5884 47.4512C40.0046 47.0349 40.3284 46.48 40.5596 45.7862C40.7909 45.1387 40.9296 44.3063 40.9296 43.4275C40.8834 42.5488 40.7909 41.7626 40.5596 41.0689Z" fill="#3E3E3D"/>
<path d="M50.273 44.815C48.8393 43.2888 47.4056 41.7626 45.9719 40.2364C45.9719 40.5601 45.9719 40.9764 45.9257 41.4851C45.9257 41.9938 45.9257 42.6876 45.9257 43.6126C45.9257 43.8438 45.9257 44.1213 45.9257 44.4913C45.9257 44.815 45.9257 45.185 45.9257 45.555C45.9257 45.925 45.9257 46.295 45.9719 46.7112C45.9719 47.0812 45.9719 47.4512 46.0182 47.7749C46.0182 48.0987 46.0182 48.3762 46.0644 48.6537C46.0644 48.8849 46.0644 49.0699 46.1107 49.1624C45.9257 49.1624 45.7407 49.1161 45.5094 49.1161C45.2782 49.1161 45.0932 49.1161 44.9082 49.1624C44.9082 49.0699 44.9545 48.8387 45.0007 48.5612C45.047 48.2837 45.0469 47.9137 45.0932 47.4974C45.1394 47.0812 45.1394 46.6187 45.1857 46.1562C45.2319 45.6475 45.2319 45.185 45.2319 44.7225C45.2319 44.26 45.2782 43.7513 45.2782 43.2888C45.2782 42.8263 45.2782 42.4101 45.2782 42.0401C45.2782 40.9764 45.2782 40.0514 45.2782 39.3114C45.2782 38.5714 45.2782 37.9702 45.2319 37.6002H45.5094C46.2032 38.3402 46.8969 39.1264 47.6831 39.9589C48.4694 40.7914 49.2093 41.6239 49.9493 42.4101C50.6893 43.2426 51.4293 43.9825 52.123 44.7225C52.8167 45.4625 53.418 46.0637 53.8804 46.5725V44.3063C53.8804 43.1501 53.8804 42.0401 53.8342 40.9301C53.8342 39.8202 53.7879 38.8027 53.7417 37.8315C53.9729 37.8777 54.1579 37.924 54.2967 37.924C54.4354 37.924 54.6204 37.8777 54.8054 37.8315C54.8054 38.0627 54.7592 38.4327 54.7129 38.9414C54.6667 39.4039 54.6667 39.9589 54.6204 40.5139C54.5742 41.0689 54.5742 41.6239 54.5279 42.1326C54.5279 42.6413 54.4817 43.1038 54.4817 43.4276V44.3988C54.4817 44.7688 54.4817 45.185 54.4817 45.555C54.4817 45.9712 54.4817 46.3875 54.4817 46.8037C54.4817 47.2199 54.4817 47.5899 54.4817 47.9599C54.4817 48.3299 54.4817 48.6074 54.4817 48.8849V49.4399H54.2504C53.048 47.8674 51.7068 46.3875 50.273 44.815Z" fill="#3E3E3D"/>
<path d="M68.6325 42.1326C69.4187 43.6125 70.2049 45.1387 71.0836 46.665C71.1761 46.4337 71.3611 46.1562 71.5461 45.7862C71.7774 45.4162 72.0086 44.9538 72.2861 44.445C72.5636 43.9363 72.8411 43.3813 73.1648 42.7801C73.4886 42.1788 73.8123 41.5776 74.1361 40.9764C74.4598 40.3751 74.7835 39.7739 75.1073 39.1727C75.431 38.5714 75.7085 38.0627 75.986 37.554H76.2172C76.356 38.6177 76.4485 39.6352 76.541 40.6064C76.6335 41.5776 76.7722 42.5488 76.8647 43.52C76.9572 44.4913 77.096 45.4162 77.1885 46.3412C77.281 47.2662 77.4197 48.1912 77.5585 49.1161C77.4197 49.1161 77.281 49.0699 77.1885 49.0699H76.8185H76.4485C76.3097 49.0699 76.171 49.0699 76.0785 49.1161C75.9398 47.6362 75.8473 46.2487 75.7085 44.8613C75.5698 43.4738 75.431 42.0863 75.246 40.6526H75.1998C74.4598 42.0401 73.6736 43.4275 72.9798 44.815C72.2399 46.2025 71.5461 47.6362 70.8986 49.1161H70.7599C70.1124 47.7287 69.4187 46.3412 68.6787 44.9537C67.9387 43.5663 67.245 42.1326 66.505 40.6526H66.4588C66.3663 41.3464 66.2738 42.0863 66.1813 42.8726C66.0888 43.6588 65.9963 44.445 65.9038 45.2312C65.8113 46.0175 65.765 46.7575 65.7188 47.4512C65.6725 48.1449 65.6263 48.6999 65.6263 49.1624C65.4413 49.1624 65.2563 49.1161 65.0251 49.1161C64.7938 49.1161 64.6088 49.1161 64.4238 49.1624C64.5626 48.2837 64.7013 47.3124 64.8863 46.3412C65.0251 45.37 65.2101 44.3525 65.3488 43.335C65.4875 42.3176 65.6263 41.3464 65.765 40.3751C65.9038 39.4039 65.9963 38.4789 66.0888 37.6002H66.3663C67.1063 39.1264 67.8925 40.6526 68.6325 42.1326Z" fill="#3E3E3D"/>
<path d="M90.1853 49.1161C90.0465 49.1161 89.9078 49.0699 89.769 49.0699H89.3528H88.9365C88.7978 49.0699 88.659 49.0699 88.5203 49.1161C88.4278 48.8849 88.3353 48.5611 88.1966 48.1911C88.0578 47.8212 87.9191 47.4512 87.7803 47.0812C87.6416 46.7112 87.4566 46.2949 87.2716 45.8787C87.0866 45.4625 86.9478 45.0925 86.8091 44.7225C86.4391 44.7225 86.1154 44.7225 85.7454 44.6762C85.3754 44.6762 85.0054 44.6762 84.6354 44.6762C84.3117 44.6762 83.9417 44.6762 83.6179 44.6762C83.2942 44.6762 82.9705 44.6762 82.6005 44.7225C82.2305 45.6012 81.9067 46.3874 81.6292 47.1737C81.3518 47.9599 81.1205 48.6074 80.9818 49.1161C80.7968 49.1161 80.6118 49.0699 80.3805 49.0699C80.1493 49.0699 79.9643 49.0699 79.7793 49.1161C80.658 47.1737 81.5367 45.2775 82.4155 43.335C83.2479 41.4388 84.1267 39.4964 84.9592 37.5077H85.2829C85.5604 38.1552 85.8379 38.8489 86.1616 39.5889C86.4854 40.3289 86.7629 41.0688 87.0866 41.8551C87.4103 42.595 87.7341 43.3813 88.0578 44.1213C88.3816 44.8612 88.6591 45.555 88.9365 46.2025C89.214 46.8499 89.4915 47.4049 89.6765 47.9137C89.8615 48.4686 90.0465 48.8386 90.1853 49.1161ZM82.878 43.9825C83.1555 43.9825 83.4792 43.9825 83.7567 43.9825C84.0804 43.9825 84.3579 43.9825 84.6354 43.9825C84.9592 43.9825 85.2366 43.9825 85.5604 43.9825C85.8841 43.9825 86.1616 43.9825 86.4854 43.9363L84.6354 39.7276L82.878 43.9825Z" fill="#3E3E3D"/>
<path d="M93.144 39.9126C93.0977 39.2189 93.0977 38.4789 93.0515 37.7852C93.3752 37.7852 93.699 37.8314 93.9765 37.8314C94.3002 37.8314 94.5777 37.8777 94.9014 37.8777C95.2252 37.8777 95.5489 37.8777 95.8264 37.8314C96.1501 37.7852 96.4276 37.7852 96.7514 37.7852C97.2139 37.7852 97.6764 37.8314 98.0926 37.9239C98.5088 38.0164 98.8788 38.1551 99.2026 38.3401C99.5263 38.5251 99.7576 38.8026 99.9425 39.1264C100.128 39.4501 100.22 39.8664 100.22 40.3751C100.22 40.8838 100.081 41.3463 99.85 41.7626C99.6188 42.1325 99.3413 42.4563 98.9713 42.6875C98.6476 42.9188 98.2776 43.15 97.8614 43.2888C97.4914 43.4275 97.1214 43.52 96.7976 43.5662C96.9364 43.7512 97.1214 43.9825 97.3526 44.26C97.5839 44.5375 97.8614 44.9075 98.1388 45.2312C98.4163 45.6012 98.7401 45.9712 99.0176 46.3412C99.3413 46.7112 99.6188 47.1274 99.8963 47.4511C100.174 47.8211 100.451 48.1449 100.729 48.4224C100.96 48.6999 101.191 48.9311 101.33 49.1161C101.145 49.1161 101.006 49.0698 100.821 49.0698H100.313H99.85C99.6651 49.0698 99.5263 49.0698 99.3876 49.1161C99.2026 48.8849 98.9713 48.5149 98.6476 48.0524C98.3238 47.5899 97.9538 47.0812 97.5376 46.5724C97.1214 46.0637 96.7051 45.5087 96.2889 45C95.8727 44.4912 95.4564 44.0287 95.1327 43.6587H94.4852V44.8612C94.4852 45.6012 94.4852 46.2949 94.5314 47.0349C94.5777 47.7286 94.5777 48.4224 94.6239 49.1161C94.3927 49.1161 94.1152 49.0698 93.7915 49.0698C93.514 49.0698 93.2365 49.0698 92.959 49.1161C93.0052 48.4224 93.0052 47.7286 93.0515 47.0349C93.0977 46.3412 93.0977 45.6012 93.0977 44.8612V41.9938C93.1902 41.3001 93.1902 40.6063 93.144 39.9126ZM95.0402 43.0575C95.2252 43.0575 95.4102 43.0575 95.6414 43.0575C95.9652 43.0575 96.3351 43.0113 96.7051 42.965C97.0751 42.8725 97.3989 42.7338 97.7226 42.5488C98.0463 42.3638 98.2776 42.0863 98.5088 41.7626C98.6938 41.4388 98.8326 41.0226 98.8326 40.5138C98.8326 40.0976 98.7401 39.7276 98.6013 39.4501C98.4626 39.1726 98.2313 38.9414 98.0001 38.8026C97.7226 38.6176 97.4914 38.5251 97.1676 38.4789C96.8901 38.4326 96.5664 38.3864 96.2889 38.3864C95.9189 38.3864 95.5952 38.3864 95.3177 38.4326C95.0864 38.4326 94.8552 38.4789 94.6702 38.4789C94.6702 39.0801 94.6239 39.6814 94.6239 40.2826C94.6239 40.8838 94.5777 41.4851 94.5777 42.0863V43.0113C94.7164 43.0113 94.8552 43.0575 95.0402 43.0575Z" fill="#3E3E3D"/>
<path d="M106.325 38.6176C106.048 38.6176 105.724 38.6176 105.447 38.6176C105.123 38.6176 104.799 38.6176 104.522 38.6639C104.198 38.6639 103.921 38.7101 103.597 38.7101C103.319 38.7101 103.042 38.7564 102.811 38.8026C102.857 38.6176 102.903 38.4326 102.903 38.2939C102.903 38.1551 102.857 38.0164 102.811 37.7852C103.551 37.7852 104.244 37.8314 104.938 37.8314C105.632 37.8314 106.325 37.8777 107.065 37.8777C107.805 37.8777 108.499 37.8777 109.193 37.8314C109.887 37.8314 110.58 37.7852 111.32 37.7852C111.274 38.0164 111.228 38.2014 111.228 38.2939C111.228 38.4326 111.274 38.6176 111.32 38.8026C111.089 38.7564 110.812 38.7564 110.534 38.7101C110.257 38.7101 109.933 38.6639 109.609 38.6639C109.285 38.6639 108.962 38.6176 108.684 38.6176C108.36 38.6176 108.083 38.6176 107.805 38.6176C107.759 39.7739 107.759 40.8838 107.759 42.04V44.9075C107.759 45.6474 107.759 46.3412 107.805 47.0812C107.852 47.7749 107.852 48.4686 107.898 49.1623C107.62 49.1623 107.389 49.1161 107.065 49.1161C106.788 49.1161 106.51 49.1161 106.233 49.1623C106.279 48.4686 106.279 47.7749 106.325 47.0812C106.372 46.3874 106.372 45.6474 106.372 44.9075V42.04C106.372 40.8838 106.372 39.7739 106.325 38.6176Z" fill="#3E3E3D"/>
<path d="M114.327 39.9126C114.281 39.2189 114.281 38.4789 114.234 37.7852C114.373 37.7852 114.512 37.8314 114.651 37.8314C114.789 37.8314 114.928 37.8777 115.067 37.8777C115.206 37.8777 115.344 37.8777 115.483 37.8314C115.622 37.8314 115.761 37.7852 115.899 37.7852C115.853 38.5251 115.853 39.2189 115.807 39.9126C115.761 40.6063 115.761 41.3463 115.761 42.04V44.9075C115.761 45.6474 115.761 46.3412 115.807 47.0812C115.853 47.7749 115.853 48.4686 115.899 49.1623C115.668 49.1623 115.391 49.1161 115.067 49.1161C114.743 49.1161 114.512 49.1161 114.234 49.1623C114.281 48.4686 114.281 47.7749 114.327 47.0812C114.373 46.3874 114.373 45.6474 114.373 44.9075V42.04C114.327 41.3001 114.327 40.6063 114.327 39.9126Z" fill="#3E3E3D"/>
<path d="M125.289 44.815C123.855 43.2888 122.421 41.7626 120.988 40.2364C120.988 40.5601 120.988 40.9764 120.941 41.4851C120.941 41.9938 120.941 42.6876 120.941 43.6126C120.941 43.8438 120.941 44.1213 120.941 44.4913C120.941 44.815 120.941 45.185 120.941 45.555C120.941 45.925 120.941 46.295 120.988 46.7112C120.988 47.0812 120.988 47.4512 121.034 47.7749C121.034 48.0987 121.08 48.3762 121.08 48.6537C121.08 48.8849 121.08 49.0699 121.126 49.1624C120.941 49.1624 120.756 49.1161 120.525 49.1161C120.294 49.1161 120.109 49.1161 119.924 49.1624C119.924 49.0699 119.97 48.8387 120.016 48.5612C120.063 48.2837 120.063 47.9137 120.109 47.4974C120.109 47.0812 120.155 46.6187 120.201 46.1562C120.248 45.6475 120.248 45.185 120.248 44.7225C120.248 44.26 120.294 43.7513 120.294 43.2888C120.294 42.8263 120.294 42.4101 120.294 42.0401C120.294 40.9764 120.294 40.0514 120.294 39.3114C120.294 38.5714 120.294 37.9702 120.248 37.6002H120.525C121.219 38.3402 121.913 39.1264 122.699 39.9589C123.485 40.7914 124.225 41.6239 124.965 42.4101C125.705 43.2426 126.445 43.9825 127.139 44.7225C127.832 45.4625 128.387 46.0637 128.896 46.5725V44.3063C128.896 43.1501 128.896 42.0401 128.85 40.9301C128.85 39.8202 128.804 38.8027 128.757 37.8315C128.989 37.8777 129.174 37.924 129.312 37.924C129.451 37.924 129.636 37.8777 129.821 37.8315C129.821 38.0627 129.775 38.4327 129.729 38.9414C129.682 39.4039 129.682 39.9589 129.636 40.5139C129.59 41.0689 129.59 41.6239 129.544 42.1326C129.544 42.6413 129.497 43.1038 129.497 43.4276V44.3988C129.497 44.7688 129.497 45.185 129.497 45.555C129.497 45.9712 129.497 46.3875 129.497 46.8037C129.497 47.2199 129.497 47.5899 129.497 47.9599C129.497 48.3299 129.497 48.6074 129.497 48.8849V49.4399H129.266C128.064 47.8674 126.722 46.3875 125.289 44.815Z" fill="#3E3E3D"/>
<path d="M131.115 62.5745H0V63.0369H131.115V62.5745Z" fill="#3E3E3D"/>
<path d="M17.1582 89.6762C17.3894 88.6125 17.6669 87.04 17.9907 85.0051C18.3144 82.9701 18.6844 79.964 19.1931 76.0791H19.5169C20.6731 78.3915 21.6906 80.3802 22.5693 82.0452C23.448 83.7101 24.2343 85.2826 25.0205 86.67C25.853 85.1438 26.7779 83.5251 27.7029 81.8139C28.6279 80.1027 29.6916 78.1603 30.8016 76.0328H31.0791C31.2641 77.744 31.4491 79.6865 31.7265 81.7677C31.9578 83.8951 32.2815 86.485 32.6515 89.63C32.5128 89.5837 32.3278 89.5837 32.189 89.5375C32.0503 89.5375 31.9115 89.4912 31.7728 89.4912C31.634 89.4912 31.4953 89.4912 31.3566 89.5375C31.2178 89.5375 31.0791 89.5837 30.8941 89.63C30.7091 87.3175 30.5703 85.3288 30.3853 83.5714C30.2003 81.8602 30.0153 80.6115 29.8766 79.8252C28.6741 81.8602 27.6104 83.7564 26.7317 85.4676C25.853 87.1788 25.2055 88.5662 24.8817 89.5837H24.5117C24.373 89.075 24.1418 88.52 23.8643 87.8725C23.5868 87.2713 23.1705 86.4388 22.6618 85.4676L19.6094 79.8252C19.3319 81.9064 19.1006 83.8026 18.9157 85.5138C18.7307 87.1788 18.6382 88.5662 18.6382 89.5837C18.4994 89.5375 18.4069 89.5375 18.2682 89.4912C18.1294 89.4912 18.0369 89.445 17.8982 89.445C17.7594 89.445 17.6669 89.445 17.5282 89.4912C17.4357 89.63 17.2969 89.63 17.1582 89.6762Z" fill="#3E3E3D"/>
<path d="M43.0097 89.9537C40.7898 89.9537 39.0323 89.3525 37.7374 88.1038C36.4424 86.8551 35.7949 85.1901 35.7949 83.0164C35.7949 80.889 36.4424 79.224 37.7836 77.9753C39.0786 76.7266 40.836 76.0791 43.056 76.0791C45.2759 76.0791 47.0334 76.6803 48.3283 77.9291C49.6233 79.1778 50.2708 80.889 50.2708 83.0164C50.2708 85.0976 49.6233 86.7626 48.2821 88.0113C46.9409 89.26 45.1834 89.9537 43.0097 89.9537ZM43.0097 89.2137C44.6747 89.2137 45.9696 88.6587 46.8946 87.595C47.8196 86.5313 48.2358 85.0051 48.2358 83.0164C48.2358 80.9815 47.7733 79.4553 46.8946 78.3915C46.0159 77.3278 44.7209 76.8191 43.0097 76.8191C41.3448 76.8191 40.0036 77.3741 39.1248 78.4378C38.1999 79.5478 37.7374 81.074 37.7374 83.0627C37.7374 85.0514 38.1999 86.5313 39.0786 87.595C40.0036 88.6587 41.2985 89.2137 43.0097 89.2137Z" fill="#3E3E3D"/>
<path d="M53.2324 88.89C53.3249 88.5662 53.4637 88.1963 53.5099 87.8725C53.6024 87.5025 53.6487 87.1788 53.6487 86.855C53.9262 87.595 54.3424 88.15 54.9436 88.5662C55.4986 88.9825 56.1461 89.1675 56.8861 89.1675C57.7185 89.1675 58.4123 88.89 58.921 88.3813C59.4297 87.8725 59.7072 87.1788 59.7072 86.3001C59.7072 85.6988 59.5685 85.1901 59.2448 84.8201C58.9673 84.4501 58.4585 84.1264 57.7185 83.8026L56.1461 83.1552C55.2211 82.7852 54.5736 82.3227 54.1574 81.8139C53.7412 81.3052 53.5562 80.6577 53.5562 79.8715C53.5562 78.7615 53.9262 77.8366 54.7124 77.1428C55.4986 76.4491 56.4698 76.0791 57.6723 76.0791C58.181 76.0791 58.6898 76.1253 59.1985 76.2641C59.661 76.4028 60.1697 76.5416 60.6322 76.8191C60.5397 77.0503 60.4472 77.2353 60.3547 77.5128C60.2622 77.7441 60.1697 78.0215 60.0772 78.3453C59.7535 77.8365 59.3372 77.4666 58.8748 77.2353C58.4123 77.0041 57.9035 76.8653 57.3486 76.8653C56.6086 76.8653 56.0536 77.0966 55.6374 77.5128C55.2211 77.9291 54.9899 78.5303 54.9899 79.2703C54.9899 79.8252 55.1286 80.2877 55.4524 80.6577C55.7761 81.0277 56.2848 81.3515 56.9786 81.6752L58.551 82.3689C59.476 82.7852 60.1235 83.2477 60.5397 83.7564C60.9559 84.2651 61.1409 84.9588 61.1409 85.7913C61.1409 87.04 60.7247 88.1038 59.846 88.8437C59.0135 89.63 57.8573 90 56.4698 90C55.8223 90 55.2211 89.9075 54.6661 89.7225C54.1574 89.4912 53.6487 89.2137 53.2324 88.89Z" fill="#3E3E3D"/>
<path d="M75.34 88.8438C74.8313 89.2137 74.23 89.4912 73.49 89.6762C72.7501 89.8612 71.9176 89.9537 70.9464 89.9537C68.7727 89.9537 67.1077 89.3525 65.9053 88.15C64.7028 86.9476 64.1016 85.2364 64.1016 83.0627C64.1016 80.9352 64.749 79.2703 66.0903 78.0216C67.3852 76.7728 69.1889 76.1254 71.3626 76.1254C72.1488 76.1254 72.8888 76.2179 73.5825 76.3566C74.2763 76.4954 74.97 76.7266 75.5712 77.0503C75.4787 77.3741 75.3862 77.6978 75.34 78.0216C75.2937 78.3453 75.2475 78.6228 75.2475 78.9465C74.785 78.2066 74.23 77.6978 73.5825 77.3741C72.9351 77.0503 72.1951 76.8653 71.2701 76.8653C69.6052 76.8653 68.3564 77.4203 67.4315 78.484C66.5065 79.5478 66.0903 81.1202 66.0903 83.1089C66.0903 85.0051 66.5527 86.5313 67.4315 87.6413C68.3102 88.7513 69.5589 89.3062 71.1314 89.3062C71.8713 89.3062 72.6113 89.1675 73.3051 88.89C73.9988 88.6125 74.7388 88.1963 75.3862 87.6875L75.34 88.8438Z" fill="#3E3E3D"/>
<path d="M85.5585 89.9537C83.3386 89.9537 81.5812 89.3525 80.2862 88.1038C78.9912 86.8551 78.3438 85.1901 78.3438 83.0164C78.3438 80.889 78.9912 79.224 80.3324 77.9753C81.6274 76.7266 83.3849 76.0791 85.6048 76.0791C87.8247 76.0791 89.5822 76.6803 90.8771 77.9291C92.1721 79.1778 92.8196 80.889 92.8196 83.0164C92.8196 85.0976 92.1721 86.7626 90.8309 88.0113C89.4434 89.3062 87.7322 89.9537 85.5585 89.9537ZM85.5585 89.2137C87.2235 89.2137 88.5185 88.6587 89.4434 87.595C90.3684 86.5313 90.7846 85.0051 90.7846 83.0164C90.7846 80.9815 90.3221 79.4553 89.4434 78.3915C88.5647 77.3278 87.2697 76.8191 85.5585 76.8191C83.8936 76.8191 82.5524 77.3741 81.6737 78.4378C80.7487 79.5478 80.2862 81.074 80.2862 83.0627C80.2862 85.0514 80.7487 86.5313 81.6274 87.595C82.5524 88.6587 83.8936 89.2137 85.5585 89.2137Z" fill="#3E3E3D"/>
<path d="M99.4807 89.6762C98.972 87.965 98.3708 86.0225 97.7233 83.9413C97.0758 81.8601 96.2433 79.3165 95.3184 76.3103C95.4571 76.3566 95.5959 76.3566 95.7808 76.3566C95.9196 76.3566 96.1046 76.3566 96.2896 76.3566C96.4746 76.3566 96.6133 76.3566 96.7983 76.3566C96.9371 76.3566 97.0758 76.3103 97.2146 76.3103C97.7695 78.299 98.3245 80.2414 98.8795 82.1376C99.4345 84.0338 100.036 85.93 100.637 87.78C101.331 85.93 101.978 84.0338 102.579 82.1376C103.181 80.2414 103.782 78.2527 104.337 76.3103C104.429 76.3566 104.522 76.3566 104.614 76.3566C104.707 76.3566 104.846 76.3566 104.938 76.3566C105.077 76.3566 105.169 76.3566 105.262 76.3566C105.354 76.3566 105.493 76.3103 105.586 76.3103C106.141 78.2065 106.742 80.0564 107.389 81.9526C108.037 83.8488 108.684 85.745 109.332 87.595C109.979 85.745 110.58 83.8951 111.135 81.9989C111.69 80.1027 112.245 78.2065 112.708 76.3103C112.8 76.3103 112.893 76.3566 112.985 76.3566C113.078 76.3566 113.217 76.3566 113.309 76.3566C113.448 76.3566 113.54 76.3566 113.679 76.3566C113.772 76.3566 113.91 76.3103 114.003 76.3103C113.124 78.9465 111.829 82.7851 110.164 87.8262L109.563 89.6762C109.47 89.6299 109.332 89.6299 109.239 89.6299C109.147 89.6299 109.008 89.6299 108.869 89.6299C108.73 89.6299 108.592 89.6299 108.499 89.6299C108.407 89.6299 108.268 89.6762 108.175 89.6762C107.667 88.0112 107.158 86.2538 106.557 84.4501C105.956 82.6464 105.308 80.7502 104.568 78.7615C103.551 81.8601 102.764 84.2651 102.163 85.9763C101.562 87.6875 101.146 88.9362 100.914 89.6762C100.776 89.6299 100.637 89.6299 100.544 89.5837C100.452 89.5837 100.313 89.5374 100.221 89.5374C100.128 89.5374 99.9895 89.5374 99.897 89.5837C99.712 89.6299 99.6195 89.6299 99.4807 89.6762Z" fill="#3E3E3D"/>
</svg>
