<svg width="80" height="80" viewBox="0 0 80 80" fill="none" xmlns="http://www.w3.org/2000/svg">
<path d="M0 38.3392C0 20.2901 0 11.2456 5.6028 5.6028C11.2456 0 20.2901 0 38.3392 0H41.6608C59.7499 0 68.7944 0 74.3972 5.6028C80 11.2056 80 20.2501 80 38.3392V41.6608C80 59.7499 80 68.7944 74.3972 74.3972C68.7944 80 59.7499 80 41.6608 80H38.3392C20.2501 80 11.2056 80 5.6028 74.3972C0 68.7944 0 59.7499 0 41.7008V38.3392Z" fill="#2787F5"/>
<path fill-rule="evenodd" clip-rule="evenodd" d="M21.6916 25.0124H15.8487C14.1678 25.0124 13.8477 25.8128 13.8477 26.6533C13.8477 28.214 15.8086 35.8579 23.0523 46.0229C27.8947 52.9464 34.6581 56.7083 40.8612 56.7083C44.583 56.7083 45.0232 55.8679 45.0232 54.4271V49.1845C45.0232 47.5037 45.3834 47.1835 46.544 47.1835C47.4244 47.1835 48.9052 47.6237 52.3469 50.9454C56.3089 54.9074 56.9492 56.6683 59.1903 56.6683H65.0332C66.7141 56.6683 67.5545 55.8278 67.0342 54.187C66.514 52.5462 64.633 50.185 62.1118 47.3436C60.7511 45.7428 58.7101 44.0219 58.1098 43.1415C57.2293 42.0209 57.5095 41.5407 58.1098 40.5402C58.1098 40.5402 65.2334 30.5352 65.9537 27.1335C66.3139 25.8929 65.9537 24.9724 64.1928 24.9724H58.3499C56.8692 24.9724 56.1888 25.7728 55.8286 26.6132C55.8286 26.6132 52.8672 33.8569 48.6651 38.5392C47.3044 39.8999 46.7041 40.3401 45.9437 40.3401C45.5835 40.3401 45.0232 39.8999 45.0232 38.6593V27.1735C45.0232 25.6928 44.583 25.0124 43.3424 25.0124H34.1778C33.2574 25.0124 32.6971 25.6928 32.6971 26.3731C32.6971 27.7738 34.8181 28.094 35.0182 32.056V40.6603C35.0182 42.5412 34.6581 42.9014 33.9377 42.9014C31.9767 42.9014 27.1343 35.6177 24.2929 27.3336C23.7326 25.6528 23.1723 25.0124 21.6916 25.0124Z" fill="white"/>
</svg>
