<svg width="175" height="60" viewBox="0 0 175 60" fill="none" xmlns="http://www.w3.org/2000/svg">
<path d="M117.204 50.8531C116.066 52.9384 114.55 52.7488 112.844 52.7488V59.7629C113.981 59.9525 115.119 59.9525 116.256 59.9525C119.479 59.9525 122.322 58.6255 124.028 54.8341C125.735 51.2323 125.924 44.4077 126.872 36.8249H134.834V59.1942H142.606V30.3795H119.858C118.91 40.0476 118.531 48.5783 117.204 50.8531ZM97.4885 29.8108C90.2848 29.8108 84.7873 34.5501 83.6499 41.5642H79.6689V30.3795H71.8965V59.3838H79.6689V48.1991H83.4603C84.7873 55.4028 90.0953 59.9525 97.2989 59.9525C105.64 59.9525 111.517 53.8863 111.517 44.7869C111.517 35.6875 105.83 29.8108 97.4885 29.8108ZM97.4885 53.128C93.5075 53.128 90.8535 49.9053 90.8535 44.9764C90.8535 39.858 93.5075 36.8249 97.4885 36.8249C101.469 36.8249 104.123 40.0476 104.123 44.9764C104.123 49.9053 101.469 53.128 97.4885 53.128ZM160.615 29.8108C156.824 29.8108 153.222 30.3795 149.62 31.3274V38.1519C152.843 37.0145 156.066 36.6353 159.478 36.6353C165.923 36.6353 166.492 39.858 166.492 41.3746V41.9433C164.407 41.5642 162.132 41.3746 160.047 41.3746C149.431 41.3746 147.156 46.8721 147.156 50.6636C147.156 54.455 149.431 59.9525 157.962 59.9525C161.374 59.9525 164.596 58.6255 166.871 56.1611H167.25V59.1942H174.265V42.8912C174.265 38.1519 173.127 29.8108 160.615 29.8108ZM166.492 50.474C164.976 52.5593 162.322 53.6967 159.857 53.5071C157.014 53.5071 155.497 52.1801 155.497 50.2844C155.497 48.3887 157.014 46.6826 162.132 46.6826C164.596 46.6826 166.492 46.6826 166.492 46.6826V50.474Z" fill="black"/>
<path d="M31.5161 58.8152C35.6867 45.9244 45.9235 35.8771 58.8143 31.517C59.7621 31.1379 60.1413 30.19 59.9517 29.4317C59.7621 28.863 59.383 28.4839 58.8143 28.2943C45.9235 24.1238 35.8762 13.887 31.5161 0.996162C31.3265 0.23788 30.3787 -0.141262 29.4308 0.048309C28.8621 0.23788 28.483 0.617021 28.483 1.18573C24.1229 14.0765 14.0756 24.1238 1.18482 28.4839C0.236963 28.863 -0.142178 29.8109 0.0473926 30.5692C0.236963 31.1379 0.616104 31.517 1.18482 31.7066C14.0756 35.8771 24.1229 45.9244 28.483 58.8152C28.8621 59.763 29.81 60.1422 30.5683 59.763C30.9474 59.763 31.3265 59.3839 31.5161 58.8152Z" fill="url(#paint0_radial)"/>
<path opacity="0.8" d="M1.18555 31.5171C14.0763 35.8772 24.1236 45.9245 28.4837 58.8153C28.8628 59.7631 29.8107 60.1422 30.569 59.9527C31.1377 59.7631 31.5168 59.384 31.7064 58.8153C35.877 45.9245 46.1138 35.8772 59.0046 31.5171C52.9383 33.6024 42.5119 35.1189 30.1898 35.1189C17.6782 35.1189 7.2518 33.6024 1.18555 31.5171Z" fill="url(#paint1_radial)"/>
<defs>
<radialGradient id="paint0_radial" cx="0" cy="0" r="1" gradientUnits="userSpaceOnUse" gradientTransform="translate(58.2741 -1.23569) scale(66.7866 66.7872)">
<stop stop-color="#00FFFE"/>
<stop offset="0.2281" stop-color="#00FFFE"/>
<stop offset="0.3047" stop-color="#11F3FE"/>
<stop offset="0.4569" stop-color="#3ED3FE"/>
<stop offset="0.6706" stop-color="#87A0FF"/>
<stop offset="0.9352" stop-color="#E95AFF"/>
<stop offset="0.9531" stop-color="#F055FF"/>
<stop offset="1" stop-color="#F055FF"/>
</radialGradient>
<radialGradient id="paint1_radial" cx="0" cy="0" r="1" gradientUnits="userSpaceOnUse" gradientTransform="translate(50.2499 34.0046) scale(37.7113 37.7093)">
<stop stop-color="#053BF2"/>
<stop offset="0.08886" stop-color="#0F3CF3" stop-opacity="0.958"/>
<stop offset="0.2414" stop-color="#2A3FF4" stop-opacity="0.844"/>
<stop offset="0.4393" stop-color="#5544F6" stop-opacity="0.658"/>
<stop offset="0.6749" stop-color="#924BFA" stop-opacity="0.402"/>
<stop offset="0.9395" stop-color="#DE53FE" stop-opacity="0.078"/>
<stop offset="1" stop-color="#F055FF" stop-opacity="0"/>
</radialGradient>
</defs>
</svg>
