<svg width="156" height="132" viewBox="0 0 156 132" fill="none" xmlns="http://www.w3.org/2000/svg">
	<rect width="156" height="132" fill="white"/>
	<path d="M117.094 35C125.342 46.2777 144.094 61.0001 144.094 78.0001C144.094 95.0001 131.894 103.6 121.894 110.437C111.894 117.274 92.5475 119.4 74.2937 119.4C53.2937 119.4 29.3356 112.6 16.8906 92.4C5.5771 74.0365 14.4094 43.4008 24.6953 31.9996C34.9813 20.5983 44.0953 12.7999 65.2953 12.8C81.5706 12.8001 107.294 21.6 117.094 35Z" stroke="#EE3D43" fill="#EE3D43" stroke-width="2"/>
	<path d="M27.4593 58.3882L27.4593 50.0242C28.3233 49.9842 29.1313 49.9642 29.8833 49.9642C30.8113 49.9642 31.5033 50.1482 31.9593 50.5162C32.4153 50.8842 32.6433 51.3922 32.6433 52.0402C32.6433 52.9442 32.2433 53.5802 31.4433 53.9482V53.9722C31.8993 54.0922 32.2593 54.3202 32.5233 54.6562C32.7873 54.9842 32.9193 55.4082 32.9193 55.9282C32.9193 56.7442 32.6393 57.3682 32.0793 57.8002C31.5193 58.2322 30.7593 58.4482 29.7993 58.4482C28.8393 58.4482 28.0593 58.4282 27.4593 58.3882ZM29.9793 54.7882H28.9353V57.0082C29.3113 57.0482 29.6353 57.0682 29.9073 57.0682C30.9313 57.0682 31.4433 56.6642 31.4433 55.8562C31.4433 55.5042 31.3153 55.2402 31.0593 55.0642C30.8033 54.8802 30.4433 54.7882 29.9793 54.7882ZM29.8593 51.3442C29.5073 51.3442 29.1993 51.3562 28.9353 51.3802V53.5042H29.9313C30.3073 53.5042 30.6073 53.4082 30.8313 53.2162C31.0633 53.0242 31.1793 52.7482 31.1793 52.3882C31.1793 52.0522 31.0633 51.7962 30.8313 51.6202C30.5993 51.4362 30.2753 51.3442 29.8593 51.3442Z" fill="#FFFFFF"/>
	<path d="M34.2415 54.2002C34.2415 52.9762 34.6495 51.9482 35.4655 51.1162C36.2975 50.2842 37.3455 49.8682 38.6095 49.8682C39.8735 49.8682 40.9175 50.2682 41.7415 51.0682C42.5735 51.8762 42.9895 52.9202 42.9895 54.2002C42.9895 55.4562 42.5735 56.4922 41.7415 57.3082C40.9095 58.1242 39.8655 58.5322 38.6095 58.5322C37.3455 58.5322 36.3015 58.1322 35.4775 57.3322C34.6535 56.5322 34.2415 55.4882 34.2415 54.2002ZM35.8015 54.2002C35.8015 55.0482 36.0695 55.7522 36.6055 56.3122C37.1415 56.8722 37.8095 57.1522 38.6095 57.1522C39.4735 57.1522 40.1575 56.8722 40.6615 56.3122C41.1735 55.7522 41.4295 55.0482 41.4295 54.2002C41.4295 53.3442 41.1575 52.6362 40.6135 52.0762C40.0695 51.5242 39.4015 51.2482 38.6095 51.2482C37.8015 51.2482 37.1295 51.5242 36.5935 52.0762C36.0655 52.6282 35.8015 53.3362 35.8015 54.2002Z" fill="#FFFFFF"/>
	<path d="M51.3935 58.4002H49.9175V51.3802H46.1735V58.4002H44.6975V50.0002L51.3935 50.0002V58.4002Z" fill="#FFFFFF"/>
	<path d="M60.141 58.4002H58.677V51.3802H56.229L56.061 52.9642C55.965 53.9242 55.841 54.7442 55.689 55.4242C55.537 56.1042 55.369 56.6482 55.185 57.0562C55.001 57.4642 54.781 57.7762 54.525 57.9922C54.277 58.2082 54.017 58.3442 53.745 58.4002C53.481 58.4482 53.173 58.4482 52.821 58.4002L52.857 56.9362C53.033 56.9602 53.177 56.9522 53.289 56.9122C53.401 56.8722 53.533 56.7602 53.685 56.5762C53.853 56.3682 53.989 56.0922 54.093 55.7482C54.381 54.8922 54.593 53.5362 54.729 51.6802L54.849 50.0002L60.141 50.0002V58.4002Z" fill="#FFFFFF"/>
	<path d="M61.8392 54.2002C61.8392 52.9762 62.2472 51.9482 63.0632 51.1162C63.8952 50.2842 64.9432 49.8682 66.2072 49.8682C67.4712 49.8682 68.5152 50.2682 69.3392 51.0682C70.1712 51.8762 70.5872 52.9202 70.5872 54.2002C70.5872 55.4562 70.1712 56.4922 69.3392 57.3082C68.5072 58.1242 67.4632 58.5322 66.2072 58.5322C64.9432 58.5322 63.8992 58.1322 63.0752 57.3322C62.2512 56.5322 61.8392 55.4882 61.8392 54.2002ZM63.3992 54.2002C63.3992 55.0482 63.6672 55.7522 64.2032 56.3122C64.7392 56.8722 65.4072 57.1522 66.2072 57.1522C67.0712 57.1522 67.7552 56.8722 68.2592 56.3122C68.7712 55.7522 69.0272 55.0482 69.0272 54.2002C69.0272 53.3442 68.7552 52.6362 68.2112 52.0762C67.6672 51.5242 66.9992 51.2482 66.2072 51.2482C65.3992 51.2482 64.7272 51.5242 64.1912 52.0762C63.6632 52.6282 63.3992 53.3362 63.3992 54.2002Z" fill="#FFFFFF"/>
	<path d="M81.6912 58.4002H72.2952V50.0002L73.7712 50.0002V57.0202H76.3752L76.3752 50.0002L77.8512 50.0002V57.0202L80.4552 57.0202V50.0002L81.9312 50.0002V57.0202H83.0712V59.9002H81.6912V58.4002Z" fill="#FFFFFF"/>
	<path d="M84.9376 58.4002H83.4496L87.0016 49.9762L88.2976 49.9762L91.8496 58.4002H90.2776L89.4016 56.2522L85.8136 56.2522L84.9376 58.4002ZM88.8376 54.8722L87.6136 51.8842L86.3776 54.8722L88.8376 54.8722Z" fill="#FFFFFF"/>
	<path d="M98.0877 58.4002H93.1077V50.0002L97.9677 50.0002V51.3802L94.5837 51.3802V53.4682H97.6077V54.8482H94.5837V57.0202H98.0877V58.4002Z" fill="#FFFFFF"/>
	<path d="M101.486 58.4002H100.01V50.0002L101.498 50.0002L104.366 53.9242L107.102 50.0002L108.494 50.0002V58.4002H107.03V52.3282L104.378 56.0602H104.162L101.486 52.3642V58.4002Z" fill="#FFFFFF"/>
	<path d="M32.3193 71.6122H28.5393V70.2322H32.2833C32.1393 69.5442 31.7993 69.0082 31.2633 68.6242C30.7273 68.2402 30.0593 68.0482 29.2593 68.0482C28.5233 68.0482 27.8673 68.2642 27.2913 68.6962L26.7153 67.5922C27.4433 66.9762 28.4073 66.6682 29.6073 66.6682C30.8553 66.6682 31.8713 67.0642 32.6553 67.8562C33.4393 68.6562 33.8313 69.7002 33.8313 70.9882C33.8313 72.3082 33.4353 73.3642 32.6433 74.1562C31.8433 74.9402 30.7753 75.3322 29.4393 75.3322C28.8793 75.3322 28.3473 75.2522 27.8433 75.0922C27.3393 74.9322 26.9313 74.7202 26.6193 74.4562L27.2553 73.2202C27.8873 73.7082 28.6073 73.9522 29.4153 73.9522C30.1833 73.9522 30.8273 73.7482 31.3473 73.3402C31.8753 72.9242 32.1993 72.3482 32.3193 71.6122Z" fill="#FFFFFF"/>
	<path d="M40.1415 75.2962H38.6655V74.1802C37.4975 74.1802 36.5575 73.8922 35.8455 73.3162C35.1415 72.7322 34.7895 71.9202 34.7895 70.8802C34.7895 69.8482 35.1415 69.0442 35.8455 68.4682C36.5575 67.8842 37.4975 67.5882 38.6655 67.5802V66.7042H40.1415V67.5802C41.3015 67.5882 42.2375 67.8882 42.9495 68.4802C43.6615 69.0722 44.0175 69.8722 44.0175 70.8802C44.0175 71.9042 43.6615 72.7122 42.9495 73.3042C42.2455 73.8722 41.3095 74.1642 40.1415 74.1802V75.2962ZM42.4575 70.8802C42.4575 70.2882 42.2575 69.8202 41.8575 69.4762C41.4575 69.1242 40.8855 68.9442 40.1415 68.9362L40.1415 72.8242C41.6855 72.8162 42.4575 72.1682 42.4575 70.8802ZM36.3495 70.8802C36.3495 71.5042 36.5495 71.9842 36.9495 72.3202C37.3495 72.6482 37.9215 72.8162 38.6655 72.8242V68.9362C37.9295 68.9442 37.3575 69.1242 36.9495 69.4762C36.5495 69.8202 36.3495 70.2882 36.3495 70.8802Z" fill="#FFFFFF"/>
	<path d="M50.2079 75.2962H48.7319V74.1802C47.5639 74.1802 46.6239 73.8922 45.9119 73.3162C45.2079 72.7322 44.8559 71.9202 44.8559 70.8802C44.8559 69.8482 45.2079 69.0442 45.9119 68.4682C46.6239 67.8842 47.5639 67.5882 48.7319 67.5802V66.7042H50.2079V67.5802C51.3679 67.5882 52.3039 67.8882 53.0159 68.4802C53.7279 69.0722 54.0839 69.8722 54.0839 70.8802C54.0839 71.9042 53.7279 72.7122 53.0159 73.3042C52.3119 73.8722 51.3759 74.1642 50.2079 74.1802V75.2962ZM52.5239 70.8802C52.5239 70.2882 52.3239 69.8202 51.9239 69.4762C51.5239 69.1242 50.9519 68.9442 50.2079 68.9362L50.2079 72.8242C51.7519 72.8162 52.5239 72.1682 52.5239 70.8802ZM46.4159 70.8802C46.4159 71.5042 46.6159 71.9842 47.0159 72.3202C47.4159 72.6482 47.9879 72.8162 48.7319 72.8242V68.9362C47.9959 68.9442 47.4239 69.1242 47.0159 69.4762C46.6159 69.8202 46.4159 70.2882 46.4159 70.8802Z" fill="#FFFFFF"/>
	<path d="M60.6463 75.2002H55.6663V66.8002H60.5263V68.1802H57.1423V70.2682H60.1663V71.6482H57.1423V73.8202H60.6463V75.2002Z" fill="#FFFFFF"/>
	<path d="M64.0446 75.2002H62.5686V66.8002H64.0446V70.7842L67.3566 66.8002H69.1326L65.6766 70.7122L69.3486 75.2002H67.4766L64.0446 70.8682V75.2002Z" fill="#FFFFFF"/>
	<path d="M72.2408 68.1802H69.5168V66.8002H76.4408V68.1802H73.7168V75.2002H72.2408V68.1802Z" fill="#FFFFFF"/>
	<path d="M83.421 69.2362L79.017 75.2002H77.721V66.8002H79.197V72.7762L83.601 66.8002H84.897V75.2002L83.421 75.2002V69.2362Z" fill="#FFFFFF"/>
	<path d="M87.2249 75.1882V66.8242C88.0889 66.7842 88.8969 66.7642 89.6489 66.7642C90.5769 66.7642 91.2689 66.9482 91.7249 67.3162C92.1809 67.6842 92.4089 68.1922 92.4089 68.8402C92.4089 69.7442 92.0089 70.3802 91.2089 70.7482V70.7722C91.6649 70.8922 92.0249 71.1202 92.2889 71.4562C92.5529 71.7842 92.6849 72.2082 92.6849 72.7282C92.6849 73.5442 92.4049 74.1682 91.8449 74.6002C91.2849 75.0322 90.5249 75.2482 89.5649 75.2482C88.6049 75.2482 87.8249 75.2282 87.2249 75.1882ZM89.7449 71.5882H88.7009V73.8082C89.0769 73.8482 89.4009 73.8682 89.6729 73.8682C90.6969 73.8682 91.2089 73.4642 91.2089 72.6562C91.2089 72.3042 91.0809 72.0402 90.8249 71.8642C90.5689 71.6802 90.2089 71.5882 89.7449 71.5882ZM89.6249 68.1442C89.2729 68.1442 88.9649 68.1562 88.7009 68.1802V70.3042H89.6969C90.0729 70.3042 90.3729 70.2082 90.5969 70.0162C90.8289 69.8242 90.9449 69.5482 90.9449 69.1882C90.9449 68.8522 90.8289 68.5962 90.5969 68.4202C90.3649 68.2362 90.0409 68.1442 89.6249 68.1442Z" fill="#FFFFFF"/>
	<path d="M101.411 75.2002H99.9471V71.6122H96.1071V75.2002H94.6311V66.8002H96.1071V70.2322H99.9471V66.8002H101.411V75.2002Z" fill="#FFFFFF"/>
	<path d="M111.777 75.2002H110.313L110.313 66.8002H111.777V75.2002ZM106.029 71.0002C105.901 71.0002 105.629 71.0202 105.213 71.0602V73.8082C105.277 73.8082 105.405 73.8162 105.597 73.8322C105.789 73.8402 105.925 73.8442 106.005 73.8442C107.109 73.8442 107.661 73.3522 107.661 72.3682C107.661 71.9202 107.521 71.5802 107.241 71.3482C106.961 71.1162 106.557 71.0002 106.029 71.0002ZM103.737 66.8002H105.213V69.6802C105.557 69.6402 105.869 69.6202 106.149 69.6202C107.149 69.6202 107.909 69.8602 108.429 70.3402C108.957 70.8122 109.221 71.4762 109.221 72.3322C109.221 73.2282 108.917 73.9362 108.309 74.4562C107.709 74.9682 106.881 75.2242 105.825 75.2242C105.377 75.2242 104.989 75.2202 104.661 75.2122C104.341 75.2042 104.033 75.2002 103.737 75.2002V66.8002Z" fill="#FFFFFF"/>
	<path d="M119.088 75.2002H114.108V66.8002H118.968V68.1802H115.584V70.2682H118.608V71.6482H115.584V73.8202H119.088V75.2002Z" fill="#FFFFFF"/>
	<path d="M34.1553 92.0002H32.6793V84.9802H28.9353L28.9353 92.0002H27.4593L27.4593 83.6002H34.1553V92.0002Z" fill="#FFFFFF"/>
	<path d="M37.9587 88.9642V92.0002H36.4827V83.6002C36.8347 83.6002 37.2147 83.5962 37.6227 83.5882C38.0387 83.5802 38.4547 83.5762 38.8707 83.5762C39.4627 83.5762 39.9747 83.6522 40.4067 83.8042C40.8467 83.9482 41.1867 84.1522 41.4267 84.4162C41.6667 84.6722 41.8427 84.9562 41.9547 85.2682C42.0667 85.5722 42.1227 85.9082 42.1227 86.2762C42.1227 87.0362 41.8507 87.6802 41.3067 88.2082C40.7707 88.7362 40.0187 89.0002 39.0507 89.0002C38.5627 89.0002 38.1987 88.9882 37.9587 88.9642ZM39.0147 84.9562L37.9587 84.9802V87.5602C38.3827 87.6002 38.7307 87.6202 39.0027 87.6202C39.4747 87.6202 39.8507 87.5042 40.1307 87.2722C40.4187 87.0402 40.5627 86.7042 40.5627 86.2642C40.5627 85.3922 40.0467 84.9562 39.0147 84.9562Z" fill="#FFFFFF"/>
	<path d="M43.1478 87.8002C43.1478 86.5762 43.5558 85.5482 44.3718 84.7162C45.2038 83.8842 46.2518 83.4682 47.5158 83.4682C48.7798 83.4682 49.8238 83.8682 50.6478 84.6682C51.4798 85.4762 51.8958 86.5202 51.8958 87.8002C51.8958 89.0562 51.4798 90.0922 50.6478 90.9082C49.8158 91.7242 48.7718 92.1322 47.5158 92.1322C46.2518 92.1322 45.2078 91.7322 44.3838 90.9322C43.5598 90.1322 43.1478 89.0882 43.1478 87.8002ZM44.7078 87.8002C44.7078 88.6482 44.9758 89.3522 45.5118 89.9122C46.0478 90.4722 46.7158 90.7522 47.5158 90.7522C48.3798 90.7522 49.0638 90.4722 49.5678 89.9122C50.0798 89.3522 50.3358 88.6482 50.3358 87.8002C50.3358 86.9442 50.0638 86.2362 49.5198 85.6762C48.9758 85.1242 48.3078 84.8482 47.5158 84.8482C46.7078 84.8482 46.0358 85.1242 45.4998 85.6762C44.9718 86.2282 44.7078 86.9362 44.7078 87.8002Z" fill="#FFFFFF"/>
	<path d="M58.5838 92.0002H53.6038V83.6002H58.4638V84.9802H55.0798V87.0682H58.1038V88.4482H55.0798V90.6202L58.5838 90.6202V92.0002Z" fill="#FFFFFF"/>
	<path d="M61.9821 92.0002H60.5061V83.6002H61.9821V87.5842L65.2941 83.6002H67.0701L63.6141 87.5122L67.2861 92.0002H65.4141L61.9821 87.6682V92.0002Z" fill="#FFFFFF"/>
	<path d="M70.1783 84.9802H67.4543V83.6002H74.3783V84.9802H71.6543V92.0002H70.1783V84.9802Z" fill="#FFFFFF"/>
	<path d="M83.6985 92.0002H82.2345V83.6002H83.6985V92.0002ZM77.9505 87.8002C77.8225 87.8002 77.5505 87.8202 77.1345 87.8602V90.6082C77.1985 90.6082 77.3265 90.6162 77.5185 90.6322C77.7105 90.6402 77.8465 90.6442 77.9265 90.6442C79.0305 90.6442 79.5825 90.1522 79.5825 89.1682C79.5825 88.7202 79.4425 88.3802 79.1625 88.1482C78.8825 87.9162 78.4785 87.8002 77.9505 87.8002ZM75.6585 83.6002H77.1345V86.4802C77.4785 86.4402 77.7905 86.4202 78.0705 86.4202C79.0705 86.4202 79.8305 86.6602 80.3505 87.1402C80.8785 87.6122 81.1425 88.2762 81.1425 89.1322C81.1425 90.0282 80.8385 90.7362 80.2305 91.2562C79.6305 91.7682 78.8025 92.0242 77.7465 92.0242C77.2985 92.0242 76.9105 92.0202 76.5825 92.0122C76.2625 92.0042 75.9545 92.0002 75.6585 92.0002V83.6002Z" fill="#FFFFFF"/>
</svg>
