<svg width="190" height="115" viewBox="0 0 190 115" fill="none" xmlns="http://www.w3.org/2000/svg">
<path d="M128.669 79.1696C130.435 70.2562 124.661 59.7451 114.542 53.4384C103.429 46.5151 98.4674 41.9462 94.0527 33.8877C89.8483 26.1936 86.7229 9.65611 69.8351 3.27937C49.5697 -4.37272 28.7577 2.15818 15.85 16.9718C1.42878 33.5093 -7.6248 63.3609 8.94072 90.0311C25.5062 116.687 61.1599 117.556 82.1401 112.174C121.045 102.224 126.875 88.2512 128.669 79.1696Z" fill="#EE3D43"/>
<path d="M18.97 49.99L18.97 43.02C19.69 42.9867 20.3633 42.97 20.99 42.97C21.7633 42.97 22.34 43.1233 22.72 43.43C23.1 43.7367 23.29 44.16 23.29 44.7C23.29 45.4533 22.9567 45.9833 22.29 46.29L22.29 46.31C22.67 46.41 22.97 46.6 23.19 46.88C23.41 47.1533 23.52 47.5067 23.52 47.94C23.52 48.62 23.2867 49.14 22.82 49.5C22.3533 49.86 21.72 50.04 20.92 50.04C20.12 50.04 19.47 50.0233 18.97 49.99ZM21.07 46.99L20.2 46.99L20.2 48.84C20.5133 48.8733 20.7833 48.89 21.01 48.89C21.8633 48.89 22.29 48.5533 22.29 47.88C22.29 47.5867 22.1833 47.3667 21.97 47.22C21.7567 47.0667 21.4567 46.99 21.07 46.99ZM20.97 44.12C20.6767 44.12 20.42 44.13 20.2 44.15L20.2 45.92L21.03 45.92C21.3433 45.92 21.5933 45.84 21.78 45.68C21.9733 45.52 22.07 45.29 22.07 44.99C22.07 44.71 21.9733 44.4967 21.78 44.35C21.5867 44.1967 21.3167 44.12 20.97 44.12ZM24.6219 46.5C24.6219 45.48 24.9619 44.6233 25.6419 43.93C26.3352 43.2367 27.2085 42.89 28.2619 42.89C29.3152 42.89 30.1852 43.2233 30.8719 43.89C31.5652 44.5633 31.9119 45.4333 31.9119 46.5C31.9119 47.5467 31.5652 48.41 30.8719 49.09C30.1785 49.77 29.3085 50.11 28.2619 50.11C27.2085 50.11 26.3385 49.7767 25.6519 49.11C24.9652 48.4433 24.6219 47.5733 24.6219 46.5ZM25.9219 46.5C25.9219 47.2067 26.1452 47.7933 26.5919 48.26C27.0385 48.7267 27.5952 48.96 28.2619 48.96C28.9819 48.96 29.5519 48.7267 29.9719 48.26C30.3985 47.7933 30.6119 47.2067 30.6119 46.5C30.6119 45.7867 30.3852 45.1967 29.9319 44.73C29.4785 44.27 28.9219 44.04 28.2619 44.04C27.5885 44.04 27.0285 44.27 26.5819 44.73C26.1419 45.19 25.9219 45.78 25.9219 46.5ZM38.9152 50L37.6852 50L37.6852 44.15L34.5652 44.15L34.5652 50L33.3352 50L33.3352 43L38.9152 43L38.9152 50ZM46.2048 50L44.9848 50L44.9848 44.15L42.9448 44.15L42.8048 45.47C42.7248 46.27 42.6214 46.9533 42.4948 47.52C42.3681 48.0867 42.2281 48.54 42.0748 48.88C41.9214 49.22 41.7381 49.48 41.5248 49.66C41.3181 49.84 41.1014 49.9533 40.8748 50C40.6548 50.04 40.3981 50.04 40.1048 50L40.1348 48.78C40.2814 48.8 40.4014 48.7933 40.4948 48.76C40.5881 48.7267 40.6981 48.6333 40.8248 48.48C40.9648 48.3067 41.0781 48.0767 41.1648 47.79C41.4048 47.0767 41.5814 45.9467 41.6948 44.4L41.7948 43L46.2048 43L46.2048 50ZM47.6199 46.5C47.6199 45.48 47.9599 44.6233 48.6399 43.93C49.3333 43.2367 50.2066 42.89 51.2599 42.89C52.3133 42.89 53.1833 43.2233 53.8699 43.89C54.5633 44.5633 54.9099 45.4333 54.9099 46.5C54.9099 47.5467 54.5633 48.41 53.8699 49.09C53.1766 49.77 52.3066 50.11 51.2599 50.11C50.2066 50.11 49.3366 49.7767 48.6499 49.11C47.9633 48.4433 47.6199 47.5733 47.6199 46.5ZM48.9199 46.5C48.9199 47.2067 49.1433 47.7933 49.5899 48.26C50.0366 48.7267 50.5933 48.96 51.2599 48.96C51.9799 48.96 52.5499 48.7267 52.9699 48.26C53.3966 47.7933 53.6099 47.2067 53.6099 46.5C53.6099 45.7867 53.3833 45.1967 52.9299 44.73C52.4766 44.27 51.9199 44.04 51.2599 44.04C50.5866 44.04 50.0266 44.27 49.5799 44.73C49.1399 45.19 48.9199 45.78 48.9199 46.5ZM64.1633 50L56.3333 50L56.3333 43L57.5633 43L57.5633 48.85L59.7333 48.85L59.7333 43L60.9633 43L60.9633 48.85L63.1333 48.85L63.1333 43L64.3633 43L64.3633 48.85L65.3133 48.85L65.3133 51.25L64.1633 51.25L64.1633 50ZM66.8686 50L65.6286 50L68.5886 42.98L69.6686 42.98L72.6286 50L71.3186 50L70.5886 48.21L67.5986 48.21L66.8686 50ZM70.1186 47.06L69.0986 44.57L68.0686 47.06L70.1186 47.06ZM77.827 50L73.677 50L73.677 43L77.727 43L77.727 44.15L74.907 44.15L74.907 45.89L77.427 45.89L77.427 47.04L74.907 47.04L74.907 48.85L77.827 48.85L77.827 50ZM80.659 50L79.429 50L79.429 43L80.669 43L83.059 46.27L85.339 43L86.499 43L86.499 50L85.279 50L85.279 44.94L83.069 48.05L82.889 48.05L80.659 44.97L80.659 50ZM23.02 61.01L19.87 61.01L19.87 59.86L22.99 59.86C22.87 59.2867 22.5867 58.84 22.14 58.52C21.6933 58.2 21.1367 58.04 20.47 58.04C19.8567 58.04 19.31 58.22 18.83 58.58L18.35 57.66C18.9567 57.1467 19.76 56.89 20.76 56.89C21.8 56.89 22.6467 57.22 23.3 57.88C23.9533 58.5467 24.28 59.4167 24.28 60.49C24.28 61.59 23.95 62.47 23.29 63.13C22.6233 63.7833 21.7333 64.11 20.62 64.11C20.1533 64.11 19.71 64.0433 19.29 63.91C18.87 63.7767 18.53 63.6 18.27 63.38L18.8 62.35C19.3267 62.7567 19.9267 62.96 20.6 62.96C21.24 62.96 21.7767 62.79 22.21 62.45C22.65 62.1033 22.92 61.6233 23.02 61.01ZM29.5385 64.08L28.3085 64.08L28.3085 63.15C27.3352 63.15 26.5518 62.91 25.9585 62.43C25.3718 61.9433 25.0785 61.2667 25.0785 60.4C25.0785 59.54 25.3718 58.87 25.9585 58.39C26.5518 57.9033 27.3352 57.6567 28.3085 57.65L28.3085 56.92L29.5385 56.92L29.5385 57.65C30.5052 57.6567 31.2852 57.9067 31.8785 58.4C32.4718 58.8933 32.7685 59.56 32.7685 60.4C32.7685 61.2533 32.4718 61.9267 31.8785 62.42C31.2918 62.8933 30.5118 63.1367 29.5385 63.15L29.5385 64.08ZM31.4685 60.4C31.4685 59.9067 31.3018 59.5167 30.9685 59.23C30.6352 58.9367 30.1585 58.7867 29.5385 58.78L29.5385 62.02C30.8252 62.0133 31.4685 61.4733 31.4685 60.4ZM26.3785 60.4C26.3785 60.92 26.5452 61.32 26.8785 61.6C27.2118 61.8733 27.6885 62.0133 28.3085 62.02L28.3085 58.78C27.6952 58.7867 27.2185 58.9367 26.8785 59.23C26.5452 59.5167 26.3785 59.9067 26.3785 60.4ZM37.9272 64.08L36.6972 64.08L36.6972 63.15C35.7239 63.15 34.9405 62.91 34.3472 62.43C33.7605 61.9433 33.4672 61.2667 33.4672 60.4C33.4672 59.54 33.7605 58.87 34.3472 58.39C34.9405 57.9033 35.7239 57.6567 36.6972 57.65L36.6972 56.92L37.9272 56.92L37.9272 57.65C38.8939 57.6567 39.6739 57.9067 40.2672 58.4C40.8605 58.8933 41.1572 59.56 41.1572 60.4C41.1572 61.2533 40.8605 61.9267 40.2672 62.42C39.6805 62.8933 38.9005 63.1367 37.9272 63.15L37.9272 64.08ZM39.8572 60.4C39.8572 59.9067 39.6905 59.5167 39.3572 59.23C39.0239 58.9367 38.5472 58.7867 37.9272 58.78L37.9272 62.02C39.2139 62.0133 39.8572 61.4733 39.8572 60.4ZM34.7672 60.4C34.7672 60.92 34.9339 61.32 35.2672 61.6C35.6005 61.8733 36.0772 62.0133 36.6972 62.02L36.6972 58.78C36.0839 58.7867 35.6072 58.9367 35.2672 59.23C34.9339 59.5167 34.7672 59.9067 34.7672 60.4ZM46.6259 64L42.4759 64L42.4759 57L46.5259 57L46.5259 58.15L43.7059 58.15L43.7059 59.89L46.2259 59.89L46.2259 61.04L43.7059 61.04L43.7059 62.85L46.6259 62.85L46.6259 64ZM49.4578 64L48.2278 64L48.2278 57L49.4578 57L49.4578 60.32L52.2178 57L53.6978 57L50.8178 60.26L53.8778 64L52.3178 64L49.4578 60.39L49.4578 64ZM56.288 58.15L54.018 58.15L54.018 57L59.788 57L59.788 58.15L57.518 58.15L57.518 64L56.288 64L56.288 58.15ZM65.6048 59.03L61.9348 64L60.8548 64L60.8548 57L62.0848 57L62.0848 61.98L65.7548 57L66.8348 57L66.8348 64L65.6048 64L65.6048 59.03ZM68.7747 63.99L68.7747 57.02C69.4947 56.9867 70.168 56.97 70.7947 56.97C71.568 56.97 72.1447 57.1233 72.5247 57.43C72.9047 57.7367 73.0947 58.16 73.0947 58.7C73.0947 59.4533 72.7614 59.9833 72.0947 60.29L72.0947 60.31C72.4747 60.41 72.7747 60.6 72.9947 60.88C73.2147 61.1533 73.3247 61.5067 73.3247 61.94C73.3247 62.62 73.0914 63.14 72.6247 63.5C72.158 63.86 71.5247 64.04 70.7247 64.04C69.9247 64.04 69.2747 64.0233 68.7747 63.99ZM70.8747 60.99L70.0047 60.99L70.0047 62.84C70.318 62.8733 70.588 62.89 70.8147 62.89C71.668 62.89 72.0947 62.5533 72.0947 61.88C72.0947 61.5867 71.988 61.3667 71.7747 61.22C71.5614 61.0667 71.2614 60.99 70.8747 60.99ZM70.7747 58.12C70.4814 58.12 70.2247 58.13 70.0047 58.15L70.0047 59.92L70.8347 59.92C71.148 59.92 71.398 59.84 71.5847 59.68C71.778 59.52 71.8747 59.29 71.8747 58.99C71.8747 58.71 71.778 58.4967 71.5847 58.35C71.3914 58.1967 71.1214 58.12 70.7747 58.12ZM80.5966 64L79.3766 64L79.3766 61.01L76.1766 61.01L76.1766 64L74.9466 64L74.9466 57L76.1766 57L76.1766 59.86L79.3766 59.86L79.3766 57L80.5966 57L80.5966 64ZM89.2345 64L88.0145 64L88.0145 57L89.2345 57L89.2345 64ZM84.4445 60.5C84.3378 60.5 84.1111 60.5167 83.7645 60.55L83.7645 62.84C83.8178 62.84 83.9245 62.8467 84.0845 62.86C84.2445 62.8667 84.3578 62.87 84.4245 62.87C85.3445 62.87 85.8045 62.46 85.8045 61.64C85.8045 61.2667 85.6878 60.9833 85.4545 60.79C85.2211 60.5967 84.8845 60.5 84.4445 60.5ZM82.5345 57L83.7645 57L83.7645 59.4C84.0511 59.3667 84.3111 59.35 84.5445 59.35C85.3778 59.35 86.0111 59.55 86.4445 59.95C86.8845 60.3433 87.1045 60.8967 87.1045 61.61C87.1045 62.3567 86.8511 62.9467 86.3445 63.38C85.8445 63.8067 85.1545 64.02 84.2745 64.02C83.9011 64.02 83.5778 64.0167 83.3045 64.01C83.0378 64.0033 82.7811 64 82.5345 64L82.5345 57ZM95.327 64L91.177 64L91.177 57L95.227 57L95.227 58.15L92.407 58.15L92.407 59.89L94.927 59.89L94.927 61.04L92.407 61.04L92.407 62.85L95.327 62.85L95.327 64ZM24.55 78L23.32 78L23.32 72.15L20.2 72.15L20.2 78L18.97 78L18.97 71L24.55 71L24.55 78ZM27.7195 75.47L27.7195 78L26.4895 78L26.4895 71C26.7829 71 27.0995 70.9967 27.4395 70.99C27.7862 70.9833 28.1329 70.98 28.4795 70.98C28.9729 70.98 29.3995 71.0433 29.7595 71.17C30.1262 71.29 30.4095 71.46 30.6095 71.68C30.8095 71.8933 30.9562 72.13 31.0495 72.39C31.1429 72.6433 31.1895 72.9233 31.1895 73.23C31.1895 73.8633 30.9629 74.4 30.5095 74.84C30.0629 75.28 29.4362 75.5 28.6295 75.5C28.2229 75.5 27.9195 75.49 27.7195 75.47ZM28.5995 72.13L27.7195 72.15L27.7195 74.3C28.0729 74.3333 28.3629 74.35 28.5895 74.35C28.9829 74.35 29.2962 74.2533 29.5295 74.06C29.7695 73.8667 29.8895 73.5867 29.8895 73.22C29.8895 72.4933 29.4595 72.13 28.5995 72.13ZM32.0438 74.5C32.0438 73.48 32.3838 72.6233 33.0638 71.93C33.7571 71.2367 34.6304 70.89 35.6838 70.89C36.7371 70.89 37.6071 71.2233 38.2938 71.89C38.9871 72.5633 39.3338 73.4333 39.3338 74.5C39.3338 75.5467 38.9871 76.41 38.2938 77.09C37.6004 77.77 36.7304 78.11 35.6838 78.11C34.6304 78.11 33.7604 77.7767 33.0738 77.11C32.3871 76.4433 32.0438 75.5733 32.0438 74.5ZM33.3438 74.5C33.3438 75.2067 33.5671 75.7933 34.0138 76.26C34.4604 76.7267 35.0171 76.96 35.6838 76.96C36.4038 76.96 36.9738 76.7267 37.3938 76.26C37.8204 75.7933 38.0338 75.2067 38.0338 74.5C38.0338 73.7867 37.8071 73.1967 37.3538 72.73C36.9004 72.27 36.3438 72.04 35.6838 72.04C35.0104 72.04 34.4504 72.27 34.0038 72.73C33.5638 73.19 33.3438 73.78 33.3438 74.5ZM44.9071 78L40.7571 78L40.7571 71L44.8071 71L44.8071 72.15L41.9871 72.15L41.9871 73.89L44.5071 73.89L44.5071 75.04L41.9871 75.04L41.9871 76.85L44.9071 76.85L44.9071 78ZM47.7391 78L46.5091 78L46.5091 71L47.7391 71L47.7391 74.32L50.4991 71L51.9791 71L49.0991 74.26L52.1591 78L50.5991 78L47.7391 74.39L47.7391 78ZM54.5692 72.15L52.2992 72.15L52.2992 71L58.0692 71L58.0692 72.15L55.7992 72.15L55.7992 78L54.5692 78L54.5692 72.15ZM65.836 78L64.616 78L64.616 71L65.836 71L65.836 78ZM61.046 74.5C60.9393 74.5 60.7127 74.5167 60.366 74.55L60.366 76.84C60.4193 76.84 60.526 76.8467 60.686 76.86C60.846 76.8667 60.9593 76.87 61.026 76.87C61.946 76.87 62.406 76.46 62.406 75.64C62.406 75.2667 62.2893 74.9833 62.056 74.79C61.8227 74.5967 61.486 74.5 61.046 74.5ZM59.136 71L60.366 71L60.366 73.4C60.6527 73.3667 60.9127 73.35 61.146 73.35C61.9793 73.35 62.6127 73.55 63.046 73.95C63.486 74.3433 63.706 74.8967 63.706 75.61C63.706 76.3567 63.4527 76.9467 62.946 77.38C62.446 77.8067 61.756 78.02 60.876 78.02C60.5027 78.02 60.1793 78.0167 59.906 78.01C59.6393 78.0033 59.3827 78 59.136 78L59.136 71Z" fill="white"/>
</svg>
