<svg width="156" height="132" viewBox="0 0 156 132" fill="none" xmlns="http://www.w3.org/2000/svg">
	<rect width="156" height="132" fill="white"/>
	<path d="M122.8 30.6C133.614 39.4474 146.6 57.4 146.6 74.4C146.6 91.4 132.2 108.4 121 114C109.8 119.6 89.513 110.06 72.8 117.4C55.4953 125 28.645 122 16.2001 101.8C4.88655 83.4364 9.02444 62.9756 16.2001 49.4C23.6001 35.4 44.0953 13.1998 65.2953 13.2C81.5706 13.2 105.2 16.2 122.8 30.6Z" stroke="#EE3D43" fill="#EE3D43" stroke-width="2"/>
	<path d="M36.7399 56.2H35.2639L35.2639 47.8L36.7399 47.8L36.7399 51.784L40.0519 47.8L41.8279 47.8L38.3719 51.712L42.0439 56.2H40.1719L36.7399 51.868L36.7399 56.2Z" fill="#FFFFFF"/>
	<path d="M42.2336 52C42.2336 50.776 42.6416 49.748 43.4576 48.916C44.2896 48.084 45.3376 47.668 46.6016 47.668C47.8656 47.668 48.9096 48.068 49.7336 48.868C50.5656 49.676 50.9816 50.72 50.9816 52C50.9816 53.256 50.5656 54.292 49.7336 55.108C48.9016 55.924 47.8576 56.332 46.6016 56.332C45.3376 56.332 44.2936 55.932 43.4696 55.132C42.6456 54.332 42.2336 53.288 42.2336 52ZM43.7936 52C43.7936 52.848 44.0616 53.552 44.5976 54.112C45.1336 54.672 45.8016 54.952 46.6016 54.952C47.4656 54.952 48.1496 54.672 48.6536 54.112C49.1656 53.552 49.4216 52.848 49.4216 52C49.4216 51.144 49.1496 50.436 48.6056 49.876C48.0616 49.324 47.3936 49.048 46.6016 49.048C45.7936 49.048 45.1216 49.324 44.5856 49.876C44.0576 50.428 43.7936 51.136 43.7936 52Z" fill="#FFFFFF"/>
	<path d="M54.1657 56.2H52.6897V47.8L54.1777 47.8L57.0457 51.724L59.7817 47.8L61.1737 47.8V56.2H59.7097V50.128L57.0577 53.86H56.8417L54.1657 50.164L54.1657 56.2Z" fill="#FFFFFF"/>
	<path d="M63.9141 56.2H62.4261L65.9781 47.776L67.2741 47.776L70.8261 56.2H69.2541L68.3781 54.052H64.7901L63.9141 56.2ZM67.8141 52.672L66.5901 49.684L65.3541 52.672H67.8141Z" fill="#FFFFFF"/>
	<path d="M78.8642 56.2H77.4002V52.612H73.5602V56.2H72.0842V47.8L73.5602 47.8V51.232H77.4002L77.4002 47.8L78.8642 47.8V56.2Z" fill="#FFFFFF"/>
	<path d="M81.5497 57.7H80.1697V54.82H81.0697C81.3097 54.54 81.5697 53.92 81.8497 52.96C82.1377 51.976 82.3097 50.816 82.3657 49.48L82.4497 47.8L87.6577 47.8V54.82H88.7977V57.7H87.4177V56.2H81.5497V57.7ZM83.8777 49.18L83.7457 50.644C83.6737 51.652 83.5257 52.536 83.3017 53.296C83.0697 54.088 82.8657 54.596 82.6897 54.82H86.1937V49.18L83.8777 49.18Z" fill="#FFFFFF"/>
	<path d="M90.668 56.2H89.18L92.732 47.776L94.028 47.776L97.58 56.2H96.008L95.132 54.052H91.544L90.668 56.2ZM94.568 52.672L93.344 49.684L92.108 52.672H94.568Z" fill="#FFFFFF"/>
	<path d="M40.6639 64.6H42.1519L39.2959 71.044C38.9999 71.716 38.6679 72.212 38.2999 72.532C37.9399 72.844 37.5119 73 37.0159 73C36.5199 73 36.1359 72.888 35.8639 72.664L36.3799 71.416C36.5879 71.552 36.7959 71.62 37.0039 71.62C37.3799 71.62 37.6559 71.424 37.8319 71.032L37.9519 70.744L34.2439 64.6H35.9119L38.6599 69.292L40.6639 64.6Z" fill="#FFFFFF"/>
	<path d="M43.4553 72.988V64.624C44.3193 64.584 45.1273 64.564 45.8793 64.564C46.8073 64.564 47.4993 64.748 47.9553 65.116C48.4113 65.484 48.6393 65.992 48.6393 66.64C48.6393 67.544 48.2393 68.18 47.4393 68.548V68.572C47.8953 68.692 48.2553 68.92 48.5193 69.256C48.7833 69.584 48.9153 70.008 48.9153 70.528C48.9153 71.344 48.6353 71.968 48.0753 72.4C47.5153 72.832 46.7553 73.048 45.7953 73.048C44.8353 73.048 44.0553 73.028 43.4553 72.988ZM45.9753 69.388H44.9313V71.608C45.3073 71.648 45.6313 71.668 45.9033 71.668C46.9273 71.668 47.4393 71.264 47.4393 70.456C47.4393 70.104 47.3113 69.84 47.0553 69.664C46.7993 69.48 46.4393 69.388 45.9753 69.388ZM45.8553 65.944C45.5033 65.944 45.1953 65.956 44.9313 65.98V68.104H45.9273C46.3033 68.104 46.6033 68.008 46.8273 67.816C47.0593 67.624 47.1753 67.348 47.1753 66.988C47.1753 66.652 47.0593 66.396 46.8273 66.22C46.5953 66.036 46.2713 65.944 45.8553 65.944Z" fill="#FFFFFF"/>
	<path d="M57.2816 73H55.8176V65.98H53.3696L53.2016 67.564C53.1056 68.524 52.9816 69.344 52.8296 70.024C52.6776 70.704 52.5096 71.248 52.3256 71.656C52.1416 72.064 51.9216 72.376 51.6656 72.592C51.4176 72.808 51.1576 72.944 50.8856 73C50.6216 73.048 50.3136 73.048 49.9616 73L49.9976 71.536C50.1736 71.56 50.3176 71.552 50.4296 71.512C50.5416 71.472 50.6736 71.36 50.8256 71.176C50.9936 70.968 51.1296 70.692 51.2336 70.348C51.5216 69.492 51.7336 68.136 51.8696 66.28L51.9896 64.6H57.2816V73Z" fill="#FFFFFF"/>
	<path d="M64.5837 73H59.6037V64.6H64.4637V65.98H61.0797V68.068H64.1037V69.448H61.0797V71.62H64.5837V73Z" fill="#FFFFFF"/>
	<path d="M70.7061 64.6L72.1821 64.6V73H70.7061V69.556C70.1781 69.94 69.5101 70.132 68.7021 70.132C67.9741 70.132 67.3661 69.916 66.8781 69.484C66.3901 69.052 66.1461 68.372 66.1461 67.444V64.6H67.6221V67.024C67.6221 68.176 68.1141 68.752 69.0981 68.752C69.6421 68.752 70.1781 68.572 70.7061 68.212V64.6Z" fill="#FFFFFF"/>
	<path d="M79.49 73H74.51V64.6H79.37V65.98H75.986V68.068H79.01V69.448H75.986V71.62H79.49V73Z" fill="#FFFFFF"/>
	<path d="M88.1923 73H86.7283V69.412H82.8883L82.8883 73H81.4123V64.6H82.8883V68.032H86.7283V64.6H88.1923V73Z" fill="#FFFFFF"/>
	<path d="M97.2978 73H95.8338V69.412H91.9938V73H90.5178V64.6H91.9938V68.032H95.8338V64.6H97.2978V73Z" fill="#FFFFFF"/>
	<path d="M107.663 73H106.199V64.6H107.663V73ZM101.915 68.8C101.787 68.8 101.515 68.82 101.099 68.86V71.608C101.163 71.608 101.291 71.616 101.483 71.632C101.675 71.64 101.811 71.644 101.891 71.644C102.995 71.644 103.547 71.152 103.547 70.168C103.547 69.72 103.407 69.38 103.127 69.148C102.847 68.916 102.443 68.8 101.915 68.8ZM99.6233 64.6H101.099V67.48C101.443 67.44 101.755 67.42 102.035 67.42C103.035 67.42 103.795 67.66 104.315 68.14C104.843 68.612 105.107 69.276 105.107 70.132C105.107 71.028 104.803 71.736 104.195 72.256C103.595 72.768 102.767 73.024 101.711 73.024C101.263 73.024 100.875 73.02 100.547 73.012C100.227 73.004 99.9193 73 99.6233 73V64.6Z" fill="#FFFFFF"/>
	<path d="M114.902 64.6H116.63L113.798 68.716L116.738 73H115.01L112.838 69.844L110.678 73H108.95L111.89 68.716L109.082 64.6H110.81L112.874 67.636L114.902 64.6Z" fill="#FFFFFF"/>
	<path d="M41.9599 89.8H40.4839L40.4839 82.78H36.7399L36.7399 89.8H35.2639L35.2639 81.4H41.9599L41.9599 89.8Z" fill="#FFFFFF"/>
	<path d="M45.7633 86.764V89.8H44.2873V81.4C44.6393 81.4 45.0193 81.396 45.4273 81.388C45.8433 81.38 46.2593 81.376 46.6753 81.376C47.2673 81.376 47.7793 81.452 48.2113 81.604C48.6513 81.748 48.9913 81.952 49.2313 82.216C49.4713 82.472 49.6473 82.756 49.7593 83.068C49.8713 83.372 49.9273 83.708 49.9273 84.076C49.9273 84.836 49.6553 85.48 49.1113 86.008C48.5753 86.536 47.8233 86.8 46.8553 86.8C46.3673 86.8 46.0033 86.788 45.7633 86.764ZM46.8193 82.756L45.7633 82.78V85.36C46.1873 85.4 46.5353 85.42 46.8073 85.42C47.2793 85.42 47.6553 85.304 47.9353 85.072C48.2233 84.84 48.3673 84.504 48.3673 84.064C48.3673 83.192 47.8513 82.756 46.8193 82.756Z" fill="#FFFFFF"/>
	<path d="M50.9524 85.6C50.9524 84.376 51.3604 83.348 52.1764 82.516C53.0084 81.684 54.0564 81.268 55.3204 81.268C56.5844 81.268 57.6284 81.668 58.4524 82.468C59.2844 83.276 59.7004 84.32 59.7004 85.6C59.7004 86.856 59.2844 87.892 58.4524 88.708C57.6204 89.524 56.5764 89.932 55.3204 89.932C54.0564 89.932 53.0124 89.532 52.1884 88.732C51.3644 87.932 50.9524 86.888 50.9524 85.6ZM52.5124 85.6C52.5124 86.448 52.7804 87.152 53.3164 87.712C53.8524 88.272 54.5204 88.552 55.3204 88.552C56.1844 88.552 56.8684 88.272 57.3724 87.712C57.8844 87.152 58.1404 86.448 58.1404 85.6C58.1404 84.744 57.8684 84.036 57.3244 83.476C56.7804 82.924 56.1124 82.648 55.3204 82.648C54.5124 82.648 53.8404 82.924 53.3044 83.476C52.7764 84.028 52.5124 84.736 52.5124 85.6Z" fill="#FFFFFF"/>
	<path d="M66.0164 89.896H64.5404V88.78C63.3724 88.78 62.4324 88.492 61.7204 87.916C61.0164 87.332 60.6644 86.52 60.6644 85.48C60.6644 84.448 61.0164 83.644 61.7204 83.068C62.4324 82.484 63.3724 82.188 64.5404 82.18V81.304H66.0164V82.18C67.1764 82.188 68.1124 82.488 68.8244 83.08C69.5364 83.672 69.8924 84.472 69.8924 85.48C69.8924 86.504 69.5364 87.312 68.8244 87.904C68.1204 88.472 67.1844 88.764 66.0164 88.78V89.896ZM68.3324 85.48C68.3324 84.888 68.1324 84.42 67.7324 84.076C67.3324 83.724 66.7604 83.544 66.0164 83.536V87.424C67.5604 87.416 68.3324 86.768 68.3324 85.48ZM62.2244 85.48C62.2244 86.104 62.4244 86.584 62.8244 86.92C63.2244 87.248 63.7964 87.416 64.5404 87.424V83.536C63.8044 83.544 63.2324 83.724 62.8244 84.076C62.4244 84.42 62.2244 84.888 62.2244 85.48Z" fill="#FFFFFF"/>
	<path d="M77.1748 83.836L72.7708 89.8H71.4748V81.4H72.9508V87.376L77.3548 81.4H78.6508V89.8H77.1748V83.836Z" fill="#FFFFFF"/>
</svg>
