<svg width="187" height="60" viewBox="0 0 187 60" fill="none" xmlns="http://www.w3.org/2000/svg">
<path d="M135.058 4.24658H130.711V33.8003H135.058V4.24658Z" fill="#292B2C"/>
<path d="M142.429 28.474C140.802 28.474 139.492 29.784 139.492 31.4107C139.492 33.0373 140.802 34.3473 142.429 34.3473C144.056 34.3473 145.365 33.0373 145.365 31.4107C145.365 29.784 144.056 28.474 142.429 28.474Z" fill="#292B2C"/>
<path d="M153.844 23.5221C153.844 19.9952 155.96 16.9722 160.048 16.9722H162.639V12.8551H160.048C156.838 12.8551 155.37 13.8772 153.873 15.5758L153.844 15.619V12.8551H149.568V33.8004H153.858C153.858 33.786 153.844 24.9472 153.844 23.5221Z" fill="#292B2C"/>
<path d="M126.004 12.8551H121.656V33.8004H126.004V12.8551Z" fill="#292B2C"/>
<path d="M123.829 9.40018C125.456 9.40018 126.766 8.0902 126.766 6.46352C126.766 4.83684 125.442 3.52686 123.829 3.52686C122.203 3.52686 120.893 4.85123 120.893 6.46352C120.893 8.0758 122.217 9.40018 123.829 9.40018Z" fill="#292B2C"/>
<path d="M106.037 29.9713C102.295 29.9713 99.4442 27.0922 99.4442 23.335C99.4442 19.5778 102.295 16.7275 106.037 16.7275C109.78 16.7275 112.731 19.405 112.731 23.335C112.731 27.2649 109.78 29.9713 106.037 29.9713ZM112.674 14.9713C111.004 13.2726 108.441 12.3225 105.893 12.3225C99.8185 12.3225 94.8809 17.2601 94.8809 23.335C94.8809 29.4098 99.8185 34.3475 105.893 34.3475C108.441 34.3475 111.133 33.2534 112.674 31.526V33.8148H116.949V12.8551H112.674V14.9713Z" fill="#292B2C"/>
<path d="M174.702 34.3474C176.645 34.3474 179.122 33.2966 180.676 31.5115C180.691 32.3033 180.676 33.023 180.676 33.8004H184.952V12.8551H180.662V24.357C180.662 27.3369 178.387 30.1152 174.976 30.1152C171.996 30.1152 169.88 27.9559 169.88 24.8609V12.8551H165.59V25.2063C165.604 30.7486 168.584 34.3474 174.702 34.3474Z" fill="#292B2C"/>
<path d="M82.3281 12.3225C79.4778 12.3225 76.6851 13.6181 74.9865 15.6622C73.4318 13.6037 71.1717 12.3225 68.1343 12.3225C65.6583 12.3225 63.8876 13.431 62.9375 14.3235V12.8551H58.6621V33.8004H62.9375V21.55C62.9375 18.8148 65.1688 16.5979 67.8896 16.5979C70.6247 16.5979 72.8416 18.8292 72.8416 21.55V33.8004H77.117V21.55C77.117 18.8148 79.3339 16.5979 82.069 16.5979C84.8041 16.5979 87.021 18.8292 87.021 21.55V33.8004H91.2965V21.55C91.3252 15.9358 87.6832 12.3225 82.3281 12.3225Z" fill="#292B2C"/>
<path d="M138.787 43.4885L138.772 43.5173V41.8906H136.037V54.1843H136.253H138.772C138.772 54.1699 138.772 49.2611 138.772 48.4261C138.772 46.3532 140.01 44.5826 142.414 44.5826H143.926V41.8906H142.414C140.529 41.8906 139.665 42.4952 138.787 43.4885Z" fill="#292B2C"/>
<path d="M168.196 48.6277C168.196 50.5998 166.612 51.7803 165.072 51.7803C163.445 51.7803 162.294 50.5998 162.294 48.9156V41.8906H159.559V49.1027C159.559 52.5288 161.516 54.4866 164.914 54.4866C166.022 54.4866 167.332 53.9252 168.196 53.0758C168.196 53.2918 168.196 53.5077 168.196 53.7236V54.1699H170.931V41.8906H168.196V48.6277Z" fill="#292B2C"/>
<path d="M151.051 51.7514C149.007 51.7514 147.337 50.0815 147.337 48.0374C147.337 45.9932 149.007 44.3234 151.051 44.3234C153.095 44.3234 154.765 45.9932 154.765 48.0374C154.765 50.0815 153.095 51.7514 151.051 51.7514ZM151.051 41.5883C147.495 41.5883 144.602 44.4817 144.602 48.0374C144.602 51.5931 147.495 54.4865 151.051 54.4865C154.606 54.4865 157.5 51.5931 157.5 48.0374C157.5 44.4817 154.606 41.5883 151.051 41.5883Z" fill="#292B2C"/>
<path d="M180.058 51.6938C177.913 51.6938 176.358 50.1535 176.358 48.0374C176.358 45.9213 177.913 44.3954 180.058 44.3954C182.131 44.3954 183.7 45.9645 183.7 48.0374C183.7 50.1247 182.131 51.6938 180.058 51.6938ZM180.144 41.5883C178.733 41.5883 177.366 42.0777 176.401 42.9126V41.8906H173.666V58.4165H176.401V53.0902C177.322 53.9539 178.748 54.5009 180.144 54.5009C183.7 54.5009 186.593 51.6074 186.593 48.0518C186.593 44.4817 183.7 41.5883 180.144 41.5883Z" fill="#292B2C"/>
<path d="M126.911 51.6938C124.838 51.6938 123.268 50.1247 123.268 48.0374C123.268 45.9645 124.838 44.3954 126.911 44.3954C129.055 44.3954 130.61 45.9213 130.61 48.0374C130.596 50.1535 129.055 51.6938 126.911 51.6938ZM130.567 42.9126C129.602 42.0777 128.235 41.5883 126.824 41.5883C123.268 41.5883 120.375 44.4817 120.375 48.0374C120.375 51.5931 123.268 54.4865 126.824 54.4865C128.22 54.4865 129.646 53.9395 130.567 53.0758V53.3205C130.524 55.8397 129.3 57.1209 126.911 57.1209H126.882C125.529 57.1209 124.334 56.6027 123.225 55.523L123.125 55.4222L121.138 57.3224L121.224 57.4232C122.246 58.618 124.319 59.9856 126.81 59.9856C126.853 59.9856 126.896 59.9856 126.939 59.9856C129.257 59.9424 133.187 59.0355 133.302 53.4213V41.8906H130.567V42.9126Z" fill="#292B2C"/>
<path d="M22.9607 0C10.3071 0 0 10.3071 0 22.9607C0 35.6286 10.3071 45.9213 22.9607 45.9213C27.596 45.9213 32.0729 44.5393 35.9021 41.9194L35.9741 41.8762L32.8791 38.2774L32.8215 38.3061C29.8848 40.2063 26.4731 41.1996 22.9607 41.1996C12.8983 41.1996 4.70729 33.0086 4.70729 22.9463C4.70729 12.8839 12.8983 4.70729 22.9607 4.70729C33.023 4.70729 41.214 12.8983 41.214 22.9607C41.214 24.2706 41.0701 25.5806 40.7821 26.8906C40.2063 29.2658 38.5509 29.9856 37.2985 29.8848C36.0461 29.7841 34.5777 28.8916 34.5633 26.7035V22.9607C34.5633 16.5547 29.3522 11.3436 22.9463 11.3436C16.5403 11.3436 11.3436 16.5547 11.3436 22.9607C11.3436 29.3666 16.5547 34.5777 22.9607 34.5777C26.0701 34.5777 28.9923 33.3541 31.1948 31.1516C32.476 33.1382 34.5633 34.3906 36.9386 34.5777C37.1401 34.5921 37.356 34.6065 37.5576 34.6065C39.2274 34.6065 40.8829 34.0451 42.2217 33.0374C43.6036 31.9866 44.6257 30.475 45.1871 28.6612C45.2735 28.3733 45.4463 27.6967 45.4463 27.6967V27.6679C45.7774 26.214 45.9357 24.7601 45.9357 22.9607C45.9357 10.3071 35.6286 0 22.9607 0ZM29.8704 22.9607C29.8704 26.7754 26.7754 29.8704 22.9607 29.8704C19.1459 29.8704 16.0509 26.7754 16.0509 22.9607C16.0509 19.1459 19.1459 16.0509 22.9607 16.0509C26.7754 16.0653 29.8704 19.1603 29.8704 22.9607Z" fill="#D45452"/>
</svg>
