<svg width="181" height="70" viewBox="0 0 181 70" fill="none" xmlns="http://www.w3.org/2000/svg">
<path d="M42.6152 52.6204H137.851" stroke="#3A3A3A" stroke-width="1.264" stroke-miterlimit="10"/>
<path d="M27.7925 2.8163C21.567 2.8163 16.7496 7.78189 16.7496 13.9333C16.7496 19.9735 21.3076 24.9762 27.7925 24.9762C33.9809 24.9762 38.7612 20.0106 38.7612 13.8592C38.7983 7.7819 34.2403 2.8163 27.7925 2.8163ZM27.7184 4.26151C33.4621 4.26151 37.1678 8.81948 37.1678 13.8592C37.1678 19.1953 33.1657 23.531 27.9037 23.531C22.1228 23.531 18.4172 18.8989 18.4172 13.9704C18.3801 8.59714 22.3822 4.26151 27.7184 4.26151ZM157.565 24.9391C160.715 24.9391 163.753 23.8645 165.866 21.6781L164.791 20.6405C162.901 22.5304 160.529 23.4939 157.676 23.4939C152.599 23.4939 148.264 19.7141 148.264 13.8592C148.264 8.59714 152.488 4.22446 157.861 4.22446C160.418 4.22446 162.901 5.00265 164.754 6.96665L165.643 5.70672C163.642 3.63155 160.789 2.8163 157.861 2.8163C151.932 2.8163 146.67 7.63367 146.67 13.9704C146.67 20.2329 151.265 24.9391 157.565 24.9391ZM180.132 4.74325V3.26098H169.015V24.4574H180.095L180.466 23.0122H170.535V14.378H179.651V12.9328H170.535V4.74325H180.132ZM74.8544 12.4881C71.964 10.487 71.334 9.2271 71.334 7.55955C71.334 5.89201 72.594 4.4468 74.5209 4.4468C76.1885 4.4468 77.3743 5.2991 77.9672 6.96665L79.19 6.22552C78.5971 4.22446 76.8184 3.03864 74.558 3.03864C71.7417 3.03864 69.8147 5.2991 69.8147 7.70778C69.8147 10.0794 71.0005 11.6358 73.928 13.711C77.4484 16.2308 78.1525 17.3425 78.1525 19.3436C78.1525 21.6411 76.4108 23.3086 74.2244 23.3086C72.3346 23.3086 70.8894 22.234 70.037 20.3812L68.8142 21.0482C69.6294 23.3086 71.6675 24.7168 74.1874 24.7168C77.226 24.7168 79.6718 22.5304 79.6718 19.3436C79.7088 16.6384 78.6342 15.0821 74.8544 12.4881ZM147.337 3.26098H145.521L139.148 13.6368L132.737 3.26098H130.847L138.295 15.0079V24.4574H139.815V15.045L147.337 3.26098ZM58.1419 3.26098H56.6225V24.4574H67.1096L67.4801 23.0122H58.1419V3.26098ZM44.2456 3.26098H42.7263V24.4574H53.2133L53.5839 23.0122H44.2456V3.26098ZM81.8581 14.4891H88.7136V13.081H81.8581V14.4891ZM0 24.4944H1.51932V13.2663H7.41133L14.3409 24.4574H16.1567L8.96771 13.081C12.1546 12.4881 14.3039 9.89412 14.3039 6.6702C14.3039 2.8163 11.2282 0 7.33721 0H0V24.4944ZM1.51932 1.44521H7.30016C10.3759 1.44521 12.7104 3.66861 12.7104 6.63314C12.7104 9.44944 10.7464 11.8211 7.55955 11.8211H1.51932V1.44521ZM92.3822 24.4944H93.9015V13.2663H99.7935L106.723 24.4944H108.539L101.35 13.081C104.537 12.4881 106.686 9.89412 106.686 6.6702C106.686 2.85336 103.61 0.0370566 99.7194 0.0370566H92.3822V24.4944ZM93.9015 1.44521H99.6824C102.758 1.44521 105.093 3.66861 105.093 6.63314C105.093 9.44944 103.462 11.8211 99.6082 11.8211H93.9015V1.44521ZM120.175 2.8163C113.949 2.8163 109.132 7.78189 109.132 13.9333C109.132 19.9735 113.69 24.9762 120.175 24.9762C126.363 24.9762 131.143 20.0106 131.143 13.8592C131.18 7.7819 126.623 2.8163 120.175 2.8163ZM120.101 4.26151C125.844 4.26151 129.55 8.81948 129.55 13.8592C129.55 19.1953 125.548 23.531 120.286 23.531C114.505 23.531 110.799 18.8989 110.799 13.9704C110.762 8.59714 114.764 4.26151 120.101 4.26151ZM81.8211 44.6903C84.1927 44.6903 86.1196 42.7263 86.1196 40.3917C86.1196 37.7978 84.1927 36.0561 81.8211 36.0561C79.4494 36.0561 77.5225 38.0201 77.5225 40.3547C77.5225 42.9486 79.4494 44.6903 81.8211 44.6903ZM65.405 44.6903C67.7766 44.6903 69.7035 42.7263 69.7035 40.3917C69.7035 37.7978 67.7766 36.0561 65.405 36.0561C63.0333 36.0561 61.1064 38.0201 61.1064 40.3547C61.1064 42.9486 62.9963 44.6903 65.405 44.6903ZM81.8211 37.1308C83.5627 37.1308 84.9709 38.3907 84.9709 40.3917C84.9709 42.2075 83.5627 43.6157 81.8211 43.6157C80.0794 43.6157 78.6712 42.3557 78.6712 40.3547C78.6712 38.5389 80.0794 37.1308 81.8211 37.1308ZM65.405 37.1308C67.1466 37.1308 68.5548 38.3907 68.5548 40.3917C68.5548 42.2075 67.1466 43.6157 65.405 43.6157C63.6633 43.6157 62.2552 42.3557 62.2552 40.3547C62.2552 38.5389 63.6633 37.1308 65.405 37.1308ZM88.4542 44.5421H89.5659V41.0217H90.8258L93.0122 44.5421H94.235L91.9375 40.8364C92.8639 40.5029 93.4939 39.7618 93.4939 38.6501C93.4939 37.279 92.5304 36.2414 90.8258 36.2414H88.4542V44.5421ZM58.7348 36.2414H57.7713L54.9179 40.7623L52.1758 36.2414H51.2123V44.5421H52.2869V38.4277H52.324L54.5474 42.1705H55.1773L57.6601 38.2425H57.6972V44.5421H58.7718V36.2414H58.7348ZM103.166 44.6903C104.351 44.6903 105.5 44.2827 106.39 43.3192L105.611 42.6522C104.944 43.3933 104.129 43.6157 103.24 43.6157C101.276 43.6157 100.164 42.0963 100.164 40.3917C100.164 38.4648 101.535 37.1308 103.277 37.1308C104.166 37.1308 104.944 37.3901 105.611 38.0572L106.39 37.3902C105.537 36.4637 104.574 36.0561 103.277 36.0561C100.942 36.0561 99.0153 38.0572 99.0153 40.4288C99.0153 42.7263 100.609 44.6903 103.166 44.6903ZM126.956 44.6162C128.401 44.6162 129.254 43.5786 129.254 42.3928C129.254 41.207 128.661 40.6882 127.253 39.7618C126.141 39.0206 125.918 38.613 125.918 38.0572C125.918 37.6495 126.215 37.1308 126.956 37.1308C127.549 37.1308 128.031 37.5013 128.179 38.2054L129.105 37.9831C128.883 36.8343 128.031 36.2043 126.919 36.2043C125.511 36.2043 124.844 37.2419 124.844 38.2054C124.844 39.3171 125.511 39.9471 126.623 40.6882C127.771 41.5034 128.142 41.8369 128.142 42.504C128.142 43.2451 127.66 43.6898 126.919 43.6898C126.03 43.6898 125.548 43.0228 125.363 42.2075L124.399 42.4669C124.659 43.6527 125.363 44.6162 126.956 44.6162ZM76.522 36.2414H70.63V37.279H73.0386V44.5421H74.1503V37.279H76.4849V36.2414H76.522ZM89.5659 37.2419H90.8258C91.7152 37.2419 92.4563 37.6495 92.4563 38.613C92.4563 39.28 92.0858 40.0582 90.8999 40.0582H89.5659V37.2419ZM115.135 44.5421L111.985 36.2414H110.948L107.761 44.5421H108.947L109.873 41.9481H112.949L113.875 44.5421H115.135ZM110.281 40.9476L111.392 37.7237H111.503L112.615 40.9476H110.281ZM117.21 44.5421H118.322V41.0217H119.582L121.768 44.5421H122.991L120.693 40.8364C121.62 40.5029 122.287 39.7618 122.287 38.6501C122.287 37.279 121.323 36.2414 119.619 36.2414H117.247V44.5421H117.21ZM118.322 37.2419H119.582C120.471 37.2419 121.212 37.6495 121.212 38.613C121.212 39.28 120.842 40.0582 119.656 40.0582H118.322V37.2419Z" fill="#3A3A3A"/>
<path d="M69.3365 61.3656L65.6309 69.8145H66.6314L67.7431 67.2947H71.1152L72.2269 69.8145H73.3386L69.5959 61.3656H69.3365ZM68.1137 66.4053L69.4106 63.4778L70.7076 66.4053H68.1137Z" fill="#3A3A3A"/>
<path d="M78.2664 65.3309C79.304 65.0715 79.7486 64.4045 79.7486 63.5893C79.7486 62.4035 78.9704 61.4771 76.8582 61.4771H74.6719V69.7777H77.1547C79.2669 69.7777 80.0451 68.5549 80.0451 67.3691C80.0451 66.4797 79.4522 65.5903 78.2664 65.3309ZM75.7095 62.4035H76.8953C77.9699 62.4035 78.711 62.6629 78.711 63.7004C78.711 64.738 77.9699 64.9974 76.8953 64.9974H75.7095V62.4035ZM77.1917 68.9254H75.7095V65.8868H77.1917C78.2664 65.8868 79.0075 66.3685 79.0075 67.4061C79.0075 68.4437 78.2664 68.9254 77.1917 68.9254Z" fill="#3A3A3A"/>
<path d="M101.648 61.3287C99.2394 61.3287 97.3125 63.2186 97.3125 65.6644C97.3125 68.1101 99.2024 70 101.611 70C104.02 70 105.947 68.1101 105.947 65.6644C105.947 63.2186 104.057 61.3287 101.648 61.3287ZM101.648 69.0365C99.7953 69.0365 98.4242 67.5913 98.4242 65.6273C98.4242 63.6633 99.7953 62.2181 101.648 62.2181C103.501 62.2181 104.872 63.6633 104.872 65.6273C104.872 67.5913 103.501 69.0365 101.648 69.0365Z" fill="#3A3A3A"/>
<path d="M113.285 61.514V64.9974H108.541V61.514H107.504V69.8147H108.541V65.8867H113.285V69.8147H114.285V61.514H113.285Z" fill="#3A3A3A"/>
<path d="M82.4908 68.0358V61.3656H81.4902V69.6663H82.3055L87.4193 63.6261V69.6663H88.4569V61.3656H88.1604L82.4908 68.0358Z" fill="#3A3A3A"/>
<path d="M93.0886 61.3656L89.457 69.6663H90.4576L93.2368 63.3667L95.979 69.6663H97.0907L93.4221 61.3656H93.0886Z" fill="#3A3A3A"/>
</svg>
