<svg id="svgbg" width="1440" height="999" viewBox="0 0 1440 999" fill="none" xmlns="http://www.w3.org/2000/svg">
<style>
    #svgbg {
        animation: swing 5s infinite alternate cubic-bezier(0.455, 0.03, 0.515, 0.955);
    }
    @keyframes swing {
    0% {
        transform: translateY(10px); }
    100% {
        transform: translateY(-10px); }
    }
</style>
<path class="path" d="M1440 171.502C1440 172.392 1440 173.281 1439.91 174.171C1432.86 172.392 1425.53 171.502 1417.94 171.502C1391.26 171.502 1367.21 183.156 1350.94 201.481C1334.66 183.067 1310.61 171.502 1283.94 171.502C1276.34 171.502 1269.02 172.48 1261.88 174.171C1261.79 173.281 1261.79 172.392 1261.79 171.502C1261.79 123.108 1301.66 83.8772 1350.85 83.8772C1400.13 83.8772 1440 123.108 1440 171.502Z" stroke="white" stroke-opacity="0.04" stroke-width="0.650622" stroke-miterlimit="10" stroke-linecap="round" stroke-linejoin="round"/>
<path class="path" d="M1282.31 232.792C1282.31 233.682 1282.32 234.571 1282.22 235.461C1275.17 233.682 1267.85 232.792 1260.25 232.792C1233.58 232.792 1209.53 244.446 1193.25 262.771C1176.98 244.357 1152.93 232.792 1126.25 232.792C1118.66 232.792 1111.33 233.771 1104.19 235.461C1104.1 234.571 1104.1 233.682 1104.1 232.792C1104.1 184.398 1143.98 145.167 1193.16 145.167C1242.44 145.167 1282.31 184.398 1282.31 232.792Z" stroke="white" stroke-opacity="0.04" stroke-width="0.650622" stroke-miterlimit="10" stroke-linecap="round" stroke-linejoin="round"/>
<path class="path" d="M1124.53 171.502C1124.53 172.392 1124.53 173.281 1124.44 174.171C1117.39 172.392 1110.07 171.502 1102.47 171.502C1075.8 171.502 1051.75 183.156 1035.47 201.481C1019.2 183.067 995.145 171.502 968.472 171.502C960.877 171.502 953.553 172.48 946.41 174.171C946.319 173.281 946.319 172.392 946.319 171.502C946.319 123.108 986.194 83.8772 1035.38 83.8772C1084.75 83.8772 1124.53 123.108 1124.53 171.502Z" stroke="white" stroke-opacity="0.04" stroke-width="0.650622" stroke-miterlimit="10" stroke-linecap="round" stroke-linejoin="round"/>
<path class="path" d="M1440 48.915C1440 49.8046 1440 50.6942 1439.91 51.5838C1432.86 49.8046 1425.53 48.915 1417.94 48.915C1391.26 48.915 1367.21 60.5687 1350.94 78.8943C1334.66 60.4797 1310.61 48.915 1283.94 48.915C1276.34 48.915 1269.02 49.8936 1261.88 51.5838C1261.79 50.6942 1261.79 49.8046 1261.79 48.915C1261.79 0.521242 1301.66 -38.7097 1350.85 -38.7097C1400.13 -38.7097 1440 0.521242 1440 48.915Z" stroke="white" stroke-opacity="0.04" stroke-width="0.650622" stroke-miterlimit="10" stroke-linecap="round" stroke-linejoin="round"/>
<path class="path" d="M1282.31 110.213C1282.31 111.102 1282.32 111.992 1282.22 112.882C1275.17 111.102 1267.85 110.213 1260.25 110.213C1233.58 110.213 1209.53 121.867 1193.25 140.192C1176.98 121.778 1152.93 110.213 1126.25 110.213C1118.66 110.213 1111.33 111.191 1104.19 112.882C1104.1 111.992 1104.1 111.102 1104.1 110.213C1104.1 61.8191 1143.98 22.5881 1193.16 22.5881C1242.44 22.5881 1282.31 61.8191 1282.31 110.213Z" stroke="white" stroke-opacity="0.04" stroke-width="0.650622" stroke-miterlimit="10" stroke-linecap="round" stroke-linejoin="round"/>
<path class="path" d="M1124.53 48.915C1124.53 49.8046 1124.53 50.6942 1124.44 51.5838C1117.39 49.8046 1110.07 48.915 1102.47 48.915C1075.8 48.915 1051.75 60.5687 1035.47 78.8943C1019.2 60.4797 995.145 48.915 968.472 48.915C960.877 48.915 953.553 49.8936 946.41 51.5838C946.319 50.6942 946.319 49.8046 946.319 48.915C946.319 0.521242 986.194 -38.7097 1035.38 -38.7097C1084.75 -38.7097 1124.53 0.521242 1124.53 48.915Z" stroke="white" stroke-opacity="0.04" stroke-width="0.650622" stroke-miterlimit="10" stroke-linecap="round" stroke-linejoin="round"/>
<path class="path" d="M1282.31 -12.3753C1282.31 -11.4857 1282.32 -10.5961 1282.22 -9.70648C1275.17 -11.4857 1267.85 -12.3753 1260.25 -12.3753C1233.58 -12.3753 1209.53 -0.721609 1193.25 17.604C1176.98 -0.810568 1152.93 -12.3753 1126.25 -12.3753C1118.66 -12.3753 1111.33 -11.3967 1104.19 -9.70648C1104.1 -10.5961 1104.1 -11.4857 1104.1 -12.3753C1104.1 -60.769 1143.98 -100 1193.16 -100C1242.44 -100 1282.31 -60.769 1282.31 -12.3753Z" stroke="white" stroke-opacity="0.04" stroke-width="0.650622" stroke-miterlimit="10" stroke-linecap="round" stroke-linejoin="round"/>
<path class="path" d="M1440 416.669C1440 417.559 1440 418.449 1439.91 419.338C1432.86 417.559 1425.53 416.669 1417.94 416.669C1391.26 416.669 1367.21 428.323 1350.94 446.649C1334.66 428.234 1310.61 416.669 1283.94 416.669C1276.34 416.669 1269.02 417.648 1261.88 419.338C1261.79 418.449 1261.79 417.559 1261.79 416.669C1261.79 368.276 1301.66 329.045 1350.85 329.045C1400.13 329.045 1440 368.365 1440 416.669Z" stroke="white" stroke-opacity="0.04" stroke-width="0.650622" stroke-miterlimit="10" stroke-linecap="round" stroke-linejoin="round"/>
<path class="path" d="M1282.31 477.959C1282.31 478.849 1282.32 479.738 1282.22 480.628C1275.17 478.849 1267.85 477.959 1260.25 477.959C1233.58 477.959 1209.53 489.613 1193.25 507.939C1176.98 489.524 1152.93 477.959 1126.25 477.959C1118.66 477.959 1111.33 478.938 1104.19 480.628C1104.1 479.738 1104.1 478.849 1104.1 477.959C1104.1 429.565 1143.98 390.334 1193.16 390.334C1242.44 390.334 1282.31 429.654 1282.31 477.959Z" stroke="white" stroke-opacity="0.04" stroke-width="0.650622" stroke-miterlimit="10" stroke-linecap="round" stroke-linejoin="round"/>
<path class="path" d="M1124.53 416.669C1124.53 417.559 1124.53 418.449 1124.44 419.338C1117.39 417.559 1110.07 416.669 1102.47 416.669C1075.8 416.669 1051.75 428.323 1035.47 446.649C1019.2 428.234 995.145 416.669 968.472 416.669C960.877 416.669 953.553 417.648 946.41 419.338C946.319 418.449 946.319 417.559 946.319 416.669C946.319 368.276 986.194 329.045 1035.38 329.045C1084.75 329.045 1124.53 368.365 1124.53 416.669Z" stroke="white" stroke-opacity="0.04" stroke-width="0.650622" stroke-miterlimit="10" stroke-linecap="round" stroke-linejoin="round"/>
<path class="path" d="M1440 294.082C1440 294.971 1440 295.861 1439.91 296.751C1432.86 294.971 1425.53 294.082 1417.94 294.082C1391.26 294.082 1367.21 305.735 1350.94 324.061C1334.66 305.646 1310.61 294.082 1283.94 294.082C1276.34 294.082 1269.02 295.06 1261.88 296.751C1261.79 295.861 1261.79 294.971 1261.79 294.082C1261.79 245.688 1301.66 206.457 1350.85 206.457C1400.13 206.457 1440 245.777 1440 294.082Z" stroke="white" stroke-opacity="0.04" stroke-width="0.650622" stroke-miterlimit="10" stroke-linecap="round" stroke-linejoin="round"/>
<path class="path" d="M1282.31 355.379C1282.31 356.269 1282.32 357.158 1282.22 358.048C1275.17 356.269 1267.85 355.379 1260.25 355.379C1233.58 355.379 1209.53 367.033 1193.25 385.358C1176.98 366.944 1152.93 355.379 1126.25 355.379C1118.66 355.379 1111.33 356.358 1104.19 358.048C1104.1 357.158 1104.1 356.269 1104.1 355.379C1104.1 306.985 1143.98 267.754 1193.16 267.754C1242.44 267.754 1282.31 307.074 1282.31 355.379Z" stroke="white" stroke-opacity="0.04" stroke-width="0.650622" stroke-miterlimit="10" stroke-linecap="round" stroke-linejoin="round"/>
<path class="path" d="M1124.53 294.082C1124.53 294.971 1124.53 295.861 1124.44 296.751C1117.39 294.971 1110.07 294.082 1102.47 294.082C1075.8 294.082 1051.75 305.735 1035.47 324.061C1019.2 305.646 995.145 294.082 968.472 294.082C960.877 294.082 953.553 295.06 946.41 296.751C946.319 295.861 946.319 294.971 946.319 294.082C946.319 245.688 986.194 206.457 1035.38 206.457C1084.75 206.457 1124.53 245.777 1124.53 294.082Z" stroke="white" stroke-opacity="0.04" stroke-width="0.650622" stroke-miterlimit="10" stroke-linecap="round" stroke-linejoin="round"/>
<path class="path" d="M1282.31 232.792C1282.31 233.681 1282.32 234.571 1282.22 235.461C1275.17 233.681 1267.85 232.792 1260.25 232.792C1233.58 232.792 1209.53 244.445 1193.25 262.771C1176.98 244.356 1152.93 232.792 1126.25 232.792C1118.66 232.792 1111.33 233.77 1104.19 235.461C1104.1 234.571 1104.1 233.681 1104.1 232.792C1104.1 184.398 1143.98 145.167 1193.16 145.167C1242.44 145.167 1282.31 184.398 1282.31 232.792Z" stroke="white" stroke-opacity="0.04" stroke-width="0.650622" stroke-miterlimit="10" stroke-linecap="round" stroke-linejoin="round"/>
<path class="path" d="M1440 661.846C1440 662.735 1440 663.625 1439.91 664.515C1432.86 662.735 1425.53 661.846 1417.94 661.846C1391.26 661.846 1367.21 673.5 1350.94 691.825C1334.66 673.411 1310.61 661.846 1283.94 661.846C1276.34 661.846 1269.02 662.824 1261.88 664.515C1261.79 663.625 1261.79 662.735 1261.79 661.846C1261.79 613.452 1301.66 574.221 1350.85 574.221C1400.13 574.31 1440 613.541 1440 661.846Z" stroke="white" stroke-opacity="0.04" stroke-width="0.650622" stroke-miterlimit="10" stroke-linecap="round" stroke-linejoin="round"/>
<path class="path" d="M1282.32 723.136C1282.32 724.025 1282.32 724.915 1282.23 725.805C1275.17 724.026 1267.85 723.136 1260.25 723.136C1233.58 723.136 1209.53 734.79 1193.25 753.115C1176.98 734.701 1152.93 723.136 1126.25 723.136C1118.66 723.136 1111.33 724.114 1104.19 725.805C1104.1 724.915 1104.1 724.025 1104.1 723.136C1104.1 674.742 1143.98 635.511 1193.16 635.511C1242.44 635.6 1282.32 674.831 1282.32 723.136Z" stroke="white" stroke-opacity="0.04" stroke-width="0.650622" stroke-miterlimit="10" stroke-linecap="round" stroke-linejoin="round"/>
<path class="path" d="M1124.53 661.846C1124.53 662.735 1124.53 663.625 1124.44 664.515C1117.39 662.735 1110.07 661.846 1102.47 661.846C1075.8 661.846 1051.75 673.5 1035.47 691.825C1019.2 673.411 995.146 661.846 968.472 661.846C960.877 661.846 953.553 662.824 946.41 664.515C946.32 663.625 946.32 662.735 946.32 661.846C946.32 613.452 986.194 574.221 1035.38 574.221C1084.75 574.31 1124.53 613.541 1124.53 661.846Z" stroke="white" stroke-opacity="0.04" stroke-width="0.650622" stroke-miterlimit="10" stroke-linecap="round" stroke-linejoin="round"/>
<path class="path" d="M1440 539.258C1440 540.148 1440 541.037 1439.91 541.927C1432.86 540.148 1425.53 539.258 1417.94 539.258C1391.26 539.258 1367.21 550.912 1350.94 569.237C1334.66 550.823 1310.61 539.258 1283.94 539.258C1276.34 539.258 1269.02 540.237 1261.88 541.927C1261.79 541.037 1261.79 540.148 1261.79 539.258C1261.79 490.864 1301.66 451.633 1350.85 451.633C1400.13 451.722 1440 490.953 1440 539.258Z" stroke="white" stroke-opacity="0.04" stroke-width="0.650622" stroke-miterlimit="10" stroke-linecap="round" stroke-linejoin="round"/>
<path class="path" d="M1282.32 600.556C1282.32 601.445 1282.32 602.335 1282.23 603.225C1275.17 601.445 1267.85 600.556 1260.25 600.556C1233.58 600.556 1209.53 612.21 1193.25 630.535C1176.98 612.121 1152.93 600.556 1126.25 600.556C1118.66 600.556 1111.33 601.534 1104.19 603.225C1104.1 602.335 1104.1 601.445 1104.1 600.556C1104.1 552.162 1143.98 512.931 1193.16 512.931C1242.44 513.02 1282.32 552.251 1282.32 600.556Z" stroke="white" stroke-opacity="0.04" stroke-width="0.650622" stroke-miterlimit="10" stroke-linecap="round" stroke-linejoin="round"/>
<path class="path" d="M1124.53 539.258C1124.53 540.148 1124.53 541.037 1124.44 541.927C1117.39 540.148 1110.07 539.258 1102.47 539.258C1075.8 539.258 1051.75 550.912 1035.47 569.237C1019.2 550.823 995.146 539.258 968.472 539.258C960.877 539.258 953.553 540.237 946.41 541.927C946.32 541.037 946.32 540.148 946.32 539.258C946.32 490.864 986.194 451.633 1035.38 451.633C1084.75 451.722 1124.53 490.953 1124.53 539.258Z" stroke="white" stroke-opacity="0.04" stroke-width="0.650622" stroke-miterlimit="10" stroke-linecap="round" stroke-linejoin="round"/>
<path class="path" d="M1282.32 477.968C1282.32 478.858 1282.32 479.747 1282.23 480.637C1275.17 478.858 1267.85 477.968 1260.25 477.968C1233.58 477.968 1209.53 489.622 1193.25 507.947C1176.98 489.533 1152.93 477.968 1126.25 477.968C1118.66 477.968 1111.33 478.947 1104.19 480.637C1104.1 479.747 1104.1 478.858 1104.1 477.968C1104.1 429.574 1143.98 390.343 1193.16 390.343C1242.44 390.343 1282.32 429.663 1282.32 477.968Z" stroke="white" stroke-opacity="0.04" stroke-width="0.650622" stroke-miterlimit="10" stroke-linecap="round" stroke-linejoin="round"/>
<path class="path" d="M1440 907.101C1440 907.99 1440 908.88 1439.91 909.77C1432.86 907.99 1425.53 907.101 1417.94 907.101C1391.26 907.101 1367.21 918.754 1350.94 937.08C1334.66 918.666 1310.61 907.101 1283.94 907.101C1276.34 907.101 1269.02 908.079 1261.88 909.77C1261.79 908.88 1261.79 907.99 1261.79 907.101C1261.79 858.707 1301.66 819.476 1350.85 819.476C1400.13 819.476 1440 858.707 1440 907.101Z" stroke="white" stroke-opacity="0.04" stroke-width="0.650622" stroke-miterlimit="10" stroke-linecap="round" stroke-linejoin="round"/>
<path class="path" d="M1282.32 968.399C1282.32 969.289 1282.32 970.179 1282.23 971.068C1275.17 969.289 1267.85 968.399 1260.25 968.399C1233.58 968.399 1209.53 980.053 1193.25 998.379C1176.98 979.964 1152.93 968.399 1126.25 968.399C1118.66 968.399 1111.33 969.378 1104.19 971.068C1104.1 970.179 1104.1 969.289 1104.1 968.399C1104.1 920.006 1143.98 880.775 1193.16 880.775C1242.44 880.775 1282.32 920.006 1282.32 968.399Z" stroke="white" stroke-opacity="0.04" stroke-width="0.650622" stroke-miterlimit="10" stroke-linecap="round" stroke-linejoin="round"/>
<path class="path" d="M1124.53 907.101C1124.53 907.99 1124.53 908.88 1124.44 909.77C1117.39 907.99 1110.07 907.101 1102.47 907.101C1075.8 907.101 1051.75 918.754 1035.47 937.08C1019.2 918.666 995.146 907.101 968.472 907.101C960.877 907.101 953.553 908.079 946.41 909.77C946.32 908.88 946.32 907.99 946.32 907.101C946.32 858.707 986.194 819.476 1035.38 819.476C1084.75 819.476 1124.53 858.707 1124.53 907.101Z" stroke="white" stroke-opacity="0.04" stroke-width="0.650622" stroke-miterlimit="10" stroke-linecap="round" stroke-linejoin="round"/>
<path class="path" d="M1440 784.426C1440 785.316 1440 786.205 1439.91 787.095C1432.86 785.316 1425.53 784.426 1417.94 784.426C1391.26 784.426 1367.21 796.08 1350.94 814.405C1334.66 795.991 1310.61 784.426 1283.94 784.426C1276.34 784.426 1269.02 785.405 1261.88 787.095C1261.79 786.205 1261.79 785.316 1261.79 784.426C1261.79 736.033 1301.66 696.802 1350.85 696.802C1400.13 696.89 1440 736.122 1440 784.426Z" stroke="white" stroke-opacity="0.04" stroke-width="0.650622" stroke-miterlimit="10" stroke-linecap="round" stroke-linejoin="round"/>
<path class="path" d="M1282.32 845.724C1282.32 846.614 1282.32 847.503 1282.23 848.393C1275.17 846.614 1267.85 845.724 1260.25 845.724C1233.58 845.724 1209.53 857.378 1193.25 875.703C1176.98 857.289 1152.93 845.724 1126.25 845.724C1118.66 845.724 1111.33 846.703 1104.19 848.393C1104.1 847.503 1104.1 846.614 1104.1 845.724C1104.1 797.33 1143.98 758.099 1193.16 758.099C1242.44 758.188 1282.32 797.419 1282.32 845.724Z" stroke="white" stroke-opacity="0.04" stroke-width="0.650622" stroke-miterlimit="10" stroke-linecap="round" stroke-linejoin="round"/>
<path class="path" d="M1124.53 784.426C1124.53 785.316 1124.53 786.205 1124.44 787.095C1117.39 785.316 1110.07 784.426 1102.47 784.426C1075.8 784.426 1051.75 796.08 1035.47 814.405C1019.2 795.991 995.146 784.426 968.472 784.426C960.877 784.426 953.553 785.405 946.41 787.095C946.32 786.205 946.32 785.316 946.32 784.426C946.32 736.033 986.194 696.802 1035.38 696.802C1084.75 696.89 1124.53 736.122 1124.53 784.426Z" stroke="white" stroke-opacity="0.04" stroke-width="0.650622" stroke-miterlimit="10" stroke-linecap="round" stroke-linejoin="round"/>
<path class="path" d="M1282.32 723.136C1282.32 724.026 1282.32 724.915 1282.23 725.805C1275.17 724.026 1267.85 723.136 1260.25 723.136C1233.58 723.136 1209.53 734.79 1193.25 753.115C1176.98 734.701 1152.93 723.136 1126.25 723.136C1118.66 723.136 1111.33 724.115 1104.19 725.805C1104.1 724.915 1104.1 724.026 1104.1 723.136C1104.1 674.742 1143.98 635.511 1193.16 635.511C1242.44 635.6 1282.32 674.831 1282.32 723.136Z" stroke="white" stroke-opacity="0.04" stroke-width="0.650622" stroke-miterlimit="10" stroke-linecap="round" stroke-linejoin="round"/>
<path class="path" d="M1124.52 171.502C1124.52 172.392 1124.52 173.281 1124.43 174.171C1117.38 172.392 1110.06 171.502 1102.46 171.502C1075.79 171.502 1051.74 183.156 1035.46 201.481C1019.19 183.067 995.135 171.502 968.462 171.502C960.867 171.502 953.543 172.481 946.4 174.171C946.309 173.281 946.309 172.392 946.309 171.502C946.309 123.108 986.184 83.8774 1035.37 83.8774C1084.74 83.8774 1124.52 123.108 1124.52 171.502Z" stroke="white" stroke-opacity="0.04" stroke-width="0.650622" stroke-miterlimit="10" stroke-linecap="round" stroke-linejoin="round"/>
<path class="path" d="M966.839 232.792C966.839 233.682 966.839 234.571 966.748 235.461C959.696 233.682 952.372 232.792 944.777 232.792C918.103 232.792 894.052 244.446 877.777 262.771C861.502 244.357 837.45 232.792 810.777 232.792C803.182 232.792 795.858 233.771 788.715 235.461C788.624 234.571 788.625 233.682 788.625 232.792C788.625 184.398 828.499 145.167 877.686 145.167C926.964 145.167 966.839 184.398 966.839 232.792Z" stroke="white" stroke-opacity="0.04" stroke-width="0.650622" stroke-miterlimit="10" stroke-linecap="round" stroke-linejoin="round"/>
<path class="path" d="M809.058 171.502C809.058 172.392 809.058 173.281 808.967 174.171C801.915 172.392 794.591 171.502 786.996 171.502C760.322 171.502 736.271 183.156 719.996 201.481C703.72 183.067 679.669 171.502 652.996 171.502C645.401 171.502 638.077 172.481 630.934 174.171C630.843 173.281 630.843 172.392 630.843 171.502C630.843 123.108 670.718 83.8774 719.905 83.8774C769.274 83.8774 809.058 123.108 809.058 171.502Z" stroke="white" stroke-opacity="0.04" stroke-width="0.650622" stroke-miterlimit="10" stroke-linecap="round" stroke-linejoin="round"/>
<path class="path" d="M1124.52 48.915C1124.52 49.8046 1124.52 50.6942 1124.43 51.5838C1117.38 49.8046 1110.06 48.915 1102.46 48.915C1075.79 48.915 1051.74 60.5687 1035.46 78.8943C1019.19 60.4797 995.135 48.915 968.462 48.915C960.867 48.915 953.543 49.8936 946.4 51.5838C946.309 50.6942 946.309 49.8046 946.309 48.915C946.309 0.521242 986.184 -38.7097 1035.37 -38.7097C1084.74 -38.7097 1124.52 0.521242 1124.52 48.915Z" stroke="white" stroke-opacity="0.04" stroke-width="0.650622" stroke-miterlimit="10" stroke-linecap="round" stroke-linejoin="round"/>
<path class="path" d="M966.839 110.213C966.839 111.102 966.839 111.992 966.748 112.882C959.696 111.102 952.372 110.213 944.777 110.213C918.103 110.213 894.052 121.867 877.777 140.192C861.502 121.778 837.45 110.213 810.777 110.213C803.182 110.213 795.858 111.191 788.715 112.882C788.624 111.992 788.625 111.102 788.625 110.213C788.625 61.8191 828.499 22.5881 877.686 22.5881C926.964 22.5881 966.839 61.8191 966.839 110.213Z" stroke="white" stroke-opacity="0.04" stroke-width="0.650622" stroke-miterlimit="10" stroke-linecap="round" stroke-linejoin="round"/>
<path class="path" d="M809.058 48.915C809.058 49.8046 809.058 50.6942 808.967 51.5838C801.915 49.8046 794.591 48.915 786.996 48.915C760.322 48.915 736.271 60.5687 719.996 78.8943C703.72 60.4797 679.669 48.915 652.996 48.915C645.401 48.915 638.077 49.8936 630.934 51.5838C630.843 50.6942 630.843 49.8046 630.843 48.915C630.843 0.521242 670.718 -38.7097 719.905 -38.7097C769.274 -38.7097 809.058 0.521242 809.058 48.915Z" stroke="white" stroke-opacity="0.04" stroke-width="0.650622" stroke-miterlimit="10" stroke-linecap="round" stroke-linejoin="round"/>
<path class="path" d="M966.839 -12.3753C966.839 -11.4857 966.839 -10.5961 966.748 -9.70648C959.696 -11.4857 952.372 -12.3753 944.777 -12.3753C918.103 -12.3753 894.052 -0.721609 877.777 17.604C861.502 -0.810568 837.45 -12.3753 810.777 -12.3753C803.182 -12.3753 795.858 -11.3967 788.715 -9.70648C788.624 -10.5961 788.625 -11.4857 788.625 -12.3753C788.625 -60.769 828.499 -100 877.686 -100C926.964 -100 966.839 -60.769 966.839 -12.3753Z" stroke="white" stroke-opacity="0.04" stroke-width="0.650622" stroke-miterlimit="10" stroke-linecap="round" stroke-linejoin="round"/>
<path class="path" d="M1124.52 416.669C1124.52 417.559 1124.52 418.449 1124.43 419.338C1117.38 417.559 1110.06 416.669 1102.46 416.669C1075.79 416.669 1051.74 428.323 1035.46 446.649C1019.19 428.234 995.136 416.669 968.462 416.669C960.867 416.669 953.543 417.648 946.4 419.338C946.31 418.449 946.31 417.559 946.31 416.669C946.31 368.276 986.184 329.045 1035.37 329.045C1084.74 329.045 1124.52 368.365 1124.52 416.669Z" stroke="white" stroke-opacity="0.04" stroke-width="0.650622" stroke-miterlimit="10" stroke-linecap="round" stroke-linejoin="round"/>
<path class="path" d="M966.839 477.959C966.839 478.849 966.839 479.738 966.748 480.628C959.696 478.849 952.372 477.959 944.777 477.959C918.103 477.959 894.052 489.613 877.777 507.939C861.502 489.524 837.45 477.959 810.777 477.959C803.182 477.959 795.858 478.938 788.715 480.628C788.624 479.738 788.625 478.849 788.625 477.959C788.625 429.565 828.499 390.334 877.686 390.334C926.964 390.334 966.839 429.654 966.839 477.959Z" stroke="white" stroke-opacity="0.04" stroke-width="0.650622" stroke-miterlimit="10" stroke-linecap="round" stroke-linejoin="round"/>
<path class="path" d="M809.058 416.669C809.058 417.559 809.058 418.449 808.967 419.338C801.915 417.559 794.591 416.669 786.996 416.669C760.322 416.669 736.271 428.323 719.996 446.649C703.72 428.234 679.669 416.669 652.996 416.669C645.401 416.669 638.077 417.648 630.934 419.338C630.843 418.449 630.843 417.559 630.843 416.669C630.843 368.276 670.718 329.045 719.905 329.045C769.274 329.045 809.058 368.365 809.058 416.669Z" stroke="white" stroke-opacity="0.04" stroke-width="0.650622" stroke-miterlimit="10" stroke-linecap="round" stroke-linejoin="round"/>
<path class="path" d="M1124.52 294.081C1124.52 294.971 1124.52 295.86 1124.43 296.75C1117.38 294.971 1110.06 294.081 1102.46 294.081C1075.79 294.081 1051.74 305.735 1035.46 324.061C1019.19 305.646 995.136 294.081 968.462 294.081C960.867 294.081 953.543 295.06 946.4 296.75C946.31 295.86 946.31 294.971 946.31 294.081C946.31 245.688 986.184 206.457 1035.37 206.457C1084.74 206.457 1124.52 245.776 1124.52 294.081Z" stroke="white" stroke-opacity="0.04" stroke-width="0.650622" stroke-miterlimit="10" stroke-linecap="round" stroke-linejoin="round"/>
<path class="path" d="M966.839 355.379C966.839 356.269 966.839 357.158 966.748 358.048C959.696 356.269 952.372 355.379 944.777 355.379C918.103 355.379 894.052 367.033 877.777 385.358C861.502 366.944 837.45 355.379 810.777 355.379C803.182 355.379 795.858 356.358 788.715 358.048C788.624 357.158 788.625 356.269 788.625 355.379C788.625 306.985 828.499 267.754 877.686 267.754C926.964 267.754 966.839 307.074 966.839 355.379Z" stroke="white" stroke-opacity="0.04" stroke-width="0.650622" stroke-miterlimit="10" stroke-linecap="round" stroke-linejoin="round"/>
<path class="path" d="M809.058 294.081C809.058 294.971 809.058 295.86 808.967 296.75C801.915 294.971 794.591 294.081 786.996 294.081C760.322 294.081 736.271 305.735 719.996 324.061C703.72 305.646 679.669 294.081 652.996 294.081C645.401 294.081 638.077 295.06 630.934 296.75C630.843 295.86 630.843 294.971 630.843 294.081C630.843 245.688 670.718 206.457 719.905 206.457C769.274 206.457 809.058 245.776 809.058 294.081Z" stroke="white" stroke-opacity="0.04" stroke-width="0.650622" stroke-miterlimit="10" stroke-linecap="round" stroke-linejoin="round"/>
<path class="path" d="M966.839 232.792C966.839 233.681 966.839 234.571 966.748 235.461C959.696 233.681 952.372 232.792 944.777 232.792C918.103 232.792 894.052 244.445 877.777 262.771C861.502 244.356 837.45 232.792 810.777 232.792C803.182 232.792 795.858 233.77 788.715 235.461C788.624 234.571 788.625 233.681 788.625 232.792C788.625 184.398 828.499 145.167 877.686 145.167C926.964 145.167 966.839 184.398 966.839 232.792Z" stroke="white" stroke-opacity="0.04" stroke-width="0.650622" stroke-miterlimit="10" stroke-linecap="round" stroke-linejoin="round"/>
<path class="path" d="M1124.52 661.846C1124.52 662.735 1124.52 663.625 1124.43 664.515C1117.38 662.735 1110.06 661.846 1102.46 661.846C1075.79 661.846 1051.74 673.5 1035.46 691.825C1019.19 673.411 995.136 661.846 968.462 661.846C960.867 661.846 953.543 662.824 946.4 664.515C946.31 663.625 946.31 662.735 946.31 661.846C946.31 613.452 986.184 574.221 1035.37 574.221C1084.74 574.31 1124.52 613.541 1124.52 661.846Z" stroke="white" stroke-opacity="0.04" stroke-width="0.650622" stroke-miterlimit="10" stroke-linecap="round" stroke-linejoin="round"/>
<path class="path" d="M966.839 723.136C966.839 724.026 966.839 724.915 966.749 725.805C959.696 724.026 952.372 723.136 944.777 723.136C918.104 723.136 894.053 734.79 877.777 753.115C861.502 734.701 837.451 723.136 810.777 723.136C803.182 723.136 795.858 724.115 788.715 725.805C788.625 724.915 788.625 724.026 788.625 723.136C788.625 674.742 828.499 635.511 877.687 635.511C926.965 635.6 966.839 674.831 966.839 723.136Z" stroke="white" stroke-opacity="0.04" stroke-width="0.650622" stroke-miterlimit="10" stroke-linecap="round" stroke-linejoin="round"/>
<path class="path" d="M809.058 661.846C809.058 662.735 809.058 663.625 808.968 664.515C801.915 662.735 794.591 661.846 786.996 661.846C760.323 661.846 736.271 673.5 719.996 691.825C703.721 673.411 679.67 661.846 652.996 661.846C645.401 661.846 638.077 662.824 630.934 664.515C630.844 663.625 630.844 662.735 630.844 661.846C630.844 613.452 670.718 574.221 719.906 574.221C769.274 574.31 809.058 613.541 809.058 661.846Z" stroke="white" stroke-opacity="0.04" stroke-width="0.650622" stroke-miterlimit="10" stroke-linecap="round" stroke-linejoin="round"/>
<path class="path" d="M1124.52 539.258C1124.52 540.148 1124.52 541.037 1124.43 541.927C1117.38 540.148 1110.06 539.258 1102.46 539.258C1075.79 539.258 1051.74 550.912 1035.46 569.238C1019.19 550.823 995.136 539.258 968.462 539.258C960.867 539.258 953.543 540.237 946.4 541.927C946.31 541.037 946.31 540.148 946.31 539.258C946.31 490.864 986.184 451.634 1035.37 451.634C1084.74 451.723 1124.52 490.953 1124.52 539.258Z" stroke="white" stroke-opacity="0.04" stroke-width="0.650622" stroke-miterlimit="10" stroke-linecap="round" stroke-linejoin="round"/>
<path class="path" d="M966.839 600.556C966.839 601.445 966.839 602.335 966.749 603.225C959.696 601.445 952.372 600.556 944.777 600.556C918.104 600.556 894.053 612.21 877.777 630.535C861.502 612.121 837.451 600.556 810.777 600.556C803.182 600.556 795.858 601.534 788.715 603.225C788.625 602.335 788.625 601.445 788.625 600.556C788.625 552.162 828.499 512.931 877.687 512.931C926.965 513.02 966.839 552.251 966.839 600.556Z" stroke="white" stroke-opacity="0.04" stroke-width="0.650622" stroke-miterlimit="10" stroke-linecap="round" stroke-linejoin="round"/>
<path class="path" d="M809.058 539.258C809.058 540.148 809.058 541.037 808.968 541.927C801.915 540.148 794.591 539.258 786.996 539.258C760.323 539.258 736.271 550.912 719.996 569.238C703.721 550.823 679.67 539.258 652.996 539.258C645.401 539.258 638.077 540.237 630.934 541.927C630.844 541.037 630.844 540.148 630.844 539.258C630.844 490.864 670.718 451.634 719.906 451.634C769.274 451.723 809.058 490.953 809.058 539.258Z" stroke="white" stroke-opacity="0.04" stroke-width="0.650622" stroke-miterlimit="10" stroke-linecap="round" stroke-linejoin="round"/>
<path class="path" d="M966.839 477.968C966.839 478.858 966.839 479.747 966.749 480.637C959.696 478.858 952.372 477.968 944.777 477.968C918.104 477.968 894.053 489.622 877.777 507.947C861.502 489.533 837.451 477.968 810.777 477.968C803.182 477.968 795.858 478.947 788.715 480.637C788.625 479.747 788.625 478.858 788.625 477.968C788.625 429.574 828.499 390.343 877.687 390.343C926.965 390.343 966.839 429.663 966.839 477.968Z" stroke="white" stroke-opacity="0.04" stroke-width="0.650622" stroke-miterlimit="10" stroke-linecap="round" stroke-linejoin="round"/>
<path class="path" d="M1124.52 907.101C1124.52 907.99 1124.52 908.88 1124.43 909.77C1117.38 907.99 1110.06 907.101 1102.46 907.101C1075.79 907.101 1051.74 918.754 1035.46 937.08C1019.19 918.666 995.136 907.101 968.463 907.101C960.868 907.101 953.544 908.079 946.401 909.77C946.31 908.88 946.31 907.99 946.31 907.101C946.31 858.707 986.185 819.476 1035.37 819.476C1084.74 819.476 1124.52 858.707 1124.52 907.101Z" stroke="white" stroke-opacity="0.04" stroke-width="0.650622" stroke-miterlimit="10" stroke-linecap="round" stroke-linejoin="round"/>
<path class="path" d="M966.839 968.399C966.839 969.289 966.839 970.179 966.749 971.068C959.696 969.289 952.372 968.399 944.777 968.399C918.104 968.399 894.053 980.053 877.777 998.379C861.502 979.964 837.451 968.399 810.777 968.399C803.182 968.399 795.858 969.378 788.715 971.068C788.625 970.179 788.625 969.289 788.625 968.399C788.625 920.006 828.499 880.775 877.687 880.775C926.965 880.775 966.839 920.006 966.839 968.399Z" stroke="white" stroke-opacity="0.04" stroke-width="0.650622" stroke-miterlimit="10" stroke-linecap="round" stroke-linejoin="round"/>
<path class="path" d="M809.058 907.101C809.058 907.99 809.058 908.88 808.968 909.77C801.915 907.99 794.591 907.101 786.996 907.101C760.323 907.101 736.271 918.754 719.996 937.08C703.721 918.666 679.67 907.101 652.996 907.101C645.401 907.101 638.077 908.079 630.934 909.77C630.844 908.88 630.844 907.99 630.844 907.101C630.844 858.707 670.718 819.476 719.906 819.476C769.274 819.476 809.058 858.707 809.058 907.101Z" stroke="white" stroke-opacity="0.04" stroke-width="0.650622" stroke-miterlimit="10" stroke-linecap="round" stroke-linejoin="round"/>
<path class="path" d="M1124.52 784.426C1124.52 785.316 1124.52 786.205 1124.43 787.095C1117.38 785.316 1110.06 784.426 1102.46 784.426C1075.79 784.426 1051.74 796.08 1035.46 814.405C1019.19 795.991 995.136 784.426 968.463 784.426C960.868 784.426 953.544 785.405 946.401 787.095C946.31 786.205 946.31 785.316 946.31 784.426C946.31 736.032 986.185 696.801 1035.37 696.801C1084.74 696.89 1124.52 736.121 1124.52 784.426Z" stroke="white" stroke-opacity="0.04" stroke-width="0.650622" stroke-miterlimit="10" stroke-linecap="round" stroke-linejoin="round"/>
<path class="path" d="M966.839 845.724C966.839 846.613 966.839 847.503 966.749 848.392C959.696 846.613 952.372 845.724 944.777 845.724C918.104 845.724 894.053 857.377 877.777 875.703C861.502 857.288 837.451 845.724 810.777 845.724C803.182 845.724 795.858 846.702 788.715 848.392C788.625 847.503 788.625 846.613 788.625 845.724C788.625 797.33 828.499 758.099 877.687 758.099C926.965 758.188 966.839 797.419 966.839 845.724Z" stroke="white" stroke-opacity="0.04" stroke-width="0.650622" stroke-miterlimit="10" stroke-linecap="round" stroke-linejoin="round"/>
<path class="path" d="M809.058 784.426C809.058 785.316 809.058 786.205 808.968 787.095C801.915 785.316 794.591 784.426 786.996 784.426C760.323 784.426 736.271 796.08 719.996 814.405C703.721 795.991 679.67 784.426 652.996 784.426C645.401 784.426 638.077 785.405 630.934 787.095C630.844 786.205 630.844 785.316 630.844 784.426C630.844 736.032 670.718 696.801 719.906 696.801C769.274 696.89 809.058 736.121 809.058 784.426Z" stroke="white" stroke-opacity="0.04" stroke-width="0.650622" stroke-miterlimit="10" stroke-linecap="round" stroke-linejoin="round"/>
<path class="path" d="M966.839 723.136C966.839 724.026 966.839 724.915 966.749 725.805C959.696 724.026 952.372 723.136 944.777 723.136C918.104 723.136 894.053 734.79 877.777 753.115C861.502 734.701 837.451 723.136 810.777 723.136C803.182 723.136 795.858 724.115 788.715 725.805C788.625 724.915 788.625 724.026 788.625 723.136C788.625 674.742 828.499 635.511 877.687 635.511C926.965 635.6 966.839 674.831 966.839 723.136Z" stroke="white" stroke-opacity="0.04" stroke-width="0.650622" stroke-miterlimit="10" stroke-linecap="round" stroke-linejoin="round"/>
<path class="path" d="M809.059 171.502C809.059 172.392 809.059 173.281 808.968 174.171C801.916 172.392 794.592 171.502 786.997 171.502C760.323 171.502 736.272 183.156 719.997 201.481C703.721 183.067 679.67 171.502 652.997 171.502C645.402 171.502 638.078 172.481 630.935 174.171C630.844 173.281 630.844 172.392 630.844 171.502C630.844 123.108 670.719 83.8774 719.906 83.8774C769.275 83.8774 809.059 123.108 809.059 171.502Z" stroke="white" stroke-opacity="0.04" stroke-width="0.650622" stroke-miterlimit="10" stroke-linecap="round" stroke-linejoin="round"/>
<path class="path" d="M651.374 232.792C651.374 233.682 651.374 234.571 651.284 235.461C644.231 233.682 636.907 232.792 629.312 232.792C602.639 232.792 578.587 244.446 562.312 262.771C546.037 244.357 521.986 232.792 495.312 232.792C487.717 232.792 480.393 233.771 473.25 235.461C473.16 234.571 473.16 233.682 473.16 232.792C473.16 184.398 513.034 145.167 562.222 145.167C611.5 145.167 651.374 184.398 651.374 232.792Z" stroke="white" stroke-opacity="0.04" stroke-width="0.650622" stroke-miterlimit="10" stroke-linecap="round" stroke-linejoin="round"/>
<path class="path" d="M493.681 171.502C493.681 172.392 493.681 173.281 493.59 174.171C486.538 172.392 479.214 171.502 471.619 171.502C444.945 171.502 420.894 183.156 404.619 201.481C388.344 183.067 364.292 171.502 337.619 171.502C330.024 171.502 322.7 172.481 315.557 174.171C315.466 173.281 315.466 172.392 315.466 171.502C315.466 123.108 355.341 83.8774 404.528 83.8774C453.806 83.8774 493.681 123.108 493.681 171.502Z" stroke="white" stroke-opacity="0.04" stroke-width="0.650622" stroke-miterlimit="10" stroke-linecap="round" stroke-linejoin="round"/>
<path class="path" d="M809.059 48.915C809.059 49.8046 809.059 50.6942 808.968 51.5838C801.916 49.8046 794.592 48.915 786.997 48.915C760.323 48.915 736.272 60.5687 719.997 78.8943C703.721 60.4797 679.67 48.915 652.997 48.915C645.402 48.915 638.078 49.8936 630.935 51.5838C630.844 50.6942 630.844 49.8046 630.844 48.915C630.844 0.521242 670.719 -38.7097 719.906 -38.7097C769.275 -38.7097 809.059 0.521242 809.059 48.915Z" stroke="white" stroke-opacity="0.04" stroke-width="0.650622" stroke-miterlimit="10" stroke-linecap="round" stroke-linejoin="round"/>
<path class="path" d="M651.374 110.213C651.374 111.102 651.374 111.992 651.284 112.882C644.231 111.102 636.907 110.213 629.312 110.213C602.639 110.213 578.587 121.867 562.312 140.192C546.037 121.778 521.986 110.213 495.312 110.213C487.717 110.213 480.393 111.191 473.25 112.882C473.16 111.992 473.16 111.102 473.16 110.213C473.16 61.8191 513.034 22.5881 562.222 22.5881C611.5 22.5881 651.374 61.8191 651.374 110.213Z" stroke="white" stroke-opacity="0.04" stroke-width="0.650622" stroke-miterlimit="10" stroke-linecap="round" stroke-linejoin="round"/>
<path class="path" d="M493.681 48.915C493.681 49.8046 493.681 50.6942 493.59 51.5838C486.538 49.8046 479.214 48.915 471.619 48.915C444.945 48.915 420.894 60.5687 404.619 78.8943C388.344 60.4797 364.292 48.915 337.619 48.915C330.024 48.915 322.7 49.8936 315.557 51.5838C315.466 50.6942 315.466 49.8046 315.466 48.915C315.466 0.521242 355.341 -38.7097 404.528 -38.7097C453.806 -38.7097 493.681 0.521242 493.681 48.915Z" stroke="white" stroke-opacity="0.04" stroke-width="0.650622" stroke-miterlimit="10" stroke-linecap="round" stroke-linejoin="round"/>
<path class="path" d="M651.374 -12.3753C651.374 -11.4857 651.374 -10.5961 651.284 -9.70648C644.231 -11.4857 636.907 -12.3753 629.312 -12.3753C602.639 -12.3753 578.587 -0.721609 562.312 17.604C546.037 -0.810568 521.986 -12.3753 495.312 -12.3753C487.717 -12.3753 480.393 -11.3967 473.25 -9.70648C473.16 -10.5961 473.16 -11.4857 473.16 -12.3753C473.16 -60.769 513.034 -100 562.222 -100C611.5 -100 651.374 -60.769 651.374 -12.3753Z" stroke="white" stroke-opacity="0.04" stroke-width="0.650622" stroke-miterlimit="10" stroke-linecap="round" stroke-linejoin="round"/>
<path class="path" d="M809.059 416.669C809.059 417.559 809.059 418.449 808.968 419.338C801.916 417.559 794.592 416.669 786.997 416.669C760.323 416.669 736.272 428.323 719.997 446.649C703.721 428.234 679.67 416.669 652.997 416.669C645.402 416.669 638.078 417.648 630.935 419.338C630.844 418.449 630.844 417.559 630.844 416.669C630.844 368.276 670.719 329.045 719.906 329.045C769.275 329.045 809.059 368.365 809.059 416.669Z" stroke="white" stroke-opacity="0.04" stroke-width="0.650622" stroke-miterlimit="10" stroke-linecap="round" stroke-linejoin="round"/>
<path class="path" d="M651.374 477.959C651.374 478.848 651.374 479.738 651.284 480.627C644.231 478.848 636.907 477.959 629.312 477.959C602.639 477.959 578.587 489.612 562.312 507.938C546.037 489.523 521.986 477.959 495.312 477.959C487.717 477.959 480.393 478.937 473.25 480.627C473.16 479.738 473.16 478.848 473.16 477.959C473.16 429.565 513.034 390.334 562.222 390.334C611.5 390.334 651.374 429.654 651.374 477.959Z" stroke="white" stroke-opacity="0.04" stroke-width="0.650622" stroke-miterlimit="10" stroke-linecap="round" stroke-linejoin="round"/>
<path class="path" d="M493.681 416.669C493.681 417.559 493.681 418.449 493.59 419.338C486.538 417.559 479.214 416.669 471.619 416.669C444.945 416.669 420.894 428.323 404.619 446.649C388.344 428.234 364.292 416.669 337.619 416.669C330.024 416.669 322.7 417.648 315.557 419.338C315.466 418.449 315.466 417.559 315.466 416.669C315.466 368.276 355.341 329.045 404.528 329.045C453.806 329.045 493.681 368.365 493.681 416.669Z" stroke="white" stroke-opacity="0.04" stroke-width="0.650622" stroke-miterlimit="10" stroke-linecap="round" stroke-linejoin="round"/>
<path class="path" d="M809.059 294.081C809.059 294.97 809.059 295.86 808.968 296.75C801.916 294.97 794.592 294.081 786.997 294.081C760.323 294.081 736.272 305.734 719.997 324.06C703.721 305.645 679.67 294.081 652.997 294.081C645.402 294.081 638.078 295.059 630.935 296.75C630.844 295.86 630.844 294.97 630.844 294.081C630.844 245.687 670.719 206.456 719.906 206.456C769.275 206.456 809.059 245.776 809.059 294.081Z" stroke="white" stroke-opacity="0.04" stroke-width="0.650622" stroke-miterlimit="10" stroke-linecap="round" stroke-linejoin="round"/>
<path class="path" d="M651.374 355.38C651.374 356.269 651.374 357.159 651.284 358.049C644.231 356.269 636.907 355.38 629.312 355.38C602.639 355.38 578.587 367.034 562.312 385.359C546.037 366.945 521.986 355.38 495.312 355.38C487.717 355.38 480.393 356.358 473.25 358.049C473.16 357.159 473.16 356.269 473.16 355.38C473.16 306.986 513.034 267.755 562.222 267.755C611.5 267.755 651.374 307.075 651.374 355.38Z" stroke="white" stroke-opacity="0.04" stroke-width="0.650622" stroke-miterlimit="10" stroke-linecap="round" stroke-linejoin="round"/>
<path class="path" d="M493.681 294.081C493.681 294.97 493.681 295.86 493.59 296.75C486.538 294.97 479.214 294.081 471.619 294.081C444.945 294.081 420.894 305.734 404.619 324.06C388.344 305.645 364.292 294.081 337.619 294.081C330.024 294.081 322.7 295.059 315.557 296.75C315.466 295.86 315.466 294.97 315.466 294.081C315.466 245.687 355.341 206.456 404.528 206.456C453.806 206.456 493.681 245.776 493.681 294.081Z" stroke="white" stroke-opacity="0.04" stroke-width="0.650622" stroke-miterlimit="10" stroke-linecap="round" stroke-linejoin="round"/>
<path class="path" d="M651.374 232.792C651.374 233.681 651.374 234.571 651.284 235.461C644.231 233.681 636.907 232.792 629.312 232.792C602.639 232.792 578.587 244.445 562.312 262.771C546.037 244.356 521.986 232.792 495.312 232.792C487.717 232.792 480.393 233.77 473.25 235.461C473.16 234.571 473.16 233.681 473.16 232.792C473.16 184.398 513.034 145.167 562.222 145.167C611.5 145.167 651.374 184.398 651.374 232.792Z" stroke="white" stroke-opacity="0.04" stroke-width="0.650622" stroke-miterlimit="10" stroke-linecap="round" stroke-linejoin="round"/>
<path class="path" d="M809.059 661.846C809.059 662.735 809.059 663.625 808.968 664.515C801.916 662.735 794.592 661.846 786.997 661.846C760.323 661.846 736.272 673.5 719.997 691.825C703.721 673.411 679.67 661.846 652.997 661.846C645.402 661.846 638.078 662.824 630.935 664.515C630.844 663.625 630.844 662.735 630.844 661.846C630.844 613.452 670.719 574.221 719.906 574.221C769.275 574.31 809.059 613.541 809.059 661.846Z" stroke="white" stroke-opacity="0.04" stroke-width="0.650622" stroke-miterlimit="10" stroke-linecap="round" stroke-linejoin="round"/>
<path class="path" d="M651.374 723.136C651.374 724.026 651.374 724.915 651.284 725.805C644.231 724.026 636.907 723.136 629.312 723.136C602.639 723.136 578.587 734.79 562.312 753.115C546.037 734.701 521.986 723.136 495.312 723.136C487.717 723.136 480.393 724.115 473.25 725.805C473.16 724.915 473.16 724.026 473.16 723.136C473.16 674.742 513.034 635.511 562.222 635.511C611.5 635.6 651.374 674.831 651.374 723.136Z" stroke="white" stroke-opacity="0.04" stroke-width="0.650622" stroke-miterlimit="10" stroke-linecap="round" stroke-linejoin="round"/>
<path class="path" d="M493.681 661.846C493.681 662.735 493.681 663.625 493.59 664.515C486.538 662.735 479.214 661.846 471.619 661.846C444.945 661.846 420.894 673.5 404.619 691.825C388.344 673.411 364.292 661.846 337.619 661.846C330.024 661.846 322.7 662.824 315.557 664.515C315.466 663.625 315.466 662.735 315.466 661.846C315.466 613.452 355.341 574.221 404.528 574.221C453.806 574.31 493.681 613.541 493.681 661.846Z" stroke="white" stroke-opacity="0.04" stroke-width="0.650622" stroke-miterlimit="10" stroke-linecap="round" stroke-linejoin="round"/>
<path class="path" d="M809.059 539.258C809.059 540.148 809.059 541.037 808.968 541.927C801.916 540.148 794.592 539.258 786.997 539.258C760.323 539.258 736.272 550.912 719.997 569.238C703.721 550.823 679.67 539.258 652.997 539.258C645.402 539.258 638.078 540.237 630.935 541.927C630.844 541.037 630.844 540.148 630.844 539.258C630.844 490.864 670.719 451.634 719.906 451.634C769.275 451.723 809.059 490.953 809.059 539.258Z" stroke="white" stroke-opacity="0.04" stroke-width="0.650622" stroke-miterlimit="10" stroke-linecap="round" stroke-linejoin="round"/>
<path class="path" d="M651.374 600.556C651.374 601.445 651.374 602.335 651.284 603.225C644.231 601.445 636.907 600.556 629.312 600.556C602.639 600.556 578.587 612.21 562.312 630.535C546.037 612.121 521.986 600.556 495.312 600.556C487.717 600.556 480.393 601.534 473.25 603.225C473.16 602.335 473.16 601.445 473.16 600.556C473.16 552.162 513.034 512.931 562.222 512.931C611.5 513.02 651.374 552.251 651.374 600.556Z" stroke="white" stroke-opacity="0.04" stroke-width="0.650622" stroke-miterlimit="10" stroke-linecap="round" stroke-linejoin="round"/>
<path class="path" d="M493.681 539.258C493.681 540.148 493.681 541.037 493.59 541.927C486.538 540.148 479.214 539.258 471.619 539.258C444.945 539.258 420.894 550.912 404.619 569.238C388.344 550.823 364.292 539.258 337.619 539.258C330.024 539.258 322.7 540.237 315.557 541.927C315.466 541.037 315.466 540.148 315.466 539.258C315.466 490.864 355.341 451.634 404.528 451.634C453.806 451.723 493.681 490.953 493.681 539.258Z" stroke="white" stroke-opacity="0.04" stroke-width="0.650622" stroke-miterlimit="10" stroke-linecap="round" stroke-linejoin="round"/>
<path class="path" d="M651.374 477.968C651.374 478.858 651.374 479.747 651.284 480.637C644.231 478.858 636.907 477.968 629.312 477.968C602.639 477.968 578.587 489.622 562.312 507.947C546.037 489.533 521.986 477.968 495.312 477.968C487.717 477.968 480.393 478.947 473.25 480.637C473.16 479.747 473.16 478.858 473.16 477.968C473.16 429.574 513.034 390.343 562.222 390.343C611.5 390.343 651.374 429.663 651.374 477.968Z" stroke="white" stroke-opacity="0.04" stroke-width="0.650622" stroke-miterlimit="10" stroke-linecap="round" stroke-linejoin="round"/>
<path class="path" d="M493.681 171.502C493.681 172.392 493.681 173.281 493.59 174.171C486.538 172.392 479.214 171.502 471.619 171.502C444.945 171.502 420.894 183.156 404.619 201.481C388.344 183.067 364.292 171.502 337.619 171.502C330.024 171.502 322.7 172.48 315.557 174.171C315.466 173.281 315.466 172.392 315.466 171.502C315.466 123.108 355.341 83.8772 404.528 83.8772C453.806 83.8772 493.681 123.108 493.681 171.502Z" stroke="white" stroke-opacity="0.04" stroke-width="0.650622" stroke-miterlimit="10" stroke-linecap="round" stroke-linejoin="round"/>
<path class="path" d="M335.908 232.792C335.908 233.682 335.908 234.571 335.818 235.461C328.765 233.682 321.441 232.792 313.846 232.792C287.173 232.792 263.121 244.446 246.846 262.771C230.571 244.357 206.519 232.792 179.846 232.792C172.251 232.792 164.927 233.771 157.784 235.461C157.693 234.571 157.693 233.682 157.693 232.792C157.693 184.398 197.568 145.167 246.755 145.167C296.124 145.167 335.908 184.398 335.908 232.792Z" stroke="white" stroke-opacity="0.04" stroke-width="0.650622" stroke-miterlimit="10" stroke-linecap="round" stroke-linejoin="round"/>
<path class="path" d="M178.214 171.502C178.214 172.392 178.214 173.281 178.124 174.171C171.071 172.392 163.747 171.502 156.152 171.502C129.479 171.502 105.428 183.156 89.1523 201.481C72.877 183.067 48.8257 171.502 22.1523 171.502C14.5572 171.502 7.23328 172.48 0.0902307 174.171C-0.000187634 173.281 3.20511e-09 172.392 3.20511e-09 171.502C3.20511e-09 123.108 39.8743 83.8772 89.0618 83.8772C138.34 83.8772 178.214 123.108 178.214 171.502Z" stroke="white" stroke-opacity="0.04" stroke-width="0.650622" stroke-miterlimit="10" stroke-linecap="round" stroke-linejoin="round"/>
<path class="path" d="M493.681 48.915C493.681 49.8046 493.681 50.6942 493.59 51.5838C486.538 49.8046 479.214 48.915 471.619 48.915C444.945 48.915 420.894 60.5687 404.619 78.8943C388.344 60.4797 364.292 48.915 337.619 48.915C330.024 48.915 322.7 49.8936 315.557 51.5838C315.466 50.6942 315.466 49.8046 315.466 48.915C315.466 0.521242 355.341 -38.7097 404.528 -38.7097C453.806 -38.7097 493.681 0.521242 493.681 48.915Z" stroke="white" stroke-opacity="0.04" stroke-width="0.650622" stroke-miterlimit="10" stroke-linecap="round" stroke-linejoin="round"/>
<path class="path" d="M335.908 110.213C335.908 111.102 335.908 111.992 335.818 112.882C328.765 111.102 321.441 110.213 313.846 110.213C287.173 110.213 263.121 121.867 246.846 140.192C230.571 121.778 206.519 110.213 179.846 110.213C172.251 110.213 164.927 111.191 157.784 112.882C157.693 111.992 157.693 111.102 157.693 110.213C157.693 61.8191 197.568 22.5881 246.755 22.5881C296.124 22.5881 335.908 61.8191 335.908 110.213Z" stroke="white" stroke-opacity="0.04" stroke-width="0.650622" stroke-miterlimit="10" stroke-linecap="round" stroke-linejoin="round"/>
<path class="path" d="M178.214 48.915C178.214 49.8046 178.214 50.6942 178.124 51.5838C171.071 49.8046 163.747 48.915 156.152 48.915C129.479 48.915 105.428 60.5687 89.1523 78.8943C72.877 60.4797 48.8257 48.915 22.1523 48.915C14.5572 48.915 7.23328 49.8936 0.0902307 51.5838C-0.000187634 50.6942 3.20511e-09 49.8046 3.20511e-09 48.915C3.20511e-09 0.521242 39.8743 -38.7097 89.0618 -38.7097C138.34 -38.7097 178.214 0.521242 178.214 48.915Z" stroke="white" stroke-opacity="0.04" stroke-width="0.650622" stroke-miterlimit="10" stroke-linecap="round" stroke-linejoin="round"/>
<path class="path" d="M335.909 -12.3753C335.909 -11.4857 335.908 -10.5961 335.818 -9.70648C328.765 -11.4857 321.442 -12.3753 313.846 -12.3753C287.173 -12.3753 263.122 -0.721609 246.846 17.604C230.571 -0.810568 206.52 -12.3753 179.846 -12.3753C172.251 -12.3753 164.927 -11.3967 157.784 -9.70648C157.694 -10.5961 157.694 -11.4857 157.694 -12.3753C157.694 -60.769 197.568 -100 246.756 -100C296.124 -100 335.909 -60.769 335.909 -12.3753Z" stroke="white" stroke-opacity="0.04" stroke-width="0.650622" stroke-miterlimit="10" stroke-linecap="round" stroke-linejoin="round"/>
<path class="path" d="M493.681 416.669C493.681 417.559 493.681 418.449 493.59 419.338C486.538 417.559 479.214 416.669 471.619 416.669C444.945 416.669 420.894 428.323 404.619 446.649C388.344 428.234 364.292 416.669 337.619 416.669C330.024 416.669 322.7 417.648 315.557 419.338C315.466 418.449 315.466 417.559 315.466 416.669C315.466 368.276 355.341 329.045 404.528 329.045C453.806 329.045 493.681 368.365 493.681 416.669Z" stroke="white" stroke-opacity="0.04" stroke-width="0.650622" stroke-miterlimit="10" stroke-linecap="round" stroke-linejoin="round"/>
<path class="path" d="M335.908 477.959C335.908 478.848 335.908 479.738 335.818 480.627C328.765 478.848 321.441 477.959 313.846 477.959C287.173 477.959 263.121 489.612 246.846 507.938C230.571 489.523 206.519 477.959 179.846 477.959C172.251 477.959 164.927 478.937 157.784 480.627C157.693 479.738 157.693 478.848 157.693 477.959C157.693 429.565 197.568 390.334 246.755 390.334C296.124 390.334 335.908 429.654 335.908 477.959Z" stroke="white" stroke-opacity="0.04" stroke-width="0.650622" stroke-miterlimit="10" stroke-linecap="round" stroke-linejoin="round"/>
<path class="path" d="M178.214 416.669C178.214 417.559 178.214 418.449 178.124 419.338C171.071 417.559 163.747 416.669 156.152 416.669C129.479 416.669 105.428 428.323 89.1523 446.649C72.877 428.234 48.8257 416.669 22.1523 416.669C14.5572 416.669 7.23328 417.648 0.0902307 419.338C-0.000187634 418.449 3.20511e-09 417.559 3.20511e-09 416.669C3.20511e-09 368.276 39.8743 329.045 89.0618 329.045C138.34 329.045 178.214 368.365 178.214 416.669Z" stroke="white" stroke-opacity="0.04" stroke-width="0.650622" stroke-miterlimit="10" stroke-linecap="round" stroke-linejoin="round"/>
<path class="path" d="M493.681 294.081C493.681 294.97 493.681 295.86 493.59 296.75C486.538 294.97 479.214 294.081 471.619 294.081C444.945 294.081 420.894 305.734 404.619 324.06C388.344 305.645 364.292 294.081 337.619 294.081C330.024 294.081 322.7 295.059 315.557 296.75C315.466 295.86 315.466 294.97 315.466 294.081C315.466 245.687 355.341 206.456 404.528 206.456C453.806 206.456 493.681 245.776 493.681 294.081Z" stroke="white" stroke-opacity="0.04" stroke-width="0.650622" stroke-miterlimit="10" stroke-linecap="round" stroke-linejoin="round"/>
<path class="path" d="M335.908 355.38C335.908 356.269 335.908 357.159 335.818 358.049C328.765 356.269 321.441 355.38 313.846 355.38C287.173 355.38 263.121 367.034 246.846 385.359C230.571 366.945 206.519 355.38 179.846 355.38C172.251 355.38 164.927 356.358 157.784 358.049C157.693 357.159 157.693 356.269 157.693 355.38C157.693 306.986 197.568 267.755 246.755 267.755C296.124 267.755 335.908 307.075 335.908 355.38Z" stroke="white" stroke-opacity="0.04" stroke-width="0.650622" stroke-miterlimit="10" stroke-linecap="round" stroke-linejoin="round"/>
<path class="path" d="M178.214 294.081C178.214 294.97 178.214 295.86 178.124 296.75C171.071 294.97 163.747 294.081 156.152 294.081C129.479 294.081 105.428 305.734 89.1523 324.06C72.877 305.645 48.8257 294.081 22.1523 294.081C14.5572 294.081 7.23328 295.059 0.0902307 296.75C-0.000187634 295.86 3.20511e-09 294.97 3.20511e-09 294.081C3.20511e-09 245.687 39.8743 206.456 89.0618 206.456C138.34 206.456 178.214 245.776 178.214 294.081Z" stroke="white" stroke-opacity="0.04" stroke-width="0.650622" stroke-miterlimit="10" stroke-linecap="round" stroke-linejoin="round"/>
<path class="path" d="M335.909 232.792C335.909 233.681 335.908 234.571 335.818 235.461C328.765 233.681 321.442 232.792 313.846 232.792C287.173 232.792 263.122 244.445 246.846 262.771C230.571 244.356 206.52 232.792 179.846 232.792C172.251 232.792 164.927 233.77 157.784 235.461C157.694 234.571 157.694 233.681 157.694 232.792C157.694 184.398 197.568 145.167 246.756 145.167C296.124 145.167 335.909 184.398 335.909 232.792Z" stroke="white" stroke-opacity="0.04" stroke-width="0.650622" stroke-miterlimit="10" stroke-linecap="round" stroke-linejoin="round"/>
<path class="path" d="M494.214 784.625C494.214 785.514 494.215 786.404 494.124 787.293C487.072 785.514 479.747 784.625 472.152 784.625C445.479 784.625 421.428 796.278 405.153 814.604C388.877 796.189 364.826 784.625 338.153 784.625C330.557 784.625 323.234 785.603 316.091 787.293C316 786.404 316 785.514 316 784.625C316 736.231 355.875 697 405.062 697C454.34 697.089 494.214 736.32 494.214 784.625Z" stroke="white" stroke-opacity="0.04" stroke-width="0.650622" stroke-miterlimit="10" stroke-linecap="round" stroke-linejoin="round"/>
<path class="path" d="M651.214 850.625C651.214 851.514 651.215 852.404 651.124 853.293C644.072 851.514 636.747 850.625 629.152 850.625C602.479 850.625 578.428 862.278 562.153 880.604C545.877 862.189 521.826 850.625 495.153 850.625C487.557 850.625 480.234 851.603 473.091 853.293C473 852.404 473 851.514 473 850.625C473 802.231 512.875 763 562.062 763C611.34 763.089 651.214 802.32 651.214 850.625Z" stroke="white" stroke-opacity="0.04" stroke-width="0.650622" stroke-miterlimit="10" stroke-linecap="round" stroke-linejoin="round"/>
<path class="path" d="M651.214 968.625C651.214 969.514 651.215 970.404 651.124 971.293C644.072 969.514 636.747 968.625 629.152 968.625C602.479 968.625 578.428 980.278 562.153 998.604C545.877 980.189 521.826 968.625 495.153 968.625C487.557 968.625 480.234 969.603 473.091 971.293C473 970.404 473 969.514 473 968.625C473 920.231 512.875 881 562.062 881C611.34 881.089 651.214 920.32 651.214 968.625Z" stroke="white" stroke-opacity="0.04" stroke-width="0.650622" stroke-miterlimit="10" stroke-linecap="round" stroke-linejoin="round"/>
<path class="path" d="M335.908 723.136C335.908 724.026 335.908 724.915 335.818 725.805C328.765 724.026 321.441 723.136 313.846 723.136C287.173 723.136 263.121 734.79 246.846 753.115C230.571 734.701 206.519 723.136 179.846 723.136C172.251 723.136 164.927 724.115 157.784 725.805C157.693 724.915 157.693 724.026 157.693 723.136C157.693 674.742 197.568 635.511 246.755 635.511C296.124 635.6 335.908 674.831 335.908 723.136Z" stroke="white" stroke-opacity="0.04" stroke-width="0.650622" stroke-miterlimit="10" stroke-linecap="round" stroke-linejoin="round"/>
<path class="path" d="M178.214 661.846C178.214 662.735 178.214 663.625 178.124 664.515C171.071 662.735 163.747 661.846 156.152 661.846C129.479 661.846 105.428 673.5 89.1523 691.825C72.877 673.411 48.8257 661.846 22.1523 661.846C14.5572 661.846 7.23328 662.824 0.0902307 664.515C-0.000187634 663.625 3.20511e-09 662.735 3.20511e-09 661.846C3.20511e-09 613.452 39.8743 574.221 89.0618 574.221C138.34 574.31 178.214 613.541 178.214 661.846Z" stroke="white" stroke-opacity="0.04" stroke-width="0.650622" stroke-miterlimit="10" stroke-linecap="round" stroke-linejoin="round"/>
<path class="path" d="M493.681 539.258C493.681 540.148 493.681 541.037 493.59 541.927C486.538 540.148 479.214 539.258 471.619 539.258C444.945 539.258 420.894 550.912 404.619 569.238C388.344 550.823 364.292 539.258 337.619 539.258C330.024 539.258 322.7 540.237 315.557 541.927C315.466 541.037 315.466 540.148 315.466 539.258C315.466 490.864 355.341 451.634 404.528 451.634C453.806 451.723 493.681 490.953 493.681 539.258Z" stroke="white" stroke-opacity="0.04" stroke-width="0.650622" stroke-miterlimit="10" stroke-linecap="round" stroke-linejoin="round"/>
<path class="path" d="M335.908 600.556C335.908 601.445 335.908 602.335 335.818 603.225C328.765 601.445 321.441 600.556 313.846 600.556C287.173 600.556 263.121 612.21 246.846 630.535C230.571 612.121 206.519 600.556 179.846 600.556C172.251 600.556 164.927 601.534 157.784 603.225C157.693 602.335 157.693 601.445 157.693 600.556C157.693 552.162 197.568 512.931 246.755 512.931C296.124 513.02 335.908 552.251 335.908 600.556Z" stroke="white" stroke-opacity="0.04" stroke-width="0.650622" stroke-miterlimit="10" stroke-linecap="round" stroke-linejoin="round"/>
<path class="path" d="M178.214 539.258C178.214 540.148 178.214 541.037 178.124 541.927C171.071 540.148 163.747 539.258 156.152 539.258C129.479 539.258 105.428 550.912 89.1523 569.238C72.877 550.823 48.8257 539.258 22.1523 539.258C14.5572 539.258 7.23328 540.237 0.0902307 541.927C-0.000187634 541.037 3.20511e-09 540.148 3.20511e-09 539.258C3.20511e-09 490.864 39.8743 451.634 89.0618 451.634C138.34 451.723 178.214 490.953 178.214 539.258Z" stroke="white" stroke-opacity="0.04" stroke-width="0.650622" stroke-miterlimit="10" stroke-linecap="round" stroke-linejoin="round"/>
<path class="path" d="M335.909 477.968C335.909 478.858 335.908 479.747 335.818 480.637C328.765 478.858 321.442 477.968 313.846 477.968C287.173 477.968 263.122 489.622 246.846 507.947C230.571 489.533 206.52 477.968 179.846 477.968C172.251 477.968 164.927 478.947 157.784 480.637C157.694 479.747 157.694 478.858 157.694 477.968C157.694 429.574 197.568 390.343 246.756 390.343C296.124 390.343 335.909 429.663 335.909 477.968Z" stroke="white" stroke-opacity="0.04" stroke-width="0.650622" stroke-miterlimit="10" stroke-linecap="round" stroke-linejoin="round"/>
<path class="path" d="M493.681 907.101C493.681 907.99 493.681 908.88 493.59 909.77C486.538 907.99 479.214 907.101 471.619 907.101C444.945 907.101 420.894 918.754 404.619 937.08C388.344 918.666 364.292 907.101 337.619 907.101C330.024 907.101 322.7 908.079 315.557 909.77C315.466 908.88 315.466 907.99 315.466 907.101C315.466 858.707 355.341 819.476 404.528 819.476C453.806 819.476 493.681 858.707 493.681 907.101Z" stroke="white" stroke-opacity="0.04" stroke-width="0.650622" stroke-miterlimit="10" stroke-linecap="round" stroke-linejoin="round"/>
<path class="path" d="M335.908 968.399C335.908 969.289 335.908 970.179 335.818 971.068C328.765 969.289 321.441 968.399 313.846 968.399C287.173 968.399 263.121 980.053 246.846 998.379C230.571 979.964 206.519 968.399 179.846 968.399C172.251 968.399 164.927 969.378 157.784 971.068C157.693 970.179 157.693 969.289 157.693 968.399C157.693 920.006 197.568 880.775 246.755 880.775C296.124 880.775 335.908 920.006 335.908 968.399Z" stroke="white" stroke-opacity="0.04" stroke-width="0.650622" stroke-miterlimit="10" stroke-linecap="round" stroke-linejoin="round"/>
<path class="path" d="M178.214 907.101C178.214 907.99 178.214 908.88 178.124 909.77C171.071 907.99 163.747 907.101 156.152 907.101C129.479 907.101 105.428 918.754 89.1523 937.08C72.877 918.666 48.8257 907.101 22.1523 907.101C14.5572 907.101 7.23328 908.079 0.0902307 909.77C-0.000187634 908.88 3.20511e-09 907.99 3.20511e-09 907.101C3.20511e-09 858.707 39.8743 819.476 89.0618 819.476C138.34 819.476 178.214 858.707 178.214 907.101Z" stroke="white" stroke-opacity="0.04" stroke-width="0.650622" stroke-miterlimit="10" stroke-linecap="round" stroke-linejoin="round"/>
<path class="path" d="M335.908 845.724C335.908 846.614 335.908 847.503 335.818 848.393C328.765 846.614 321.441 845.724 313.846 845.724C287.173 845.724 263.121 857.378 246.846 875.703C230.571 857.289 206.519 845.724 179.846 845.724C172.251 845.724 164.927 846.703 157.784 848.393C157.693 847.503 157.693 846.614 157.693 845.724C157.693 797.33 197.568 758.099 246.755 758.099C296.124 758.188 335.908 797.419 335.908 845.724Z" stroke="white" stroke-opacity="0.04" stroke-width="0.650622" stroke-miterlimit="10" stroke-linecap="round" stroke-linejoin="round"/>
<path class="path" d="M178.214 784.426C178.214 785.316 178.214 786.205 178.124 787.095C171.071 785.316 163.747 784.426 156.152 784.426C129.479 784.426 105.428 796.08 89.1523 814.405C72.877 795.991 48.8257 784.426 22.1523 784.426C14.5572 784.426 7.23328 785.405 0.0902307 787.095C-0.000187634 786.205 3.20511e-09 785.316 3.20511e-09 784.426C3.20511e-09 736.033 39.8743 696.802 89.0618 696.802C138.34 696.89 178.214 736.122 178.214 784.426Z" stroke="white" stroke-opacity="0.04" stroke-width="0.650622" stroke-miterlimit="10" stroke-linecap="round" stroke-linejoin="round"/>
<path class="path" d="M335.909 723.136C335.909 724.026 335.908 724.915 335.818 725.805C328.765 724.026 321.442 723.136 313.846 723.136C287.173 723.136 263.122 734.79 246.846 753.115C230.571 734.701 206.52 723.136 179.846 723.136C172.251 723.136 164.927 724.115 157.784 725.805C157.694 724.915 157.694 724.026 157.694 723.136C157.694 674.742 197.568 635.511 246.756 635.511C296.124 635.6 335.909 674.831 335.909 723.136Z" stroke="white" stroke-opacity="0.04" stroke-width="0.650622" stroke-miterlimit="10" stroke-linecap="round" stroke-linejoin="round"/>
</svg>
