<svg width="144" height="50" viewBox="0 0 144 50" fill="none" xmlns="http://www.w3.org/2000/svg">
<path d="M51.7997 13.5327C52.7284 14.196 54.0362 13.9876 54.6996 13.0588C58.6798 7.48656 65.1429 4.15078 71.985 4.15078C79.0925 4.15078 85.6883 7.6761 89.6495 13.5895C90.0475 14.196 90.7109 14.5182 91.3743 14.5182C91.7723 14.5182 92.1703 14.4045 92.5304 14.1581C93.4781 13.5137 93.7434 12.2249 93.099 11.2772C88.3796 4.20764 80.4761 0 71.985 0C63.7972 0 56.0832 3.9802 51.3069 10.6328C50.6436 11.5805 50.871 12.8693 51.7997 13.5327Z" fill="white"/>
<path d="M136.559 7.20227C131.782 2.5587 125.414 0 118.629 0C105.418 0 94.9751 10.1779 93.2504 24.7341C91.7531 37.3381 83.2051 45.8102 72.0037 45.8102C60.8212 45.8102 52.4439 37.357 51.174 24.772C49.7146 10.4243 38.8733 0 25.3785 0C13.9496 0 3.88543 7.6761 0.890807 18.688C0.34116 20.716 0.0379067 22.8198 0 24.9426C0 24.9615 0 24.9615 0 24.9805C0 24.9994 0 24.9994 0 25.0184C0.246393 38.7785 11.6184 49.961 25.3785 49.961C33.8506 49.961 41.7163 45.7723 46.4546 38.7406C47.099 37.7929 46.8337 36.5041 45.886 35.8597C44.9383 35.2153 43.6495 35.4806 43.0051 36.4283C39.0439 42.3038 32.4481 45.8291 25.3785 45.8291C13.8738 45.8291 4.35926 36.5041 4.15078 25.0184C4.18868 23.2557 4.43508 21.512 4.88996 19.8252C7.41075 10.6139 15.826 4.18869 25.3785 4.18869C36.8832 4.18869 45.7912 12.8314 47.0422 25.2269C48.5205 39.802 58.7743 49.9989 72.0037 49.9989C85.2142 49.9989 95.6574 39.8209 97.3822 25.2648C98.8795 12.6608 107.427 4.18869 118.629 4.18869C129.83 4.18869 138.738 12.2628 139.762 22.9335H109.342C108.205 22.9335 107.257 23.8622 107.257 24.9994C107.257 26.1366 108.186 27.0654 109.342 27.0654H141.923C143.06 27.0654 143.988 26.1366 143.988 24.9994C144.007 18.2141 141.354 11.9027 136.559 7.20227Z" fill="white"/>
<path d="M140.52 33.1109C139.496 32.5991 138.245 33.0161 137.734 34.0585C134.152 41.2987 126.854 45.7907 118.686 45.7907C111.54 45.7907 104.944 42.2843 101.002 36.4277C100.358 35.48 99.0689 35.2147 98.1212 35.8591C97.1736 36.5035 96.9082 37.7923 97.5526 38.74C102.253 45.7527 110.157 49.9414 118.686 49.9414C128.447 49.9414 137.184 44.5587 141.468 35.897C141.96 34.8546 141.543 33.6037 140.52 33.1109Z" fill="white"/>
</svg>
