<svg id="svgbg" width="1284" height="1101" viewBox="0 0 1284 1101" fill="none" xmlns="http://www.w3.org/2000/svg">
<style>
    #svgbg {
        animation: swing 5s infinite alternate cubic-bezier(0.455, 0.03, 0.515, 0.955);
		opacity: 0.7;
    }
    @keyframes swing {
    0% {
        transform: translateY(10px); }
    100% {
        transform: translateY(-10px); }
    }
</style>
	<path d="M1283.31 333.792C1283.31 334.682 1283.32 335.571 1283.22 336.461C1276.17 334.682 1268.85 333.792 1261.25 333.792C1234.58 333.792 1210.53 345.446 1194.25 363.771C1177.98 345.357 1153.93 333.792 1127.25 333.792C1119.66 333.792 1112.33 334.771 1105.19 336.461C1105.1 335.571 1105.1 334.682 1105.1 333.792C1105.1 285.398 1144.98 246.167 1194.16 246.167C1243.44 246.167 1283.31 285.398 1283.31 333.792Z" stroke="url(#paint0_linear)" stroke-miterlimit="10" stroke-linecap="round" stroke-linejoin="round"/>
	<path d="M1125.53 272.502C1125.53 273.391 1125.53 274.281 1125.44 275.17C1118.39 273.391 1111.07 272.502 1103.47 272.502C1076.8 272.502 1052.75 284.155 1036.47 302.481C1020.2 284.066 996.145 272.502 969.472 272.502C961.877 272.502 954.553 273.48 947.41 275.17C947.319 274.281 947.319 273.391 947.319 272.502C947.319 224.108 987.194 184.877 1036.38 184.877C1085.75 184.877 1125.53 224.108 1125.53 272.502Z" stroke="url(#paint1_linear)" stroke-miterlimit="10" stroke-linecap="round" stroke-linejoin="round"/>
	<path d="M1283.31 211.213C1283.31 212.102 1283.32 212.992 1283.22 213.881C1276.17 212.102 1268.85 211.213 1261.25 211.213C1234.58 211.213 1210.53 222.866 1194.25 241.192C1177.98 222.777 1153.93 211.213 1127.25 211.213C1119.66 211.213 1112.33 212.191 1105.19 213.881C1105.1 212.992 1105.1 212.102 1105.1 211.213C1105.1 162.819 1144.98 123.588 1194.16 123.588C1243.44 123.588 1283.31 162.819 1283.31 211.213Z" stroke="url(#paint2_linear)" stroke-miterlimit="10" stroke-linecap="round" stroke-linejoin="round"/>
	<path d="M1125.53 149.915C1125.53 150.804 1125.53 151.694 1125.44 152.584C1118.39 150.804 1111.07 149.915 1103.47 149.915C1076.8 149.915 1052.75 161.568 1036.47 179.894C1020.2 161.479 996.145 149.915 969.472 149.915C961.877 149.915 954.553 150.893 947.41 152.584C947.319 151.694 947.319 150.804 947.319 149.915C947.319 101.521 987.194 62.29 1036.38 62.29C1085.75 62.29 1125.53 101.521 1125.53 149.915Z" stroke="url(#paint3_linear)" stroke-miterlimit="10" stroke-linecap="round" stroke-linejoin="round"/>
	<path d="M1283.31 88.6247C1283.31 89.5143 1283.32 90.4039 1283.22 91.2935C1276.17 89.5143 1268.85 88.6247 1261.25 88.6247C1234.58 88.6247 1210.53 100.278 1194.25 118.604C1177.98 100.189 1153.93 88.6247 1127.25 88.6247C1119.66 88.6247 1112.33 89.6033 1105.19 91.2935C1105.1 90.4039 1105.1 89.5143 1105.1 88.6247C1105.1 40.231 1144.98 1 1194.16 1C1243.44 1 1283.31 40.231 1283.31 88.6247Z" stroke="url(#paint4_linear)" stroke-miterlimit="10" stroke-linecap="round" stroke-linejoin="round"/>
	<path d="M1283.31 578.959C1283.31 579.849 1283.32 580.738 1283.22 581.628C1276.17 579.849 1268.85 578.959 1261.25 578.959C1234.58 578.959 1210.53 590.613 1194.25 608.939C1177.98 590.524 1153.93 578.959 1127.25 578.959C1119.66 578.959 1112.33 579.938 1105.19 581.628C1105.1 580.738 1105.1 579.849 1105.1 578.959C1105.1 530.565 1144.98 491.334 1194.16 491.334C1243.44 491.334 1283.31 530.654 1283.31 578.959Z" stroke="url(#paint5_linear)" stroke-miterlimit="10" stroke-linecap="round" stroke-linejoin="round"/>
	<path d="M1125.53 517.67C1125.53 518.559 1125.53 519.449 1125.44 520.338C1118.39 518.559 1111.07 517.67 1103.47 517.67C1076.8 517.67 1052.75 529.323 1036.47 547.649C1020.2 529.234 996.145 517.67 969.472 517.67C961.877 517.67 954.553 518.648 947.41 520.338C947.319 519.449 947.319 518.559 947.319 517.67C947.319 469.276 987.194 430.045 1036.38 430.045C1085.75 430.045 1125.53 469.365 1125.53 517.67Z" stroke="url(#paint6_linear)" stroke-miterlimit="10" stroke-linecap="round" stroke-linejoin="round"/>
	<path d="M1283.31 456.379C1283.31 457.269 1283.32 458.158 1283.22 459.048C1276.17 457.269 1268.85 456.379 1261.25 456.379C1234.58 456.379 1210.53 468.033 1194.25 486.358C1177.98 467.944 1153.93 456.379 1127.25 456.379C1119.66 456.379 1112.33 457.358 1105.19 459.048C1105.1 458.158 1105.1 457.269 1105.1 456.379C1105.1 407.985 1144.98 368.754 1194.16 368.754C1243.44 368.754 1283.31 408.074 1283.31 456.379Z" stroke="url(#paint7_linear)" stroke-miterlimit="10" stroke-linecap="round" stroke-linejoin="round"/>
	<path d="M1125.53 395.082C1125.53 395.971 1125.53 396.861 1125.44 397.751C1118.39 395.971 1111.07 395.082 1103.47 395.082C1076.8 395.082 1052.75 406.735 1036.47 425.061C1020.2 406.646 996.145 395.082 969.472 395.082C961.877 395.082 954.553 396.06 947.41 397.751C947.319 396.861 947.319 395.971 947.319 395.082C947.319 346.688 987.194 307.457 1036.38 307.457C1085.75 307.457 1125.53 346.777 1125.53 395.082Z" stroke="url(#paint8_linear)" stroke-miterlimit="10" stroke-linecap="round" stroke-linejoin="round"/>
	<path d="M1283.31 333.792C1283.31 334.681 1283.32 335.571 1283.22 336.461C1276.17 334.681 1268.85 333.792 1261.25 333.792C1234.58 333.792 1210.53 345.445 1194.25 363.771C1177.98 345.356 1153.93 333.792 1127.25 333.792C1119.66 333.792 1112.33 334.77 1105.19 336.461C1105.1 335.571 1105.1 334.681 1105.1 333.792C1105.1 285.398 1144.98 246.167 1194.16 246.167C1243.44 246.167 1283.31 285.398 1283.31 333.792Z" stroke="url(#paint9_linear)" stroke-miterlimit="10" stroke-linecap="round" stroke-linejoin="round"/>
	<path d="M1283.32 824.136C1283.32 825.025 1283.32 825.915 1283.23 826.805C1276.17 825.026 1268.85 824.136 1261.25 824.136C1234.58 824.136 1210.53 835.79 1194.25 854.115C1177.98 835.701 1153.93 824.136 1127.25 824.136C1119.66 824.136 1112.33 825.114 1105.19 826.805C1105.1 825.915 1105.1 825.025 1105.1 824.136C1105.1 775.742 1144.98 736.511 1194.16 736.511C1243.44 736.6 1283.32 775.831 1283.32 824.136Z" stroke="url(#paint10_linear)" stroke-miterlimit="10" stroke-linecap="round" stroke-linejoin="round"/>
	<path d="M1125.53 762.846C1125.53 763.735 1125.53 764.625 1125.44 765.515C1118.39 763.735 1111.07 762.846 1103.47 762.846C1076.8 762.846 1052.75 774.5 1036.47 792.825C1020.2 774.411 996.146 762.846 969.472 762.846C961.877 762.846 954.553 763.824 947.41 765.515C947.32 764.625 947.32 763.735 947.32 762.846C947.32 714.452 987.194 675.221 1036.38 675.221C1085.75 675.31 1125.53 714.541 1125.53 762.846Z" stroke="url(#paint11_linear)" stroke-miterlimit="10" stroke-linecap="round" stroke-linejoin="round"/>
	<path d="M1283.32 701.556C1283.32 702.445 1283.32 703.335 1283.23 704.225C1276.17 702.445 1268.85 701.556 1261.25 701.556C1234.58 701.556 1210.53 713.21 1194.25 731.535C1177.98 713.121 1153.93 701.556 1127.25 701.556C1119.66 701.556 1112.33 702.534 1105.19 704.225C1105.1 703.335 1105.1 702.445 1105.1 701.556C1105.1 653.162 1144.98 613.931 1194.16 613.931C1243.44 614.02 1283.32 653.251 1283.32 701.556Z" stroke="url(#paint12_linear)" stroke-miterlimit="10" stroke-linecap="round" stroke-linejoin="round"/>
	<path d="M1125.53 640.258C1125.53 641.148 1125.53 642.037 1125.44 642.927C1118.39 641.148 1111.07 640.258 1103.47 640.258C1076.8 640.258 1052.75 651.912 1036.47 670.237C1020.2 651.823 996.146 640.258 969.472 640.258C961.877 640.258 954.553 641.237 947.41 642.927C947.32 642.037 947.32 641.148 947.32 640.258C947.32 591.864 987.194 552.633 1036.38 552.633C1085.75 552.722 1125.53 591.953 1125.53 640.258Z" stroke="url(#paint13_linear)" stroke-miterlimit="10" stroke-linecap="round" stroke-linejoin="round"/>
	<path d="M1283.32 578.968C1283.32 579.858 1283.32 580.747 1283.23 581.637C1276.17 579.858 1268.85 578.968 1261.25 578.968C1234.58 578.968 1210.53 590.622 1194.25 608.947C1177.98 590.533 1153.93 578.968 1127.25 578.968C1119.66 578.968 1112.33 579.947 1105.19 581.637C1105.1 580.747 1105.1 579.858 1105.1 578.968C1105.1 530.574 1144.98 491.343 1194.16 491.343C1243.44 491.343 1283.32 530.663 1283.32 578.968Z" stroke="url(#paint14_linear)" stroke-miterlimit="10" stroke-linecap="round" stroke-linejoin="round"/>
	<path d="M1283.32 1069.4C1283.32 1070.29 1283.32 1071.18 1283.23 1072.07C1276.17 1070.29 1268.85 1069.4 1261.25 1069.4C1234.58 1069.4 1210.53 1081.05 1194.25 1099.38C1177.98 1080.96 1153.93 1069.4 1127.25 1069.4C1119.66 1069.4 1112.33 1070.38 1105.19 1072.07C1105.1 1071.18 1105.1 1070.29 1105.1 1069.4C1105.1 1021.01 1144.98 981.774 1194.16 981.774C1243.44 981.774 1283.32 1021.01 1283.32 1069.4Z" stroke="url(#paint15_linear)" stroke-miterlimit="10" stroke-linecap="round" stroke-linejoin="round"/>
	<path d="M1125.53 1008.1C1125.53 1008.99 1125.53 1009.88 1125.44 1010.77C1118.39 1008.99 1111.07 1008.1 1103.47 1008.1C1076.8 1008.1 1052.75 1019.75 1036.47 1038.08C1020.2 1019.67 996.146 1008.1 969.472 1008.1C961.877 1008.1 954.553 1009.08 947.41 1010.77C947.32 1009.88 947.32 1008.99 947.32 1008.1C947.32 959.707 987.194 920.476 1036.38 920.476C1085.75 920.476 1125.53 959.707 1125.53 1008.1Z" stroke="url(#paint16_linear)" stroke-miterlimit="10" stroke-linecap="round" stroke-linejoin="round"/>
	<path d="M1283.32 946.724C1283.32 947.614 1283.32 948.503 1283.23 949.393C1276.17 947.613 1268.85 946.724 1261.25 946.724C1234.58 946.724 1210.53 958.378 1194.25 976.703C1177.98 958.289 1153.93 946.724 1127.25 946.724C1119.66 946.724 1112.33 947.702 1105.19 949.393C1105.1 948.503 1105.1 947.614 1105.1 946.724C1105.1 898.33 1144.98 859.099 1194.16 859.099C1243.44 859.188 1283.32 898.419 1283.32 946.724Z" stroke="url(#paint17_linear)" stroke-miterlimit="10" stroke-linecap="round" stroke-linejoin="round"/>
	<path d="M1125.53 885.426C1125.53 886.316 1125.53 887.205 1125.44 888.095C1118.39 886.316 1111.07 885.426 1103.47 885.426C1076.8 885.426 1052.75 897.08 1036.47 915.405C1020.2 896.991 996.146 885.426 969.472 885.426C961.877 885.426 954.553 886.405 947.41 888.095C947.32 887.205 947.32 886.316 947.32 885.426C947.32 837.032 987.194 797.801 1036.38 797.801C1085.75 797.89 1125.53 837.121 1125.53 885.426Z" stroke="url(#paint18_linear)" stroke-miterlimit="10" stroke-linecap="round" stroke-linejoin="round"/>
	<path d="M1283.32 824.136C1283.32 825.025 1283.32 825.915 1283.23 826.805C1276.17 825.026 1268.85 824.136 1261.25 824.136C1234.58 824.136 1210.53 835.79 1194.25 854.115C1177.98 835.701 1153.93 824.136 1127.25 824.136C1119.66 824.136 1112.33 825.114 1105.19 826.805C1105.1 825.915 1105.1 825.025 1105.1 824.136C1105.1 775.742 1144.98 736.511 1194.16 736.511C1243.44 736.6 1283.32 775.831 1283.32 824.136Z" stroke="url(#paint19_linear)" stroke-miterlimit="10" stroke-linecap="round" stroke-linejoin="round"/>
	<path d="M1125.52 272.502C1125.52 273.392 1125.52 274.281 1125.43 275.171C1118.38 273.392 1111.06 272.502 1103.46 272.502C1076.79 272.502 1052.74 284.156 1036.46 302.481C1020.19 284.067 996.135 272.502 969.462 272.502C961.867 272.502 954.543 273.481 947.4 275.171C947.309 274.281 947.309 273.392 947.309 272.502C947.309 224.108 987.184 184.877 1036.37 184.877C1085.74 184.877 1125.52 224.108 1125.52 272.502Z" stroke="url(#paint20_linear)" stroke-miterlimit="10" stroke-linecap="round" stroke-linejoin="round"/>
	<path d="M967.839 333.792C967.839 334.682 967.839 335.571 967.748 336.461C960.696 334.682 953.372 333.792 945.777 333.792C919.103 333.792 895.052 345.446 878.777 363.771C862.502 345.357 838.45 333.792 811.777 333.792C804.182 333.792 796.858 334.771 789.715 336.461C789.624 335.571 789.625 334.682 789.625 333.792C789.625 285.398 829.499 246.167 878.686 246.167C927.964 246.167 967.839 285.398 967.839 333.792Z" stroke="url(#paint21_linear)" stroke-miterlimit="10" stroke-linecap="round" stroke-linejoin="round"/>
	<path d="M810.058 272.502C810.058 273.392 810.058 274.281 809.967 275.171C802.915 273.392 795.591 272.502 787.996 272.502C761.322 272.502 737.271 284.156 720.996 302.481C704.72 284.067 680.669 272.502 653.996 272.502C646.401 272.502 639.077 273.481 631.934 275.171C631.843 274.281 631.843 273.392 631.843 272.502C631.843 224.108 671.718 184.877 720.905 184.877C770.274 184.877 810.058 224.108 810.058 272.502Z" stroke="url(#paint22_linear)" stroke-miterlimit="10" stroke-linecap="round" stroke-linejoin="round"/>
	<path d="M1125.52 149.915C1125.52 150.804 1125.52 151.694 1125.43 152.584C1118.38 150.804 1111.06 149.915 1103.46 149.915C1076.79 149.915 1052.74 161.568 1036.46 179.894C1020.19 161.479 996.135 149.915 969.462 149.915C961.867 149.915 954.543 150.893 947.4 152.584C947.309 151.694 947.309 150.804 947.309 149.915C947.309 101.521 987.184 62.29 1036.37 62.29C1085.74 62.29 1125.52 101.521 1125.52 149.915Z" stroke="url(#paint23_linear)" stroke-miterlimit="10" stroke-linecap="round" stroke-linejoin="round"/>
	<path d="M967.839 211.213C967.839 212.102 967.839 212.992 967.748 213.881C960.696 212.102 953.372 211.213 945.777 211.213C919.103 211.213 895.052 222.866 878.777 241.192C862.502 222.777 838.45 211.213 811.777 211.213C804.182 211.213 796.858 212.191 789.715 213.881C789.624 212.992 789.625 212.102 789.625 211.213C789.625 162.819 829.499 123.588 878.686 123.588C927.964 123.588 967.839 162.819 967.839 211.213Z" stroke="url(#paint24_linear)" stroke-miterlimit="10" stroke-linecap="round" stroke-linejoin="round"/>
	<path d="M810.058 149.915C810.058 150.804 810.058 151.694 809.967 152.584C802.915 150.804 795.591 149.915 787.996 149.915C761.322 149.915 737.271 161.568 720.996 179.894C704.72 161.479 680.669 149.915 653.996 149.915C646.401 149.915 639.077 150.893 631.934 152.584C631.843 151.694 631.843 150.804 631.843 149.915C631.843 101.521 671.718 62.29 720.905 62.29C770.274 62.29 810.058 101.521 810.058 149.915Z" stroke="url(#paint25_linear)" stroke-miterlimit="10" stroke-linecap="round" stroke-linejoin="round"/>
	<path d="M967.839 88.6247C967.839 89.5143 967.839 90.4039 967.748 91.2935C960.696 89.5143 953.372 88.6247 945.777 88.6247C919.103 88.6247 895.052 100.278 878.777 118.604C862.502 100.189 838.45 88.6247 811.777 88.6247C804.182 88.6247 796.858 89.6033 789.715 91.2935C789.624 90.4039 789.625 89.5143 789.625 88.6247C789.625 40.231 829.499 1 878.686 1C927.964 1 967.839 40.231 967.839 88.6247Z" stroke="url(#paint26_linear)" stroke-miterlimit="10" stroke-linecap="round" stroke-linejoin="round"/>
	<path d="M1125.52 517.67C1125.52 518.559 1125.52 519.449 1125.43 520.338C1118.38 518.559 1111.06 517.67 1103.46 517.67C1076.79 517.67 1052.74 529.323 1036.46 547.649C1020.19 529.234 996.136 517.67 969.462 517.67C961.867 517.67 954.543 518.648 947.4 520.338C947.31 519.449 947.31 518.559 947.31 517.67C947.31 469.276 987.184 430.045 1036.37 430.045C1085.74 430.045 1125.52 469.365 1125.52 517.67Z" stroke="url(#paint27_linear)" stroke-miterlimit="10" stroke-linecap="round" stroke-linejoin="round"/>
	<path d="M967.839 578.959C967.839 579.849 967.839 580.738 967.748 581.628C960.696 579.849 953.372 578.959 945.777 578.959C919.103 578.959 895.052 590.613 878.777 608.939C862.502 590.524 838.45 578.959 811.777 578.959C804.182 578.959 796.858 579.938 789.715 581.628C789.624 580.738 789.625 579.849 789.625 578.959C789.625 530.565 829.499 491.334 878.686 491.334C927.964 491.334 967.839 530.654 967.839 578.959Z" stroke="url(#paint28_linear)" stroke-miterlimit="10" stroke-linecap="round" stroke-linejoin="round"/>
	<path d="M810.058 517.67C810.058 518.559 810.058 519.449 809.967 520.338C802.915 518.559 795.591 517.67 787.996 517.67C761.322 517.67 737.271 529.323 720.996 547.649C704.72 529.234 680.669 517.67 653.996 517.67C646.401 517.67 639.077 518.648 631.934 520.338C631.843 519.449 631.843 518.559 631.843 517.67C631.843 469.276 671.718 430.045 720.905 430.045C770.274 430.045 810.058 469.365 810.058 517.67Z" stroke="url(#paint29_linear)" stroke-miterlimit="10" stroke-linecap="round" stroke-linejoin="round"/>
	<path d="M1125.52 395.081C1125.52 395.971 1125.52 396.86 1125.43 397.75C1118.38 395.971 1111.06 395.081 1103.46 395.081C1076.79 395.081 1052.74 406.735 1036.46 425.061C1020.19 406.646 996.136 395.081 969.462 395.081C961.867 395.081 954.543 396.06 947.4 397.75C947.31 396.86 947.31 395.971 947.31 395.081C947.31 346.688 987.184 307.457 1036.37 307.457C1085.74 307.457 1125.52 346.776 1125.52 395.081Z" stroke="url(#paint30_linear)" stroke-miterlimit="10" stroke-linecap="round" stroke-linejoin="round"/>
	<path d="M967.839 456.379C967.839 457.269 967.839 458.158 967.748 459.048C960.696 457.269 953.372 456.379 945.777 456.379C919.103 456.379 895.052 468.033 878.777 486.358C862.502 467.944 838.45 456.379 811.777 456.379C804.182 456.379 796.858 457.358 789.715 459.048C789.624 458.158 789.625 457.269 789.625 456.379C789.625 407.985 829.499 368.754 878.686 368.754C927.964 368.754 967.839 408.074 967.839 456.379Z" stroke="url(#paint31_linear)" stroke-miterlimit="10" stroke-linecap="round" stroke-linejoin="round"/>
	<path d="M810.058 395.081C810.058 395.971 810.058 396.86 809.967 397.75C802.915 395.971 795.591 395.081 787.996 395.081C761.322 395.081 737.271 406.735 720.996 425.061C704.72 406.646 680.669 395.081 653.996 395.081C646.401 395.081 639.077 396.06 631.934 397.75C631.843 396.86 631.843 395.971 631.843 395.081C631.843 346.688 671.718 307.457 720.905 307.457C770.274 307.457 810.058 346.776 810.058 395.081Z" stroke="url(#paint32_linear)" stroke-miterlimit="10" stroke-linecap="round" stroke-linejoin="round"/>
	<path d="M967.839 333.792C967.839 334.681 967.839 335.571 967.748 336.461C960.696 334.681 953.372 333.792 945.777 333.792C919.103 333.792 895.052 345.445 878.777 363.771C862.502 345.356 838.45 333.792 811.777 333.792C804.182 333.792 796.858 334.77 789.715 336.461C789.624 335.571 789.625 334.681 789.625 333.792C789.625 285.398 829.499 246.167 878.686 246.167C927.964 246.167 967.839 285.398 967.839 333.792Z" stroke="url(#paint33_linear)" stroke-miterlimit="10" stroke-linecap="round" stroke-linejoin="round"/>
	<path d="M1125.52 762.846C1125.52 763.735 1125.52 764.625 1125.43 765.515C1118.38 763.735 1111.06 762.846 1103.46 762.846C1076.79 762.846 1052.74 774.5 1036.46 792.825C1020.19 774.411 996.136 762.846 969.462 762.846C961.867 762.846 954.543 763.824 947.4 765.515C947.31 764.625 947.31 763.735 947.31 762.846C947.31 714.452 987.184 675.221 1036.37 675.221C1085.74 675.31 1125.52 714.541 1125.52 762.846Z" stroke="url(#paint34_linear)" stroke-miterlimit="10" stroke-linecap="round" stroke-linejoin="round"/>
	<path d="M967.839 824.136C967.839 825.025 967.839 825.915 967.749 826.805C960.696 825.026 953.372 824.136 945.777 824.136C919.104 824.136 895.053 835.79 878.777 854.115C862.502 835.701 838.451 824.136 811.777 824.136C804.182 824.136 796.858 825.114 789.715 826.805C789.625 825.915 789.625 825.025 789.625 824.136C789.625 775.742 829.499 736.511 878.687 736.511C927.965 736.6 967.839 775.831 967.839 824.136Z" stroke="url(#paint35_linear)" stroke-miterlimit="10" stroke-linecap="round" stroke-linejoin="round"/>
	<path d="M810.058 762.846C810.058 763.735 810.058 764.625 809.968 765.515C802.915 763.735 795.591 762.846 787.996 762.846C761.323 762.846 737.271 774.5 720.996 792.825C704.721 774.411 680.67 762.846 653.996 762.846C646.401 762.846 639.077 763.824 631.934 765.515C631.844 764.625 631.844 763.735 631.844 762.846C631.844 714.452 671.718 675.221 720.906 675.221C770.274 675.31 810.058 714.541 810.058 762.846Z" stroke="url(#paint36_linear)" stroke-miterlimit="10" stroke-linecap="round" stroke-linejoin="round"/>
	<path d="M1125.52 640.258C1125.52 641.148 1125.52 642.037 1125.43 642.927C1118.38 641.148 1111.06 640.258 1103.46 640.258C1076.79 640.258 1052.74 651.912 1036.46 670.237C1020.19 651.823 996.136 640.258 969.462 640.258C961.867 640.258 954.543 641.237 947.4 642.927C947.31 642.037 947.31 641.148 947.31 640.258C947.31 591.864 987.184 552.633 1036.37 552.633C1085.74 552.722 1125.52 591.953 1125.52 640.258Z" stroke="url(#paint37_linear)" stroke-miterlimit="10" stroke-linecap="round" stroke-linejoin="round"/>
	<path d="M967.839 701.556C967.839 702.445 967.839 703.335 967.749 704.225C960.696 702.445 953.372 701.556 945.777 701.556C919.104 701.556 895.053 713.21 878.777 731.535C862.502 713.121 838.451 701.556 811.777 701.556C804.182 701.556 796.858 702.534 789.715 704.225C789.625 703.335 789.625 702.445 789.625 701.556C789.625 653.162 829.499 613.931 878.687 613.931C927.965 614.02 967.839 653.251 967.839 701.556Z" stroke="url(#paint38_linear)" stroke-miterlimit="10" stroke-linecap="round" stroke-linejoin="round"/>
	<path d="M810.058 640.258C810.058 641.148 810.058 642.037 809.968 642.927C802.915 641.148 795.591 640.258 787.996 640.258C761.323 640.258 737.271 651.912 720.996 670.237C704.721 651.823 680.67 640.258 653.996 640.258C646.401 640.258 639.077 641.237 631.934 642.927C631.844 642.037 631.844 641.148 631.844 640.258C631.844 591.864 671.718 552.633 720.906 552.633C770.274 552.722 810.058 591.953 810.058 640.258Z" stroke="url(#paint39_linear)" stroke-miterlimit="10" stroke-linecap="round" stroke-linejoin="round"/>
	<path d="M967.839 578.968C967.839 579.858 967.839 580.747 967.749 581.637C960.696 579.858 953.372 578.968 945.777 578.968C919.104 578.968 895.053 590.622 878.777 608.947C862.502 590.533 838.451 578.968 811.777 578.968C804.182 578.968 796.858 579.947 789.715 581.637C789.625 580.747 789.625 579.858 789.625 578.968C789.625 530.574 829.499 491.343 878.687 491.343C927.965 491.343 967.839 530.663 967.839 578.968Z" stroke="url(#paint40_linear)" stroke-miterlimit="10" stroke-linecap="round" stroke-linejoin="round"/>
	<path d="M1125.52 1008.1C1125.52 1008.99 1125.52 1009.88 1125.43 1010.77C1118.38 1008.99 1111.06 1008.1 1103.46 1008.1C1076.79 1008.1 1052.74 1019.75 1036.46 1038.08C1020.19 1019.67 996.136 1008.1 969.463 1008.1C961.868 1008.1 954.544 1009.08 947.401 1010.77C947.31 1009.88 947.31 1008.99 947.31 1008.1C947.31 959.707 987.185 920.476 1036.37 920.476C1085.74 920.476 1125.52 959.707 1125.52 1008.1Z" stroke="url(#paint41_linear)" stroke-miterlimit="10" stroke-linecap="round" stroke-linejoin="round"/>
	<path d="M967.839 1069.4C967.839 1070.29 967.839 1071.18 967.749 1072.07C960.696 1070.29 953.372 1069.4 945.777 1069.4C919.104 1069.4 895.053 1081.05 878.777 1099.38C862.502 1080.96 838.451 1069.4 811.777 1069.4C804.182 1069.4 796.858 1070.38 789.715 1072.07C789.625 1071.18 789.625 1070.29 789.625 1069.4C789.625 1021.01 829.499 981.774 878.687 981.774C927.965 981.774 967.839 1021.01 967.839 1069.4Z" stroke="url(#paint42_linear)" stroke-miterlimit="10" stroke-linecap="round" stroke-linejoin="round"/>
	<path d="M810.058 1008.1C810.058 1008.99 810.058 1009.88 809.968 1010.77C802.915 1008.99 795.591 1008.1 787.996 1008.1C761.323 1008.1 737.271 1019.75 720.996 1038.08C704.721 1019.67 680.67 1008.1 653.996 1008.1C646.401 1008.1 639.077 1009.08 631.934 1010.77C631.844 1009.88 631.844 1008.99 631.844 1008.1C631.844 959.707 671.718 920.476 720.906 920.476C770.274 920.476 810.058 959.707 810.058 1008.1Z" stroke="url(#paint43_linear)" stroke-miterlimit="10" stroke-linecap="round" stroke-linejoin="round"/>
	<path d="M1125.52 885.426C1125.52 886.315 1125.52 887.205 1125.43 888.094C1118.38 886.315 1111.06 885.426 1103.46 885.426C1076.79 885.426 1052.74 897.079 1036.46 915.405C1020.19 896.99 996.136 885.426 969.463 885.426C961.868 885.426 954.544 886.404 947.401 888.094C947.31 887.205 947.31 886.315 947.31 885.426C947.31 837.032 987.185 797.801 1036.37 797.801C1085.74 797.89 1125.52 837.121 1125.52 885.426Z" stroke="url(#paint44_linear)" stroke-miterlimit="10" stroke-linecap="round" stroke-linejoin="round"/>
	<path d="M967.839 946.723C967.839 947.613 967.839 948.502 967.749 949.392C960.696 947.613 953.372 946.723 945.777 946.723C919.104 946.723 895.053 958.377 878.777 976.703C862.502 958.288 838.451 946.723 811.777 946.723C804.182 946.723 796.858 947.702 789.715 949.392C789.625 948.502 789.625 947.613 789.625 946.723C789.625 898.33 829.499 859.099 878.687 859.099C927.965 859.188 967.839 898.419 967.839 946.723Z" stroke="url(#paint45_linear)" stroke-miterlimit="10" stroke-linecap="round" stroke-linejoin="round"/>
	<path d="M810.058 885.426C810.058 886.315 810.058 887.205 809.968 888.094C802.915 886.315 795.591 885.426 787.996 885.426C761.323 885.426 737.271 897.079 720.996 915.405C704.721 896.99 680.67 885.426 653.996 885.426C646.401 885.426 639.077 886.404 631.934 888.094C631.844 887.205 631.844 886.315 631.844 885.426C631.844 837.032 671.718 797.801 720.906 797.801C770.274 797.89 810.058 837.121 810.058 885.426Z" stroke="url(#paint46_linear)" stroke-miterlimit="10" stroke-linecap="round" stroke-linejoin="round"/>
	<path d="M967.839 824.136C967.839 825.025 967.839 825.915 967.749 826.805C960.696 825.026 953.372 824.136 945.777 824.136C919.104 824.136 895.053 835.79 878.777 854.115C862.502 835.701 838.451 824.136 811.777 824.136C804.182 824.136 796.858 825.114 789.715 826.805C789.625 825.915 789.625 825.025 789.625 824.136C789.625 775.742 829.499 736.511 878.687 736.511C927.965 736.6 967.839 775.831 967.839 824.136Z" stroke="url(#paint47_linear)" stroke-miterlimit="10" stroke-linecap="round" stroke-linejoin="round"/>
	<path d="M810.059 272.502C810.059 273.392 810.059 274.281 809.968 275.171C802.916 273.392 795.592 272.502 787.997 272.502C761.323 272.502 737.272 284.156 720.997 302.481C704.721 284.067 680.67 272.502 653.997 272.502C646.402 272.502 639.078 273.481 631.935 275.171C631.844 274.281 631.844 273.392 631.844 272.502C631.844 224.108 671.719 184.877 720.906 184.877C770.275 184.877 810.059 224.108 810.059 272.502Z" stroke="url(#paint48_linear)" stroke-miterlimit="10" stroke-linecap="round" stroke-linejoin="round"/>
	<path d="M652.374 333.792C652.374 334.682 652.374 335.571 652.284 336.461C645.231 334.682 637.907 333.792 630.312 333.792C603.639 333.792 579.587 345.446 563.312 363.771C547.037 345.357 522.986 333.792 496.312 333.792C488.717 333.792 481.393 334.771 474.25 336.461C474.16 335.571 474.16 334.682 474.16 333.792C474.16 285.398 514.034 246.167 563.222 246.167C612.5 246.167 652.374 285.398 652.374 333.792Z" stroke="url(#paint49_linear)" stroke-miterlimit="10" stroke-linecap="round" stroke-linejoin="round"/>
	<path d="M494.681 272.502C494.681 273.392 494.681 274.281 494.59 275.171C487.538 273.392 480.214 272.502 472.619 272.502C445.945 272.502 421.894 284.156 405.619 302.481C389.344 284.067 365.292 272.502 338.619 272.502C331.024 272.502 323.7 273.481 316.557 275.171C316.466 274.281 316.466 273.392 316.466 272.502C316.466 224.108 356.341 184.877 405.528 184.877C454.806 184.877 494.681 224.108 494.681 272.502Z" stroke="url(#paint50_linear)" stroke-miterlimit="10" stroke-linecap="round" stroke-linejoin="round"/>
	<path d="M810.059 149.915C810.059 150.804 810.059 151.694 809.968 152.584C802.916 150.804 795.592 149.915 787.997 149.915C761.323 149.915 737.272 161.568 720.997 179.894C704.721 161.479 680.67 149.915 653.997 149.915C646.402 149.915 639.078 150.893 631.935 152.584C631.844 151.694 631.844 150.804 631.844 149.915C631.844 101.521 671.719 62.29 720.906 62.29C770.275 62.29 810.059 101.521 810.059 149.915Z" stroke="url(#paint51_linear)" stroke-miterlimit="10" stroke-linecap="round" stroke-linejoin="round"/>
	<path d="M652.374 211.213C652.374 212.102 652.374 212.992 652.284 213.881C645.231 212.102 637.907 211.213 630.312 211.213C603.639 211.213 579.587 222.866 563.312 241.192C547.037 222.777 522.986 211.213 496.312 211.213C488.717 211.213 481.393 212.191 474.25 213.881C474.16 212.992 474.16 212.102 474.16 211.213C474.16 162.819 514.034 123.588 563.222 123.588C612.5 123.588 652.374 162.819 652.374 211.213Z" stroke="url(#paint52_linear)" stroke-miterlimit="10" stroke-linecap="round" stroke-linejoin="round"/>
	<path d="M494.681 149.915C494.681 150.804 494.681 151.694 494.59 152.584C487.538 150.804 480.214 149.915 472.619 149.915C445.945 149.915 421.894 161.568 405.619 179.894C389.344 161.479 365.292 149.915 338.619 149.915C331.024 149.915 323.7 150.893 316.557 152.584C316.466 151.694 316.466 150.804 316.466 149.915C316.466 101.521 356.341 62.29 405.528 62.29C454.806 62.29 494.681 101.521 494.681 149.915Z" stroke="url(#paint53_linear)" stroke-miterlimit="10" stroke-linecap="round" stroke-linejoin="round"/>
	<path d="M652.374 88.6247C652.374 89.5143 652.374 90.4039 652.284 91.2935C645.231 89.5143 637.907 88.6247 630.312 88.6247C603.639 88.6247 579.587 100.278 563.312 118.604C547.037 100.189 522.986 88.6247 496.312 88.6247C488.717 88.6247 481.393 89.6033 474.25 91.2935C474.16 90.4039 474.16 89.5143 474.16 88.6247C474.16 40.231 514.034 1 563.222 1C612.5 1 652.374 40.231 652.374 88.6247Z" stroke="url(#paint54_linear)" stroke-miterlimit="10" stroke-linecap="round" stroke-linejoin="round"/>
	<path d="M810.059 517.67C810.059 518.559 810.059 519.449 809.968 520.338C802.916 518.559 795.592 517.67 787.997 517.67C761.323 517.67 737.272 529.323 720.997 547.649C704.721 529.234 680.67 517.67 653.997 517.67C646.402 517.67 639.078 518.648 631.935 520.338C631.844 519.449 631.844 518.559 631.844 517.67C631.844 469.276 671.719 430.045 720.906 430.045C770.275 430.045 810.059 469.365 810.059 517.67Z" stroke="url(#paint55_linear)" stroke-miterlimit="10" stroke-linecap="round" stroke-linejoin="round"/>
	<path d="M652.374 578.959C652.374 579.848 652.374 580.738 652.284 581.628C645.231 579.848 637.907 578.959 630.312 578.959C603.639 578.959 579.587 590.612 563.312 608.938C547.037 590.523 522.986 578.959 496.312 578.959C488.717 578.959 481.393 579.937 474.25 581.628C474.16 580.738 474.16 579.848 474.16 578.959C474.16 530.565 514.034 491.334 563.222 491.334C612.5 491.334 652.374 530.654 652.374 578.959Z" stroke="url(#paint56_linear)" stroke-miterlimit="10" stroke-linecap="round" stroke-linejoin="round"/>
	<path d="M494.681 517.67C494.681 518.559 494.681 519.449 494.59 520.338C487.538 518.559 480.214 517.67 472.619 517.67C445.945 517.67 421.894 529.323 405.619 547.649C389.344 529.234 365.292 517.67 338.619 517.67C331.024 517.67 323.7 518.648 316.557 520.338C316.466 519.449 316.466 518.559 316.466 517.67C316.466 469.276 356.341 430.045 405.528 430.045C454.806 430.045 494.681 469.365 494.681 517.67Z" stroke="url(#paint57_linear)" stroke-miterlimit="10" stroke-linecap="round" stroke-linejoin="round"/>
	<path d="M810.059 395.081C810.059 395.97 810.059 396.86 809.968 397.75C802.916 395.97 795.592 395.081 787.997 395.081C761.323 395.081 737.272 406.734 720.997 425.06C704.721 406.645 680.67 395.081 653.997 395.081C646.402 395.081 639.078 396.059 631.935 397.75C631.844 396.86 631.844 395.97 631.844 395.081C631.844 346.687 671.719 307.456 720.906 307.456C770.275 307.456 810.059 346.776 810.059 395.081Z" stroke="url(#paint58_linear)" stroke-miterlimit="10" stroke-linecap="round" stroke-linejoin="round"/>
	<path d="M652.374 456.38C652.374 457.269 652.374 458.159 652.284 459.048C645.231 457.269 637.907 456.38 630.312 456.38C603.639 456.38 579.587 468.033 563.312 486.359C547.037 467.944 522.986 456.38 496.312 456.38C488.717 456.38 481.393 457.358 474.25 459.048C474.16 458.159 474.16 457.269 474.16 456.38C474.16 407.986 514.034 368.755 563.222 368.755C612.5 368.755 652.374 408.075 652.374 456.38Z" stroke="url(#paint59_linear)" stroke-miterlimit="10" stroke-linecap="round" stroke-linejoin="round"/>
	<path d="M494.681 395.081C494.681 395.97 494.681 396.86 494.59 397.75C487.538 395.97 480.214 395.081 472.619 395.081C445.945 395.081 421.894 406.734 405.619 425.06C389.344 406.645 365.292 395.081 338.619 395.081C331.024 395.081 323.7 396.059 316.557 397.75C316.466 396.86 316.466 395.97 316.466 395.081C316.466 346.687 356.341 307.456 405.528 307.456C454.806 307.456 494.681 346.776 494.681 395.081Z" stroke="url(#paint60_linear)" stroke-miterlimit="10" stroke-linecap="round" stroke-linejoin="round"/>
	<path d="M652.374 333.792C652.374 334.681 652.374 335.571 652.284 336.461C645.231 334.681 637.907 333.792 630.312 333.792C603.639 333.792 579.587 345.445 563.312 363.771C547.037 345.356 522.986 333.792 496.312 333.792C488.717 333.792 481.393 334.77 474.25 336.461C474.16 335.571 474.16 334.681 474.16 333.792C474.16 285.398 514.034 246.167 563.222 246.167C612.5 246.167 652.374 285.398 652.374 333.792Z" stroke="url(#paint61_linear)" stroke-miterlimit="10" stroke-linecap="round" stroke-linejoin="round"/>
	<path d="M810.059 762.846C810.059 763.735 810.059 764.625 809.968 765.515C802.916 763.735 795.592 762.846 787.997 762.846C761.323 762.846 737.272 774.5 720.997 792.825C704.721 774.411 680.67 762.846 653.997 762.846C646.402 762.846 639.078 763.824 631.935 765.515C631.844 764.625 631.844 763.735 631.844 762.846C631.844 714.452 671.719 675.221 720.906 675.221C770.275 675.31 810.059 714.541 810.059 762.846Z" stroke="url(#paint62_linear)" stroke-miterlimit="10" stroke-linecap="round" stroke-linejoin="round"/>
	<path d="M652.374 824.136C652.374 825.025 652.374 825.915 652.284 826.805C645.231 825.026 637.907 824.136 630.312 824.136C603.639 824.136 579.587 835.79 563.312 854.115C547.037 835.701 522.986 824.136 496.312 824.136C488.717 824.136 481.393 825.114 474.25 826.805C474.16 825.915 474.16 825.025 474.16 824.136C474.16 775.742 514.034 736.511 563.222 736.511C612.5 736.6 652.374 775.831 652.374 824.136Z" stroke="url(#paint63_linear)" stroke-miterlimit="10" stroke-linecap="round" stroke-linejoin="round"/>
	<path d="M494.681 762.846C494.681 763.735 494.681 764.625 494.59 765.515C487.538 763.735 480.214 762.846 472.619 762.846C445.945 762.846 421.894 774.5 405.619 792.825C389.344 774.411 365.292 762.846 338.619 762.846C331.024 762.846 323.7 763.824 316.557 765.515C316.466 764.625 316.466 763.735 316.466 762.846C316.466 714.452 356.341 675.221 405.528 675.221C454.806 675.31 494.681 714.541 494.681 762.846Z" stroke="url(#paint64_linear)" stroke-miterlimit="10" stroke-linecap="round" stroke-linejoin="round"/>
	<path d="M810.059 640.258C810.059 641.148 810.059 642.037 809.968 642.927C802.916 641.148 795.592 640.258 787.997 640.258C761.323 640.258 737.272 651.912 720.997 670.237C704.721 651.823 680.67 640.258 653.997 640.258C646.402 640.258 639.078 641.237 631.935 642.927C631.844 642.037 631.844 641.148 631.844 640.258C631.844 591.864 671.719 552.633 720.906 552.633C770.275 552.722 810.059 591.953 810.059 640.258Z" stroke="url(#paint65_linear)" stroke-miterlimit="10" stroke-linecap="round" stroke-linejoin="round"/>
	<path d="M652.374 701.556C652.374 702.445 652.374 703.335 652.284 704.225C645.231 702.445 637.907 701.556 630.312 701.556C603.639 701.556 579.587 713.21 563.312 731.535C547.037 713.121 522.986 701.556 496.312 701.556C488.717 701.556 481.393 702.534 474.25 704.225C474.16 703.335 474.16 702.445 474.16 701.556C474.16 653.162 514.034 613.931 563.222 613.931C612.5 614.02 652.374 653.251 652.374 701.556Z" stroke="url(#paint66_linear)" stroke-miterlimit="10" stroke-linecap="round" stroke-linejoin="round"/>
	<path d="M494.681 640.258C494.681 641.148 494.681 642.037 494.59 642.927C487.538 641.148 480.214 640.258 472.619 640.258C445.945 640.258 421.894 651.912 405.619 670.237C389.344 651.823 365.292 640.258 338.619 640.258C331.024 640.258 323.7 641.237 316.557 642.927C316.466 642.037 316.466 641.148 316.466 640.258C316.466 591.864 356.341 552.633 405.528 552.633C454.806 552.722 494.681 591.953 494.681 640.258Z" stroke="url(#paint67_linear)" stroke-miterlimit="10" stroke-linecap="round" stroke-linejoin="round"/>
	<path d="M652.374 578.968C652.374 579.858 652.374 580.747 652.284 581.637C645.231 579.858 637.907 578.968 630.312 578.968C603.639 578.968 579.587 590.622 563.312 608.947C547.037 590.533 522.986 578.968 496.312 578.968C488.717 578.968 481.393 579.947 474.25 581.637C474.16 580.747 474.16 579.858 474.16 578.968C474.16 530.574 514.034 491.343 563.222 491.343C612.5 491.343 652.374 530.663 652.374 578.968Z" stroke="url(#paint68_linear)" stroke-miterlimit="10" stroke-linecap="round" stroke-linejoin="round"/>
	<path d="M494.681 272.502C494.681 273.391 494.681 274.281 494.59 275.17C487.538 273.391 480.214 272.502 472.619 272.502C445.945 272.502 421.894 284.155 405.619 302.481C389.344 284.066 365.292 272.502 338.619 272.502C331.024 272.502 323.7 273.48 316.557 275.17C316.466 274.281 316.466 273.391 316.466 272.502C316.466 224.108 356.341 184.877 405.528 184.877C454.806 184.877 494.681 224.108 494.681 272.502Z" stroke="url(#paint69_linear)" stroke-miterlimit="10" stroke-linecap="round" stroke-linejoin="round"/>
	<path d="M336.908 333.792C336.908 334.682 336.908 335.571 336.818 336.461C329.765 334.682 322.441 333.792 314.846 333.792C288.173 333.792 264.121 345.446 247.846 363.771C231.571 345.357 207.519 333.792 180.846 333.792C173.251 333.792 165.927 334.771 158.784 336.461C158.693 335.571 158.693 334.682 158.693 333.792C158.693 285.398 198.568 246.167 247.755 246.167C297.124 246.167 336.908 285.398 336.908 333.792Z" stroke="url(#paint70_linear)" stroke-miterlimit="10" stroke-linecap="round" stroke-linejoin="round"/>
	<path d="M179.214 272.502C179.214 273.391 179.214 274.281 179.124 275.17C172.071 273.391 164.747 272.502 157.152 272.502C130.479 272.502 106.428 284.155 90.1523 302.481C73.877 284.066 49.8257 272.502 23.1523 272.502C15.5572 272.502 8.23328 273.48 1.09023 275.17C0.999812 274.281 1 273.391 1 272.502C1 224.108 40.8743 184.877 90.0618 184.877C139.34 184.877 179.214 224.108 179.214 272.502Z" stroke="url(#paint71_linear)" stroke-miterlimit="10" stroke-linecap="round" stroke-linejoin="round"/>
	<path d="M494.681 149.915C494.681 150.804 494.681 151.694 494.59 152.584C487.538 150.804 480.214 149.915 472.619 149.915C445.945 149.915 421.894 161.568 405.619 179.894C389.344 161.479 365.292 149.915 338.619 149.915C331.024 149.915 323.7 150.893 316.557 152.584C316.466 151.694 316.466 150.804 316.466 149.915C316.466 101.521 356.341 62.29 405.528 62.29C454.806 62.29 494.681 101.521 494.681 149.915Z" stroke="url(#paint72_linear)" stroke-miterlimit="10" stroke-linecap="round" stroke-linejoin="round"/>
	<path d="M336.908 211.213C336.908 212.102 336.908 212.992 336.818 213.881C329.765 212.102 322.441 211.213 314.846 211.213C288.173 211.213 264.121 222.866 247.846 241.192C231.571 222.777 207.519 211.213 180.846 211.213C173.251 211.213 165.927 212.191 158.784 213.881C158.693 212.992 158.693 212.102 158.693 211.213C158.693 162.819 198.568 123.588 247.755 123.588C297.124 123.588 336.908 162.819 336.908 211.213Z" stroke="url(#paint73_linear)" stroke-miterlimit="10" stroke-linecap="round" stroke-linejoin="round"/>
	<path d="M179.214 149.915C179.214 150.804 179.214 151.694 179.124 152.584C172.071 150.804 164.747 149.915 157.152 149.915C130.479 149.915 106.428 161.568 90.1523 179.894C73.877 161.479 49.8257 149.915 23.1523 149.915C15.5572 149.915 8.23328 150.893 1.09023 152.584C0.999812 151.694 1 150.804 1 149.915C1 101.521 40.8743 62.29 90.0618 62.29C139.34 62.29 179.214 101.521 179.214 149.915Z" stroke="url(#paint74_linear)" stroke-miterlimit="10" stroke-linecap="round" stroke-linejoin="round"/>
	<path d="M336.909 88.6247C336.909 89.5143 336.908 90.4039 336.818 91.2935C329.765 89.5143 322.442 88.6247 314.846 88.6247C288.173 88.6247 264.122 100.278 247.846 118.604C231.571 100.189 207.52 88.6247 180.846 88.6247C173.251 88.6247 165.927 89.6033 158.784 91.2935C158.694 90.4039 158.694 89.5143 158.694 88.6247C158.694 40.231 198.568 1 247.756 1C297.124 1 336.909 40.231 336.909 88.6247Z" stroke="url(#paint75_linear)" stroke-miterlimit="10" stroke-linecap="round" stroke-linejoin="round"/>
	<path d="M494.681 517.67C494.681 518.559 494.681 519.449 494.59 520.338C487.538 518.559 480.214 517.67 472.619 517.67C445.945 517.67 421.894 529.323 405.619 547.649C389.344 529.234 365.292 517.67 338.619 517.67C331.024 517.67 323.7 518.648 316.557 520.338C316.466 519.449 316.466 518.559 316.466 517.67C316.466 469.276 356.341 430.045 405.528 430.045C454.806 430.045 494.681 469.365 494.681 517.67Z" stroke="url(#paint76_linear)" stroke-miterlimit="10" stroke-linecap="round" stroke-linejoin="round"/>
	<path d="M336.908 578.959C336.908 579.848 336.908 580.738 336.818 581.628C329.765 579.848 322.441 578.959 314.846 578.959C288.173 578.959 264.121 590.612 247.846 608.938C231.571 590.523 207.519 578.959 180.846 578.959C173.251 578.959 165.927 579.937 158.784 581.628C158.693 580.738 158.693 579.848 158.693 578.959C158.693 530.565 198.568 491.334 247.755 491.334C297.124 491.334 336.908 530.654 336.908 578.959Z" stroke="url(#paint77_linear)" stroke-miterlimit="10" stroke-linecap="round" stroke-linejoin="round"/>
	<path d="M179.214 517.67C179.214 518.559 179.214 519.449 179.124 520.338C172.071 518.559 164.747 517.67 157.152 517.67C130.479 517.67 106.428 529.323 90.1523 547.649C73.877 529.234 49.8257 517.67 23.1523 517.67C15.5572 517.67 8.23328 518.648 1.09023 520.338C0.999812 519.449 1 518.559 1 517.67C1 469.276 40.8743 430.045 90.0618 430.045C139.34 430.045 179.214 469.365 179.214 517.67Z" stroke="url(#paint78_linear)" stroke-miterlimit="10" stroke-linecap="round" stroke-linejoin="round"/>
	<path d="M494.681 395.081C494.681 395.97 494.681 396.86 494.59 397.75C487.538 395.97 480.214 395.081 472.619 395.081C445.945 395.081 421.894 406.734 405.619 425.06C389.344 406.645 365.292 395.081 338.619 395.081C331.024 395.081 323.7 396.059 316.557 397.75C316.466 396.86 316.466 395.97 316.466 395.081C316.466 346.687 356.341 307.456 405.528 307.456C454.806 307.456 494.681 346.776 494.681 395.081Z" stroke="url(#paint79_linear)" stroke-miterlimit="10" stroke-linecap="round" stroke-linejoin="round"/>
	<path d="M336.908 456.38C336.908 457.269 336.908 458.159 336.818 459.048C329.765 457.269 322.441 456.38 314.846 456.38C288.173 456.38 264.121 468.033 247.846 486.359C231.571 467.944 207.519 456.38 180.846 456.38C173.251 456.38 165.927 457.358 158.784 459.048C158.693 458.159 158.693 457.269 158.693 456.38C158.693 407.986 198.568 368.755 247.755 368.755C297.124 368.755 336.908 408.075 336.908 456.38Z" stroke="url(#paint80_linear)" stroke-miterlimit="10" stroke-linecap="round" stroke-linejoin="round"/>
	<path d="M179.214 395.081C179.214 395.97 179.214 396.86 179.124 397.75C172.071 395.97 164.747 395.081 157.152 395.081C130.479 395.081 106.428 406.734 90.1523 425.06C73.877 406.645 49.8257 395.081 23.1523 395.081C15.5572 395.081 8.23328 396.059 1.09023 397.75C0.999812 396.86 1 395.97 1 395.081C1 346.687 40.8743 307.456 90.0618 307.456C139.34 307.456 179.214 346.776 179.214 395.081Z" stroke="url(#paint81_linear)" stroke-miterlimit="10" stroke-linecap="round" stroke-linejoin="round"/>
	<path d="M336.909 333.792C336.909 334.681 336.908 335.571 336.818 336.461C329.765 334.681 322.442 333.792 314.846 333.792C288.173 333.792 264.122 345.445 247.846 363.771C231.571 345.356 207.52 333.792 180.846 333.792C173.251 333.792 165.927 334.77 158.784 336.461C158.694 335.571 158.694 334.681 158.694 333.792C158.694 285.398 198.568 246.167 247.756 246.167C297.124 246.167 336.909 285.398 336.909 333.792Z" stroke="url(#paint82_linear)" stroke-miterlimit="10" stroke-linecap="round" stroke-linejoin="round"/>
	<path d="M495.214 885.625C495.214 886.514 495.215 887.404 495.124 888.293C488.072 886.514 480.747 885.625 473.152 885.625C446.479 885.625 422.428 897.278 406.153 915.604C389.877 897.189 365.826 885.625 339.153 885.625C331.557 885.625 324.234 886.603 317.091 888.293C317 887.404 317 886.514 317 885.625C317 837.231 356.875 798 406.062 798C455.34 798.089 495.214 837.32 495.214 885.625Z" stroke="url(#paint83_linear)" stroke-miterlimit="10" stroke-linecap="round" stroke-linejoin="round"/>
	<path d="M652.214 951.625C652.214 952.514 652.215 953.404 652.124 954.293C645.072 952.514 637.747 951.625 630.152 951.625C603.479 951.625 579.428 963.278 563.153 981.604C546.877 963.189 522.826 951.625 496.153 951.625C488.557 951.625 481.234 952.603 474.091 954.293C474 953.404 474 952.514 474 951.625C474 903.231 513.875 864 563.062 864C612.34 864.089 652.214 903.32 652.214 951.625Z" stroke="url(#paint84_linear)" stroke-miterlimit="10" stroke-linecap="round" stroke-linejoin="round"/>
	<path d="M652.214 1069.62C652.214 1070.51 652.215 1071.4 652.124 1072.29C645.072 1070.51 637.747 1069.62 630.152 1069.62C603.479 1069.62 579.428 1081.28 563.153 1099.6C546.877 1081.19 522.826 1069.62 496.153 1069.62C488.557 1069.62 481.234 1070.6 474.091 1072.29C474 1071.4 474 1070.51 474 1069.62C474 1021.23 513.875 982 563.062 982C612.34 982.089 652.214 1021.32 652.214 1069.62Z" stroke="url(#paint85_linear)" stroke-miterlimit="10" stroke-linecap="round" stroke-linejoin="round"/>
	<path d="M336.908 824.136C336.908 825.025 336.908 825.915 336.818 826.805C329.765 825.026 322.441 824.136 314.846 824.136C288.173 824.136 264.121 835.79 247.846 854.115C231.571 835.701 207.519 824.136 180.846 824.136C173.251 824.136 165.927 825.114 158.784 826.805C158.693 825.915 158.693 825.025 158.693 824.136C158.693 775.742 198.568 736.511 247.755 736.511C297.124 736.6 336.908 775.831 336.908 824.136Z" stroke="url(#paint86_linear)" stroke-miterlimit="10" stroke-linecap="round" stroke-linejoin="round"/>
	<path d="M179.214 762.846C179.214 763.735 179.214 764.625 179.124 765.515C172.071 763.735 164.747 762.846 157.152 762.846C130.479 762.846 106.428 774.5 90.1523 792.825C73.877 774.411 49.8257 762.846 23.1523 762.846C15.5572 762.846 8.23328 763.824 1.09023 765.515C0.999812 764.625 1 763.735 1 762.846C1 714.452 40.8743 675.221 90.0618 675.221C139.34 675.31 179.214 714.541 179.214 762.846Z" stroke="url(#paint87_linear)" stroke-miterlimit="10" stroke-linecap="round" stroke-linejoin="round"/>
	<path d="M494.681 640.258C494.681 641.148 494.681 642.037 494.59 642.927C487.538 641.148 480.214 640.258 472.619 640.258C445.945 640.258 421.894 651.912 405.619 670.237C389.344 651.823 365.292 640.258 338.619 640.258C331.024 640.258 323.7 641.237 316.557 642.927C316.466 642.037 316.466 641.148 316.466 640.258C316.466 591.864 356.341 552.633 405.528 552.633C454.806 552.722 494.681 591.953 494.681 640.258Z" stroke="url(#paint88_linear)" stroke-miterlimit="10" stroke-linecap="round" stroke-linejoin="round"/>
	<path d="M336.908 701.556C336.908 702.445 336.908 703.335 336.818 704.225C329.765 702.445 322.441 701.556 314.846 701.556C288.173 701.556 264.121 713.21 247.846 731.535C231.571 713.121 207.519 701.556 180.846 701.556C173.251 701.556 165.927 702.534 158.784 704.225C158.693 703.335 158.693 702.445 158.693 701.556C158.693 653.162 198.568 613.931 247.755 613.931C297.124 614.02 336.908 653.251 336.908 701.556Z" stroke="url(#paint89_linear)" stroke-miterlimit="10" stroke-linecap="round" stroke-linejoin="round"/>
	<path d="M179.214 640.258C179.214 641.148 179.214 642.037 179.124 642.927C172.071 641.148 164.747 640.258 157.152 640.258C130.479 640.258 106.428 651.912 90.1523 670.237C73.877 651.823 49.8257 640.258 23.1523 640.258C15.5572 640.258 8.23328 641.237 1.09023 642.927C0.999812 642.037 1 641.148 1 640.258C1 591.864 40.8743 552.633 90.0618 552.633C139.34 552.722 179.214 591.953 179.214 640.258Z" stroke="url(#paint90_linear)" stroke-miterlimit="10" stroke-linecap="round" stroke-linejoin="round"/>
	<path d="M336.909 578.968C336.909 579.858 336.908 580.747 336.818 581.637C329.765 579.858 322.442 578.968 314.846 578.968C288.173 578.968 264.122 590.622 247.846 608.947C231.571 590.533 207.52 578.968 180.846 578.968C173.251 578.968 165.927 579.947 158.784 581.637C158.694 580.747 158.694 579.858 158.694 578.968C158.694 530.574 198.568 491.343 247.756 491.343C297.124 491.343 336.909 530.663 336.909 578.968Z" stroke="url(#paint91_linear)" stroke-miterlimit="10" stroke-linecap="round" stroke-linejoin="round"/>
	<path d="M494.681 1008.1C494.681 1008.99 494.681 1009.88 494.59 1010.77C487.538 1008.99 480.214 1008.1 472.619 1008.1C445.945 1008.1 421.894 1019.75 405.619 1038.08C389.344 1019.67 365.292 1008.1 338.619 1008.1C331.024 1008.1 323.7 1009.08 316.557 1010.77C316.466 1009.88 316.466 1008.99 316.466 1008.1C316.466 959.707 356.341 920.476 405.528 920.476C454.806 920.476 494.681 959.707 494.681 1008.1Z" stroke="url(#paint92_linear)" stroke-miterlimit="10" stroke-linecap="round" stroke-linejoin="round"/>
	<path d="M336.908 1069.4C336.908 1070.29 336.908 1071.18 336.818 1072.07C329.765 1070.29 322.441 1069.4 314.846 1069.4C288.173 1069.4 264.121 1081.05 247.846 1099.38C231.571 1080.96 207.519 1069.4 180.846 1069.4C173.251 1069.4 165.927 1070.38 158.784 1072.07C158.693 1071.18 158.693 1070.29 158.693 1069.4C158.693 1021.01 198.568 981.774 247.755 981.774C297.124 981.774 336.908 1021.01 336.908 1069.4Z" stroke="url(#paint93_linear)" stroke-miterlimit="10" stroke-linecap="round" stroke-linejoin="round"/>
	<path d="M179.214 1008.1C179.214 1008.99 179.214 1009.88 179.124 1010.77C172.071 1008.99 164.747 1008.1 157.152 1008.1C130.479 1008.1 106.428 1019.75 90.1523 1038.08C73.877 1019.67 49.8257 1008.1 23.1523 1008.1C15.5572 1008.1 8.23328 1009.08 1.09023 1010.77C0.999812 1009.88 1 1008.99 1 1008.1C1 959.707 40.8743 920.476 90.0618 920.476C139.34 920.476 179.214 959.707 179.214 1008.1Z" stroke="url(#paint94_linear)" stroke-miterlimit="10" stroke-linecap="round" stroke-linejoin="round"/>
	<path d="M336.908 946.724C336.908 947.614 336.908 948.503 336.818 949.393C329.765 947.613 322.441 946.724 314.846 946.724C288.173 946.724 264.121 958.378 247.846 976.703C231.571 958.289 207.519 946.724 180.846 946.724C173.251 946.724 165.927 947.702 158.784 949.393C158.693 948.503 158.693 947.614 158.693 946.724C158.693 898.33 198.568 859.099 247.755 859.099C297.124 859.188 336.908 898.419 336.908 946.724Z" stroke="url(#paint95_linear)" stroke-miterlimit="10" stroke-linecap="round" stroke-linejoin="round"/>
	<path d="M179.214 885.426C179.214 886.316 179.214 887.205 179.124 888.095C172.071 886.316 164.747 885.426 157.152 885.426C130.479 885.426 106.428 897.08 90.1523 915.405C73.877 896.991 49.8257 885.426 23.1523 885.426C15.5572 885.426 8.23328 886.405 1.09023 888.095C0.999812 887.205 1 886.316 1 885.426C1 837.032 40.8743 797.801 90.0618 797.801C139.34 797.89 179.214 837.121 179.214 885.426Z" stroke="url(#paint96_linear)" stroke-miterlimit="10" stroke-linecap="round" stroke-linejoin="round"/>
	<path d="M336.909 824.136C336.909 825.025 336.908 825.915 336.818 826.805C329.765 825.026 322.442 824.136 314.846 824.136C288.173 824.136 264.122 835.79 247.846 854.115C231.571 835.701 207.52 824.136 180.846 824.136C173.251 824.136 165.927 825.114 158.784 826.805C158.694 825.915 158.694 825.025 158.694 824.136C158.694 775.742 198.568 736.511 247.756 736.511C297.124 736.6 336.909 775.831 336.909 824.136Z" stroke="url(#paint97_linear)" stroke-miterlimit="10" stroke-linecap="round" stroke-linejoin="round"/>
	<defs>
		<linearGradient id="paint0_linear" x1="1194.21" y1="246.167" x2="1194.21" y2="363.771" gradientUnits="userSpaceOnUse">
			<stop stop-color="#FF0000"/>
			<stop offset="0.520833" stop-color="#212121"/>
		</linearGradient>
		<linearGradient id="paint1_linear" x1="1036.43" y1="184.877" x2="1036.43" y2="302.481" gradientUnits="userSpaceOnUse">
			<stop stop-color="#FF0000"/>
			<stop offset="0.520833" stop-color="#212121"/>
		</linearGradient>
		<linearGradient id="paint2_linear" x1="1194.21" y1="123.588" x2="1194.21" y2="241.192" gradientUnits="userSpaceOnUse">
			<stop stop-color="#FF0000"/>
			<stop offset="0.520833" stop-color="#212121"/>
		</linearGradient>
		<linearGradient id="paint3_linear" x1="1036.43" y1="62.29" x2="1036.43" y2="179.894" gradientUnits="userSpaceOnUse">
			<stop stop-color="#FF0000"/>
			<stop offset="0.520833" stop-color="#212121"/>
		</linearGradient>
		<linearGradient id="paint4_linear" x1="1194.21" y1="1" x2="1194.21" y2="118.604" gradientUnits="userSpaceOnUse">
			<stop stop-color="#FF0000"/>
			<stop offset="0.520833" stop-color="#212121"/>
		</linearGradient>
		<linearGradient id="paint5_linear" x1="1194.21" y1="491.334" x2="1194.21" y2="608.939" gradientUnits="userSpaceOnUse">
			<stop stop-color="#FF0000"/>
			<stop offset="0.520833" stop-color="#212121"/>
		</linearGradient>
		<linearGradient id="paint6_linear" x1="1036.43" y1="430.045" x2="1036.43" y2="547.649" gradientUnits="userSpaceOnUse">
			<stop stop-color="#FF0000"/>
			<stop offset="0.520833" stop-color="#212121"/>
		</linearGradient>
		<linearGradient id="paint7_linear" x1="1194.21" y1="368.754" x2="1194.21" y2="486.358" gradientUnits="userSpaceOnUse">
			<stop stop-color="#FF0000"/>
			<stop offset="0.520833" stop-color="#212121"/>
		</linearGradient>
		<linearGradient id="paint8_linear" x1="1036.43" y1="307.457" x2="1036.43" y2="425.061" gradientUnits="userSpaceOnUse">
			<stop stop-color="#FF0000"/>
			<stop offset="0.520833" stop-color="#212121"/>
		</linearGradient>
		<linearGradient id="paint9_linear" x1="1194.21" y1="246.167" x2="1194.21" y2="363.771" gradientUnits="userSpaceOnUse">
			<stop stop-color="#FF0000"/>
			<stop offset="0.520833" stop-color="#212121"/>
		</linearGradient>
		<linearGradient id="paint10_linear" x1="1194.21" y1="736.511" x2="1194.21" y2="854.115" gradientUnits="userSpaceOnUse">
			<stop stop-color="#FF0000"/>
			<stop offset="0.520833" stop-color="#212121"/>
		</linearGradient>
		<linearGradient id="paint11_linear" x1="1036.43" y1="675.221" x2="1036.43" y2="792.825" gradientUnits="userSpaceOnUse">
			<stop stop-color="#FF0000"/>
			<stop offset="0.520833" stop-color="#212121"/>
		</linearGradient>
		<linearGradient id="paint12_linear" x1="1194.21" y1="613.931" x2="1194.21" y2="731.535" gradientUnits="userSpaceOnUse">
			<stop stop-color="#FF0000"/>
			<stop offset="0.520833" stop-color="#212121"/>
		</linearGradient>
		<linearGradient id="paint13_linear" x1="1036.43" y1="552.633" x2="1036.43" y2="670.237" gradientUnits="userSpaceOnUse">
			<stop stop-color="#FF0000"/>
			<stop offset="0.520833" stop-color="#212121"/>
		</linearGradient>
		<linearGradient id="paint14_linear" x1="1194.21" y1="491.343" x2="1194.21" y2="608.947" gradientUnits="userSpaceOnUse">
			<stop stop-color="#FF0000"/>
			<stop offset="0.520833" stop-color="#212121"/>
		</linearGradient>
		<linearGradient id="paint15_linear" x1="1194.21" y1="981.774" x2="1194.21" y2="1099.38" gradientUnits="userSpaceOnUse">
			<stop stop-color="#FF0000"/>
			<stop offset="0.520833" stop-color="#212121"/>
		</linearGradient>
		<linearGradient id="paint16_linear" x1="1036.43" y1="920.476" x2="1036.43" y2="1038.08" gradientUnits="userSpaceOnUse">
			<stop stop-color="#FF0000"/>
			<stop offset="0.520833" stop-color="#212121"/>
		</linearGradient>
		<linearGradient id="paint17_linear" x1="1194.21" y1="859.099" x2="1194.21" y2="976.703" gradientUnits="userSpaceOnUse">
			<stop stop-color="#FF0000"/>
			<stop offset="0.520833" stop-color="#212121"/>
		</linearGradient>
		<linearGradient id="paint18_linear" x1="1036.43" y1="797.801" x2="1036.43" y2="915.405" gradientUnits="userSpaceOnUse">
			<stop stop-color="#FF0000"/>
			<stop offset="0.520833" stop-color="#212121"/>
		</linearGradient>
		<linearGradient id="paint19_linear" x1="1194.21" y1="736.511" x2="1194.21" y2="854.115" gradientUnits="userSpaceOnUse">
			<stop stop-color="#FF0000"/>
			<stop offset="0.520833" stop-color="#212121"/>
		</linearGradient>
		<linearGradient id="paint20_linear" x1="1036.42" y1="184.877" x2="1036.42" y2="302.481" gradientUnits="userSpaceOnUse">
			<stop stop-color="#FF0000"/>
			<stop offset="0.520833" stop-color="#212121"/>
		</linearGradient>
		<linearGradient id="paint21_linear" x1="878.732" y1="246.167" x2="878.732" y2="363.771" gradientUnits="userSpaceOnUse">
			<stop stop-color="#FF0000"/>
			<stop offset="0.520833" stop-color="#212121"/>
		</linearGradient>
		<linearGradient id="paint22_linear" x1="720.95" y1="184.877" x2="720.95" y2="302.481" gradientUnits="userSpaceOnUse">
			<stop stop-color="#FF0000"/>
			<stop offset="0.520833" stop-color="#212121"/>
		</linearGradient>
		<linearGradient id="paint23_linear" x1="1036.42" y1="62.29" x2="1036.42" y2="179.894" gradientUnits="userSpaceOnUse">
			<stop stop-color="#FF0000"/>
			<stop offset="0.520833" stop-color="#212121"/>
		</linearGradient>
		<linearGradient id="paint24_linear" x1="878.732" y1="123.588" x2="878.732" y2="241.192" gradientUnits="userSpaceOnUse">
			<stop stop-color="#FF0000"/>
			<stop offset="0.520833" stop-color="#212121"/>
		</linearGradient>
		<linearGradient id="paint25_linear" x1="720.95" y1="62.29" x2="720.95" y2="179.894" gradientUnits="userSpaceOnUse">
			<stop stop-color="#FF0000"/>
			<stop offset="0.520833" stop-color="#212121"/>
		</linearGradient>
		<linearGradient id="paint26_linear" x1="878.732" y1="1" x2="878.732" y2="118.604" gradientUnits="userSpaceOnUse">
			<stop stop-color="#FF0000"/>
			<stop offset="0.520833" stop-color="#212121"/>
		</linearGradient>
		<linearGradient id="paint27_linear" x1="1036.42" y1="430.045" x2="1036.42" y2="547.649" gradientUnits="userSpaceOnUse">
			<stop stop-color="#FF0000"/>
			<stop offset="0.520833" stop-color="#212121"/>
		</linearGradient>
		<linearGradient id="paint28_linear" x1="878.732" y1="491.334" x2="878.732" y2="608.939" gradientUnits="userSpaceOnUse">
			<stop stop-color="#FF0000"/>
			<stop offset="0.520833" stop-color="#212121"/>
		</linearGradient>
		<linearGradient id="paint29_linear" x1="720.95" y1="430.045" x2="720.95" y2="547.649" gradientUnits="userSpaceOnUse">
			<stop stop-color="#FF0000"/>
			<stop offset="0.520833" stop-color="#212121"/>
		</linearGradient>
		<linearGradient id="paint30_linear" x1="1036.42" y1="307.457" x2="1036.42" y2="425.061" gradientUnits="userSpaceOnUse">
			<stop stop-color="#FF0000"/>
			<stop offset="0.520833" stop-color="#212121"/>
		</linearGradient>
		<linearGradient id="paint31_linear" x1="878.732" y1="368.754" x2="878.732" y2="486.358" gradientUnits="userSpaceOnUse">
			<stop stop-color="#FF0000"/>
			<stop offset="0.520833" stop-color="#212121"/>
		</linearGradient>
		<linearGradient id="paint32_linear" x1="720.95" y1="307.457" x2="720.95" y2="425.061" gradientUnits="userSpaceOnUse">
			<stop stop-color="#FF0000"/>
			<stop offset="0.520833" stop-color="#212121"/>
		</linearGradient>
		<linearGradient id="paint33_linear" x1="878.732" y1="246.167" x2="878.732" y2="363.771" gradientUnits="userSpaceOnUse">
			<stop stop-color="#FF0000"/>
			<stop offset="0.520833" stop-color="#212121"/>
		</linearGradient>
		<linearGradient id="paint34_linear" x1="1036.42" y1="675.221" x2="1036.42" y2="792.825" gradientUnits="userSpaceOnUse">
			<stop stop-color="#FF0000"/>
			<stop offset="0.520833" stop-color="#212121"/>
		</linearGradient>
		<linearGradient id="paint35_linear" x1="878.732" y1="736.511" x2="878.732" y2="854.115" gradientUnits="userSpaceOnUse">
			<stop stop-color="#FF0000"/>
			<stop offset="0.520833" stop-color="#212121"/>
		</linearGradient>
		<linearGradient id="paint36_linear" x1="720.951" y1="675.221" x2="720.951" y2="792.825" gradientUnits="userSpaceOnUse">
			<stop stop-color="#FF0000"/>
			<stop offset="0.520833" stop-color="#212121"/>
		</linearGradient>
		<linearGradient id="paint37_linear" x1="1036.42" y1="552.633" x2="1036.42" y2="670.237" gradientUnits="userSpaceOnUse">
			<stop stop-color="#FF0000"/>
			<stop offset="0.520833" stop-color="#212121"/>
		</linearGradient>
		<linearGradient id="paint38_linear" x1="878.732" y1="613.931" x2="878.732" y2="731.535" gradientUnits="userSpaceOnUse">
			<stop stop-color="#FF0000"/>
			<stop offset="0.520833" stop-color="#212121"/>
		</linearGradient>
		<linearGradient id="paint39_linear" x1="720.951" y1="552.633" x2="720.951" y2="670.237" gradientUnits="userSpaceOnUse">
			<stop stop-color="#FF0000"/>
			<stop offset="0.520833" stop-color="#212121"/>
		</linearGradient>
		<linearGradient id="paint40_linear" x1="878.732" y1="491.343" x2="878.732" y2="608.947" gradientUnits="userSpaceOnUse">
			<stop stop-color="#FF0000"/>
			<stop offset="0.520833" stop-color="#212121"/>
		</linearGradient>
		<linearGradient id="paint41_linear" x1="1036.42" y1="920.476" x2="1036.42" y2="1038.08" gradientUnits="userSpaceOnUse">
			<stop stop-color="#FF0000"/>
			<stop offset="0.520833" stop-color="#212121"/>
		</linearGradient>
		<linearGradient id="paint42_linear" x1="878.732" y1="981.774" x2="878.732" y2="1099.38" gradientUnits="userSpaceOnUse">
			<stop stop-color="#FF0000"/>
			<stop offset="0.520833" stop-color="#212121"/>
		</linearGradient>
		<linearGradient id="paint43_linear" x1="720.951" y1="920.476" x2="720.951" y2="1038.08" gradientUnits="userSpaceOnUse">
			<stop stop-color="#FF0000"/>
			<stop offset="0.520833" stop-color="#212121"/>
		</linearGradient>
		<linearGradient id="paint44_linear" x1="1036.42" y1="797.801" x2="1036.42" y2="915.405" gradientUnits="userSpaceOnUse">
			<stop stop-color="#FF0000"/>
			<stop offset="0.520833" stop-color="#212121"/>
		</linearGradient>
		<linearGradient id="paint45_linear" x1="878.732" y1="859.099" x2="878.732" y2="976.703" gradientUnits="userSpaceOnUse">
			<stop stop-color="#FF0000"/>
			<stop offset="0.520833" stop-color="#212121"/>
		</linearGradient>
		<linearGradient id="paint46_linear" x1="720.951" y1="797.801" x2="720.951" y2="915.405" gradientUnits="userSpaceOnUse">
			<stop stop-color="#FF0000"/>
			<stop offset="0.520833" stop-color="#212121"/>
		</linearGradient>
		<linearGradient id="paint47_linear" x1="878.732" y1="736.511" x2="878.732" y2="854.115" gradientUnits="userSpaceOnUse">
			<stop stop-color="#FF0000"/>
			<stop offset="0.520833" stop-color="#212121"/>
		</linearGradient>
		<linearGradient id="paint48_linear" x1="720.951" y1="184.877" x2="720.951" y2="302.481" gradientUnits="userSpaceOnUse">
			<stop stop-color="#FF0000"/>
			<stop offset="0.520833" stop-color="#212121"/>
		</linearGradient>
		<linearGradient id="paint49_linear" x1="563.267" y1="246.167" x2="563.267" y2="363.771" gradientUnits="userSpaceOnUse">
			<stop stop-color="#FF0000"/>
			<stop offset="0.520833" stop-color="#212121"/>
		</linearGradient>
		<linearGradient id="paint50_linear" x1="405.574" y1="184.877" x2="405.574" y2="302.481" gradientUnits="userSpaceOnUse">
			<stop stop-color="#FF0000"/>
			<stop offset="0.520833" stop-color="#212121"/>
		</linearGradient>
		<linearGradient id="paint51_linear" x1="720.951" y1="62.29" x2="720.951" y2="179.894" gradientUnits="userSpaceOnUse">
			<stop stop-color="#FF0000"/>
			<stop offset="0.520833" stop-color="#212121"/>
		</linearGradient>
		<linearGradient id="paint52_linear" x1="563.267" y1="123.588" x2="563.267" y2="241.192" gradientUnits="userSpaceOnUse">
			<stop stop-color="#FF0000"/>
			<stop offset="0.520833" stop-color="#212121"/>
		</linearGradient>
		<linearGradient id="paint53_linear" x1="405.574" y1="62.29" x2="405.574" y2="179.894" gradientUnits="userSpaceOnUse">
			<stop stop-color="#FF0000"/>
			<stop offset="0.520833" stop-color="#212121"/>
		</linearGradient>
		<linearGradient id="paint54_linear" x1="563.267" y1="1" x2="563.267" y2="118.604" gradientUnits="userSpaceOnUse">
			<stop stop-color="#FF0000"/>
			<stop offset="0.520833" stop-color="#212121"/>
		</linearGradient>
		<linearGradient id="paint55_linear" x1="720.951" y1="430.045" x2="720.951" y2="547.649" gradientUnits="userSpaceOnUse">
			<stop stop-color="#FF0000"/>
			<stop offset="0.520833" stop-color="#212121"/>
		</linearGradient>
		<linearGradient id="paint56_linear" x1="563.267" y1="491.334" x2="563.267" y2="608.938" gradientUnits="userSpaceOnUse">
			<stop stop-color="#FF0000"/>
			<stop offset="0.520833" stop-color="#212121"/>
		</linearGradient>
		<linearGradient id="paint57_linear" x1="405.574" y1="430.045" x2="405.574" y2="547.649" gradientUnits="userSpaceOnUse">
			<stop stop-color="#FF0000"/>
			<stop offset="0.520833" stop-color="#212121"/>
		</linearGradient>
		<linearGradient id="paint58_linear" x1="720.951" y1="307.456" x2="720.951" y2="425.06" gradientUnits="userSpaceOnUse">
			<stop stop-color="#FF0000"/>
			<stop offset="0.520833" stop-color="#212121"/>
		</linearGradient>
		<linearGradient id="paint59_linear" x1="563.267" y1="368.755" x2="563.267" y2="486.359" gradientUnits="userSpaceOnUse">
			<stop stop-color="#FF0000"/>
			<stop offset="0.520833" stop-color="#212121"/>
		</linearGradient>
		<linearGradient id="paint60_linear" x1="405.574" y1="307.456" x2="405.574" y2="425.06" gradientUnits="userSpaceOnUse">
			<stop stop-color="#FF0000"/>
			<stop offset="0.520833" stop-color="#212121"/>
		</linearGradient>
		<linearGradient id="paint61_linear" x1="563.267" y1="246.167" x2="563.267" y2="363.771" gradientUnits="userSpaceOnUse">
			<stop stop-color="#FF0000"/>
			<stop offset="0.520833" stop-color="#212121"/>
		</linearGradient>
		<linearGradient id="paint62_linear" x1="720.951" y1="675.221" x2="720.951" y2="792.825" gradientUnits="userSpaceOnUse">
			<stop stop-color="#FF0000"/>
			<stop offset="0.520833" stop-color="#212121"/>
		</linearGradient>
		<linearGradient id="paint63_linear" x1="563.267" y1="736.511" x2="563.267" y2="854.115" gradientUnits="userSpaceOnUse">
			<stop stop-color="#FF0000"/>
			<stop offset="0.520833" stop-color="#212121"/>
		</linearGradient>
		<linearGradient id="paint64_linear" x1="405.574" y1="675.221" x2="405.574" y2="792.825" gradientUnits="userSpaceOnUse">
			<stop stop-color="#FF0000"/>
			<stop offset="0.520833" stop-color="#212121"/>
		</linearGradient>
		<linearGradient id="paint65_linear" x1="720.951" y1="552.633" x2="720.951" y2="670.237" gradientUnits="userSpaceOnUse">
			<stop stop-color="#FF0000"/>
			<stop offset="0.520833" stop-color="#212121"/>
		</linearGradient>
		<linearGradient id="paint66_linear" x1="563.267" y1="613.931" x2="563.267" y2="731.535" gradientUnits="userSpaceOnUse">
			<stop stop-color="#FF0000"/>
			<stop offset="0.520833" stop-color="#212121"/>
		</linearGradient>
		<linearGradient id="paint67_linear" x1="405.574" y1="552.633" x2="405.574" y2="670.237" gradientUnits="userSpaceOnUse">
			<stop stop-color="#FF0000"/>
			<stop offset="0.520833" stop-color="#212121"/>
		</linearGradient>
		<linearGradient id="paint68_linear" x1="563.267" y1="491.343" x2="563.267" y2="608.947" gradientUnits="userSpaceOnUse">
			<stop stop-color="#FF0000"/>
			<stop offset="0.520833" stop-color="#212121"/>
		</linearGradient>
		<linearGradient id="paint69_linear" x1="405.574" y1="184.877" x2="405.574" y2="302.481" gradientUnits="userSpaceOnUse">
			<stop stop-color="#FF0000"/>
			<stop offset="0.520833" stop-color="#212121"/>
		</linearGradient>
		<linearGradient id="paint70_linear" x1="247.801" y1="246.167" x2="247.801" y2="363.771" gradientUnits="userSpaceOnUse">
			<stop stop-color="#FF0000"/>
			<stop offset="0.520833" stop-color="#212121"/>
		</linearGradient>
		<linearGradient id="paint71_linear" x1="90.1072" y1="184.877" x2="90.1072" y2="302.481" gradientUnits="userSpaceOnUse">
			<stop stop-color="#FF0000"/>
			<stop offset="0.520833" stop-color="#212121"/>
		</linearGradient>
		<linearGradient id="paint72_linear" x1="405.574" y1="62.29" x2="405.574" y2="179.894" gradientUnits="userSpaceOnUse">
			<stop stop-color="#FF0000"/>
			<stop offset="0.520833" stop-color="#212121"/>
		</linearGradient>
		<linearGradient id="paint73_linear" x1="247.801" y1="123.588" x2="247.801" y2="241.192" gradientUnits="userSpaceOnUse">
			<stop stop-color="#FF0000"/>
			<stop offset="0.520833" stop-color="#212121"/>
		</linearGradient>
		<linearGradient id="paint74_linear" x1="90.1072" y1="62.29" x2="90.1072" y2="179.894" gradientUnits="userSpaceOnUse">
			<stop stop-color="#FF0000"/>
			<stop offset="0.520833" stop-color="#212121"/>
		</linearGradient>
		<linearGradient id="paint75_linear" x1="247.801" y1="1" x2="247.801" y2="118.604" gradientUnits="userSpaceOnUse">
			<stop stop-color="#FF0000"/>
			<stop offset="0.520833" stop-color="#212121"/>
		</linearGradient>
		<linearGradient id="paint76_linear" x1="405.574" y1="430.045" x2="405.574" y2="547.649" gradientUnits="userSpaceOnUse">
			<stop stop-color="#FF0000"/>
			<stop offset="0.520833" stop-color="#212121"/>
		</linearGradient>
		<linearGradient id="paint77_linear" x1="247.801" y1="491.334" x2="247.801" y2="608.938" gradientUnits="userSpaceOnUse">
			<stop stop-color="#FF0000"/>
			<stop offset="0.520833" stop-color="#212121"/>
		</linearGradient>
		<linearGradient id="paint78_linear" x1="90.1072" y1="430.045" x2="90.1072" y2="547.649" gradientUnits="userSpaceOnUse">
			<stop stop-color="#FF0000"/>
			<stop offset="0.520833" stop-color="#212121"/>
		</linearGradient>
		<linearGradient id="paint79_linear" x1="405.574" y1="307.456" x2="405.574" y2="425.06" gradientUnits="userSpaceOnUse">
			<stop stop-color="#FF0000"/>
			<stop offset="0.520833" stop-color="#212121"/>
		</linearGradient>
		<linearGradient id="paint80_linear" x1="247.801" y1="368.755" x2="247.801" y2="486.359" gradientUnits="userSpaceOnUse">
			<stop stop-color="#FF0000"/>
			<stop offset="0.520833" stop-color="#212121"/>
		</linearGradient>
		<linearGradient id="paint81_linear" x1="90.1072" y1="307.456" x2="90.1072" y2="425.06" gradientUnits="userSpaceOnUse">
			<stop stop-color="#FF0000"/>
			<stop offset="0.520833" stop-color="#212121"/>
		</linearGradient>
		<linearGradient id="paint82_linear" x1="247.801" y1="246.167" x2="247.801" y2="363.771" gradientUnits="userSpaceOnUse">
			<stop stop-color="#FF0000"/>
			<stop offset="0.520833" stop-color="#212121"/>
		</linearGradient>
		<linearGradient id="paint83_linear" x1="406.107" y1="798" x2="406.107" y2="915.604" gradientUnits="userSpaceOnUse">
			<stop stop-color="#FF0000"/>
			<stop offset="0.520833" stop-color="#212121"/>
		</linearGradient>
		<linearGradient id="paint84_linear" x1="563.107" y1="864" x2="563.107" y2="981.604" gradientUnits="userSpaceOnUse">
			<stop stop-color="#FF0000"/>
			<stop offset="0.520833" stop-color="#212121"/>
		</linearGradient>
		<linearGradient id="paint85_linear" x1="563.107" y1="982" x2="563.107" y2="1099.6" gradientUnits="userSpaceOnUse">
			<stop stop-color="#FF0000"/>
			<stop offset="0.520833" stop-color="#212121"/>
		</linearGradient>
		<linearGradient id="paint86_linear" x1="247.801" y1="736.511" x2="247.801" y2="854.115" gradientUnits="userSpaceOnUse">
			<stop stop-color="#FF0000"/>
			<stop offset="0.520833" stop-color="#212121"/>
		</linearGradient>
		<linearGradient id="paint87_linear" x1="90.1072" y1="675.221" x2="90.1072" y2="792.825" gradientUnits="userSpaceOnUse">
			<stop stop-color="#FF0000"/>
			<stop offset="0.520833" stop-color="#212121"/>
		</linearGradient>
		<linearGradient id="paint88_linear" x1="405.574" y1="552.633" x2="405.574" y2="670.237" gradientUnits="userSpaceOnUse">
			<stop stop-color="#FF0000"/>
			<stop offset="0.520833" stop-color="#212121"/>
		</linearGradient>
		<linearGradient id="paint89_linear" x1="247.801" y1="613.931" x2="247.801" y2="731.535" gradientUnits="userSpaceOnUse">
			<stop stop-color="#FF0000"/>
			<stop offset="0.520833" stop-color="#212121"/>
		</linearGradient>
		<linearGradient id="paint90_linear" x1="90.1072" y1="552.633" x2="90.1072" y2="670.237" gradientUnits="userSpaceOnUse">
			<stop stop-color="#FF0000"/>
			<stop offset="0.520833" stop-color="#212121"/>
		</linearGradient>
		<linearGradient id="paint91_linear" x1="247.801" y1="491.343" x2="247.801" y2="608.947" gradientUnits="userSpaceOnUse">
			<stop stop-color="#FF0000"/>
			<stop offset="0.520833" stop-color="#212121"/>
		</linearGradient>
		<linearGradient id="paint92_linear" x1="405.574" y1="920.476" x2="405.574" y2="1038.08" gradientUnits="userSpaceOnUse">
			<stop stop-color="#FF0000"/>
			<stop offset="0.520833" stop-color="#212121"/>
		</linearGradient>
		<linearGradient id="paint93_linear" x1="247.801" y1="981.774" x2="247.801" y2="1099.38" gradientUnits="userSpaceOnUse">
			<stop stop-color="#FF0000"/>
			<stop offset="0.520833" stop-color="#212121"/>
		</linearGradient>
		<linearGradient id="paint94_linear" x1="90.1072" y1="920.476" x2="90.1072" y2="1038.08" gradientUnits="userSpaceOnUse">
			<stop stop-color="#FF0000"/>
			<stop offset="0.520833" stop-color="#212121"/>
		</linearGradient>
		<linearGradient id="paint95_linear" x1="247.801" y1="859.099" x2="247.801" y2="976.703" gradientUnits="userSpaceOnUse">
			<stop stop-color="#FF0000"/>
			<stop offset="0.520833" stop-color="#212121"/>
		</linearGradient>
		<linearGradient id="paint96_linear" x1="90.1072" y1="797.801" x2="90.1072" y2="915.405" gradientUnits="userSpaceOnUse">
			<stop stop-color="#FF0000"/>
			<stop offset="0.520833" stop-color="#212121"/>
		</linearGradient>
		<linearGradient id="paint97_linear" x1="247.801" y1="736.511" x2="247.801" y2="854.115" gradientUnits="userSpaceOnUse">
			<stop stop-color="#FF0000"/>
			<stop offset="0.520833" stop-color="#212121"/>
		</linearGradient>
	</defs>
</svg>
