<svg width="88" height="88" viewBox="0 0 88 88" fill="none" xmlns="http://www.w3.org/2000/svg">
<circle cx="44" cy="44" r="44" fill="#EE3D43"/>
<path d="M35.9058 39.2444C36.2666 39.5021 36.7747 39.4211 37.0325 39.0603C38.579 36.8952 41.0902 35.5991 43.7486 35.5991C46.5102 35.5991 49.0729 36.9688 50.6121 39.2665C50.7667 39.5021 51.0245 39.6273 51.2822 39.6273C51.4369 39.6273 51.5915 39.5831 51.7314 39.4874C52.0996 39.237 52.2027 38.7362 51.9524 38.368C50.1187 35.6212 47.0478 33.9863 43.7486 33.9863C40.5673 33.9863 37.5701 35.5328 35.7143 38.1176C35.4565 38.4859 35.5449 38.9866 35.9058 39.2444Z" fill="white"/>
<path d="M68.8384 36.7852C66.9826 34.981 64.5082 33.9868 61.8718 33.9868C56.739 33.9868 52.6813 37.9414 52.0112 43.5971C51.4294 48.4943 48.1081 51.7861 43.7559 51.7861C39.411 51.7861 36.156 48.5017 35.6626 43.6118C35.0956 38.0371 30.8833 33.9868 25.64 33.9868C21.1993 33.9868 17.289 36.9693 16.1254 41.2479C15.9119 42.0359 15.794 42.8533 15.7793 43.6781C15.7793 43.6855 15.7793 43.6855 15.7793 43.6928C15.7793 43.7002 15.7793 43.7002 15.7793 43.7076C15.875 49.054 20.2936 53.3989 25.64 53.3989C28.9318 53.3989 31.9879 51.7714 33.829 49.0392C34.0793 48.671 33.9762 48.1703 33.608 47.9199C33.2398 47.6695 32.7391 47.7726 32.4887 48.1408C30.9496 50.4237 28.3868 51.7935 25.64 51.7935C21.1699 51.7935 17.4731 48.1703 17.3921 43.7076C17.4068 43.0227 17.5025 42.3452 17.6793 41.6898C18.6587 38.1108 21.9284 35.6143 25.64 35.6143C30.11 35.6143 33.5712 38.9724 34.0572 43.7886C34.6317 49.4516 38.6157 53.4136 43.7559 53.4136C48.8888 53.4136 52.9464 49.459 53.6166 43.8033C54.1983 38.9061 57.5196 35.6143 61.8718 35.6143C66.2241 35.6143 69.6853 38.7515 70.0829 42.8975H58.2634C57.8215 42.8975 57.4533 43.2583 57.4533 43.7002C57.4533 44.1421 57.8142 44.5029 58.2634 44.5029H70.9224C71.3643 44.5029 71.7251 44.1421 71.7251 43.7002C71.7325 41.0638 70.7015 38.6115 68.8384 36.7852Z" fill="white"/>
<path d="M70.3775 46.8514C69.9798 46.6526 69.4938 46.8146 69.2949 47.2196C67.9031 50.0328 65.0679 51.7781 61.8939 51.7781C59.1176 51.7781 56.5549 50.4157 55.0231 48.1402C54.7727 47.7719 54.272 47.6688 53.9037 47.9192C53.5355 48.1696 53.4324 48.6704 53.6828 49.0386C55.5091 51.7633 58.58 53.3908 61.8939 53.3908C65.6865 53.3908 69.0814 51.2994 70.7457 47.934C70.9371 47.5289 70.7751 47.0429 70.3775 46.8514Z" fill="white"/>
</svg>
