<svg width="88" height="88" viewBox="0 0 88 88" fill="none" xmlns="http://www.w3.org/2000/svg">
<circle cx="44" cy="44" r="44" fill="#EE3D43"/>
<path d="M35.9059 39.2441C36.2667 39.5019 36.7749 39.4209 37.0326 39.06C38.5791 36.8949 41.0903 35.5988 43.7488 35.5988C46.5103 35.5988 49.0731 36.9686 50.6122 39.2662C50.7668 39.5019 51.0246 39.6271 51.2823 39.6271C51.437 39.6271 51.5916 39.5829 51.7315 39.4871C52.0998 39.2368 52.2029 38.736 51.9525 38.3678C50.1188 35.6209 47.0479 33.9861 43.7488 33.9861C40.5674 33.9861 37.5702 35.5326 35.7144 38.1174C35.4567 38.4856 35.545 38.9864 35.9059 39.2441Z" fill="white"/>
<path d="M68.8384 36.785C66.9826 34.9807 64.5082 33.9866 61.8718 33.9866C56.739 33.9866 52.6813 37.9412 52.0112 43.5969C51.4294 48.4941 48.1081 51.7859 43.7559 51.7859C39.411 51.7859 36.156 48.5014 35.6626 43.6116C35.0956 38.0369 30.8833 33.9866 25.64 33.9866C21.1993 33.9866 17.289 36.9691 16.1254 41.2477C15.9119 42.0356 15.794 42.8531 15.7793 43.6779C15.7793 43.6852 15.7793 43.6852 15.7793 43.6926C15.7793 43.7 15.7793 43.7 15.7793 43.7073C15.875 49.0537 20.2936 53.3986 25.64 53.3986C28.9318 53.3986 31.9879 51.7711 33.829 49.039C34.0793 48.6708 33.9762 48.17 33.608 47.9196C33.2398 47.6693 32.7391 47.7724 32.4887 48.1406C30.9496 50.4235 28.3868 51.7932 25.64 51.7932C21.1699 51.7932 17.4731 48.17 17.3921 43.7073C17.4068 43.0224 17.5025 42.3449 17.6793 41.6895C18.6587 38.1105 21.9284 35.6141 25.64 35.6141C30.11 35.6141 33.5712 38.9721 34.0572 43.7883C34.6317 49.4514 38.6157 53.4133 43.7559 53.4133C48.8888 53.4133 52.9464 49.4588 53.6166 43.8031C54.1983 38.9059 57.5196 35.6141 61.8718 35.6141C66.2241 35.6141 69.6853 38.7512 70.0829 42.8973H58.2634C57.8215 42.8973 57.4533 43.2581 57.4533 43.7C57.4533 44.1418 57.8142 44.5027 58.2634 44.5027H70.9224C71.3643 44.5027 71.7251 44.1418 71.7251 43.7C71.7325 41.0636 70.7015 38.6113 68.8384 36.785Z" fill="white"/>
<path d="M70.3773 46.8512C69.9796 46.6523 69.4936 46.8144 69.2947 47.2194C67.9029 50.0325 65.0677 51.7778 61.8937 51.7778C59.1174 51.7778 56.5547 50.4154 55.0229 48.1399C54.7725 47.7717 54.2718 47.6686 53.9036 47.919C53.5354 48.1694 53.4323 48.6701 53.6826 49.0383C55.509 51.7631 58.5798 53.3906 61.8937 53.3906C65.6863 53.3906 69.0812 51.2992 70.7455 47.9337C70.937 47.5287 70.775 47.0426 70.3773 46.8512Z" fill="white"/>
</svg>
