<svg width="646" height="224" viewBox="0 0 646 224" fill="none" xmlns="http://www.w3.org/2000/svg">
<path d="M232.068 60.6277C236.229 63.5997 242.088 62.6657 245.06 58.5049C262.891 33.5406 291.847 18.5959 322.5 18.5959C354.342 18.5959 383.892 34.3897 401.639 60.8825C403.422 63.5997 406.394 65.0432 409.366 65.0432C411.149 65.0432 412.932 64.5337 414.546 63.4299C418.791 60.5428 419.98 54.7688 417.093 50.5231C395.95 18.8507 360.541 0 322.5 0C285.818 0 251.258 17.8317 229.86 47.6361C226.888 51.8817 227.907 57.6558 232.068 60.6277Z" fill="#EE3D43"/>
<path d="M611.797 32.2669C590.399 11.4632 561.868 0 531.469 0C472.285 0 425.498 45.5982 417.771 110.811C411.063 167.278 372.767 205.234 322.584 205.234C272.485 205.234 234.954 167.363 229.265 110.981C222.726 46.7021 174.156 0 113.698 0C62.4958 0 17.4071 34.3897 3.9909 83.724C1.52843 92.8097 0.169826 102.235 0 111.745C0 111.83 0 111.83 0 111.915C0 112 0 112 0 112.085C1.10387 173.732 52.0515 223.83 113.698 223.83C151.654 223.83 186.893 205.064 208.121 173.562C211.008 169.316 209.82 163.542 205.574 160.655C201.328 157.768 195.554 158.957 192.667 163.202C174.92 189.525 145.371 205.319 113.698 205.319C62.1562 205.319 19.5299 163.542 18.5959 112.085C18.7657 104.188 19.8696 96.3761 21.9075 88.8188C33.2009 47.5512 70.9022 18.7657 113.698 18.7657C165.24 18.7657 205.149 57.486 210.754 113.019C217.377 178.317 263.315 224 322.584 224C381.768 224 428.555 178.402 436.282 113.189C442.99 56.7218 481.286 18.7657 531.469 18.7657C581.653 18.7657 621.562 54.9386 626.147 102.745H489.862C484.767 102.745 480.522 106.905 480.522 112C480.522 117.095 484.682 121.256 489.862 121.256H635.827C640.922 121.256 645.083 117.095 645.083 112C645.168 81.6012 633.28 53.3253 611.797 32.2669Z" fill="#EE3D43"/>
<path d="M629.544 148.342C624.959 146.05 619.355 147.918 617.062 152.588C601.013 185.025 568.322 205.149 531.725 205.149C499.712 205.149 470.163 189.44 452.501 163.202C449.614 158.956 443.84 157.768 439.594 160.655C435.349 163.542 434.16 169.316 437.047 173.561C458.105 204.979 493.514 223.745 531.725 223.745C575.455 223.745 614.6 199.63 633.79 160.824C635.998 156.154 634.129 150.55 629.544 148.342Z" fill="#EE3D43"/>
</svg>
