<svg width="1442" height="1071" viewBox="0 0 1442 1071" fill="none" xmlns="http://www.w3.org/2000/svg">
    <g id="svgbg">
        <path d="M1441 272.502C1441 224.108 1401.13 184.877 1351.85 184.877C1302.66 184.877 1262.79 224.108 1262.79 272.502" stroke="url(#paint0_linear)" stroke-miterlimit="10" stroke-linecap="round" stroke-linejoin="round"/>
        <path d="M1283.32 333.792C1283.32 285.398 1243.44 246.167 1194.16 246.167C1144.98 246.167 1105.1 285.398 1105.1 333.792" stroke="url(#paint1_linear)" stroke-miterlimit="10" stroke-linecap="round" stroke-linejoin="round"/>
        <path d="M1441 149.915C1441 101.521 1401.13 62.2903 1351.85 62.2903C1302.66 62.2903 1262.79 101.521 1262.79 149.915" stroke="url(#paint2_linear)" stroke-miterlimit="10" stroke-linecap="round" stroke-linejoin="round"/>
        <path d="M1283.32 211.213C1283.32 162.819 1243.44 123.588 1194.16 123.588C1144.98 123.588 1105.1 162.819 1105.1 211.213" stroke="url(#paint3_linear)" stroke-miterlimit="10" stroke-linecap="round" stroke-linejoin="round"/>
        <path d="M1283.32 88.6247C1283.32 40.231 1243.44 1 1194.16 1C1144.98 1 1105.1 40.231 1105.1 88.6247" stroke="url(#paint4_linear)" stroke-miterlimit="10" stroke-linecap="round" stroke-linejoin="round"/>
        <path d="M1441 517.67C1441 469.365 1401.13 430.045 1351.85 430.045C1302.66 430.045 1262.79 469.276 1262.79 517.67" stroke="url(#paint5_linear)" stroke-miterlimit="10" stroke-linecap="round" stroke-linejoin="round"/>
        <path d="M1283.32 578.959C1283.32 530.654 1243.44 491.334 1194.16 491.334C1144.98 491.334 1105.1 530.565 1105.1 578.959" stroke="url(#paint6_linear)" stroke-miterlimit="10" stroke-linecap="round" stroke-linejoin="round"/>
        <path d="M1441 395.082C1441 346.777 1401.13 307.457 1351.85 307.457C1302.66 307.457 1262.79 346.688 1262.79 395.082" stroke="url(#paint7_linear)" stroke-miterlimit="10" stroke-linecap="round" stroke-linejoin="round"/>
        <path d="M1283.32 456.379C1283.32 408.075 1243.44 368.755 1194.16 368.755C1144.98 368.755 1105.1 407.986 1105.1 456.379" stroke="url(#paint8_linear)" stroke-miterlimit="10" stroke-linecap="round" stroke-linejoin="round"/>
        <path d="M1441 762.846C1441 714.541 1401.13 675.31 1351.85 675.221C1302.66 675.221 1262.79 714.452 1262.79 762.846" stroke="url(#paint9_linear)" stroke-miterlimit="10" stroke-linecap="round" stroke-linejoin="round"/>
        <path d="M1441 640.258C1441 591.953 1401.13 552.722 1351.85 552.633C1302.66 552.633 1262.79 591.864 1262.79 640.258" stroke="url(#paint10_linear)" stroke-miterlimit="10" stroke-linecap="round" stroke-linejoin="round"/>
        <path d="M1283.32 701.556C1283.32 653.251 1243.44 614.02 1194.16 613.931C1144.98 613.931 1105.1 653.162 1105.1 701.556" stroke="url(#paint11_linear)" stroke-miterlimit="10" stroke-linecap="round" stroke-linejoin="round"/>
        <path d="M1125.53 640.258C1125.53 591.953 1085.75 552.722 1036.38 552.633C987.194 552.633 947.32 591.864 947.32 640.258" stroke="url(#paint12_linear)" stroke-miterlimit="10" stroke-linecap="round" stroke-linejoin="round"/>
        <path d="M1441 1008.1C1441 959.707 1401.13 920.476 1351.85 920.476C1302.66 920.476 1262.79 959.707 1262.79 1008.1" stroke="url(#paint13_linear)" stroke-miterlimit="10" stroke-linecap="round" stroke-linejoin="round"/>
        <path d="M1283.32 1069.4C1283.32 1021.01 1243.44 981.775 1194.16 981.775C1144.98 981.775 1105.1 1021.01 1105.1 1069.4" stroke="url(#paint14_linear)" stroke-miterlimit="10" stroke-linecap="round" stroke-linejoin="round"/>
        <path d="M1125.53 1008.1C1125.53 959.707 1085.75 920.476 1036.38 920.476C987.194 920.476 947.32 959.707 947.32 1008.1" stroke="url(#paint15_linear)" stroke-miterlimit="10" stroke-linecap="round" stroke-linejoin="round"/>
        <path d="M1441 885.426C1441 837.121 1401.13 797.89 1351.85 797.802C1302.66 797.802 1262.79 837.033 1262.79 885.426" stroke="url(#paint16_linear)" stroke-miterlimit="10" stroke-linecap="round" stroke-linejoin="round"/>
        <path d="M1283.32 946.724C1283.32 898.419 1243.44 859.188 1194.16 859.099C1144.98 859.099 1105.1 898.33 1105.1 946.724" stroke="url(#paint17_linear)" stroke-miterlimit="10" stroke-linecap="round" stroke-linejoin="round"/>
        <path d="M1125.53 885.426C1125.53 837.121 1085.75 797.89 1036.38 797.802C987.194 797.802 947.32 837.033 947.32 885.426" stroke="url(#paint18_linear)" stroke-miterlimit="10" stroke-linecap="round" stroke-linejoin="round"/>
        <path d="M1283.32 824.136C1283.32 775.831 1243.44 736.6 1194.16 736.511C1144.98 736.511 1105.1 775.742 1105.1 824.136" stroke="url(#paint19_linear)" stroke-miterlimit="10" stroke-linecap="round" stroke-linejoin="round"/>
        <path d="M1125.52 272.502C1125.52 224.108 1085.74 184.877 1036.37 184.877C987.184 184.877 947.309 224.108 947.309 272.502" stroke="url(#paint20_linear)" stroke-miterlimit="10" stroke-linecap="round" stroke-linejoin="round"/>
        <path d="M1125.52 149.915C1125.52 101.521 1085.74 62.2903 1036.37 62.2903C987.184 62.2903 947.309 101.521 947.309 149.915" stroke="url(#paint21_linear)" stroke-miterlimit="10" stroke-linecap="round" stroke-linejoin="round"/>
        <path d="M967.839 211.213C967.839 162.819 927.964 123.588 878.686 123.588C829.499 123.588 789.625 162.819 789.625 211.213" stroke="url(#paint22_linear)" stroke-miterlimit="10" stroke-linecap="round" stroke-linejoin="round"/>
        <path d="M967.839 88.6247C967.839 40.231 927.964 1 878.686 1C829.499 1 789.625 40.231 789.625 88.6247" stroke="url(#paint23_linear)" stroke-miterlimit="10" stroke-linecap="round" stroke-linejoin="round"/>
        <path d="M1125.52 517.669C1125.52 469.365 1085.74 430.045 1036.37 430.045C987.184 430.045 947.31 469.276 947.31 517.669" stroke="url(#paint24_linear)" stroke-miterlimit="10" stroke-linecap="round" stroke-linejoin="round"/>
        <path d="M1125.52 395.081C1125.52 346.776 1085.74 307.457 1036.37 307.457C987.184 307.457 947.31 346.687 947.31 395.081" stroke="url(#paint25_linear)" stroke-miterlimit="10" stroke-linecap="round" stroke-linejoin="round"/>
        <path d="M967.839 456.379C967.839 408.074 927.964 368.754 878.686 368.754C829.499 368.754 789.625 407.985 789.625 456.379" stroke="url(#paint26_linear)" stroke-miterlimit="10" stroke-linecap="round" stroke-linejoin="round"/>
        <path d="M967.839 333.792C967.839 285.398 927.964 246.167 878.686 246.167C829.499 246.167 789.625 285.398 789.625 333.792" stroke="url(#paint27_linear)" stroke-miterlimit="10" stroke-linecap="round" stroke-linejoin="round"/>
        <path d="M1125.52 762.846C1125.52 714.541 1085.74 675.31 1036.37 675.221C987.184 675.221 947.31 714.452 947.31 762.846" stroke="url(#paint28_linear)" stroke-miterlimit="10" stroke-linecap="round" stroke-linejoin="round"/>
        <path d="M967.839 701.556C967.839 653.251 927.965 614.02 878.687 613.931C829.499 613.931 789.625 653.162 789.625 701.556" stroke="url(#paint29_linear)" stroke-miterlimit="10" stroke-linecap="round" stroke-linejoin="round"/>
        <path d="M810.058 640.258C810.058 591.953 770.274 552.723 720.906 552.634C671.718 552.634 631.844 591.864 631.844 640.258" stroke="url(#paint30_linear)" stroke-miterlimit="10" stroke-linecap="round" stroke-linejoin="round"/>
        <path d="M967.839 578.968C967.839 530.663 927.965 491.343 878.687 491.343C829.499 491.343 789.625 530.574 789.625 578.968" stroke="url(#paint31_linear)" stroke-miterlimit="10" stroke-linecap="round" stroke-linejoin="round"/>
        <path d="M967.839 1069.4C967.839 1021.01 927.965 981.775 878.687 981.775C829.499 981.775 789.625 1021.01 789.625 1069.4" stroke="url(#paint32_linear)" stroke-miterlimit="10" stroke-linecap="round" stroke-linejoin="round"/>
        <path d="M810.058 1008.1C810.058 959.707 770.274 920.476 720.906 920.476C671.718 920.476 631.844 959.707 631.844 1008.1" stroke="url(#paint33_linear)" stroke-miterlimit="10" stroke-linecap="round" stroke-linejoin="round"/>
        <path d="M967.839 946.724C967.839 898.419 927.965 859.188 878.687 859.099C829.499 859.099 789.625 898.33 789.625 946.724" stroke="url(#paint34_linear)" stroke-miterlimit="10" stroke-linecap="round" stroke-linejoin="round"/>
        <path d="M810.058 885.426C810.058 837.121 770.274 797.89 720.906 797.801C671.718 797.801 631.844 837.032 631.844 885.426" stroke="url(#paint35_linear)" stroke-miterlimit="10" stroke-linecap="round" stroke-linejoin="round"/>
        <path d="M967.839 824.136C967.839 775.831 927.965 736.6 878.687 736.511C829.499 736.511 789.625 775.742 789.625 824.136" stroke="url(#paint36_linear)" stroke-miterlimit="10" stroke-linecap="round" stroke-linejoin="round"/>
        <path d="M810.059 272.502C810.059 224.108 770.275 184.877 720.906 184.877C671.719 184.877 631.844 224.108 631.844 272.502" stroke="url(#paint37_linear)" stroke-miterlimit="10" stroke-linecap="round" stroke-linejoin="round"/>
        <path d="M652.374 333.792C652.374 285.398 612.5 246.167 563.222 246.167C514.034 246.167 474.16 285.398 474.16 333.792" stroke="url(#paint38_linear)" stroke-miterlimit="10" stroke-linecap="round" stroke-linejoin="round"/>
        <path d="M494.681 272.502C494.681 224.108 454.806 184.877 405.528 184.877C356.341 184.877 316.466 224.108 316.466 272.502" stroke="url(#paint39_linear)" stroke-miterlimit="10" stroke-linecap="round" stroke-linejoin="round"/>
        <path d="M810.059 149.915C810.059 101.521 770.275 62.2903 720.906 62.2903C671.719 62.2903 631.844 101.521 631.844 149.915" stroke="url(#paint40_linear)" stroke-miterlimit="10" stroke-linecap="round" stroke-linejoin="round"/>
        <path d="M652.374 211.213C652.374 162.819 612.5 123.588 563.222 123.588C514.034 123.588 474.16 162.819 474.16 211.213" stroke="url(#paint41_linear)" stroke-miterlimit="10" stroke-linecap="round" stroke-linejoin="round"/>
        <path d="M494.681 149.915C494.681 101.521 454.806 62.2903 405.528 62.2903C356.341 62.2903 316.466 101.521 316.466 149.915" stroke="url(#paint42_linear)" stroke-miterlimit="10" stroke-linecap="round" stroke-linejoin="round"/>
        <path d="M652.374 88.6247C652.374 40.231 612.5 1 563.222 1C514.034 1 474.16 40.231 474.16 88.6247" stroke="url(#paint43_linear)" stroke-miterlimit="10" stroke-linecap="round" stroke-linejoin="round"/>
        <path d="M810.059 517.669C810.059 469.365 770.275 430.045 720.906 430.045C671.719 430.045 631.844 469.276 631.844 517.669" stroke="url(#paint44_linear)" stroke-miterlimit="10" stroke-linecap="round" stroke-linejoin="round"/>
        <path d="M810.059 395.081C810.059 346.776 770.275 307.456 720.906 307.456C671.719 307.456 631.844 346.687 631.844 395.081" stroke="url(#paint45_linear)" stroke-miterlimit="10" stroke-linecap="round" stroke-linejoin="round"/>
        <path d="M652.374 456.38C652.374 408.075 612.5 368.755 563.222 368.755C514.034 368.755 474.16 407.986 474.16 456.38" stroke="url(#paint46_linear)" stroke-miterlimit="10" stroke-linecap="round" stroke-linejoin="round"/>
        <path d="M810.059 762.846C810.059 714.541 770.275 675.31 720.906 675.221C671.719 675.221 631.844 714.452 631.844 762.846" stroke="url(#paint47_linear)" stroke-miterlimit="10" stroke-linecap="round" stroke-linejoin="round"/>
        <path d="M652.374 824.136C652.374 775.831 612.5 736.6 563.222 736.511C514.034 736.511 474.16 775.742 474.16 824.136" stroke="url(#paint48_linear)" stroke-miterlimit="10" stroke-linecap="round" stroke-linejoin="round"/>
        <path d="M494.681 762.846C494.681 714.541 454.806 675.31 405.528 675.221C356.341 675.221 316.466 714.452 316.466 762.846" stroke="url(#paint49_linear)" stroke-miterlimit="10" stroke-linecap="round" stroke-linejoin="round"/>
        <path d="M652.374 701.556C652.374 653.251 612.5 614.02 563.222 613.931C514.034 613.931 474.16 653.162 474.16 701.556" stroke="url(#paint50_linear)" stroke-miterlimit="10" stroke-linecap="round" stroke-linejoin="round"/>
        <path d="M494.681 640.258C494.681 591.953 454.806 552.723 405.528 552.634C356.341 552.634 316.466 591.864 316.466 640.258" stroke="url(#paint51_linear)" stroke-miterlimit="10" stroke-linecap="round" stroke-linejoin="round"/>
        <path d="M652.374 578.968C652.374 530.663 612.5 491.343 563.222 491.343C514.034 491.343 474.16 530.574 474.16 578.968" stroke="url(#paint52_linear)" stroke-miterlimit="10" stroke-linecap="round" stroke-linejoin="round"/>
        <path d="M336.908 333.792C336.908 285.398 297.124 246.167 247.755 246.167C198.568 246.167 158.693 285.398 158.693 333.792" stroke="url(#paint53_linear)" stroke-miterlimit="10" stroke-linecap="round" stroke-linejoin="round"/>
        <path d="M179.214 272.502C179.214 224.108 139.34 184.877 90.0618 184.877C40.8743 184.877 1 224.108 1 272.502" stroke="url(#paint54_linear)" stroke-miterlimit="10" stroke-linecap="round" stroke-linejoin="round"/>
        <path d="M336.908 211.213C336.908 162.819 297.124 123.588 247.755 123.588C198.568 123.588 158.693 162.819 158.693 211.213" stroke="url(#paint55_linear)" stroke-miterlimit="10" stroke-linecap="round" stroke-linejoin="round"/>
        <path d="M179.214 149.915C179.214 101.521 139.34 62.2903 90.0618 62.2903C40.8743 62.2903 1 101.521 1 149.915" stroke="url(#paint56_linear)" stroke-miterlimit="10" stroke-linecap="round" stroke-linejoin="round"/>
        <path d="M336.909 88.6247C336.909 40.231 297.124 1 247.756 1C198.568 1 158.694 40.231 158.694 88.6247" stroke="url(#paint57_linear)" stroke-miterlimit="10" stroke-linecap="round" stroke-linejoin="round"/>
        <path d="M494.681 517.669C494.681 469.365 454.806 430.045 405.528 430.045C356.341 430.045 316.466 469.276 316.466 517.669" stroke="url(#paint58_linear)" stroke-miterlimit="10" stroke-linecap="round" stroke-linejoin="round"/>
        <path d="M179.214 517.669C179.214 469.365 139.34 430.045 90.0618 430.045C40.8743 430.045 1 469.276 1 517.669" stroke="url(#paint59_linear)" stroke-miterlimit="10" stroke-linecap="round" stroke-linejoin="round"/>
        <path d="M494.681 395.081C494.681 346.776 454.806 307.456 405.528 307.456C356.341 307.456 316.466 346.687 316.466 395.081" stroke="url(#paint60_linear)" stroke-miterlimit="10" stroke-linecap="round" stroke-linejoin="round"/>
        <path d="M336.908 456.38C336.908 408.075 297.124 368.755 247.755 368.755C198.568 368.755 158.693 407.986 158.693 456.38" stroke="url(#paint61_linear)" stroke-miterlimit="10" stroke-linecap="round" stroke-linejoin="round"/>
        <path d="M179.214 395.081C179.214 346.776 139.34 307.456 90.0618 307.456C40.8743 307.456 1 346.687 1 395.081" stroke="url(#paint62_linear)" stroke-miterlimit="10" stroke-linecap="round" stroke-linejoin="round"/>
        <path d="M495.214 885.625C495.214 837.32 455.34 798.089 406.062 798C356.875 798 317 837.231 317 885.625" stroke="url(#paint63_linear)" stroke-miterlimit="10" stroke-linecap="round" stroke-linejoin="round"/>
        <path d="M652.214 951.625C652.214 903.32 612.34 864.089 563.062 864C513.875 864 474 903.231 474 951.625" stroke="url(#paint64_linear)" stroke-miterlimit="10" stroke-linecap="round" stroke-linejoin="round"/>
        <path d="M652.214 1069.62C652.214 1021.32 612.34 982.089 563.062 982C513.875 982 474 1021.23 474 1069.62" stroke="url(#paint65_linear)" stroke-miterlimit="10" stroke-linecap="round" stroke-linejoin="round"/>
        <path d="M336.908 824.136C336.908 775.831 297.124 736.6 247.755 736.511C198.568 736.511 158.693 775.742 158.693 824.136" stroke="url(#paint66_linear)" stroke-miterlimit="10" stroke-linecap="round" stroke-linejoin="round"/>
        <path d="M179.214 762.846C179.214 714.541 139.34 675.31 90.0618 675.221C40.8743 675.221 1 714.452 1 762.846" stroke="url(#paint67_linear)" stroke-miterlimit="10" stroke-linecap="round" stroke-linejoin="round"/>
        <path d="M336.818 704.225C336.908 703.335 336.908 702.445 336.908 701.556C336.908 653.251 297.124 614.02 247.755 613.931C198.568 613.931 158.693 653.162 158.693 701.556" stroke="url(#paint68_linear)" stroke-miterlimit="10" stroke-linecap="round" stroke-linejoin="round"/>
        <path d="M179.214 640.258C179.214 591.953 139.34 552.723 90.0618 552.634C40.8743 552.634 1 591.864 1 640.258" stroke="url(#paint69_linear)" stroke-miterlimit="10" stroke-linecap="round" stroke-linejoin="round"/>
        <path d="M336.909 578.968C336.909 530.663 297.124 491.343 247.756 491.343C198.568 491.343 158.694 530.574 158.694 578.968" stroke="url(#paint70_linear)" stroke-miterlimit="10" stroke-linecap="round" stroke-linejoin="round"/>
        <path d="M494.681 1008.1C494.681 959.707 454.806 920.476 405.528 920.476C356.341 920.476 316.466 959.707 316.466 1008.1" stroke="url(#paint71_linear)" stroke-miterlimit="10" stroke-linecap="round" stroke-linejoin="round"/>
        <path d="M336.908 1069.4C336.908 1021.01 297.124 981.774 247.755 981.774C198.568 981.774 158.693 1021.01 158.693 1069.4" stroke="url(#paint72_linear)" stroke-miterlimit="10" stroke-linecap="round" stroke-linejoin="round"/>
        <path d="M179.214 1008.1C179.214 959.707 139.34 920.476 90.0618 920.476C40.8743 920.476 1 959.707 1 1008.1" stroke="url(#paint73_linear)" stroke-miterlimit="10" stroke-linecap="round" stroke-linejoin="round"/>
        <path d="M336.908 946.724C336.908 898.419 297.124 859.188 247.755 859.099C198.568 859.099 158.693 898.33 158.693 946.724" stroke="url(#paint74_linear)" stroke-miterlimit="10" stroke-linecap="round" stroke-linejoin="round"/>
        <path d="M179.214 885.426C179.214 837.121 139.34 797.89 90.0618 797.802C40.8743 797.802 1 837.033 1 885.426" stroke="url(#paint75_linear)" stroke-miterlimit="10" stroke-linecap="round" stroke-linejoin="round"/>
    </g>
    <defs>
    <linearGradient id="paint0_linear" x1="1351.89" y1="184.877" x2="1351.89" y2="302.481" gradientUnits="userSpaceOnUse">
    <stop stop-color="#FF0000"/>
    <stop offset="0.520833" stop-color="#212121"/>
    </linearGradient>
    <linearGradient id="paint1_linear" x1="1194.21" y1="246.167" x2="1194.21" y2="363.771" gradientUnits="userSpaceOnUse">
    <stop stop-color="#FF0000"/>
    <stop offset="0.520833" stop-color="#212121"/>
    </linearGradient>
    <linearGradient id="paint2_linear" x1="1351.89" y1="62.2903" x2="1351.89" y2="179.894" gradientUnits="userSpaceOnUse">
    <stop stop-color="#FF0000"/>
    <stop offset="0.520833" stop-color="#212121"/>
    </linearGradient>
    <linearGradient id="paint3_linear" x1="1194.21" y1="123.588" x2="1194.21" y2="241.192" gradientUnits="userSpaceOnUse">
    <stop stop-color="#FF0000"/>
    <stop offset="0.520833" stop-color="#212121"/>
    </linearGradient>
    <linearGradient id="paint4_linear" x1="1194.21" y1="1" x2="1194.21" y2="118.604" gradientUnits="userSpaceOnUse">
    <stop stop-color="#FF0000"/>
    <stop offset="0.520833" stop-color="#212121"/>
    </linearGradient>
    <linearGradient id="paint5_linear" x1="1351.89" y1="430.045" x2="1351.89" y2="547.649" gradientUnits="userSpaceOnUse">
    <stop stop-color="#FF0000"/>
    <stop offset="0.520833" stop-color="#212121"/>
    </linearGradient>
    <linearGradient id="paint6_linear" x1="1194.21" y1="491.334" x2="1194.21" y2="608.939" gradientUnits="userSpaceOnUse">
    <stop stop-color="#FF0000"/>
    <stop offset="0.520833" stop-color="#212121"/>
    </linearGradient>
    <linearGradient id="paint7_linear" x1="1351.89" y1="307.457" x2="1351.89" y2="425.061" gradientUnits="userSpaceOnUse">
    <stop stop-color="#FF0000"/>
    <stop offset="0.520833" stop-color="#212121"/>
    </linearGradient>
    <linearGradient id="paint8_linear" x1="1194.21" y1="368.755" x2="1194.21" y2="486.359" gradientUnits="userSpaceOnUse">
    <stop stop-color="#FF0000"/>
    <stop offset="0.520833" stop-color="#212121"/>
    </linearGradient>
    <linearGradient id="paint9_linear" x1="1351.89" y1="675.221" x2="1351.89" y2="792.825" gradientUnits="userSpaceOnUse">
    <stop stop-color="#FF0000"/>
    <stop offset="0.520833" stop-color="#212121"/>
    </linearGradient>
    <linearGradient id="paint10_linear" x1="1351.89" y1="552.633" x2="1351.89" y2="670.237" gradientUnits="userSpaceOnUse">
    <stop stop-color="#FF0000"/>
    <stop offset="0.520833" stop-color="#212121"/>
    </linearGradient>
    <linearGradient id="paint11_linear" x1="1194.21" y1="613.931" x2="1194.21" y2="731.535" gradientUnits="userSpaceOnUse">
    <stop stop-color="#FF0000"/>
    <stop offset="0.520833" stop-color="#212121"/>
    </linearGradient>
    <linearGradient id="paint12_linear" x1="1036.43" y1="552.633" x2="1036.43" y2="670.237" gradientUnits="userSpaceOnUse">
    <stop stop-color="#FF0000"/>
    <stop offset="0.520833" stop-color="#212121"/>
    </linearGradient>
    <linearGradient id="paint13_linear" x1="1351.89" y1="920.476" x2="1351.89" y2="1038.08" gradientUnits="userSpaceOnUse">
    <stop stop-color="#FF0000"/>
    <stop offset="0.520833" stop-color="#212121"/>
    </linearGradient>
    <linearGradient id="paint14_linear" x1="1194.21" y1="981.775" x2="1194.21" y2="1099.38" gradientUnits="userSpaceOnUse">
    <stop stop-color="#FF0000"/>
    <stop offset="0.520833" stop-color="#212121"/>
    </linearGradient>
    <linearGradient id="paint15_linear" x1="1036.43" y1="920.476" x2="1036.43" y2="1038.08" gradientUnits="userSpaceOnUse">
    <stop stop-color="#FF0000"/>
    <stop offset="0.520833" stop-color="#212121"/>
    </linearGradient>
    <linearGradient id="paint16_linear" x1="1351.89" y1="797.802" x2="1351.89" y2="915.405" gradientUnits="userSpaceOnUse">
    <stop stop-color="#FF0000"/>
    <stop offset="0.520833" stop-color="#212121"/>
    </linearGradient>
    <linearGradient id="paint17_linear" x1="1194.21" y1="859.099" x2="1194.21" y2="976.703" gradientUnits="userSpaceOnUse">
    <stop stop-color="#FF0000"/>
    <stop offset="0.520833" stop-color="#212121"/>
    </linearGradient>
    <linearGradient id="paint18_linear" x1="1036.43" y1="797.802" x2="1036.43" y2="915.405" gradientUnits="userSpaceOnUse">
    <stop stop-color="#FF0000"/>
    <stop offset="0.520833" stop-color="#212121"/>
    </linearGradient>
    <linearGradient id="paint19_linear" x1="1194.21" y1="736.511" x2="1194.21" y2="854.115" gradientUnits="userSpaceOnUse">
    <stop stop-color="#FF0000"/>
    <stop offset="0.520833" stop-color="#212121"/>
    </linearGradient>
    <linearGradient id="paint20_linear" x1="1036.42" y1="184.877" x2="1036.42" y2="302.481" gradientUnits="userSpaceOnUse">
    <stop stop-color="#FF0000"/>
    <stop offset="0.520833" stop-color="#212121"/>
    </linearGradient>
    <linearGradient id="paint21_linear" x1="1036.42" y1="62.2903" x2="1036.42" y2="179.894" gradientUnits="userSpaceOnUse">
    <stop stop-color="#FF0000"/>
    <stop offset="0.520833" stop-color="#212121"/>
    </linearGradient>
    <linearGradient id="paint22_linear" x1="878.732" y1="123.588" x2="878.732" y2="241.192" gradientUnits="userSpaceOnUse">
    <stop stop-color="#FF0000"/>
    <stop offset="0.520833" stop-color="#212121"/>
    </linearGradient>
    <linearGradient id="paint23_linear" x1="878.732" y1="1" x2="878.732" y2="118.604" gradientUnits="userSpaceOnUse">
    <stop stop-color="#FF0000"/>
    <stop offset="0.520833" stop-color="#212121"/>
    </linearGradient>
    <linearGradient id="paint24_linear" x1="1036.42" y1="430.045" x2="1036.42" y2="547.649" gradientUnits="userSpaceOnUse">
    <stop stop-color="#FF0000"/>
    <stop offset="0.520833" stop-color="#212121"/>
    </linearGradient>
    <linearGradient id="paint25_linear" x1="1036.42" y1="307.457" x2="1036.42" y2="425.06" gradientUnits="userSpaceOnUse">
    <stop stop-color="#FF0000"/>
    <stop offset="0.520833" stop-color="#212121"/>
    </linearGradient>
    <linearGradient id="paint26_linear" x1="878.732" y1="368.754" x2="878.732" y2="486.358" gradientUnits="userSpaceOnUse">
    <stop stop-color="#FF0000"/>
    <stop offset="0.520833" stop-color="#212121"/>
    </linearGradient>
    <linearGradient id="paint27_linear" x1="878.732" y1="246.167" x2="878.732" y2="363.771" gradientUnits="userSpaceOnUse">
    <stop stop-color="#FF0000"/>
    <stop offset="0.520833" stop-color="#212121"/>
    </linearGradient>
    <linearGradient id="paint28_linear" x1="1036.42" y1="675.221" x2="1036.42" y2="792.825" gradientUnits="userSpaceOnUse">
    <stop stop-color="#FF0000"/>
    <stop offset="0.520833" stop-color="#212121"/>
    </linearGradient>
    <linearGradient id="paint29_linear" x1="878.732" y1="613.931" x2="878.732" y2="731.535" gradientUnits="userSpaceOnUse">
    <stop stop-color="#FF0000"/>
    <stop offset="0.520833" stop-color="#212121"/>
    </linearGradient>
    <linearGradient id="paint30_linear" x1="720.951" y1="552.634" x2="720.951" y2="670.238" gradientUnits="userSpaceOnUse">
    <stop stop-color="#FF0000"/>
    <stop offset="0.520833" stop-color="#212121"/>
    </linearGradient>
    <linearGradient id="paint31_linear" x1="878.732" y1="491.343" x2="878.732" y2="608.947" gradientUnits="userSpaceOnUse">
    <stop stop-color="#FF0000"/>
    <stop offset="0.520833" stop-color="#212121"/>
    </linearGradient>
    <linearGradient id="paint32_linear" x1="878.732" y1="981.775" x2="878.732" y2="1099.38" gradientUnits="userSpaceOnUse">
    <stop stop-color="#FF0000"/>
    <stop offset="0.520833" stop-color="#212121"/>
    </linearGradient>
    <linearGradient id="paint33_linear" x1="720.951" y1="920.476" x2="720.951" y2="1038.08" gradientUnits="userSpaceOnUse">
    <stop stop-color="#FF0000"/>
    <stop offset="0.520833" stop-color="#212121"/>
    </linearGradient>
    <linearGradient id="paint34_linear" x1="878.732" y1="859.099" x2="878.732" y2="976.703" gradientUnits="userSpaceOnUse">
    <stop stop-color="#FF0000"/>
    <stop offset="0.520833" stop-color="#212121"/>
    </linearGradient>
    <linearGradient id="paint35_linear" x1="720.951" y1="797.801" x2="720.951" y2="915.405" gradientUnits="userSpaceOnUse">
    <stop stop-color="#FF0000"/>
    <stop offset="0.520833" stop-color="#212121"/>
    </linearGradient>
    <linearGradient id="paint36_linear" x1="878.732" y1="736.511" x2="878.732" y2="854.115" gradientUnits="userSpaceOnUse">
    <stop stop-color="#FF0000"/>
    <stop offset="0.520833" stop-color="#212121"/>
    </linearGradient>
    <linearGradient id="paint37_linear" x1="720.951" y1="184.877" x2="720.951" y2="302.481" gradientUnits="userSpaceOnUse">
    <stop stop-color="#FF0000"/>
    <stop offset="0.520833" stop-color="#212121"/>
    </linearGradient>
    <linearGradient id="paint38_linear" x1="563.267" y1="246.167" x2="563.267" y2="363.771" gradientUnits="userSpaceOnUse">
    <stop stop-color="#FF0000"/>
    <stop offset="0.520833" stop-color="#212121"/>
    </linearGradient>
    <linearGradient id="paint39_linear" x1="405.574" y1="184.877" x2="405.574" y2="302.481" gradientUnits="userSpaceOnUse">
    <stop stop-color="#FF0000"/>
    <stop offset="0.520833" stop-color="#212121"/>
    </linearGradient>
    <linearGradient id="paint40_linear" x1="720.951" y1="62.2903" x2="720.951" y2="179.894" gradientUnits="userSpaceOnUse">
    <stop stop-color="#FF0000"/>
    <stop offset="0.520833" stop-color="#212121"/>
    </linearGradient>
    <linearGradient id="paint41_linear" x1="563.267" y1="123.588" x2="563.267" y2="241.192" gradientUnits="userSpaceOnUse">
    <stop stop-color="#FF0000"/>
    <stop offset="0.520833" stop-color="#212121"/>
    </linearGradient>
    <linearGradient id="paint42_linear" x1="405.574" y1="62.2903" x2="405.574" y2="179.894" gradientUnits="userSpaceOnUse">
    <stop stop-color="#FF0000"/>
    <stop offset="0.520833" stop-color="#212121"/>
    </linearGradient>
    <linearGradient id="paint43_linear" x1="563.267" y1="1" x2="563.267" y2="118.604" gradientUnits="userSpaceOnUse">
    <stop stop-color="#FF0000"/>
    <stop offset="0.520833" stop-color="#212121"/>
    </linearGradient>
    <linearGradient id="paint44_linear" x1="720.951" y1="430.045" x2="720.951" y2="547.649" gradientUnits="userSpaceOnUse">
    <stop stop-color="#FF0000"/>
    <stop offset="0.520833" stop-color="#212121"/>
    </linearGradient>
    <linearGradient id="paint45_linear" x1="720.951" y1="307.456" x2="720.951" y2="425.06" gradientUnits="userSpaceOnUse">
    <stop stop-color="#FF0000"/>
    <stop offset="0.520833" stop-color="#212121"/>
    </linearGradient>
    <linearGradient id="paint46_linear" x1="563.267" y1="368.755" x2="563.267" y2="486.359" gradientUnits="userSpaceOnUse">
    <stop stop-color="#FF0000"/>
    <stop offset="0.520833" stop-color="#212121"/>
    </linearGradient>
    <linearGradient id="paint47_linear" x1="720.951" y1="675.221" x2="720.951" y2="792.825" gradientUnits="userSpaceOnUse">
    <stop stop-color="#FF0000"/>
    <stop offset="0.520833" stop-color="#212121"/>
    </linearGradient>
    <linearGradient id="paint48_linear" x1="563.267" y1="736.511" x2="563.267" y2="854.115" gradientUnits="userSpaceOnUse">
    <stop stop-color="#FF0000"/>
    <stop offset="0.520833" stop-color="#212121"/>
    </linearGradient>
    <linearGradient id="paint49_linear" x1="405.574" y1="675.221" x2="405.574" y2="792.825" gradientUnits="userSpaceOnUse">
    <stop stop-color="#FF0000"/>
    <stop offset="0.520833" stop-color="#212121"/>
    </linearGradient>
    <linearGradient id="paint50_linear" x1="563.267" y1="613.931" x2="563.267" y2="731.535" gradientUnits="userSpaceOnUse">
    <stop stop-color="#FF0000"/>
    <stop offset="0.520833" stop-color="#212121"/>
    </linearGradient>
    <linearGradient id="paint51_linear" x1="405.574" y1="552.634" x2="405.574" y2="670.238" gradientUnits="userSpaceOnUse">
    <stop stop-color="#FF0000"/>
    <stop offset="0.520833" stop-color="#212121"/>
    </linearGradient>
    <linearGradient id="paint52_linear" x1="563.267" y1="491.343" x2="563.267" y2="608.947" gradientUnits="userSpaceOnUse">
    <stop stop-color="#FF0000"/>
    <stop offset="0.520833" stop-color="#212121"/>
    </linearGradient>
    <linearGradient id="paint53_linear" x1="247.801" y1="246.167" x2="247.801" y2="363.771" gradientUnits="userSpaceOnUse">
    <stop stop-color="#FF0000"/>
    <stop offset="0.520833" stop-color="#212121"/>
    </linearGradient>
    <linearGradient id="paint54_linear" x1="90.1072" y1="184.877" x2="90.1072" y2="302.481" gradientUnits="userSpaceOnUse">
    <stop stop-color="#FF0000"/>
    <stop offset="0.520833" stop-color="#212121"/>
    </linearGradient>
    <linearGradient id="paint55_linear" x1="247.801" y1="123.588" x2="247.801" y2="241.192" gradientUnits="userSpaceOnUse">
    <stop stop-color="#FF0000"/>
    <stop offset="0.520833" stop-color="#212121"/>
    </linearGradient>
    <linearGradient id="paint56_linear" x1="90.1072" y1="62.2903" x2="90.1072" y2="179.894" gradientUnits="userSpaceOnUse">
    <stop stop-color="#FF0000"/>
    <stop offset="0.520833" stop-color="#212121"/>
    </linearGradient>
    <linearGradient id="paint57_linear" x1="247.801" y1="1" x2="247.801" y2="118.604" gradientUnits="userSpaceOnUse">
    <stop stop-color="#FF0000"/>
    <stop offset="0.520833" stop-color="#212121"/>
    </linearGradient>
    <linearGradient id="paint58_linear" x1="405.574" y1="430.045" x2="405.574" y2="547.649" gradientUnits="userSpaceOnUse">
    <stop stop-color="#FF0000"/>
    <stop offset="0.520833" stop-color="#212121"/>
    </linearGradient>
    <linearGradient id="paint59_linear" x1="90.1072" y1="430.045" x2="90.1072" y2="547.649" gradientUnits="userSpaceOnUse">
    <stop stop-color="#FF0000"/>
    <stop offset="0.520833" stop-color="#212121"/>
    </linearGradient>
    <linearGradient id="paint60_linear" x1="405.574" y1="307.456" x2="405.574" y2="425.06" gradientUnits="userSpaceOnUse">
    <stop stop-color="#FF0000"/>
    <stop offset="0.520833" stop-color="#212121"/>
    </linearGradient>
    <linearGradient id="paint61_linear" x1="247.801" y1="368.755" x2="247.801" y2="486.359" gradientUnits="userSpaceOnUse">
    <stop stop-color="#FF0000"/>
    <stop offset="0.520833" stop-color="#212121"/>
    </linearGradient>
    <linearGradient id="paint62_linear" x1="90.1072" y1="307.456" x2="90.1072" y2="425.06" gradientUnits="userSpaceOnUse">
    <stop stop-color="#FF0000"/>
    <stop offset="0.520833" stop-color="#212121"/>
    </linearGradient>
    <linearGradient id="paint63_linear" x1="406.107" y1="798" x2="406.107" y2="915.604" gradientUnits="userSpaceOnUse">
    <stop stop-color="#FF0000"/>
    <stop offset="0.520833" stop-color="#212121"/>
    </linearGradient>
    <linearGradient id="paint64_linear" x1="563.107" y1="864" x2="563.107" y2="981.604" gradientUnits="userSpaceOnUse">
    <stop stop-color="#FF0000"/>
    <stop offset="0.520833" stop-color="#212121"/>
    </linearGradient>
    <linearGradient id="paint65_linear" x1="563.107" y1="982" x2="563.107" y2="1099.6" gradientUnits="userSpaceOnUse">
    <stop stop-color="#FF0000"/>
    <stop offset="0.520833" stop-color="#212121"/>
    </linearGradient>
    <linearGradient id="paint66_linear" x1="247.801" y1="736.511" x2="247.801" y2="854.115" gradientUnits="userSpaceOnUse">
    <stop stop-color="#FF0000"/>
    <stop offset="0.520833" stop-color="#212121"/>
    </linearGradient>
    <linearGradient id="paint67_linear" x1="90.1072" y1="675.221" x2="90.1072" y2="792.825" gradientUnits="userSpaceOnUse">
    <stop stop-color="#FF0000"/>
    <stop offset="0.520833" stop-color="#212121"/>
    </linearGradient>
    <linearGradient id="paint68_linear" x1="247.801" y1="613.931" x2="247.801" y2="731.535" gradientUnits="userSpaceOnUse">
    <stop stop-color="#FF0000"/>
    <stop offset="0.520833" stop-color="#212121"/>
    </linearGradient>
    <linearGradient id="paint69_linear" x1="90.1072" y1="552.634" x2="90.1072" y2="670.238" gradientUnits="userSpaceOnUse">
    <stop stop-color="#FF0000"/>
    <stop offset="0.520833" stop-color="#212121"/>
    </linearGradient>
    <linearGradient id="paint70_linear" x1="247.801" y1="491.343" x2="247.801" y2="608.947" gradientUnits="userSpaceOnUse">
    <stop stop-color="#FF0000"/>
    <stop offset="0.520833" stop-color="#212121"/>
    </linearGradient>
    <linearGradient id="paint71_linear" x1="405.574" y1="920.476" x2="405.574" y2="1038.08" gradientUnits="userSpaceOnUse">
    <stop stop-color="#FF0000"/>
    <stop offset="0.520833" stop-color="#212121"/>
    </linearGradient>
    <linearGradient id="paint72_linear" x1="247.801" y1="981.774" x2="247.801" y2="1099.38" gradientUnits="userSpaceOnUse">
    <stop stop-color="#FF0000"/>
    <stop offset="0.520833" stop-color="#212121"/>
    </linearGradient>
    <linearGradient id="paint73_linear" x1="90.1072" y1="920.476" x2="90.1072" y2="1038.08" gradientUnits="userSpaceOnUse">
    <stop stop-color="#FF0000"/>
    <stop offset="0.520833" stop-color="#212121"/>
    </linearGradient>
    <linearGradient id="paint74_linear" x1="247.801" y1="859.099" x2="247.801" y2="976.703" gradientUnits="userSpaceOnUse">
    <stop stop-color="#FF0000"/>
    <stop offset="0.520833" stop-color="#212121"/>
    </linearGradient>
    <linearGradient id="paint75_linear" x1="90.1072" y1="797.802" x2="90.1072" y2="915.405" gradientUnits="userSpaceOnUse">
    <stop stop-color="#FF0000"/>
    <stop offset="0.520833" stop-color="#212121"/>
    </linearGradient>
    </defs>
</svg>
